/* XPM */
static const char * admin_xpm[] = {
"16 16 7 1",
" 	c None",
".	c #BABDB6",
"+	c #888A85",
"@	c #EEEEEC",
"#	c #204A87",
"$	c #729FCF",
"%	c #3465A4",
"                ",
"    .        +  ",
"   .@.      +@+ ",
"    .@.    +@+  ",
" .  .@.   +++   ",
".@..@@.   ++    ",
" .@@@@@.++      ",
"  ....@@.+      ",
"      .@@.      ",
"   ##++.@@.     ",
"  #$$#+ .@@.    ",
" #$$%$#  .@@.   ",
"#$$%%$#   .@@.  ",
"#$%%$#     .@.  ",
"#$$$#       ..  ",
" ###            "};
