<?xml version="1.0" encoding="UTF-8"?>
<!DOCTYPE svg PUBLIC "-//W3C//DTD SVG 1.1//EN" "http://www.w3.org/Graphics/SVG/1.1/DTD/svg11.dtd">
<!-- Creator: CorelDRAW -->
<svg xmlns="http://www.w3.org/2000/svg" xml:space="preserve" width="4.619in" height="3.854in" style="shape-rendering:geometricPrecision; text-rendering:geometricPrecision; image-rendering:optimizeQuality; fill-rule:evenodd; clip-rule:evenodd" viewBox="0 0 4.619 3.854" xmlns:xlink="http://www.w3.org/1999/xlink">
 <defs>
  <style type="text/css">
   <![CDATA[
    .fil0 {fill:black}
   ]]>
  </style>
 </defs>
 <g id="Layer_x0020_1">
  <metadata id="CorelCorpID_0Corel-Layer"/>
  <g id="_57672680">
   <path id="_57718848" class="fil0" d="M3.94838 2.90459l-3.37499 0 -0.381909 0c-0.0919213,0 -0.166701,0.0747953 -0.166701,0.16672l0 0.591043c0,0.0445315 0.0173425,0.0863976 0.0488346,0.11789 0.0314882,0.0314882 0.0733465,0.0488307 0.117866,0.0488307l4.23604 -3.93701e-006c0.0445236,0 0.086378,-0.0173386 0.117866,-0.0488268 0.0314921,-0.0314921 0.0488346,-0.0733543 0.0488346,-0.117886l0 -0.591047c0,-0.0445315 -0.0173425,-0.0863937 -0.0488346,-0.117886 -0.0314882,-0.0314882 -0.0733465,-0.0488307 -0.117866,-0.0488307l-0.479134 -3.93701e-006 0 0.0972244 0.479134 0c0.0185512,0 0.0359921,0.00722835 0.0491181,0.0203583 0.0131299,0.013126 0.0203583,0.0305787 0.0203583,0.0491378l3.93701e-006 0.591043c0,0.0383228 -0.0311732,0.0694961 -0.0694803,0.0694961l-4.23604 0c-0.0185512,0 -0.0359961,-0.00722441 -0.049122,-0.0203504 -0.013126,-0.0131299 -0.0203583,-0.0305787 -0.0203583,-0.0491417l0 -0.591047c0,-0.018563 0.00723228,-0.0360118 0.0203583,-0.0491378 0.013126,-0.0131299 0.0305709,-0.0203543 0.049122,-0.0203543l0.381909 -3.93701e-006 3.37499 0 0 -0.0972244z"/>
   <path id="_58508176" class="fil0" d="M4.09237 0.309791c-0.000330709,0.0127835 -0.000751969,0.0232953 -0.00117717,0.0270591 -0.00327559,0.028811 0,0.0424409 -0.0830945,0.0424409 -0.0830827,-3.93701e-006 -0.079811,-0.013626 -0.0830866,-0.0424409 -0.00106693,-0.00938189 -0.00205512,-0.0606969 -0.00195276,-0.0847008 0.000102362,-0.0240118 0.000885827,-0.0753228 0.00195276,-0.0847008 0.00327559,-0.0288228 0,-0.0424449 0.0830866,-0.0424449 0.0830945,0 0.079815,0.013626 0.0830945,0.0424449 0.000444882,0.00392913 0.00084252,0.0152362 0.00116142,0.0288031l0.113665 -3.93701e-006c-0.000728346,-0.0257559 -0.00194882,-0.0472835 -0.00322047,-0.0585 -0.00655512,-0.0576378 0.0161496,-0.112827 -0.194567,-0.112827 -0.210717,0 -0.188016,0.0551929 -0.194567,0.112827 -0.00212992,0.0187638 -0.00411024,0.0663858 -0.00390551,0.114402 0.000208661,0.0480079 0.00177165,0.0956339 0.00390551,0.114398 0.00655512,0.0576339 -0.0161535,0.112827 0.194567,0.112827 0.21072,0 0.188012,-0.055189 0.194567,-0.112827 0.00124803,-0.0109646 0.00229528,-0.0317717 0.00299606,-0.0567559l-0.113425 0z"/>
   <polygon id="_57069896" class="fil0" points="2.7446,0.0364488 2.6337,0.360437 2.52278,0.0364488 2.35687,0.0355787 2.35687,0.470472 2.46778,0.470472 2.46778,0.14648 2.57867,0.470472 2.68959,0.470472 2.79962,0.14648 2.79962,0.470472 2.91052,0.470472 2.91052,0.0355787 "/>
   <polygon id="_56712032" class="fil0" points="4.23092,0.0355787 4.54967,0.0355787 4.54967,0.14648 4.44574,0.14648 4.44574,0.470472 4.33484,0.470472 4.33484,0.14648 4.23092,0.14648 "/>
   <polygon id="_58293864" class="fil0" points="3.37598,0.470472 3.50319,0.0351457 3.66853,0.0351457 3.79602,0.470472 3.68513,0.470472 3.65893,0.38052 3.5134,0.38052 3.53402,0.309791 3.63796,0.309791 3.58644,0.132508 3.48688,0.470472 "/>
   <path id="_57704664" class="fil0" d="M2.08978 0.125004c0.0830906,0 0.079811,0.013626 0.0830906,0.0424449 0.00106299,0.00937795 0.00184646,0.060689 0.00195276,0.0847008 9.84252e-005,0.0240039 -0.000889764,0.0753189 -0.00195276,0.0847008 -0.00327559,0.028811 0,0.0424409 -0.0830906,0.0424409 -0.0830906,-3.93701e-006 -0.079815,-0.013626 -0.0830906,-0.0424409 -0.00106693,-0.00938189 -0.00205512,-0.0606969 -0.00195276,-0.0847008 0.000102362,-0.0240118 0.000885827,-0.0753228 0.00195276,-0.0847008 0.00327559,-0.0288228 0,-0.0424449 0.0830906,-0.0424449l0.000129921 -0.100083c-0.21072,0 -0.188016,0.0551929 -0.194567,0.112827 -0.00213386,0.0187638 -0.00411024,0.0663858 -0.00390551,0.114402 0.000204724,0.0480079 0.00177165,0.0956339 0.00390551,0.114398 0.00655118,0.0576339 -0.0161535,0.112827 0.194567,0.112827 0.21072,0 0.188012,-0.055189 0.194567,-0.112827 0.00212992,-0.0187638 0.00369685,-0.0663858 0.00390157,-0.114398 0.000204724,-0.0480197 -0.00177165,-0.0956378 -0.00390157,-0.114402 -0.00655512,-0.0576378 0.0161496,-0.112827 -0.194567,-0.112827l-0.000129921 0.100083z"/>
   <path id="_57094768" class="fil0" d="M1.71532 0.309791c-0.000334646,0.0127835 -0.000748031,0.0232953 -0.00117717,0.0270591 -0.00327559,0.028811 0,0.0424409 -0.0830945,0.0424409 -0.0830866,-3.93701e-006 -0.079811,-0.013626 -0.0830906,-0.0424409 -0.00106299,-0.00938189 -0.00205118,-0.0606969 -0.00194882,-0.0847008 0.000102362,-0.0240118 0.000885827,-0.0753228 0.00194882,-0.0847008 0.00327953,-0.0288228 0,-0.0424449 0.0830906,-0.0424449 0.0830945,0 0.079815,0.013626 0.0830945,0.0424449 0.000448819,0.00392913 0.00084252,0.0152362 0.00116142,0.0288031l0.113665 -3.93701e-006c-0.000728346,-0.0257559 -0.00194882,-0.0472835 -0.00322441,-0.0585 -0.00655118,-0.0576378 0.0161535,-0.112827 -0.194563,-0.112827 -0.210717,0 -0.188016,0.0551929 -0.194567,0.112827 -0.00213386,0.0187638 -0.00411024,0.0663858 -0.00390157,0.114402 0.000200787,0.0480079 0.00176772,0.0956339 0.00390157,0.114398 0.00655118,0.0576339 -0.0161535,0.112827 0.194567,0.112827 0.210717,0 0.188012,-0.055189 0.194563,-0.112827 0.00124803,-0.0109646 0.00229921,-0.0317717 0.003,-0.0567559l-0.113425 0z"/>
   <path id="_57649192" class="fil0" d="M3.18056 0.371012l-0.0672953 -3.93701e-005 0 -0.0992008 0.0672795 -0.000405512c0.0830866,0 0.0805079,-0.013622 0.0837835,-0.0424409 0.00107087,-0.00938583 0.000846457,-0.00167323 0.000744094,-0.0256811 -9.84252e-005,-0.0240079 0.000322835,-0.0157638 -0.000744094,-0.0251457 -0.00327165,-0.028815 -0.00069685,-0.0424449 -0.0837874,-0.0424449l-0.067311 0.000177165 0.000114173 0.334205 -0.111126 0 0 -0.434457 0.178343 -3.93701e-006c0.210713,0 0.187618,0.0553425 0.195374,0.112827 0.00092126,0.00681102 0.000917323,0.038252 0.000917323,0.0551969 3.93701e-006,0.0136142 0,0.0450551 -0.000917323,0.0550236 -0.0053189,0.0577677 0.0153386,0.11239 -0.195374,0.11239z"/>
   <path id="_58296408" class="fil0" d="M4.35506 2.42522c0.0830906,0 0.079815,0.013622 0.0830906,0.0424409 0.00106693,0.00937795 0.00184646,0.0606929 0.00194882,0.0847008 0.000106299,0.0240039 -0.00088189,0.0753189 -0.00194882,0.0847008 -0.00327559,0.0288189 0,0.0424409 -0.0830945,0.0424409 -0.0830866,0 -0.079811,-0.013622 -0.0830906,-0.0424409 -0.00106299,-0.00938189 -0.00205118,-0.0606929 -0.00194882,-0.0847008 0.000106299,-0.0240079 0.000885827,-0.0753189 0.00194882,-0.0847008 0.00327953,-0.0288189 0,-0.0424409 0.0830906,-0.0424409l0.000133858 -0.100087c-0.210717,0 -0.188016,0.0551929 -0.194567,0.112827 -0.00213386,0.0187638 -0.00411024,0.0663858 -0.00390157,0.114402 0.000204724,0.0480118 0.00176772,0.0956378 0.00390157,0.114398 0.00655118,0.0576339 -0.0161496,0.112827 0.194567,0.112827 0.210717,-3.93701e-006 0.188012,-0.055189 0.194563,-0.112827 0.00213386,-0.0187598 0.00370079,-0.0663858 0.00390157,-0.114398 0.000208661,-0.0480157 -0.00176772,-0.0956378 -0.00390157,-0.114402 -0.00655118,-0.0576339 0.0161535,-0.112823 -0.194563,-0.112823l-0.000129921 0.100083z"/>
   <polygon id="_58327216" class="fil0" points="2.59974,2.76647 2.72694,2.33114 2.89228,2.33114 3.01978,2.76647 2.90887,2.76647 2.88268,2.67652 2.73715,2.67652 2.75777,2.60579 2.86172,2.60579 2.81019,2.4285 2.71063,2.76647 "/>
   <polygon id="_57116472" class="fil0" points="1.67554,2.76647 1.80275,2.33114 1.96809,2.33114 2.09558,2.76647 1.98468,2.76647 1.95848,2.67652 1.81296,2.67652 1.83358,2.60579 1.93753,2.60579 1.886,2.4285 1.78644,2.76647 "/>
   <polygon id="_58044672" class="fil0" points="0.653559,2.33579 0.653559,2.77068 0.54265,2.77068 0.54265,2.33579 "/>
   <polygon id="_57661776" class="fil0" points="1.30239,2.33579 1.30239,2.77068 1.19148,2.77068 1.19148,2.33579 "/>
   <polygon id="_59329400" class="fil0" points="1.36133,2.33579 1.68009,2.33579 1.68009,2.44669 1.57616,2.44669 1.57616,2.77068 1.46526,2.77068 1.46526,2.44669 1.36133,2.44669 "/>
   <polygon id="_59330448" class="fil0" points="2.26693,2.66065 2.26693,2.33579 2.15602,2.33579 2.15602,2.77111 2.44245,2.77111 2.44245,2.66065 "/>
   <polygon id="_59217328" class="fil0" points="4.08988,2.33579 4.08988,2.77068 3.97898,2.77068 3.97898,2.33579 "/>
   <path id="_59218232" class="fil0" d="M3.65281 2.33605l0.0602598 0c0.210717,0 0.188008,0.0554488 0.194563,0.113087 0.00213386,0.0187638 0.0041063,0.0524094 0.00390157,0.100425 -0.000200787,0.0480118 -0.00177165,0.0895315 -0.00390157,0.108295 -0.00655118,0.0576339 0.0161496,0.112827 -0.194567,0.112827l-0.193433 -3.93701e-006 0 -0.43463 0.133177 0 -0.00174409 0.0999449 -0.0200827 -0.000133858 0 0.235618 0.0819528 -0.000885827c0.0830945,0 0.079815,-0.0136181 0.0830906,-0.042437 0.00107087,-0.00938189 0.00205512,-0.0545866 0.00195276,-0.0785945 -0.000102362,-0.0240118 -0.000885827,-0.0613465 -0.00195276,-0.0707283 -0.00327559,-0.0288189 0,-0.0424409 -0.0830906,-0.0424409l-0.0618701 -0.000397638 0.00174409 -0.0999449z"/>
   <path id="_59219920" class="fil0" d="M3.44683 2.55236l-0.00011811 -0.216575 -0.113319 0 0 0.216575c0.000102362,0.0240039 -0.000885827,0.0753189 -0.00195276,0.0847008 -0.00327559,0.0288189 0,0.0424409 -0.0830906,0.0424409 -0.0830906,0 -0.079815,-0.013622 -0.0830906,-0.0424409 -0.00106693,-0.00938189 -0.00188583,-0.0606929 -0.00178346,-0.0847008l0.000165354 -0.216571 -0.11363 0 0 0.216571c0.000204724,0.0480118 0.00176772,0.0956378 0.00390157,0.114398 0.00655512,0.0576339 -0.0161535,0.112827 0.194567,0.112827 0.210717,-3.93701e-006 0.188012,-0.055189 0.194567,-0.112827 0.00212992,-0.0187598 0.00357874,-0.0663858 0.00378346,-0.114398z"/>
   <path id="_59221088" class="fil0" d="M1.00649 2.61c-0.000334646,0.0127835 -0.000748031,0.0232953 -0.00117717,0.0270551 -0.00327559,0.0288189 0,0.0424409 -0.0830906,0.0424409 -0.0830906,0 -0.079815,-0.013622 -0.0830945,-0.0424409 -0.00106299,-0.00938189 -0.00205118,-0.0606929 -0.00194882,-0.0847008 0.000102362,-0.0240079 0.000885827,-0.0753189 0.00194882,-0.0847008 0.00327953,-0.0288189 0,-0.0424409 0.0830945,-0.0424409 0.0830906,0 0.079811,0.013622 0.0830906,0.0424409 0.000448819,0.00392913 0.00084252,0.00125984 0.00116142,0.0148307l0.113665 0c-0.000732283,-0.0257638 -0.00194882,-0.033315 -0.00322441,-0.0445315 -0.00655118,-0.0576339 0.0161535,-0.112823 -0.194567,-0.112823 -0.210717,-3.93701e-006 -0.188012,0.055189 -0.194563,0.112823 -0.00213386,0.0187638 -0.0041063,0.0663858 -0.00390157,0.114402 0.000204724,0.0480118 0.00176772,0.0956378 0.00390157,0.114398 0.00655118,0.0576339 -0.0161535,0.112827 0.194563,0.112827 0.21072,-3.93701e-006 0.188016,-0.055189 0.194567,-0.112827 0.00124409,-0.0109606 0.00229921,-0.0317677 0.003,-0.056752l-0.113425 0z"/>
   <polygon id="_59222240" class="fil0" points="0.922083,2.54014 0.922083,2.61 1.11991,2.61 1.11991,2.54014 "/>
   <path id="_59224136" class="fil0" d="M0.212984 2.33605l0.060252 0c0.21072,0 0.188016,0.0554488 0.194567,0.113087 0.00213386,0.0187638 0.00411024,0.0524094 0.00390157,0.100425 -0.000200787,0.0480118 -0.00176772,0.0895315 -0.00390157,0.108295 -0.00655118,0.0576339 0.0161535,0.112827 -0.194567,0.112827l-0.193433 -3.93701e-006 0 -0.43463 0.133181 0 -0.00174803 0.0999449 -0.0200866 -0.000133858 0 0.235618 0.0819606 -0.000885827c0.0830866,0 0.079811,-0.0136181 0.0830866,-0.042437 0.00107087,-0.00938189 0.00205512,-0.0545866 0.00195276,-0.0785945 -9.84252e-005,-0.0240118 -0.00088189,-0.0613465 -0.00195276,-0.0707283 -0.00327165,-0.0288189 0,-0.0424409 -0.0830866,-0.0424409l-0.061874 -0.000397638 0.00174803 -0.0999449z"/>
   <path id="_59225576" class="fil0" d="M1.02375 2.10803l-0.694197 -0.000811024c-0.100445,0 -0.181866,-0.0814291 -0.181866,-0.181862l0 -1.05667c0,-0.100449 0.0814173,-0.181862 0.181866,-0.181862l0.434472 -0.000492126c0.0521732,0 0.0944803,-0.0422913 0.0944803,-0.0944803l0.00127165 -0.422484c0,-0.0218661 0.0177323,-0.0395945 0.0395984,-0.0395945l0.254705 -3.93701e-006c0.0218661,0 0.0396102,0.0177323 0.0396102,0.0396024l0.00261417 1.8992c0,0.0218701 -0.0177323,0.0396181 -0.0395984,0.0396181l-0.132957 -0.00015748 -0.00323228 0.0943622 0.173732 -5.11811e-005c0.0521732,0 0.0944803,-0.0422913 0.0944803,-0.0944803l0 -1.97884c0,-0.0521732 -0.0423071,-0.0944685 -0.0944803,-0.0944685l-0.334165 -3.93701e-006c-0.0521732,0 -0.0944803,0.0422992 -0.0944803,0.0944724l0.000476378 0.423543c0,0.0218701 -0.0177323,0.0396142 -0.0396142,0.0396142l-0.396913 -0.000724409c-0.153122,0 -0.277256,0.124114 -0.277256,0.27724l0 1.05666c0,0.15311 0.124134,0.277244 0.277256,0.277244l0.690965 -0.000204724 0.00323228 -0.0943622z"/>
   <path id="_59227312" class="fil0" d="M0.765594 1.71909l0 -0.68361c0,-0.0572913 -0.0464488,-0.103732 -0.103748,-0.103732 -0.0572874,0 -0.103732,0.0464449 -0.103732,0.103732l3.93701e-006 0.737925c0,0.0572835 0.0464409,0.103748 0.103728,0.103748 0.0572992,-3.93701e-006 0.103744,-0.0464606 0.103744,-0.103748l3.93701e-006 -0.054315 0.0942992 0.00323228 0 0.0510827c0,0.109362 -0.0886732,0.198035 -0.198047,0.198035 -0.109362,-3.93701e-006 -0.198031,-0.0886693 -0.198031,-0.198035l3.93701e-006 -0.737925c0,-0.109366 0.0886654,-0.198031 0.198028,-0.198031 0.109374,0 0.198047,0.0886693 0.198047,0.198031l0 0.686843 -0.0942992 -0.00323228z"/>
   <path id="_59229240" class="fil0" d="M1.68356 2.10802l-0.129925 7.87402e-006c-0.0218819,0 -0.0396142,-0.017748 -0.0396142,-0.0396142l0.00159449 -1.34114c0,-0.0218819 0.0177283,-0.0396102 0.0396102,-0.0396102l0.254705 -3.93701e-006c0.0218819,0 0.0396142,0.0177323 0.0396142,0.0396142l0.00261024 1.34113c0,0.021878 -0.0177323,0.0396102 -0.0395984,0.0396102l-0.128996 7.87402e-006 0 0.0939803 0.166543 0.000173228c0.052185,0 0.0944764,-0.0422913 0.0944764,-0.0944646l3.93701e-006 -1.42079c0,-0.0521772 -0.0422953,-0.0944803 -0.0944843,-0.0944803l-0.334177 0c-0.0521732,0 -0.0944685,0.0423071 -0.0944685,0.0944803l-0.00019685 1.42042c0,0.052185 0.0419764,0.0944803 0.0941457,0.0944803l0.168157 0.000177165 0 -0.0939803z"/>
   <path id="_59230816" class="fil0" d="M2.88351 0.951547l-0.279823 -0.000385827c-0.0860945,0 -0.155909,0.0698268 -0.155909,0.155925 0,0.0861063 0.069811,0.155917 0.155909,0.155917l0.383378 0.00104331c0.100433,0 0.181862,0.0814331 0.181862,0.18187l-0.0012874 0.477268c0,0.100449 -0.0814291,0.18187 -0.181866,0.18187l-0.761024 0.00137795c-0.0218661,0 -0.0396142,-0.0177441 -0.0396142,-0.0396063l3.93701e-006 -0.184843c0,-0.0218858 0.0177441,-0.0396142 0.0396102,-0.0396142l0.518661 -0.00169291c0.0861142,0 0.155929,-0.0698031 0.155929,-0.155917 3.93701e-006,-0.0861102 -0.0698189,-0.155917 -0.155929,-0.155917l-0.3755 -0.00148031c-0.100437,0 -0.181866,-0.0814331 -0.181866,-0.181866l0 -0.476811c0,-0.100449 0.0814291,-0.181862 0.181866,-0.181862l0.705445 -0.00329921c0.0218661,0 0.0395945,0.017748 0.0395945,0.0396142l1.9685e-005 0.189055c0,0.0218701 -0.0177323,0.0396142 -0.0396142,0.0396142l-0.189846 -0.000259843 -0.00323622 0.0929567 0.232024 6.69291e-005c0.0521732,0 0.0944803,-0.0419724 0.0944803,-0.0941417l0.000354331 -0.264839c0,-0.052185 -0.0422992,-0.0944803 -0.0944843,-0.0944803l-0.744736 0.000338583c-0.15311,0 -0.27724,0.124114 -0.27724,0.27724l0 0.476807c0,0.153106 0.124126,0.27724 0.27724,0.27724l0.3755 -0.000645669c0.034626,0 0.0626811,0.028063 0.0626811,0.0626693 0,0.034626 -0.0280591,0.0626811 -0.0626811,0.0626811l-0.559016 -0.000110236c-0.0521732,0 -0.0944685,0.0422913 -0.0944685,0.0944803l0 0.264299c0,0.052189 0.0422953,0.0944843 0.0944685,0.0944843l0.801382 -0.000165354c0.15311,0 0.27724,-0.124118 0.27724,-0.27724l0.00128346 -0.477276c0,-0.153106 -0.12413,-0.277236 -0.27724,-0.277236l-0.383374 0.00108661c-0.0346063,0 -0.0626654,-0.0280551 -0.0626654,-0.0626772 0,-0.0346102 0.0280551,-0.0626693 0.0626654,-0.0626693l0.276587 8.66142e-005 0.00323622 -0.0929567z"/>
   <path id="_59232120" class="fil0" d="M4.29369 1.21375l0.120181 0c0.021878,0 0.0396102,-0.0177283 0.0396102,-0.0396102l-0.0005 -0.305453c0,-0.100449 -0.0814213,-0.181862 -0.18187,-0.181862l-0.601232 0c-0.100445,0 -0.181878,0.0814173 -0.181878,0.181866l0 1.05666c0,0.100433 0.0814291,0.181866 0.181878,0.181866l0.601236 0c0.100449,0 0.181862,-0.0814291 0.181862,-0.181862l0.000503937 -0.290433c0,-0.0218858 -0.0177323,-0.0396142 -0.0396142,-0.0396142l-0.226811 0c-0.0218701,0 -0.0396024,0.0177323 -0.0396024,0.0396142l0.00127559 0.13848c0,0.109362 -0.0688701,0.198035 -0.178232,0.198035 -0.109374,-3.93701e-006 -0.178232,-0.0886693 -0.178232,-0.198035l0 -0.737925c0,-0.109366 0.0688543,-0.198031 0.178232,-0.198031 0.109362,0 0.178232,0.0886693 0.178232,0.198031l-0.00127165 0.138657c0,0.0218858 0.0177283,0.0396181 0.0395945,0.0396181l0.106638 -3.93701e-006 -0.00323228 0.0952244 -0.142693 0c-0.0521732,0 -0.0944803,-0.0423071 -0.0944803,-0.0944803l0.00114567 -0.179016c0,-0.0572913 -0.0266457,-0.103732 -0.0839331,-0.103732 -0.0573031,0 -0.0839488,0.0464449 -0.0839488,0.103732l3.93701e-006 0.737925c0,0.0572835 0.0266417,0.103748 0.0839449,0.103748 0.0572874,-3.93701e-006 0.0839331,-0.0464606 0.0839331,-0.103748l-0.00114567 -0.178835c0,-0.0521693 0.0423071,-0.0944803 0.0944803,-0.0944803l0.30628 -3.93701e-006c0.0521811,0 0.0944764,0.042315 0.0944764,0.0944882l-0.000165354 0.33078c0,0.15311 -0.124118,0.277244 -0.277244,0.277244l-0.601232 -3.93701e-006c-0.153122,0 -0.277252,-0.12413 -0.277252,-0.277236l0 -1.05667c0,-0.153126 0.12413,-0.277236 0.277252,-0.277236l0.601236 0c0.153122,0 0.27724,0.124114 0.27724,0.27724l0.000169291 0.345803c0,0.0521693 -0.0422992,0.0944803 -0.0944843,0.0944803l-0.163583 0 0.00323228 -0.0952244z"/>
   <polygon id="_56723472" class="fil0" points="2.24678,3.62504 1.85894,3.62504 1.85894,3.09997 2.09687,3.09997 2.24678,3.09997 2.24678,3.15847 1.90661,3.15847 1.90661,3.32314 2.23234,3.32314 2.23234,3.38165 1.90661,3.38165 1.90661,3.56654 2.24678,3.56654 2.24678,3.61174 "/>
   <polygon id="_56724072" class="fil0" points="2.71473,3.62504 2.52622,3.37442 2.33845,3.62504 2.26767,3.62504 2.27734,3.61233 2.48072,3.34481 2.29222,3.09997 2.36084,3.09997 2.52478,3.31448 2.69234,3.09997 2.75879,3.09997 2.74898,3.11276 2.57101,3.34481 2.78407,3.62504 "/>
   <polygon id="_56725056" class="fil0" points="3.23707,3.15847 3.0403,3.15847 3.0403,3.62504 2.98902,3.62504 2.98902,3.15847 2.79401,3.15847 2.79401,3.11174 2.79401,3.09997 3.23707,3.09997 3.23707,3.12736 "/>
   <polygon id="_57678824" class="fil0" points="1.79958,3.15847 1.6028,3.15847 1.6028,3.62504 1.55152,3.62504 1.55152,3.15847 1.35652,3.15847 1.35652,3.11174 1.35652,3.09997 1.79958,3.09997 1.79958,3.12736 "/>
  </g>
 </g>
</svg>