/* XPM */
static const char * cd_text_55x47_xpm[] = {
"55 47 240 2",
"  	c None",
". 	c #FFFFFF",
"+ 	c #C5C5C5",
"@ 	c #666666",
"# 	c #A4A4A4",
"$ 	c #DEDEDE",
"% 	c #616161",
"& 	c #484848",
"* 	c #575757",
"= 	c #B8B8B8",
"- 	c #DADADA",
"; 	c #5F5F5F",
"> 	c #585858",
", 	c #BEBEBE",
"' 	c #B2B2B2",
") 	c #C3C3C3",
"! 	c #C0C0C0",
"~ 	c #B5B5B5",
"{ 	c #AFAFAF",
"] 	c #7F7F7F",
"^ 	c #E6E6E6",
"/ 	c #E1E1E1",
"( 	c #888888",
"_ 	c #B7B7B7",
": 	c #626262",
"< 	c #4C4C4C",
"[ 	c #5C5C5C",
"} 	c #999999",
"| 	c #7D7D7D",
"1 	c #131313",
"2 	c #8B8B8B",
"3 	c #1D1D1D",
"4 	c #979797",
"5 	c #464646",
"6 	c #414141",
"7 	c #818181",
"8 	c #222222",
"9 	c #989898",
"0 	c #404040",
"a 	c #070707",
"b 	c #565656",
"c 	c #505050",
"d 	c #838383",
"e 	c #7A7A7A",
"f 	c #2C2C2C",
"g 	c #1B1B1B",
"h 	c #919191",
"i 	c #171717",
"j 	c #080808",
"k 	c #F5F5F5",
"l 	c #424242",
"m 	c #474747",
"n 	c #777777",
"o 	c #000000",
"p 	c #5E5E5E",
"q 	c #DFDFDF",
"r 	c #B4B4B4",
"s 	c #E9E9E9",
"t 	c #0F0F0F",
"u 	c #828282",
"v 	c #454545",
"w 	c #F0F0F0",
"x 	c #E4E4E4",
"y 	c #787878",
"z 	c #4E4E4E",
"A 	c #848484",
"B 	c #444444",
"C 	c #161616",
"D 	c #151515",
"E 	c #4D4D4D",
"F 	c #EAEAEA",
"G 	c #3F3F3F",
"H 	c #B3B3B3",
"I 	c #393939",
"J 	c #8E8E8E",
"K 	c #EEEEEE",
"L 	c #E3E3E3",
"M 	c #E8E8E8",
"N 	c #868686",
"O 	c #3D3D3D",
"P 	c #8A8A8A",
"Q 	c #7C7C7C",
"R 	c #4A4A4A",
"S 	c #5B5B5B",
"T 	c #494949",
"U 	c #010101",
"V 	c #121212",
"W 	c #ABABAB",
"X 	c #1F1F1F",
"Y 	c #696969",
"Z 	c #3C3C3C",
"` 	c #878787",
" .	c #B6B6B6",
"..	c #A8A8A8",
"+.	c #181818",
"@.	c #050505",
"#.	c #606060",
"$.	c #9F9F9F",
"%.	c #040404",
"&.	c #6A6A6A",
"*.	c #AEAEAE",
"=.	c #F6F6F6",
"-.	c #1A1A1A",
";.	c #DDDDDD",
">.	c #9B9B9B",
",.	c #CCCCCC",
"'.	c #D9D9D9",
").	c #FDFDFD",
"!.	c #FEFEFE",
"~.	c #E7E7E7",
"{.	c #FBFBFB",
"].	c #EFEFEF",
"^.	c #EDEDED",
"/.	c #FAFAFA",
"(.	c #FCFCFC",
"_.	c #B1B1B1",
":.	c #757575",
"<.	c #141414",
"[.	c #EBEBEB",
"}.	c #DCDCDC",
"|.	c #D3D3D3",
"1.	c #BFBFBF",
"2.	c #CACACA",
"3.	c #2E2E2E",
"4.	c #7E7E7E",
"5.	c #9C9C9C",
"6.	c #030303",
"7.	c #292929",
"8.	c #555555",
"9.	c #808080",
"0.	c #202020",
"a.	c #797979",
"b.	c #C6C6C6",
"c.	c #020202",
"d.	c #D2D2D2",
"e.	c #F2F2F2",
"f.	c #4F4F4F",
"g.	c #E5E5E5",
"h.	c #111111",
"i.	c #D8D8D8",
"j.	c #0E0E0E",
"k.	c #F8F8F8",
"l.	c #969696",
"m.	c #313131",
"n.	c #A9A9A9",
"o.	c #ECECEC",
"p.	c #A3A3A3",
"q.	c #545454",
"r.	c #ACACAC",
"s.	c #C9C9C9",
"t.	c #383838",
"u.	c #252525",
"v.	c #909090",
"w.	c #676767",
"x.	c #363636",
"y.	c #898989",
"z.	c #BDBDBD",
"A.	c #9D9D9D",
"B.	c #5A5A5A",
"C.	c #8D8D8D",
"D.	c #595959",
"E.	c #333333",
"F.	c #2F2F2F",
"G.	c #060606",
"H.	c #F3F3F3",
"I.	c #9E9E9E",
"J.	c #F1F1F1",
"K.	c #212121",
"L.	c #959595",
"M.	c #BABABA",
"N.	c #BBBBBB",
"O.	c #C7C7C7",
"P.	c #F4F4F4",
"Q.	c #2A2A2A",
"R.	c #CBCBCB",
"S.	c #F7F7F7",
"T.	c #707070",
"U.	c #303030",
"V.	c #E0E0E0",
"W.	c #A0A0A0",
"X.	c #BCBCBC",
"Y.	c #D7D7D7",
"Z.	c #515151",
"`.	c #3E3E3E",
" +	c #AAAAAA",
".+	c #B0B0B0",
"++	c #737373",
"@+	c #5D5D5D",
"#+	c #DBDBDB",
"$+	c #0D0D0D",
"%+	c #CFCFCF",
"&+	c #3A3A3A",
"*+	c #CECECE",
"=+	c #191919",
"-+	c #0C0C0C",
";+	c #6C6C6C",
">+	c #323232",
",+	c #262626",
"'+	c #9A9A9A",
")+	c #343434",
"!+	c #2B2B2B",
"~+	c #232323",
"{+	c #D0D0D0",
"]+	c #CDCDCD",
"^+	c #272727",
"/+	c #F9F9F9",
"(+	c #101010",
"_+	c #1C1C1C",
":+	c #D5D5D5",
"<+	c #353535",
"[+	c #0A0A0A",
"}+	c #3B3B3B",
"|+	c #525252",
"1+	c #717171",
"2+	c #A5A5A5",
"3+	c #6F6F6F",
"4+	c #D1D1D1",
"5+	c #6E6E6E",
"6+	c #4B4B4B",
"7+	c #E2E2E2",
"8+	c #636363",
"9+	c #646464",
"0+	c #686868",
"a+	c #C1C1C1",
"b+	c #C8C8C8",
"c+	c #D4D4D4",
"d+	c #858585",
"e+	c #434343",
"f+	c #0B0B0B",
"g+	c #090909",
"h+	c #939393",
"i+	c #C4C4C4",
"j+	c #535353",
"k+	c #A2A2A2",
"l+	c #ADADAD",
"m+	c #7B7B7B",
"n+	c #D6D6D6",
"o+	c #6D6D6D",
"p+	c #A6A6A6",
"q+	c #767676",
". . . . . . . . . . . . . . . . . . . . . . . . . . . . . . . . . . . . . . . . . . . . . . . . . . . . . . . ",
". . . . . . . . . . . . . . . . . . . . . . . . . . . . . . . . . . . . . . . . . . . . . . . . . . . . . . . ",
". . . . . . . . . . + @ @ @ @ # . $ % & * = - ; & > , ' @ ) . ! @ ~ { @ @ ] ^ / @ ( . _ * & % ! : : : $ . . . ",
". . . . . . . . . . < [ } } | 1 . 2 3 4 5 6 7 8 9 0 < ] a b . c a d e f 7 g 7 h i j k l m 4 3 n [ o p q . . . ",
". . . . . . . . . . & r . . s t . u v . w x y z . A 6 ] B C ^ D 0 d e E F G e m d g H I J . ^ K L o M . . . . ",
". . . . . . . . . . & r . . s t . N O . r P Q m . | v ] z * R S T d e U o V W j T X Y Z ` . (  .L o M . . . . ",
". . . . . . . . . . & ~ . . F t . ..U +.@.#.$.U +.%.&.] z *.o ' T d e < =.. H -.;.>.X ; @.+.U ..L o M . . . . ",
". . . . . . . . . . &  .. . F t . . ^ ,.'.).. x ,.- !.K ~.{.;.{.~.].^.M . . ].^ . /.;.{.'.,.^ . (.q ).. . . . ",
". . . . _.Q n n n :.<.! . . [.t . }.e n n n ... . .  .Q n n n n n n n n |.. . . 1.] n n n n n n d 2.. . . . . ",
". . . p 3.4.( ( ( ( 5.).. . [.t . @ l ( ( y 6./.. &.7.Q ( ( ( ( ( ( ( c 8.. . 9.0.a.( ( ( ( ( ( :.+.9 . . . . ",
". . b.8 =.. . . . . . . . . [.t . #.>.. . . c.=.d.-.e.. . . . . . . . W f.. g.h.M . . . . . . . . i.j.k.. . . ",
". . l.% . . . i.m m.n.. . . o.t . #.>.. . . c.=.p.q.. . . . . . . . . r.c . = G . . . s.t.6 i.. . . u.d.. . . ",
". . v.w.. . . x.y.z.<./ . . o.t . #.>.. . . c.=.A.B.. . (.C.> 8.D.@ @ E.; . ' v . . . F.4 9.T . . . f ,.. . . ",
". . v.w.. . . G.H.. 5 r . . o.t . #.5.. . . 6.=.A.B.. . $.m.9 } } } } I.[.. ' v . . . j J.i.K.. . . f ,.. . . ",
". . v.w.. . . %.k . & ' . . o.t . #.5.. . . 6.=.A.B.. . L.0 M.N.N.N.O.P.. . ' v . . . G.P.'.0.. . . Q.R.. . . ",
". . v.w.. . . %.k . & ' . . ^.t . #.5.. . . %.=.A.B.. . S.T.B B B t.f C _ . ' v . . . G.P.s a U.E.m.@.V.. . . ",
". . v.w.. . . %.k . & ' . . ^.t . #.5.. . . %.=.W.* . . . . . . . . . X.D J.' v . . . G.P.. - N.N.N.Y.. . . . ",
". . v.w.. . . %.k . & ' . . ^.t . #.A.. . . @.=.2.8 k.. . . . . . . . . t., ' v . . . G.P.. . . . . . . . . . ",
". . v.w.. . . %.k . & ' . . K t . #.A.. . . @.=.. Z.`.>. + + +W / . . . 5 .+' v . . . G.P.).y 8.8.8.++{.. . . ",
". . v.w.. . . %.k . & ' . . K t . #.A.. . . G.=.. (.} @+8.8.8.f.<./ . . 5 _.' v . . . G.P.#+$+l.} 4 V %+. . . ",
". . v.w.. . . %.k . & ' . . K t . #.I.. . . G.=.. . . . . . . (.&+_.. . v _.' v . . . G.P.'.K.. . . f ,.. . . ",
". . v.w.. . . t ^ . t., . . ].t . #.I.. . . a =.*+=+h.h.h.h.h.-+Z k . . v ' ' v . . . t x 2.7.. . . f ,.. . . ",
". . v.w.. . . ;+>+q.,+=.. . ].t . #.I.. . . a =.'+T K K K K K e.. . . . B H ' v . . . [ 6 )+n . . . !+,.. . . ",
". . W & . . . !.*.9 ].. . . w t . #.I.. . . j =.'+@+. . . . . . . . . !.~+{+]+^+!.. . /+$...).. . /.(+M . . . ",
". . w _+h s K K K K K K K K :+t . #.y.K K ^ @.=.'+R K K K K K K K K V.T.<+(.{.m.n x K K K K K K / % & . . . . ",
". . . :+B [+o o o o o o o o o Z.. A.@.o o o }+. %+V o o o o o o o o 1 D.~.. . L |+j.o o o o o o V ; ^.. . . . ",
". . . . . . . . . . . . . . . . . . . . . . . . . . . . . . . . . . . . . . . . . . . . . . . . . . . . . . . ",
". . o.n n 4.' ^.1+k y.@+p v.].1+%+1+1+1+~.2+@ + . W.~ . . . . 2+@ b.!.n / . ] i.7 n e A.{.y ;.A.#.[ 9./.. . . ",
". . }.o 3+c c.:+o 4+o :.5+o 4+o 1.6+o q.7+3.C 8+. |+a.. . . . 3.C 9+).o O.. t  .1 b 0+U a+[+a+%.% 7 o R.. . . ",
". . }.o K ;.o 2.o b+o ^. +W.i.o M '.o e.L U 9 =+!.|+a.. . . L U 9 =+(.o O.. t  .1 = . 1 ' [+X.o ,.. G.! . . . ",
". . }.o K c+o ]+o R.o ^ d+e+,.o M '.o e.} f+[ o *+|+y {.!.. 9 f+[ o %+%.! !.g+X.1 = ).$+ .[+1.o O.(.6.) . . . ",
". . }.o V G.g #+o ;.j g +.$+- o M '.o e.f.T.;.e+A |+o o h+. z 1+;.e+d+0.1 K.c.Y.1 j.g+g+i.[+a+=+<.X 6.$ . . . ",
". . k.,.,.}././+{+(.M ) i+F /.{+{./+{+).7+H.. o.s q %+%+[.. 7+H.. o.s w b.a+7+. {+,.Y.P.. |.P.].+ a+x . . . . ",
". . . b+ + + + + + + + + + + + + + + + + + + + + + + + + + + + + + + + + + + + + + + + + + + + + + +,.. . . . ",
". . } D q.8.8.8.8.8.8.8.8.8.8.8.8.8.8.8.8.8.8.8.8.8.8.8.8.8.8.8.8.8.8.8.8.8.8.8.8.8.8.8.8.8.8.8.8.j+1 k+. . . ",
". . R p.. . . . . . . . . . . . o.i+i+i+i+x R.i+i+i+s q . . . #+d.i+i+i+i+. . . . . . . . . . . . . '+j+. . . ",
". . v l+. . . . . . . . . . . . $ 4 n 9+4 %+q.4 4 4 V.&.Y.. J .+{ 4 e+4 4 !.. . . . . . . . . . . . # z . . . ",
". . v l+. . . . . . . . . . . . . . b+... . m+. . . . P.* X.9.. . . 1+. . . . . . . . . . . . . . . # z . . . ",
". . v l+. . . . . . . . . . . . . . b+... . `.[ [ [ ~.. # =+e.. . . 1+. . . . . . . . . . . . . . . # z . . . ",
". . v l+. . . . . . . . . . . . . . b+... . m+. . . . ^.[ n+T.. . . 1+. . . . . . . . . . . . . . . # z . . . ",
". . v l+. . . . . . . . . . . . . . b+... . o+'.'.'.e.B.V.. p+W.. . 1+. . . . . . . . . . . . . . . # z . . . ",
". . v l+. . . . . . . . . . . . . . g.:+. . v.u u u z.+ . . . ..).. M.. . . . . . . . . . . . . . . # z . . . ",
". . o+&  + + + + + + + + + + + + + + + + + + + + + + + + + + + + + + + + + + + + + + + + + + + + +n.6 q+. . . ",
". . ].T.B B B B B B B B B B B B B B B B B B B B B B B B B B B B B B B B B B B B B B B B B B B B B v ++e.. . . ",
". . . . . . . . . . . . . . . . . . . . . . . . . . . . . . . . . . . . . . . . . . . . . . . . . . . . . . . ",
". . . . . . . . . . . . . . . . . . . . . . . . . . . . . . . . . . . . . . . . . . . . . . . . . . . . . . . ",
". . . . . . . . . . . . . . . . . . . . . . . . . . . . . . . . . . . . . . . . . . . . . . . . . . . . . . . "};
