/* XPM */
static const char * cddb_60x25_xpm[] = {
"60 25 116 2",
"  	c None",
". 	c #FFFFFF",
"+ 	c #E2E2E2",
"@ 	c #757575",
"# 	c #2F2F2F",
"$ 	c #0F0F0F",
"% 	c #080808",
"& 	c #202020",
"* 	c #3D3D3D",
"= 	c #868686",
"- 	c #DEDEDE",
"; 	c #F7F7F7",
"> 	c #000000",
", 	c #070707",
"' 	c #161616",
") 	c #373737",
"! 	c #6D6D6D",
"~ 	c #C7C7C7",
"{ 	c #252525",
"] 	c #6F6F6F",
"^ 	c #E9E9E9",
"/ 	c #9E9E9E",
"( 	c #1F1F1F",
"_ 	c #4D4D4D",
": 	c #ECECEC",
"< 	c #1E1E1E",
"[ 	c #EAEAEA",
"} 	c #A8A8A8",
"| 	c #4E4E4E",
"1 	c #BBBBBB",
"2 	c #EEEEEE",
"3 	c #F8F8F8",
"4 	c #E0E0E0",
"5 	c #C4C4C4",
"6 	c #7B7B7B",
"7 	c #424242",
"8 	c #FCFCFC",
"9 	c #EBEBEB",
"0 	c #C0C0C0",
"a 	c #383838",
"b 	c #F9F9F9",
"c 	c #B5B5B5",
"d 	c #1B1B1B",
"e 	c #7D7D7D",
"f 	c #F2F2F2",
"g 	c #111111",
"h 	c #7C7C7C",
"i 	c #CBCBCB",
"j 	c #0C0C0C",
"k 	c #959595",
"l 	c #9C9C9C",
"m 	c #535353",
"n 	c #969696",
"o 	c #2E2E2E",
"p 	c #FEFEFE",
"q 	c #8A8A8A",
"r 	c #313131",
"s 	c #676767",
"t 	c #545454",
"u 	c #8B8B8B",
"v 	c #E5E5E5",
"w 	c #020202",
"x 	c #F0F0F0",
"y 	c #B8B8B8",
"z 	c #1D1D1D",
"A 	c #BDBDBD",
"B 	c #BABABA",
"C 	c #121212",
"D 	c #D9D9D9",
"E 	c #2B2B2B",
"F 	c #A9A9A9",
"G 	c #242424",
"H 	c #CCCCCC",
"I 	c #0A0A0A",
"J 	c #6C6C6C",
"K 	c #FAFAFA",
"L 	c #DADADA",
"M 	c #F4F4F4",
"N 	c #474747",
"O 	c #606060",
"P 	c #030303",
"Q 	c #F3F3F3",
"R 	c #E4E4E4",
"S 	c #898989",
"T 	c #333333",
"U 	c #2C2C2C",
"V 	c #101010",
"W 	c #808080",
"X 	c #989898",
"Y 	c #C2C2C2",
"Z 	c #A6A6A6",
"` 	c #505050",
" .	c #BCBCBC",
"..	c #EFEFEF",
"+.	c #E1E1E1",
"@.	c #C5C5C5",
"#.	c #C1C1C1",
"$.	c #6E6E6E",
"%.	c #3B3B3B",
"&.	c #484848",
"*.	c #F6F6F6",
"=.	c #9A9A9A",
"-.	c #060606",
";.	c #4F4F4F",
">.	c #EDEDED",
",.	c #A4A4A4",
"'.	c #737373",
").	c #0E0E0E",
"!.	c #3E3E3E",
"~.	c #151515",
"{.	c #363636",
"].	c #C8C8C8",
"^.	c #040404",
"/.	c #1A1A1A",
"(.	c #555555",
"_.	c #C6C6C6",
". . . . . . . . . . . . . . . . . . . . . . . . . . . . . . . . . . . . . . . . . . . . . . . . . . . . . . . . . . . . ",
". . . . . . . . . . . . . . . . . . . . . . . . . . . . . . . . . . . . . . . . . . . . . . . . . . . . . . . . . . . . ",
". . . . . . . . . . . . . . . . . . . . . . . . . . . . . . . . . . . . . . . . . . . . . . . . . . . . . . . . . . . . ",
". . . . . . . . . . . . . . . . . . . . . . . . . . . . . . . . . . . . . . . . . . . . . . . . . . . . . . . . . . . . ",
". . . . . . . . . . . . . . . . . . . . . . . . . . . . . . . . . . . . . . . . . . . . . . . . . . . . . . . . . . . . ",
". . . . . + @ # $ % & * = - . . ; > > > > , ' ) ! ~ . . . . . ; > > > > , ' ) ! ~ . . . . . ; > > > > > , { ] ^ . . . . ",
". . . . / , > > > > > > > ( . . ; > > > > > > > > > _ : . . . ; > > > > > > > > > _ : . . . ; > > > > > > > > < [ . . . ",
". . . } > > | 1 2 3 4 5 6 7 . . ; > $ . . 8 9 0 ! , > a b . . ; > $ . . 8 9 0 ! , > a b . . ; > $ . . . 2 c d > e . . . ",
". . f g > h . . . . . . . . . . ; > $ . . . . . . i j > k . . ; > $ . . . . . . i j > k . . ; > $ . . . . . l > m . . . ",
". . n > o p . . . . . . . . . . ; > $ . . . . . . . q > r . . ; > $ . . . . . . . q > r . . ; > $ . . . . . l > s . . . ",
". . t > u . . . . . . . . . . . ; > $ . . . . . . . v > w f . ; > $ . . . . . . . v > w f . ; > $ . . . x y z > A . . . ",
". . r > B . . . . . . . . . . . ; > $ . . . . . . . . C > D . ; > $ . . . . . . . . C > D . ; > > > > > > > E F . . . . ",
". . G > ~ . . . . . . . . . . . ; > $ . . . . . . . . ( > H . ; > $ . . . . . . . . ( > H . ; > > > > > > > I J K . . . ",
". . r > B . . . . . . . . . . . ; > $ . . . . . . . . g > L . ; > $ . . . . . . . . g > L . ; > $ . . . M i N > O . . . ",
". . t > u . . . . . . . . . . . ; > $ . . . . . . . v > P Q . ; > $ . . . . . . . v > P Q . ; > $ . . . . . M j w R . . ",
". . n > # p . . . . . . . . . . ; > $ . . . . . . . S > T . . ; > $ . . . . . . . S > T . . ; > $ . . . . . . U > 1 . . ",
". . f V > W . . . . . . . . . . ; > $ . . . . . . i j > X . . ; > $ . . . . . . i j > X . . ; > $ . . . . . M j > Y . . ",
". . . Z > > `  ...b +.@.h 7 . . ; > $ . . 8 : #.$., > %.b . . ; > $ . . 8 : #.$., > %.b . . ; > $ . . . M H &.> V *.. . ",
". . . . =.-.> > > > > > > ( . . ; > > > > > > > > > ;.>.. . . ; > > > > > > > > > ;.>.. . . ; > > > > > > > > w ,.. . . ",
". . . . . 4 '.o )., & !.= - . . ; > > > > -.~.{.! ].. . . . . ; > > > > -.~.{.! ].. . . . . ; > > > > > ^./.(._.. . . . ",
". . . . . . . . . . . . . . . . . . . . . . . . . . . . . . . . . . . . . . . . . . . . . . . . . . . . . . . . . . . . ",
". . . . . . . . . . . . . . . . . . . . . . . . . . . . . . . . . . . . . . . . . . . . . . . . . . . . . . . . . . . . ",
". . . . . . . . . . . . . . . . . . . . . . . . . . . . . . . . . . . . . . . . . . . . . . . . . . . . . . . . . . . . ",
". . . . . . . . . . . . . . . . . . . . . . . . . . . . . . . . . . . . . . . . . . . . . . . . . . . . . . . . . . . . ",
". . . . . . . . . . . . . . . . . . . . . . . . . . . . . . . . . . . . . . . . . . . . . . . . . . . . . . . . . . . . "};
