/* XPM */
const static char * chain_xpm[] = {
"16 16 3 1",
" 	c #000000000000",
".	c #FFFFFFFF0000",
"X	c #00000000CDCD",
"                ",
"     .....      ",
"   .........    ",
"  ....XXX....   ",
"  ...XX.XX...   ",
" ...XX...X....  ",
" ...XX........  ",
" ...XX........  ",
" ...XX........  ",
" ...XX...X....  ",
"  ...XX.XX...   ",
"  ....XXX....   ",
"   .........    ",
"     .....      ",
"                ",
"                "};
