/* XPM */
const static char *checkmark_xpm[]={
"32 16 3 1",
"# c None",
". c None",
"a c #00c000",
"...........................#....",
"..........................###...",
"........................a###....",
".......................aaa#.....",
"......................aaa#......",
".....#...............aaa#.......",
".....##a............aaa#........",
"......#a...........aaa#.........",
".......aa.........aaa#..........",
".......#aa.......aaa#...........",
"........#aa.....aaa#............",
".........#aa...aaa#.............",
"..........aa..aaa#..............",
"..........#aaaaa#...............",
"...........#aaa#................",
"............###................."};
