/* XPM */
static const char * cover_art_default_60x60_xpm[] = {
"60 60 145 2",
"  	c None",
". 	c #000000",
"+ 	c #010101",
"@ 	c #020202",
"# 	c #030303",
"$ 	c #040404",
"% 	c #060606",
"& 	c #191919",
"* 	c #A4A4A4",
"= 	c #E5E5E5",
"- 	c #EAEAEA",
"; 	c #9D9D9D",
"> 	c #0F0F0F",
", 	c #D2D2D2",
"' 	c #888888",
") 	c #181818",
"! 	c #111111",
"~ 	c #5E5E5E",
"{ 	c #5D5D5D",
"] 	c #050505",
"^ 	c #080808",
"/ 	c #454545",
"( 	c #CCCCCC",
"_ 	c #7A7A7A",
": 	c #E7E7E7",
"< 	c #ECECEC",
"[ 	c #929292",
"} 	c #7F7F7F",
"| 	c #727272",
"1 	c #696969",
"2 	c #6B6B6B",
"3 	c #E0E0E0",
"4 	c #F1F1F1",
"5 	c #A6A6A6",
"6 	c #070707",
"7 	c #171717",
"8 	c #D3D3D3",
"9 	c #F2F2F2",
"0 	c #212121",
"a 	c #0A0A0A",
"b 	c #101010",
"c 	c #0E0E0E",
"d 	c #656565",
"e 	c #3C3C3C",
"f 	c #D5D5D5",
"g 	c #202020",
"h 	c #161616",
"i 	c #BFBFBF",
"j 	c #5C5C5C",
"k 	c #1A1A1A",
"l 	c #DCDCDC",
"m 	c #0C0C0C",
"n 	c #363636",
"o 	c #C7C7C7",
"p 	c #1C1C1C",
"q 	c #090909",
"r 	c #8E8E8E",
"s 	c #707070",
"t 	c #FAFAFA",
"u 	c #434343",
"v 	c #151515",
"w 	c #898989",
"x 	c #6A6A6A",
"y 	c #ADADAD",
"z 	c #424242",
"A 	c #595959",
"B 	c #969696",
"C 	c #676767",
"D 	c #FFFFFF",
"E 	c #9C9C9C",
"F 	c #D4D4D4",
"G 	c #141414",
"H 	c #3D3D3D",
"I 	c #1E1E1E",
"J 	c #A9A9A9",
"K 	c #C1C1C1",
"L 	c #2D2D2D",
"M 	c #383838",
"N 	c #C2C2C2",
"O 	c #CFCFCF",
"P 	c #0B0B0B",
"Q 	c #121212",
"R 	c #131313",
"S 	c #E6E6E6",
"T 	c #EBEBEB",
"U 	c #7D7D7D",
"V 	c #E8E8E8",
"W 	c #EDEDED",
"X 	c #959595",
"Y 	c #D6D6D6",
"Z 	c #C3C3C3",
"` 	c #686868",
" .	c #DDDDDD",
"..	c #FCFCFC",
"+.	c #737373",
"@.	c #272727",
"#.	c #262626",
"$.	c #2A2A2A",
"%.	c #EFEFEF",
"&.	c #4F4F4F",
"*.	c #AFAFAF",
"=.	c #BBBBBB",
"-.	c #282828",
";.	c #1F1F1F",
">.	c #353535",
",.	c #C8C8C8",
"'.	c #747474",
").	c #A7A7A7",
"!.	c #CACACA",
"~.	c #E2E2E2",
"{.	c #F8F8F8",
"].	c #F7F7F7",
"^.	c #D7D7D7",
"/.	c #575757",
"(.	c #BABABA",
"_.	c #949494",
":.	c #222222",
"<.	c #B4B4B4",
"[.	c #A1A1A1",
"}.	c #F0F0F0",
"|.	c #BCBCBC",
"1.	c #878787",
"2.	c #494949",
"3.	c #1B1B1B",
"4.	c #D0D0D0",
"5.	c #444444",
"6.	c #C4C4C4",
"7.	c #B3B3B3",
"8.	c #333333",
"9.	c #D9D9D9",
"0.	c #292929",
"a.	c #535353",
"b.	c #B5B5B5",
"c.	c #373737",
"d.	c #B8B8B8",
"e.	c #484848",
"f.	c #6E6E6E",
"g.	c #909090",
"h.	c #C9C9C9",
"i.	c #F3F3F3",
"j.	c #B7B7B7",
"k.	c #A2A2A2",
"l.	c #BDBDBD",
"m.	c #0D0D0D",
"n.	c #1D1D1D",
". . . . . . . . . . . . + . . . . . . . . . + + + + + . . . . . . . . . . . . . . . . . . . . . . . . . . . . . . . . + ",
". . . . . . . . . . . . . . . . . . . . . . . . . . . . . . . . . . . . . . . . . . . . . . . . . . . . . . . . . . . + ",
". . . . . . . . . . . . . . . . . . . . . . . . . . . . . . . . . . . . . . . . . . + . . . . . . . . . . . . . . . . + ",
". . . . . . . . . . . . . . . . . . . . . . . . . . . . . . . . . . . . . . + + + + + . . . . . . . . . . . . . . . . + ",
". . . . . . . . . . . . . . . . . . . . . . . . . . . . . . . . . . . . + + + @ # + + . . . . . . . . . . . . . . . . + ",
". . . . . . . . . . . . . . . . . . . . . . . . . . . . . . . . . . . + + @ @ $ # + + . . . . . . . . . . . . . . . . + ",
". . . . . . . . . . . . . . . . . . . . . . . . . . . . . . . . + + + + @ # $ % # @ + . . . . . . . . . . . . . . . + + ",
". . . . . . . . . . . . . . . . . . . . . . . . . . . . . . . + + + + + @ # # $ # + + . . . . . . . . . . . . . . . . + ",
". . . . . . . . . . . . . . . . . . . . . . . . . . . . . . . + . + + + + + + @ + + + . . . . . . . . . . . . . . . + + ",
". . . . . . . . . . . . . . . . . . . . . . . . . . . . . . . . . . . . . . . . . . . . . . . . . . . . . . . . . . . + ",
". . . . . . . . . . . . . . . . . . . . . . . . . . . . . . . . . . . . . . . . . . . . . . . . . . . . . . . . . . . + ",
". . . . . . . . . . . . . . . . . . . . . . . . . . . . . . . . . . . . . . . . . . . . . . . . . . . . . . . . . . . + ",
". . . . . . . . . . . . . . . . . . . . . . . . . . . . . . . + + + + + . + . . . . . . . . . . . . . . . . . . . . . + ",
". . . . . . . & * = - ; > . . . . . . . . . . . . . . . . . . . + + @ @ @ @ @ @ + + . . . . . . . . . . . . . . . . . + ",
". . . . . . $ , ' ) ! ~ { . . . . . . + . . . . . . . . . . . . . + @ $ ] ^ % ] @ + . . . . . . . . . . . . . . . . . + ",
". . . . . . / ( . . . . . . _ : < [ + } | . . ' 1 . 2 3 4 5 6 7 8 ; 9 0 a b > c % @ + . . . . . . . . . . . . . . . . @ ",
". . . . . . d * . . . . . e f g h i j k f . ] l m n o p q r s 7 t u @ % > & p v q # + . . . . . . . . . . . . . . . . + ",
". . . . . . / ( . . . . + 1 w . . x ' @ y z A B . C D D D D E 7 F . + # q G p ) m $ + . . . . . . . . . . . . . . . . @ ",
". . . . . . $ , ' ) ! ~ { H F I v i { + / J K L . M N I . . . 7 O . . + $ P Q R a # + . . . . . . . . . . . . . . . . + ",
". . . . . . . & * S T E > . U V W X @ @ @ Y Z + . . `  ...D C 7 O . . . + $ ^ q 6 $ + . . . . . . . . . . . . . . . . @ ",
". . . . . . . . . . . . . . . . . . . + # # + + . . . . . . . . . . . . . + @ # # # + . . . . . . . . . . . . . . . . @ ",
". . . . . . . . . . . . . . . . . . . @ # # @ + . . . . . . . . . . . . . . . + @ + . . . . . . . . . . . . . . . . . # ",
". . . . . . . . . . . . . . . . . . . + @ # + + . . . . . . . . . . . . . . . + + + . . . . . . . . . . . . . . . . + ] ",
". . . . . . . . . . . . . . . . . . . + + # + + . . . . . . . . . . . . . . . . . . . . . . . . . . . . . . . . . . + a ",
". . . . . . . . . . . . . . . . . . . + + @ + . . . . . . . . . . . . . . . . . . . . . . . . . . . . . . . . . . . $ Q ",
". . . . . . . . . . . . . . . . . . . + + + + . . . . . . . . . . . . . . . . . . . . . . + . . . . . . . . . . . + 6 I ",
". . . . . . # D X . . +.} . . . . . . R 8 + . . . . . . . . . . . . . . . . . . . . . . . . . . . . . . . . . . . @ P @.",
". . . . . . # 9 8 #.. +.} . . . . . . R 8 + + . . . . . . . . . . . . . . . . . . . . . . + . . . . . . . . . + + @ m $.",
". . . . . . # %.&.*.. +.} . _ : < [ + =.D D *.+ . . . . . . . . . . . . . . . . . . . . . + + . . . . . . . . . + @ a -.",
". . + . . . # %.. K H +.} e f g h i j R 8 + + + + . . . . . . . . . . . . . . . . . . . . + + + . . . . . . . . + @ 6 ;.",
". . + . . . # %.. >.,.'.} 1 w . . x ' R 8 + @ # @ + + . . . . . . . . . . . . . . . . . + + + + . . . . . . . . + + $ h ",
". . + + . . # %.. . ).!.} H F I v i { a ~.q @ $ $ @ + . . . . . . . . . . . . . . . . . . + + + . . . . . . . . . + @ m ",
". . + + + . # %.. . g {.} . U V W X @ . * ].*.$ $ # + + . . . . . . . . . . . . . . . . . . + + . . . . . . . . . + + 6 ",
". + + + @ + . . . . . . . . . . . . . . . . + # # # + + . . . . . . . . . . . . . . . . . . . . + . . . . . . . . . + $ ",
"+ + @ + @ + . . . . . . . . . . . . . . . . . + @ @ + . . . . . . . . . . . . . . . . . . . . . + . . . . . . . . . + @ ",
"+ + + @ + . . . . . . . . . . . . . . . . . . . + + + . . . . . . . . . . . . . . . . . . . . . . . . . . . . . . . . + ",
". + + + + . . . + . . . . . . . . . . . . . . . + . . . . . . . . . . . . . . . . . . . . . . . . . . . . . . . . . . + ",
". . . + + . . . + + . . . . . . . . . . . . . . . . . . . . . . . . . . . . . . . . . . . . . . . . . . . . . . . . . . ",
". . . + . . . . @ + + . . . . . . . . . . . . . > ^.. > ^.. . . . . . . 7 O . . . . > ^.. . . . . . . . . . . . . . . . ",
". . . . . . . . /...L + . . . . . . . . . . . . . . . > ^.. . . . . . . 7 O . . . . > ^.. . . . . . . . . . . . . . . . ",
". . . . . . . + (.| _.+ + . . . . . . . . . . . . . . > ^.. . . + . . . 7 O . . . . > ^.. . . . . . . . . . . . . . . . ",
". . . . . . . :.<.] ( q } | . . ' 1 . D D = C . > ^.. > ^.. . D D = C . 7 8 [.}.|.h > ^.. . 2 3 4 5 ^ . . . . . . . . . ",
". . . . . . . 1.2.@ | ~ k f . ] l m . . . 3.4.! > ^.. > ^.. . . . 3.4.! 7 t 5.a w B > ^.. n o p q r s + . . . . . . . . ",
". . . . . . $ : D D D 6.. y z A B . b 7.4 D D 8.> ^.. > ^.. b 7.4 D D 8.7 9.. . 0.K > ^.. C D D D D E + + + . . . . . . ",
". . . . . . a.E + + . 6.$.5.J K L . A b.G g ^.c.> ^.. > ^.. A b.G g ^.c.7 t z q 1.B > ^.. M N I . . + + @ + + . . . . . ",
". . . . . . d.e.. . . f.g.. Y Z . . h h.i.j.|.c.> ^.. > ^.. h h.i.j.|.c.7 8 k.}.l.h > ^.. . `  ...D C # # # @ + . . . . ",
". . . . . . . . . . . . . . . . . . . . . . . . . . . . . . . . . . . . . . . . . . . . . . . . . . + $ % % $ @ + . . . ",
". . . . . . . . . . . . . . . . . . . . . . . . . . . . . . . . . . . . . . . . . . . . . . . . . . + $ % ^ % # + + . . ",
". . . . . . . . . . . . . . . . . . . . . . . . . . . . . . . . . . . . . . . . . . . . . . . . . + + @ ] % ] @ + . . . ",
". . . . . . . . . . . . . . . . . . . . . . . . . . . . . . . . . . . . . . . . . . . . . . . . . . + + @ # # + + . . . ",
". . . . . . . . . . . . . . . . . . . . + + . . . . . . . . . . . . . . . . . . . . . . . . . . . . . + + + + + + . . . ",
". . . . . . . . . . . . . . . . . . + + . . . . . . . . . . . . . . . . . . . . . . . . . . . . . . . . . . . . . . . . ",
". . . . . . . . . . . . . . . . . . + . . . . . . . . . . . . . . . . . . . . . . . . . . . . . . . . . . . . . . . . . ",
". . . . . . . . . . . . . . . . . . . . . . . . . . . . . + . . . . . . . . . . . . . . . . . . . . . . . . . . . . . . ",
". . . . . . . . . . . . . . . . . . . . . . . . . . . . . . + + + + + . . . . . . . . . . . . . . . . . . . . . . . . . ",
". . . . . . . . . . . . . . . . . . . . . . . . . . . . . . . + + @ @ + . . . . . . . . . . . . . . . . . . . . . . . . ",
". . . . . + + + + . . . . . . . . . . . . . . . . . . . . . . @ @ # @ + . . . . . . . . . . . . . . . . . . . . . . . . ",
"+ + @ @ @ # # @ @ @ + . . . . . . . . . . . . . . . . . . . . + # @ + + . . . . . . . . . . . . . . . . . . . . . . . . ",
"] 6 q m m.c c m q % # + + . . . . . . . . . . . . . . . . . . + @ @ + . . . . . . . . . . . . . . . . . . . . . . . . . ",
"! h & n.I 0 p ) b m.% # + + . . . . . . . . . . . . . . . . . . + + + . . . . . . . . . . . . . . . . . . . . + . . . . "};
