/* XPM */
const static char *ex_xpm[]={
"32 16 3 1",
"# c None",
". c None",
"a c #ff0000",
"........##............#.........",
"........###..........###........",
".........##a........a##.........",
"..........aaa......aaa..........",
"...........aaa....aaa...........",
"............aaa..aaa............",
".............aaaaaa.............",
"..............aaaa..............",
"..............aaaa..............",
".............aaaaaa.............",
"............aaa..aaa............",
"...........aaa....aaa...........",
"..........aaa......aaa..........",
".........##a........a##.........",
"........###..........###........",
".........#............#........."};
