/* XPM */
const static char *fillstop_xpm[]={
"16 16 6 1",
"d c None",
". c None",
"# c #000000",
"b c #008000",
"c c #c0ffc0",
"a c #ffffff",
".....#####......",
"...##aaabb##....",
"..#caaaabbbb#...",
".#bccaaabbbbb#..",
".#bbccaabbbbb#..",
"#bbbbccabbbbbb#.",
"#bbbbbcabbbbbb#.",
"#bbbbbbcbbbbbb#.",
"#bbbbbbbbbbbbb#.",
"#bbbbbbbbbbbbb#.",
".#bbbbbbbbbbb#..",
".#bbbbbbbbbbb#..",
"..#bbbbbbbbb#...",
"...##bbbbb##....",
".....#####ddddd.",
"..............dd"};
