/* XPM */
const static char *fillstart_xpm[]={
"16 16 6 1",
"d c None",
". c None",
"# c #000000",
"b c #008000",
"c c #c0ffc0",
"a c #ffffff",
".....#####......",
"...##aabbb##....",
"..#aaaabbbbc#...",
".#aaaaabbbcaa#..",
".#aaaaabbbaaa#..",
"#aaaaaabbaaaaa#.",
"#aaaaaabcaaaaa#.",
"#aaaaaabaaaaaa#.",
"#aaaaaaaaaaaaa#.",
"#aaaaaaaaaaaaa#.",
".#aaaaaaaaaaa#..",
".#aaaaaaaaaaa#..",
"..#aaaaaaaaa#...",
"...##aaaaa##....",
".....#####ddddd.",
"..............dd"};
