/* XPM */
static const char * greencheckmark_xpm[] = {
"16 15 5 1",
" 	c None",
".	c #C0FFC0",
"+	c #008000",
"@	c #00FF00",
"#	c #004000",
"                ",
"            ..  ",
"            +++.",
"           +.@++",
" .++      +.@@#+",
".+@.+    +.@@#+ ",
"+.@@.+  +.@@#+  ",
".+.@@.++.@@#+   ",
" .+@@@@.@@#+    ",
"  .+.@@@@#+     ",
"   .+@@@#+      ",
"    .+@#+       ",
"      ++        ",
"                ",
"                "};
