/* XPM */
static const char * host_16x16_xpm[] = {
"16 16 129 2",
"  	c None",
". 	c #939393",
"+ 	c #929292",
"@ 	c #919191",
"# 	c #D9DBD7",
"$ 	c #E3E4E1",
"% 	c #DFE0E0",
"& 	c #E6E7E3",
"* 	c #D4D5D1",
"= 	c #909090",
"- 	c #E8EAE5",
"; 	c #2E3488",
"> 	c #27347C",
", 	c #26337B",
"' 	c #26327B",
") 	c #2D3386",
"! 	c #E8EAE6",
"~ 	c #E2E4E0",
"{ 	c #27327C",
"] 	c #5A6E8C",
"^ 	c #5B6F8D",
"/ 	c #5C708D",
"( 	c #5C708E",
"_ 	c #5D718E",
": 	c #5D728E",
"< 	c #5D718F",
"[ 	c #5E728F",
"} 	c #BEBFBE",
"| 	c #DBDCDA",
"1 	c #898989",
"2 	c #263380",
"3 	c #4F678A",
"4 	c #50688A",
"5 	c #50678A",
"6 	c #51688B",
"7 	c #52698B",
"8 	c #52698C",
"9 	c #536A8C",
"0 	c #4D6588",
"a 	c #39537A",
"b 	c #26337E",
"c 	c #E1E3E2",
"d 	c #E3E4E0",
"e 	c #7F7F7F",
"f 	c #E6E8E3",
"g 	c #283582",
"h 	c #47638B",
"i 	c #47648B",
"j 	c #48658C",
"k 	c #426088",
"l 	c #294B78",
"m 	c #1E4171",
"n 	c #273582",
"o 	c #BBBCBB",
"p 	c #D9DAD7",
"q 	c #8A8A8A",
"r 	c #767676",
"s 	c #E3E5E1",
"t 	c #283786",
"u 	c #3E5F8C",
"v 	c #3F608C",
"w 	c #3E608D",
"x 	c #3F608D",
"y 	c #345786",
"z 	c #244A7D",
"A 	c #23497C",
"B 	c #273885",
"C 	c #D9DCDA",
"D 	c #DEE0DC",
"E 	c #808080",
"F 	c #6B6B6B",
"G 	c #E2E3E0",
"H 	c #2A398B",
"I 	c #365D90",
"J 	c #375D90",
"K 	c #2E568B",
"L 	c #285188",
"M 	c #293B8B",
"N 	c #B6B7B6",
"O 	c #747474",
"P 	c #626262",
"Q 	c #E1E3DF",
"R 	c #2B3C8E",
"S 	c #2F5B94",
"T 	c #2F5A94",
"U 	c #2E5A93",
"V 	c #2D5993",
"W 	c #2C3E8E",
"X 	c #D0D2D0",
"Y 	c #DDDEDA",
"Z 	c #585858",
"` 	c #2D3E92",
" .	c #32619F",
"..	c #2D4093",
"+.	c #CDCFCD",
"@.	c #DCDEDB",
"#.	c #606060",
"$.	c #565656",
"%.	c #3E4796",
"&.	c #384897",
"*.	c #3D4697",
"=.	c #CED1CC",
"-.	c #DEDFDC",
";.	c #575757",
">.	c #5A5A5A",
",.	c #C4C5C3",
"'.	c #C9CAC8",
").	c #C1C2C0",
"!.	c #525252",
"~.	c #535351",
"{.	c #535352",
"].	c #585856",
"^.	c #5D5E5C",
"/.	c #60605E",
"(.	c #575856",
"_.	c #525251",
":.	c #575A56",
"<.	c #9EA19D",
"[.	c #D3D5D3",
"}.	c #EAEBEA",
"|.	c #E9EAE9",
"1.	c #D2D3D1",
"2.	c #979996",
"3.	c #565A55",
"4.	c #515351",
"5.	c #5B5E5B",
"6.	c #5E615D",
"7.	c #5B5F5A",
"8.	c #535552",
"                                ",
"  . + + + + + + + + + + + + .   ",
"@ # $ % % % % % % % % % $ & * . ",
"= - ; > > , , , , , ' ' ) ! ~ . ",
"= - { ] ^ ^ / ( _ : < [ , } | . ",
"1 ! 2 3 4 5 6 7 8 9 0 a b c d . ",
"e f g h i i j j k l m m n o p q ",
"r s t u v w x y z A A A B C D E ",
"F G H I J J K L L L L L M N | O ",
"P Q R S T U V V V V V V W X Y F ",
"Z Q `  . . . . . . . . ...+.@.#.",
"$.Q %.&.&.&.&.&.&.&.&.&.*.=.-.;.",
">.,.'.'.'.'.'.'.'.'.'.'.'.'.).;.",
"  !.~.{.{.].^././.^.(.{.{.~._.  ",
"        :.<.[.}.|.1.2.3.        ",
"          4.5.6.6.7.8.          "};
