/* XPM */
static const char * input_xpm[] = {
"16 16 43 1",
" 	c None",
".	c #000000",
"+	c #133755",
"@	c #010101",
"#	c #3B3A3B",
"$	c #292929",
"%	c #4C7497",
"&	c #51758D",
"*	c #020202",
"=	c #4C637B",
"-	c #6A86A0",
";	c #8494A7",
">	c #B4BCC9",
",	c #82A6C1",
"'	c #B6D8E9",
")	c #59798E",
"!	c #040404",
"~	c #314D6B",
"{	c #AECEE2",
"]	c #89C7E1",
"^	c #60B6DA",
"/	c #2A97C8",
"(	c #1191C9",
"_	c #BADCEC",
":	c #50748C",
"<	c #133354",
"[	c #AFD2E8",
"}	c #1F99C2",
"|	c #229EC7",
"1	c #1198CA",
"2	c #40B7DA",
"3	c #0F4F74",
"4	c #0C2E51",
"5	c #114366",
"6	c #0E3F61",
"7	c #0B3A5A",
"8	c #0E74A6",
"9	c #30B6DA",
"0	c #105074",
"a	c #1A5A84",
"b	c #0A2F4F",
"c	c #1C1C1C",
"d	c #294A6B",
"                ",
"                ",
"                ",
"        .       ",
"        +@      ",
"    ##$.%&*     ",
"    =-;>,')!    ",
"    ~{]^/(_:@   ",
"    <[}|1(23$   ",
"    4567890$    ",
"        a3#     ",
"        bc      ",
"        d       ",
"                ",
"                ",
"                "};
