/* XPM */
static const char * macro_xpm[] = {
"16 16 155 2",
"  	c None",
". 	c #A39C3D",
"+ 	c #9F983D",
"@ 	c #9C953D",
"# 	c #98923D",
"$ 	c #948E3D",
"% 	c #918B3D",
"& 	c #8D883D",
"* 	c #8A843D",
"= 	c #86813D",
"- 	c #827E3D",
"; 	c #7F7A3D",
"> 	c #7B773D",
", 	c #9E983D",
"' 	c #EBE03A",
") 	c #DDD23A",
"! 	c #D1C63A",
"~ 	c #D4CB49",
"{ 	c #CEC449",
"] 	c #C7BF49",
"^ 	c #C1B949",
"/ 	c #C8BE3A",
"( 	c #BAB23A",
"_ 	c #ADA63A",
": 	c #77733D",
"< 	c #666666",
"[ 	c #9A943D",
"} 	c #23253B",
"| 	c #C2BA68",
"1 	c #D0CB88",
"2 	c #CDC789",
"3 	c #C8C389",
"4 	c #C2BE88",
"5 	c #C7C068",
"6 	c #2A2B3B",
"7 	c #9F973A",
"8 	c #736F3D",
"9 	c #96903D",
"0 	c #CEC43A",
"a 	c #C2BC6A",
"b 	c #8C8B45",
"c 	c #676703",
"d 	c #5C5B00",
"e 	c #676600",
"f 	c #85830B",
"g 	c #A4A141",
"h 	c #AEA96A",
"i 	c #908A3A",
"j 	c #6E6B3D",
"k 	c #928C3D",
"l 	c #D1C749",
"m 	c #8F8E47",
"n 	c #757309",
"o 	c #D3CA33",
"p 	c #F4E841",
"q 	c #D2C93F",
"r 	c #AAA42D",
"s 	c #6E6F00",
"t 	c #9C9B59",
"u 	c #979249",
"v 	c #6A673D",
"w 	c #8E883D",
"x 	c #C9C049",
"y 	c #696907",
"z 	c #746D1B",
"A 	c #3C380E",
"B 	c #9B9326",
"C 	c #A6A12C",
"D 	c #989612",
"E 	c #908B49",
"F 	c #66633D",
"G 	c #404100",
"H 	c #F5EA42",
"I 	c #000000",
"J 	c #3E3A0F",
"K 	c #C1B72E",
"L 	c #9F9E01",
"M 	c #898449",
"N 	c #625F3D",
"O 	c #85803D",
"P 	c #BAB249",
"Q 	c #4C4E00",
"R 	c #D5CA41",
"S 	c #3D390F",
"T 	c #3D3A0F",
"U 	c #BCB32C",
"V 	c #8C8C00",
"W 	c #807D49",
"X 	c #5E5B3D",
"Y 	c #817C3D",
"Z 	c #B3AB49",
"` 	c #767608",
" .	c #B7B231",
"..	c #6E671C",
"+.	c #3F3B10",
"@.	c #948D24",
"#.	c #C2BA29",
"$.	c #8D8B0B",
"%.	c #797649",
"&.	c #5A583D",
"*.	c #7D783D",
"=.	c #AAA449",
"-.	c #838348",
";.	c #707100",
">.	c #AAA631",
",.	c #C1B72D",
"'.	c #BFB42D",
").	c #C4BD2A",
"!.	c #9C9418",
"~.	c #959254",
"{.	c #726F49",
"].	c #55543D",
"^.	c #79753D",
"/.	c #B5AD3A",
"(.	c #C0BA6B",
"_.	c #7D7C34",
":.	c #888708",
"<.	c #6D6E00",
"[.	c #757600",
"}.	c #5D4E23",
"|.	c #68CD41",
"1.	c #4A4824",
"2.	c #51503D",
"3.	c #74713D",
"4.	c #A79F3A",
"5.	c #2E303B",
"6.	c #A59F69",
"7.	c #B7B37C",
"8.	c #B5B07C",
"9.	c #B2AE7D",
"0.	c #68CC41",
"a.	c #00FF00",
"b.	c #429D24",
"c.	c #4D4C3D",
"d.	c #706D3D",
"e.	c #98923A",
"f.	c #8B853A",
"g.	c #7D783A",
"h.	c #817D49",
"i.	c #7B7749",
"j.	c #747249",
"k.	c #494724",
"l.	c #419C24",
"m.	c #383724",
"n.	c #49483D",
"o.	c #6C693D",
"p.	c #68663D",
"q.	c #65623D",
"r.	c #615F3D",
"s.	c #56553D",
"t.	c #53513D",
"u.	c #4F4E3D",
"v.	c #4C4B3D",
"w.	c #48473D",
"x.	c #44443D",
"                                ",
"    . + @ # $ % & * = - ; >     ",
"    , ' ) ! ~ { ] ^ / ( _ : <   ",
"    [ ) } | 1 2 3 4 5 6 7 8 <   ",
"    9 0 a b c d e f g h i j <   ",
"    k l m n o p q r s t u v <   ",
"    w x y o z A A B C D E F <   ",
"    * ^ G H A I I J K L M N <   ",
"    O P Q R S I I T U V W X <   ",
"    Y Z `  ...+.J @.#.$.%.&.<   ",
"    *.=.-.;.>.,.'.).!.~.{.].<   ",
"    ^./.(._.:.<.[.}.|.|.1.2.<   ",
"    3.4.5.6.7.8.9.0.a.a.b.c.<   ",
"    d.e.f.g.h.i.j.k.l.l.m.n.<   ",
"    o.p.q.r.X &.s.t.u.v.w.x.<   ",
"      < < < < < < < < < < < <   "};
