/* XPM */
static const char * mic16_xpm[] = {
"16 16 76 1",
" 	c None",
".	c #AFAFCF",
"+	c #737590",
"@	c #5D5B7C",
"#	c #C4C2DD",
"$	c #A7AABD",
"%	c #5F5C81",
"&	c #363459",
"*	c #2F325B",
"=	c #D1D0DF",
"-	c #9FA2B4",
";	c #5F5C7E",
">	c #38365D",
",	c #1B1841",
"'	c #CCCEE3",
")	c #A8ABBE",
"!	c #515074",
"~	c #363259",
"{	c #161640",
"]	c #CBCDE0",
"^	c #ADB1C0",
"/	c #4D4A70",
"(	c #353559",
"_	c #15113E",
":	c #3D3D62",
"<	c #A5A7BE",
"[	c #ABAEC0",
"}	c #4D4D70",
"|	c #323257",
"1	c #13133C",
"2	c #010130",
"3	c #494969",
"4	c #E9EAF5",
"5	c #D9E0F3",
"6	c #7B7C99",
"7	c #2B2E53",
"8	c #04042E",
"9	c #4B4B6A",
"0	c #F5F5FF",
"a	c #DCE1F5",
"b	c #848AA3",
"c	c #3B3F5D",
"d	c #05062E",
"e	c #E0E4F9",
"f	c #DDDFF5",
"g	c #878AA3",
"h	c #36375B",
"i	c #050A34",
"j	c #5D5D7E",
"k	c #8991AE",
"l	c #5A5976",
"m	c #1E1D47",
"n	c #17194C",
"o	c #ABAEC5",
"p	c #2D466E",
"q	c #22335A",
"r	c #1E2F60",
"s	c #354368",
"t	c #767DA0",
"u	c #8590AC",
"v	c #646790",
"w	c #3F4D71",
"x	c #41486B",
"y	c #303762",
"z	c #717FA1",
"A	c #4F5275",
"B	c #1E2958",
"C	c #9196B6",
"D	c #C9CBE2",
"E	c #6A6D8A",
"F	c #1E2042",
"G	c #A5ABC9",
"H	c #ABAFC7",
"I	c #6A6B88",
"J	c #2A2752",
"K	c #575B7A",
"       .+@      ",
"      #$%&*     ",
"      =-;>,     ",
"      ')!~{     ",
"      ]^/(_     ",
"     :<[}|12    ",
"     345678     ",
"     90abcd     ",
"     9efghi     ",
"     j klmn     ",
"     o pqr s    ",
"      t  uv     ",
"       wxy      ",
"       zAB      ",
"      CDEF      ",
"      GHIJK     "};
