/* XPM */
static const char * music_xpm[] = {
"16 16 71 1",
" 	c None",
".	c #4A43C6",
"+	c #6A66DA",
"@	c #8078DA",
"#	c #6A53C6",
"$	c #4D47CB",
"%	c #4B5EDE",
"&	c #616EE4",
"*	c #717BE4",
"=	c #9199F3",
"-	c #B9C1FE",
";	c #AFBBFE",
">	c #B9C0FE",
",	c #A2ACFE",
"'	c #7380FE",
")	c #4255D1",
"!	c #9BA7FE",
"~	c #A2AEFE",
"{	c #6E7BFE",
"]	c #6370FE",
"^	c #7888FE",
"/	c #8192FE",
"(	c #8090FE",
"_	c #7685FE",
":	c #6674FE",
"<	c #5F60ED",
"[	c #6171FE",
"}	c #5358DF",
"|	c #4F4CD1",
"1	c #4D40C6",
"2	c #4C37BD",
"3	c #461FA2",
"4	c #606BF8",
"5	c #575CE5",
"6	c #4D43C8",
"7	c #565AE3",
"8	c #4D3EC5",
"9	c #473ECB",
"0	c #4D4EDA",
"a	c #4938C2",
"b	c #4F62C1",
"c	c #8F94D5",
"d	c #5A43AC",
"e	c #4633BF",
"f	c #6479D2",
"g	c #D8DAFE",
"h	c #7674E0",
"i	c #908BCF",
"j	c #4842CF",
"k	c #472FBC",
"l	c #354EC3",
"m	c #9EA4FE",
"n	c #99A1FE",
"o	c #647DFE",
"p	c #492DB9",
"q	c #676FF8",
"r	c #5B6EFE",
"s	c #8294FE",
"t	c #4B2EBA",
"u	c #4C43C3",
"v	c #767AFE",
"w	c #491092",
"x	c #3440B5",
"y	c #6A74FE",
"z	c #6673FE",
"A	c #586DFE",
"B	c #471398",
"C	c #3A138D",
"D	c #552EAB",
"E	c #511B99",
"F	c #7073F8",
"           .+@#$",
"      %&*=-;>,'$",
"     )!;;;~{]]]$",
"      ^/(_:]]<<$",
"      [}|123  4$",
"      4$      5$",
"      56      7$",
"      78      9$",
"      0a  bccd9$",
"      9e fggggh$",
"  bcidjklmmnmmo$",
" fgggghplqrrrrh$",
"lmmmnsot uvvvvw ",
"xqyzrAhB  CDE   ",
" uFvvvw         ",
"  CDE           "};
