/* XPM */
static const char * musicbrainz_159x25_xpm[] = {
"159 25 34 1",
" 	c None",
".	c #BA478F",
"+	c #EB743A",
"@	c #B9488F",
"#	c #EB743B",
"$	c #B94790",
"%	c #BA478E",
"&	c #EB733A",
"*	c #EA753B",
"=	c #BB488F",
"-	c #EC743C",
";	c #BB478F",
">	c #EB743C",
",	c #EB753A",
"'	c #B9478E",
")	c #BA4790",
"!	c #EB753B",
"~	c #BA468F",
"{	c #EB733C",
"]	c #EB733B",
"^	c #EA743B",
"/	c #BA488F",
"(	c #B9478F",
"_	c #BB4890",
":	c #EC753A",
"<	c #EA743A",
"[	c #BB468F",
"}	c #EC733B",
"|	c #EC743B",
"1	c #EA733B",
"2	c #BB468E",
"3	c #BA468E",
"4	c #BB478E",
"5	c #B94890",
"         . +                                                                                                                                                   ",
"       @.. ##                                                                                                                                                  ",
"      $... ####                                                                                                                                                ",
"    %..... #####&                                                        ..                                                    ##*                             ",
"  =....... #######-        .....       .....                            ....               ##########                         ####                             ",
" ;........ ########>       .....       .....                            ;...               ###########                        ,###                             ",
".......... ##########      .....'     ......                             .)                ####!!#####&                        !-                              ",
".......... ##########      ......     ~.....                                               ###!    ####                                                        ",
".......... ##########      ...)..     ......   ...~   ....    .....;    ....     .....     ###!    ####   ### {#>   #####]     ###   ### ^####    #########+   ",
".......... ##########      ...$...   .../...   ...(   ...;   ........   ....   $.......;   ###!    ####  ^#######  ########    ###   ##########   ##########   ",
".......... ##########      ... ...   ... ...   ...(   ...;  .... _...;  ....   ....;)...   ####   ####   ^####### ####,+###^   ###   ####!######  #########:   ",
".......... ##########      ... %..   ../ ...   ...(   ...;  ...   .///  ....  ;...   ...;  ##########    ^####^<  ###   -###   ###   ###^   ####       ####    ",
".......... ##########      ... [..~ ...  ...   ...(   ...;  ....        ....  ....   =((.  ###########   ^###           -###   ###   ###    ####      ####     ",
".......... ##########      ...  ... ...  ...   ...(   ...;  /.....;     ....  ...$         ####   -###>  ^###      +########   ###   ###    ###-     ####      ",
".......... ##########      ...  (.. ...  ...   ...(   ...;   ........   ....  ...(         ###}    ####  ^###     -####!####   ###   ###    ###-    !###!      ",
".......... ##########      ...   ..)..  )...   ...(   ...;      ;.....  ....  ....         ###}    ####  ^###     ###-  |###   ###   ###    ###-    ###{       ",
".......... ##########      ....  .....  (...   ...=   ...;  ..[   %...  ....  ....   $...  ###}    >###  ^###    1###   ^###   ###   ###    ###-   ####        ",
".......... #########,      ...2  ....(  ....   ....@ ....; %...   ...)  ....  ....3 (...@  ######-#####  ^###    #####  ####   ###   ###    ###-  !####,,,,!   ",
"  ........ ########        ...2   ...   ....   (.........;  ..........  ....   ........$   ###########   ^###     ##########   ###   ###    ###-  ##########   ",
"   @...... ######          ...2   ...   ....    $........;   .......'   ....    .......    ##########    ^###      #####|###   ###   ###    ###-  ##########   ",
"     4.... ####+                                  5%           )=3                 ([                                ,                                         ",
"       %.. ##{                                                                                                                                                 ",
"         . #                                                                                                                                                   ",
"                                                                                                                                                               ",
"                                                                                                                                                               "};
