/* XPM */
static char *note2[]={
"16 16 20 1",
". c None",
"a c #000000",
"c c #010101",
"j c #404000",
"m c #555540",
"b c #555555",
"# c #585858",
"q c #606000",
"p c #8f8f30",
"g c #8f8f3f",
"r c #a0a000",
"o c #bfbf60",
"e c #dfdf7f",
"i c #efef9f",
"f c #efefbf",
"k c #ffffc0",
"n c #ffffcf",
"l c #ffffdf",
"h c #ffffef",
"d c #ffffff",
"..#a............",
"...aa....b......",
"...#a...bbcbc...",
"....#a.bd...cbc.",
".....abddde...ca",
".....bad##fee..a",
"....bdafee#efd.g",
"...bdhiaffe#ddgj",
"..bkhlef##fddgj.",
".mkkn##helhdgj..",
"bokkkkn#lhhpj...",
".mookkknelgj....",
"..bqrokkkpj.....",
"....bqropj......",
"......bqj.......",
"................"};
