/* XPM */
const static char *note_xpm[]={
"16 16 2 1",
". c None",
"# c #c00000",
"...........#####",
"......##########",
"......##########",
"......##########",
"......##########",
"......#####....#",
"......#........#",
"......#........#",
"......#....###.#",
"..###.#...######",
".######..#######",
"#######..#######",
"#######..#######",
"#######...#####.",
".#####.....###..",
"..###..........."};
