/* XPM */
static const char * output_xpm[] = {
"16 16 42 1",
" 	c None",
".	c #343434",
"+	c #2B333E",
"@	c #0E4870",
"#	c #040404",
"$	c #6A86A0",
"%	c #0F4F74",
"&	c #3B3A3B",
"*	c #50748C",
"=	c #AECEE2",
"-	c #4D9DC5",
";	c #1191C9",
">	c #A5AEB8",
",	c #8A959F",
"'	c #425061",
")	c #292929",
"!	c #38577A",
"~	c #77C4E0",
"{	c #108AC1",
"]	c #42A4D0",
"^	c #60B6DA",
"/	c #70AFD2",
"(	c #26445E",
"_	c #072136",
":	c #168ABA",
"<	c #1CA8D6",
"[	c #118DC7",
"}	c #239EC9",
"|	c #2AA0C6",
"1	c #1695C4",
"2	c #0A3052",
"3	c #092A46",
"4	c #2495BF",
"5	c #1C95BE",
"6	c #0C3559",
"7	c #0E3758",
"8	c #061528",
"9	c #092843",
"0	c #105686",
"a	c #07172D",
"b	c #10365C",
"c	c #080C15",
"                ",
"                ",
"                ",
"        .       ",
"       +@       ",
"      #$@       ",
"     .+%@&&&    ",
"    #*=-;>,'    ",
"   )!=~{]^/(    ",
"    _:<[}|12    ",
"     345@678    ",
"      90@       ",
"       ab       ",
"        c       ",
"                ",
"                "};
