/* XPM */
const static char *post2_xpm[]={
"16 16 8 1",
". c None",
"# c #000000",
"f c #585858",
"e c #808080",
"a c #dcdcdc",
"c c #ff0000",
"d c #ffc0c0",
"b c #ffffc0",
".....######.....",
"...##abbbba##...",
"..#bbbbbbbbbb#..",
".#bbbcccccddbb#.",
".#bbbccccccdbb#.",
"#abbbccbbbccbba#",
"#bbbbccbbbccbbb#",
"#bbbbccbbbccbbb#",
"#bbbbccccccdbbb#",
"#bbbbcccccddbba#",
".ebbbccbbbbbbbe.",
".#bbbccbbbbbba#.",
"..#bbccbbbbbb#..",
"...#bbbbbbbb#...",
"....#fabbaf#....",
"......####......"};
