/* XPM */
const static char *post_xpm[]={
"16 16 6 1",
". c None",
"d c #404000",
"a c #808000",
"# c #c0c000",
"b c #ff0000",
"c c #ffff00",
"........#######a",
"..######bbbcbbba",
"##ccbbbcbccccbca",
"bbbcbcbcbbbccbca",
"bcbcbcbcccbccbca",
"bbbcbcbcbbbccbca",
"bcccbbbcccccccca",
"bcccccccaaaaaaa.",
"ccaaaaaa....dcd.",
"aaacd.......dcd.",
"..dcd.......dcd.",
"..dcd.......dcd.",
"..dcd.......dcd.",
"..dcd.......dcd.",
"..dcd........ad.",
"...ad..........."};
