/* XPM */
static const char * rdadmin_22x22_xpm[] = {
"22 22 134 2",
"  	c None",
". 	c #0F8F34",
"+ 	c #1A943D",
"@ 	c #18933B",
"# 	c #18943C",
"$ 	c #0D8E33",
"% 	c #CDE7D3",
"& 	c #CBE6D2",
"* 	c #CCE6D2",
"= 	c #D0E8D6",
"- 	c #139137",
"; 	c #119036",
"> 	c #D1E9D7",
", 	c #FFFFFF",
"' 	c #7CC291",
") 	c #0C8E32",
"! 	c #7DC291",
"~ 	c #FEFFFF",
"{ 	c #CEE8D6",
"] 	c #CEE8D5",
"^ 	c #73BD87",
"/ 	c #76BE8B",
"( 	c #2E9E4E",
"_ 	c #0E8F33",
": 	c #2C9D4D",
"< 	c #7AC08D",
"[ 	c #73BC87",
"} 	c #74BD87",
"| 	c #098D2F",
"1 	c #078B2D",
"2 	c #CDE7D5",
"3 	c #D6EBDC",
"4 	c #008522",
"5 	c #068A2C",
"6 	c #048A2B",
"7 	c #008523",
"8 	c #D7ECDD",
"9 	c #D0E9D7",
"0 	c #068B2C",
"a 	c #098D30",
"b 	c #71BD87",
"c 	c #4DAC68",
"d 	c #C6E4CF",
"e 	c #C2E3CC",
"f 	c #45A962",
"g 	c #73BE88",
"h 	c #1C953F",
"i 	c #B9DEC4",
"j 	c #70BC85",
"k 	c #B2DBBE",
"l 	c #93CDA4",
"m 	c #E8F4EB",
"n 	c #E1F0E4",
"o 	c #A0D2AD",
"p 	c #A6D6B4",
"q 	c #6EBB84",
"r 	c #BADFC5",
"s 	c #1D9540",
"t 	c #0A8D30",
"u 	c #41A65E",
"v 	c #CBE7D3",
"w 	c #F4FBF6",
"x 	c #F5FAF7",
"y 	c #D2EAD9",
"z 	c #D1E9D8",
"A 	c #2D9D4E",
"B 	c #0B8D31",
"C 	c #108F35",
"D 	c #018828",
"E 	c #F1F8F3",
"F 	c #42A760",
"G 	c #00811C",
"H 	c #00821B",
"I 	c #4AAB66",
"J 	c #F3F9F5",
"K 	c #BCE0C6",
"L 	c #018929",
"M 	c #078C2E",
"N 	c #00831D",
"O 	c #B7DDC2",
"P 	c #2D9D4D",
"Q 	c #108F34",
"R 	c #088C2F",
"S 	c #349F51",
"T 	c #B8DDC3",
"U 	c #00811B",
"V 	c #058A2B",
"W 	c #6FBC85",
"X 	c #D9EDDE",
"Y 	c #D8EDDE",
"Z 	c #19943C",
"` 	c #DCEFE1",
" .	c #E3F2E7",
"..	c #76BF8C",
"+.	c #87C79A",
"@.	c #E1F1E6",
"#.	c #DBEEE0",
"$.	c #17933B",
"%.	c #D3EAD9",
"&.	c #7AC18E",
"*.	c #008726",
"=.	c #C2E2CB",
"-.	c #239844",
";.	c #269947",
">.	c #B6DDC2",
",.	c #038A2A",
"'.	c #F8FCF9",
").	c #57B171",
"!.	c #0E8E33",
"~.	c #5CB375",
"{.	c #FDFEFD",
"].	c #BBDFC6",
"^.	c #058A2C",
"/.	c #38A257",
"(.	c #E9F5ED",
"_.	c #CFE9D7",
":.	c #FBFDFC",
"<.	c #CDE8D4",
"[.	c #E2F1E6",
"}.	c #3CA45B",
"|.	c #0C8E31",
"1.	c #058B2C",
"2.	c #6AB981",
"3.	c #008622",
"4.	c #0D8F33",
"5.	c #E4F3E9",
"6.	c #E5F3E9",
"7.	c #63B67B",
"8.	c #048A2A",
"9.	c #068B2D",
"0.	c #A4D5B2",
"a.	c #A5D5B3",
"b.	c #028928",
"c.	c #028828",
"    . . . . . . . . . . . . . . . . . .     ",
"  . . . . . . . . . . . . . . . . . . . .   ",
"+ @ @ @ @ @ # $ . . . . . . $ # @ @ @ @ @ + ",
"% & * * * & = - . . . . . . ; > & * * * & % ",
", , , , , , , ' ) . . . . ) ! , , , , , , , ",
", , , , , ~ , { - . . . . - ] , ~ , , , , , ",
"^ ^ ^ ^ / , , , ( _ . . . : , , , < [ } } } ",
"| | | | 1 2 , , 3 4 5 6 7 8 , , 9 0 a | | | ",
". . . . . b , , , c d e f , , , g . . . . . ",
". . . . . h i j k l m n o p q r s . . . . . ",
". . . . . t u , v > w x y z , A B . . . . . ",
". . . . . C D ] E F G H I J K L C . . . . . ",
". . . . . M N O P t Q C R S T U V . . . . . ",
". . . . . W X Y Z . . . . + `  .... . . . . ",
". . . . C +.@.#.$.. . . . Z  .%.&.C . . . . ",
". . . . . ) *.=.-.. . . . ;.>.,._ . . . . . ",
". . . . . . 1 i '.).) !.~.{.].^.. . . . . . ",
". . . . . ) /., (._.:.:.<.[., }.|.. . . . . ",
". . . . . Q 1.2.3.4.5.6.!.4 7.8.C . . . . . ",
". . . . . . . $ . 9.0.a.1 . $ . . . . . . . ",
"  . . . . . . . . C b.c.C . . . . . . . .   ",
"    . . . . . . . . . . . . . . . . . .     "};
