/* XPM */
static const char * rdadmin_64x64_xpm[] = {
"64 64 286 2",
"  	c None",
". 	c #0F8F34",
"+ 	c #00821D",
"@ 	c #008420",
"# 	c #008523",
"$ 	c #108F35",
"% 	c #008624",
"& 	c #008521",
"* 	c #00831E",
"= 	c #E4F3E8",
"- 	c #E2F2E7",
"; 	c #D4EBDA",
"> 	c #0E8E33",
", 	c #068B2D",
"' 	c #D9EEE0",
") 	c #E1F1E6",
"! 	c #E1F1E7",
"~ 	c #E3F2E7",
"{ 	c #FEFFFE",
"] 	c #FFFFFF",
"^ 	c #5EB578",
"/ 	c #0D8E32",
"( 	c #5BB274",
"_ 	c #D7ECDD",
": 	c #078B2D",
"< 	c #028929",
"[ 	c #DAEEE0",
"} 	c #46A963",
"| 	c #0E8F33",
"1 	c #108F34",
"2 	c #44A861",
"3 	c #C4E3CD",
"4 	c #068B2C",
"5 	c #048A2B",
"6 	c #C7E5CF",
"7 	c #32A052",
"8 	c #2D9E4E",
"9 	c #A9D7B7",
"0 	c #088C2E",
"a 	c #ACD8B9",
"b 	c #FEFEFE",
"c 	c #219744",
"d 	c #1A943D",
"e 	c #94CDA4",
"f 	c #098C2F",
"g 	c #0A8D30",
"h 	c #94CDA5",
"i 	c #E0F1E5",
"j 	c #EBF6EF",
"k 	c #F6FBF7",
"l 	c #169239",
"m 	c #FDFEFD",
"n 	c #EBF6EE",
"o 	c #139036",
"p 	c #78C18D",
"q 	c #0B8D31",
"r 	c #0C8E32",
"s 	c #7AC18F",
"t 	c #1D953E",
"u 	c #008623",
"v 	c #AAD7B7",
"w 	c #E6F3EA",
"x 	c #EFF7F1",
"y 	c #AFDABC",
"z 	c #2B9D4C",
"A 	c #5CB375",
"B 	c #0E8F34",
"C 	c #5FB578",
"D 	c #36A255",
"E 	c #088C2D",
"F 	c #C1E3CB",
"G 	c #D6ECDD",
"H 	c #028828",
"I 	c #DEF0E3",
"J 	c #C8E5D1",
"K 	c #03892A",
"L 	c #41A65E",
"M 	c #47A963",
"N 	c #0B8D30",
"O 	c #49AA64",
"P 	c #3EA65C",
"Q 	c #058B2C",
"R 	c #109035",
"S 	c #4CAB67",
"T 	c #4BAB67",
"U 	c #D3EADA",
"V 	c #C2E3CC",
"W 	c #239946",
"X 	c #CDE8D5",
"Y 	c #018928",
"Z 	c #C8E5D0",
"` 	c #DDEFE2",
" .	c #2F9E4F",
"..	c #C3E3CC",
"+.	c #91CCA1",
"@.	c #34A054",
"#.	c #64B77C",
"$.	c #0C8E31",
"%.	c #D0E9D7",
"&.	c #E3F1E7",
"*.	c #77BF8D",
"=.	c #FCFEFD",
"-.	c #D2EBDA",
";.	c #A2D4B0",
">.	c #C9E6D1",
",.	c #EEF7F2",
"'.	c #76BF8B",
").	c #97CFA8",
"!.	c #088B2E",
"~.	c #2D9D4E",
"{.	c #DDEFE3",
"].	c #95CEA5",
"^.	c #CCE8D4",
"/.	c #9ED2AC",
"(.	c #D2EAD9",
"_.	c #AAD8B7",
":.	c #9AD0AA",
"<.	c #7BC290",
"[.	c #15923A",
"}.	c #8FCBA1",
"|.	c #008727",
"1.	c #34A154",
"2.	c #80C393",
"3.	c #0F8F35",
"4.	c #139138",
"5.	c #CEE8D5",
"6.	c #299B49",
"7.	c #A8D7B5",
"8.	c #058A2C",
"9.	c #4BAB66",
"0.	c #BCDFC6",
"a.	c #87C79A",
"b.	c #259A47",
"c.	c #A5D5B3",
"d.	c #A9D7B6",
"e.	c #2E9E4F",
"f.	c #ABD8B8",
"g.	c #139137",
"h.	c #39A358",
"i.	c #CDE8D4",
"j.	c #038A2A",
"k.	c #82C495",
"l.	c #119036",
"m.	c #FFFFFE",
"n.	c #1E9640",
"o.	c #9FD2AE",
"p.	c #D5ECDB",
"q.	c #C9E6D2",
"r.	c #A8D6B5",
"s.	c #A1D3AE",
"t.	c #C2E2CB",
"u.	c #CFE8D6",
"v.	c #F2F9F5",
"w.	c #76C08B",
"x.	c #84C697",
"y.	c #F1F8F3",
"z.	c #B6DDC1",
"A.	c #99D0A8",
"B.	c #BCE0C6",
"C.	c #F3F9F5",
"D.	c #53AF6E",
"E.	c #139037",
"F.	c #3FA65D",
"G.	c #008826",
"H.	c #048A2A",
"I.	c #47A964",
"J.	c #DCEEE1",
"K.	c #62B67A",
"L.	c #008827",
"M.	c #BADFC4",
"N.	c #008625",
"O.	c #008726",
"P.	c #45A861",
"Q.	c #068A2C",
"R.	c #5FB577",
"S.	c #AED8BB",
"T.	c #73BD89",
"U.	c #83C397",
"V.	c #018828",
"W.	c #A6D4B4",
"X.	c #F5FAF7",
"Y.	c #91CAA3",
"Z.	c #058A2B",
"`.	c #058B2B",
" +	c #A1D3AF",
".+	c #68B97F",
"++	c #83C596",
"@+	c #A1D3B0",
"#+	c #0D8E33",
"$+	c #2E9D4E",
"%+	c #77C08C",
"&+	c #50AE6C",
"*+	c #209742",
"=+	c #36A155",
"-+	c #CBE7D3",
";+	c #6EBC85",
">+	c #9BD0AB",
",+	c #40A65D",
"'+	c #45A961",
")+	c #149138",
"!+	c #49AA65",
"~+	c #BBDFC6",
"{+	c #0D8F33",
"]+	c #008522",
"^+	c #B1DBBD",
"/+	c #02892A",
"(+	c #B3DBBE",
"_+	c #DCEFE2",
":+	c #008725",
"<+	c #9BD1AB",
"[+	c #F4FAF5",
"}+	c #249946",
"|+	c #EAF6ED",
"1+	c #1B953E",
"2+	c #159239",
"3+	c #61B579",
"4+	c #34A053",
"5+	c #A1D4B0",
"6+	c #46A862",
"7+	c #61B57A",
"8+	c #7EC392",
"9+	c #159238",
"0+	c #38A156",
"a+	c #74BE8A",
"b+	c #B2DBBE",
"c+	c #D8EDDE",
"d+	c #4DAC68",
"e+	c #038929",
"f+	c #8FCAA0",
"g+	c #3BA359",
"h+	c #56B070",
"i+	c #79C08E",
"j+	c #A3D5B1",
"k+	c #E9F5ED",
"l+	c #159139",
"m+	c #1F9641",
"n+	c #F7FCF9",
"o+	c #C0E1C9",
"p+	c #DFF0E4",
"q+	c #1B943E",
"r+	c #0B8E31",
"s+	c #2A9B4B",
"t+	c #0A8C30",
"u+	c #0B8C2F",
"v+	c #D5EBDC",
"w+	c #F4FAF6",
"x+	c #119035",
"y+	c #71BD87",
"z+	c #FBFDFC",
"A+	c #17933B",
"B+	c #99CFA9",
"C+	c #55B06F",
"D+	c #36A154",
"E+	c #37A155",
"F+	c #59B273",
"G+	c #E7F4EA",
"H+	c #F3FAF5",
"I+	c #19943D",
"J+	c #7AC190",
"K+	c #79C18E",
"L+	c #9CD1AB",
"M+	c #72BD88",
"N+	c #68B87F",
"O+	c #75BF8A",
"P+	c #85C698",
"Q+	c #B7DDC2",
"R+	c #78C08D",
"S+	c #1D9640",
"T+	c #BEE0C8",
"U+	c #63B67A",
"V+	c #63B67B",
"W+	c #18933B",
"X+	c #6AB982",
"Y+	c #89C89B",
"Z+	c #91CCA2",
"`+	c #44A760",
" @	c #46A962",
".@	c #4EAD69",
"+@	c #5FB479",
"@@	c #65B87D",
"#@	c #129137",
"$@	c #F8FCF9",
"%@	c #F9FCFA",
"&@	c #1E9641",
"*@	c #95CEA6",
"=@	c #96CFA6",
"                . . . . . . . . . . . . . . . . . . . . . . . . . . . . . . . . . . . . . . . . . . . . . . . .                 ",
"          . . . . . . . . . . . . . . . . . . . . . . . . . . . . . . . . . . . . . . . . . . . . . . . . . . . . . .           ",
"        . . . . . . . . . . . . . . . . . . . . . . . . . . . . . . . . . . . . . . . . . . . . . . . . . . . . . . . .         ",
"      . . . . . . . . . . . . . . . . . . . . . . . . . . . . . . . . . . . . . . . . . . . . . . . . . . . . . . . . . .       ",
"    . . . . . . . . . . . . . . . . . . . . . . . . . . . . . . . . . . . . . . . . . . . . . . . . . . . . . . . . . . . .     ",
"  . . . . . . . . . . . . . . . . . . . . . . . . . . . . . . . . . . . . . . . . . . . . . . . . . . . . . . . . . . . . . .   ",
"  . . . . . . . . . . . . . . . . . . . . . . . . . . . . . . . . . . . . . . . . . . . . . . . . . . . . . . . . . . . . . .   ",
"  . . . . . . . . . . . . . . . . . . . . . . . . . . . . . . . . . . . . . . . . . . . . . . . . . . . . . . . . . . . . . .   ",
"+ @ @ @ @ @ @ @ @ @ @ @ @ @ @ @ @ @ @ # $ . . . . . . . . . . . . . . . . . . . . . . $ % & & & & & & & & & & & & & & & & & & * ",
"= - - - - - - - - - - - - - - - - - - ; > . . . . . . . . . . . . . . . . . . . . . . , ' ) ! ! ! ! ! ! ! ! ! ! ! ! ! ! ! ! ! ~ ",
"{ ] ] ] ] ] ] ] ] ] ] ] ] ] ] ] ] ] ] ] ^ / . . . . . . . . . . . . . . . . . . . . . ( ] ] ] ] ] ] ] ] ] ] ] ] ] ] ] ] ] ] ] { ",
"] ] ] ] ] ] ] ] ] ] ] ] ] ] ] ] ] ] ] ] _ : . . . . . . . . . . . . . . . . . . . . < [ ] ] ] ] ] ] ] ] ] ] ] ] ] ] ] ] ] ] ] ] ",
"] ] ] ] ] ] ] ] ] ] ] ] ] ] ] ] ] ] ] ] ] } | . . . . . . . . . . . . . . . . . . 1 2 ] ] ] ] ] ] ] ] ] ] ] ] ] ] ] ] ] ] ] ] ] ",
"] ] ] ] ] ] ] ] ] ] ] ] ] ] ] ] ] ] ] ] ] 3 4 . . . . . . . . . . . . . . . . . . 5 6 ] ] ] ] ] ] ] ] ] ] ] ] ] ] ] ] ] ] ] ] ] ",
"] ] ] ] ] ] ] ] ] ] ] ] ] ] ] ] ] ] ] ] ] ] 7 . . . . . . . . . . . . . . . . . . 8 ] ] ] ] ] ] ] ] ] ] ] ] ] ] ] ] ] ] ] ] ] ] ",
"] ] ] ] ] ] ] ] ] ] ] ] ] ] ] ] ] ] ] ] ] ] 9 , . . . . . . . . . . . . . . . . 0 a ] ] ] ] ] ] ] ] ] ] ] ] ] ] ] ] ] ] ] ] ] ] ",
"] ] ] ] ] ] ] ] ] ] ] ] ] ] ] ] ] ] ] ] ] ] b c 1 . . . . . . . . . . . . . . . d ] ] ] ] ] ] ] ] ] ] ] ] ] ] ] ] ] ] ] ] ] ] ] ",
"] ] ] ] ] ] ] ] ] ] ] ] ] ] ] ] ] ] ] ] ] ] ] e f . . . . . . . . . . . . . . g h ] ] ] ] ] ] ] ] ] ] ] ] ] ] ] ] ] ] ] ] ] ] ] ",
"i i i i i i i i i i i i i j ] ] ] ] ] ] ] ] ] k l . . . . . . . . . . . . . . | m ] ] ] ] ] ] ] ] ] n ) ) ) ) ) ) ) ) ) ) ) ) ) ",
"% % % % % % % % % % % % % o ] ] ] ] ] ] ] ] ] ] p q . . . . . . . . . . . . r s ] ] ] ] ] ] ] ] ] m t u u u u u u u u u u u u u ",
". . . . . . . . . . . . . f v ] ] ] ] ] ] ] ] ] w > . . . . . . . . . . . . , x ] ] ] ] ] ] ] ] ] y 5 . . . . . . . . . . . . . ",
". . . . . . . . . . . . . . z ] ] ] ] ] ] ] ] ] ] A / . . . . . . . . . . B C ] ] ] ] ] ] ] ] ] ] D 1 . . . . . . . . . . . . . ",
". . . . . . . . . . . . . . E F ] ] ] ] ] ] ] ] ] G 0 . . . . $ $ . . . . H I ] ] ] ] ] ] ] ] ] J K . . . . . . . . . . . . . . ",
". . . . . . . . . . . . . . . L ] ] ] ] ] ] ] ] ] ] M B . 1 N O P Q R . . S ] ] ] ] ] ] ] ] ] ] T . . . . . . . . . . . . . . . ",
". . . . . . . . . . . . . . . f U ] ] ] ] ] ] ] ] ] V f . W n ] ] X $ $ Y Z ] ] ] ] ] ] ] ] ] ` 5 . . . . . . . . . . . . . . . ",
". . . . . . . . . . . . . . . | A ] ] ] ] ] ] ] ] ] ]  .f ..] ] ] ] +.0 @.] ] ] ] ] ] ] ] ] ] #./ . . . . . . . . . . . . . . . ",
". . . . . . . . . . . . . . . . $.w ] ] ] %.&.] ] ] ] *.< =.] ] ] ] -.* ;.] ] ] ] >.Z ] ] ] ,.0 . . . . . . . . . . . . . . . . ",
". . . . . . . . . . . . . . . . r '.] ).r !., ~.{.] ] ].: ^.] ] ] ] /.* (.] ] _.. , 4 q :.] <.$.. . . . . . . . . . . . . . . . ",
". . . . . . . . . . . . . . . . . [.}.|.1.:.2.3.4.y 5.6.: ; ] ] ] ] 7.8.9.0.a.g b.c.d.e.0 f.g.. . . . . . . . . . . . . . . . . ",
". . . . . . . . . . . . . . . . . B f h.] ] ] i.f 8.j.8.y ] ] ] ] ] ] k.8.5 0 l.m.] ] ] n.q . . . . . . . . . . . . . . . . . . ",
". . . . . . . . . . . . . . . . . . 0 o.] ] ] ] p.q.c.r.] ] ] ] ] ] ] ] s.t.u.v.] ] ] ] w.$ . . . . . . . . . . . . . . . . . . ",
". . . . . . . . . . . . . . . . . . f x.] ] ] ] ] ] ] ] ] y.z.A.:.B.C.] ] ] ] ] ] ] ] ] D.1 . . . . . . . . . . . . . . . . . . ",
". . . . . . . . . . . . . . . . . . . E._ ] ] ] ] ] ] 3 F.G.H.f 0 < < I.5.] ] ] ] ] b _.Q . . . . . . . . . . . . . . . . . . . ",
". . . . . . . . . . . . . . . . . . . . < J.] ] ] ] K.L.R . . . . . . $ Y s ] ] ] ] M.N.. . . . . . . . . . . . . . . . . . . . ",
". . . . . . . . . . . . . . . . . . . . O.6 ] ] ] P.q . . . . . . . . . . Q.R.] ] ] :./ . . . . . . . . . . . . . . . . . . . . ",
". . . . . . . . . . . . . . . . . . . . 5 S.] ] T.N . . . . . . . . . . . . 8.h ] ] U.. . . . . . . . . . . . . . . . . . . . . ",
". . . . . . . . . . . . . . . . . . . $ V.W.] _ N . . . . . . . . . . . . . . : X.] Y.Z.. . . . . . . . . . . . . . . . . . . . ",
". . . . . . . . . . . . . . . . $ / R `. +] ] .+q . . . . . . . . . . . . . . / ++] ] @+Z.#+: 1 . . . . . . . . . . . . . . . . ",
". . . . . . . . . . . . . . . $.$+%+&+3 ] ] ] *+1 . . . . . . . . . . . . . . . =+] ] ] -+;+>+,+!.. . . . . . . . . . . . . . . ",
". . . . . . . . . . . . . . . '+] ] ] ] ] ] - )+. . . . . . . . . . . . . . . . j.] ] ] ] ] ] ] !+> . . . . . . . . . . . . . . ",
". . . . . . . . . . . . . . g ~+] ] ] ] ] ] U {+. . . . . . . . . . . . . . . . ]+] ] ] ] ] ] ] ^+/+. . . . . . . . . . . . . . ",
". . . . . . . . . . . . . . q (+] ] ] ] ] ] _+l.. . . . . . . . . . . . . . . . :+] ] ] ] ] ] ] <+Q.. . . . . . . . . . . . . . ",
". . . . . . . . . . . . . . . 7 ] ] ] ] ] ] [+d . . . . . . . . . . . . . . . . }+] ] ] ] ] ] |+1+$ . . . . . . . . . . . . . . ",
". . . . . . . . . . . . . . . . 2+3+4+5+] ] ] 6+| . . . . . . . . . . . . . . R 7+] ] ] 8+9+0+: $ . . . . . . . . . . . . . . . ",
". . . . . . . . . . . . . . . . . . 1 , a+] ] b+f . . . . . . . . . . . . . . O.c+] ] d+0 . . . . . . . . . . . . . . . . . . . ",
". . . . . . . . . . . . . . . . . . . . e+f+] ] g+| . . . . . . . . . . . . > h+] ] i+B . . . . . . . . . . . . . . . . . . . . ",
". . . . . . . . . . . . . . . . . . . . 8.j+] ] k+l+. . . . . . . . . . . | m+n+] ] e #+. . . . . . . . . . . . . . . . . . . . ",
". . . . . . . . . . . . . . . . . . . . Y o+] ] ] p+q+r+. . . . . . . 1 f s+k+] ] ] ^+t+. . . . . . . . . . . . . . . . . . . . ",
". . . . . . . . . . . . . . . . . . . #+u+v+] ] ] ] w+K.$ 8.#+R R / Z.x+y+z+] ] ] ] [ x+B . . . . . . . . . . . . . . . . . . . ",
". . . . . . . . . . . . . . . . . . . A+p+] ] ] ] ] ] ] i B+C+D+E+F+ +G+] ] ] ] ] ] ] H+I+. . . . . . . . . . . . . . . . . . . ",
". . . . . . . . . . . . . . . . . . N a+] ] ] ] ] ] ] ] ] ] ] ] ] ] ] ] ] ] ] ] ] ] ] ] J+. . . . . . . . . . . . . . . . . . . ",
". . . . . . . . . . . . . . . . . . g K+] ] ] ] ~+L+<.M+] ] ] ] ] ] ] =.N+O+P+Q+] ] ] ] R+. . . . . . . . . . . . . . . . . . . ",
". . . . . . . . . . . . . . . . . . . S+w+] ] T+Q 0 g 0 U+] ] ] ] ] ] V+!.N f :+0.] ] n g.. . . . . . . . . . . . . . . . . . . ",
". . . . . . . . . . . . . . . . . . . | W+X+F+| . . . . g Y+] ] ] ] Z+, . . . . q `+D.. . . . . . . . . . . . . . . . . . . . . ",
". . . . . . . . . . . . . . . . . . . . . r / . . . . . .  @] ] ] ] .@. . . . . . > #+. . . . . . . . . . . . . . . . . . . . . ",
". . . . . . . . . . . . . . . . . . . . . . . . . . . . . +@] ] ] ] @@/ . . . . . . . . . . . . . . . . . . . . . . . . . . . . ",
"  . . . . . . . . . . . . . . . . . . . . . . . . . . . . #@$@] ] %@1+1 . . . . . . . . . . . . . . . . . . . . . . . . . . .   ",
"  . . . . . . . . . . . . . . . . . . . . . . . . . . . . . &@*@=@c . . . . . . . . . . . . . . . . . . . . . . . . . . . . .   ",
"  . . . . . . . . . . . . . . . . . . . . . . . . . . . . . . / / . . . . . . . . . . . . . . . . . . . . . . . . . . . . . .   ",
"    . . . . . . . . . . . . . . . . . . . . . . . . . . . . . . . . . . . . . . . . . . . . . . . . . . . . . . . . . . . .     ",
"      . . . . . . . . . . . . . . . . . . . . . . . . . . . . . . . . . . . . . . . . . . . . . . . . . . . . . . . . . .       ",
"        . . . . . . . . . . . . . . . . . . . . . . . . . . . . . . . . . . . . . . . . . . . . . . . . . . . . . . . .         ",
"          . . . . . . . . . . . . . . . . . . . . . . . . . . . . . . . . . . . . . . . . . . . . . . . . . . . . . .           ",
"                . . . . . . . . . . . . . . . . . . . . . . . . . . . . . . . . . . . . . . . . . . . . . . . .                 "};
