/* XPM */
static const char * rdadmin_32x32_xpm[] = {
"32 32 152 2",
"  	c None",
". 	c #0F8F34",
"+ 	c #109036",
"@ 	c #109035",
"# 	c #73BB84",
"$ 	c #6EBA81",
"% 	c #70BA83",
"& 	c #078B2D",
"* 	c #048A2B",
"= 	c #72BC85",
"- 	c #72BB84",
"; 	c #FFFFFF",
"> 	c #4BAB67",
", 	c #108F35",
"' 	c #4AAA66",
") 	c #CBE7D4",
"! 	c #038A2A",
"~ 	c #03892A",
"{ 	c #CCE7D4",
"] 	c #309F50",
"^ 	c #B2DBBE",
"/ 	c #098C2E",
"( 	c #098C2F",
"_ 	c #B0DABC",
": 	c #6DBA82",
"< 	c #6DBA83",
"[ 	c #1B953E",
"} 	c #19943D",
"| 	c #71BC85",
"1 	c #6EBA82",
"2 	c #088C2E",
"3 	c #BBDFC6",
"4 	c #95CDA5",
"5 	c #0D8E32",
"6 	c #0D8E33",
"7 	c #96CEA6",
"8 	c #C0E2CA",
"9 	c #068B2C",
"0 	c #3DA45A",
"a 	c #0A8D30",
"b 	c #108F34",
"c 	c #0B8D31",
"d 	c #0A8C2F",
"e 	c #40A65E",
"f 	c #028929",
"g 	c #D6ECDD",
"h 	c #7FC393",
"i 	c #35A154",
"j 	c #229844",
"k 	c #7EC392",
"l 	c #DCEFE1",
"m 	c #008827",
"n 	c #57B171",
"o 	c #F8FCF9",
"p 	c #6CBA82",
"q 	c #7CC290",
"r 	c #D2EADA",
"s 	c #6BBA82",
"t 	c #4CA962",
"u 	c #F3FAF5",
"v 	c #6ABA81",
"w 	c #69B980",
"x 	c #F7FBF8",
"y 	c #5AB274",
"z 	c #249846",
"A 	c #C3E3CC",
"B 	c #9ED2AD",
"C 	c #16923B",
"D 	c #2D9D4D",
"E 	c #A4D4B2",
"F 	c #88C79A",
"G 	c #329F52",
"H 	c #C1E2CB",
"I 	c #C5E4CE",
"J 	c #289B49",
"K 	c #4DAC68",
"L 	c #F4FAF6",
"M 	c #DBEEE0",
"N 	c #DBEFE0",
"O 	c #DDEFE3",
"P 	c #E1F1E5",
"Q 	c #FEFEFE",
"R 	c #36A155",
"S 	c #B1DBBD",
"T 	c #88C89B",
"U 	c #018828",
"V 	c #088C2F",
"W 	c #94CDA4",
"X 	c #99CFA8",
"Y 	c #058B2C",
"Z 	c #59B172",
"` 	c #0B8D30",
" .	c #7CC291",
"..	c #46A863",
"+.	c #018928",
"@.	c #90CBA1",
"#.	c #DDEFE2",
"$.	c #008624",
"%.	c #EFF7F1",
"&.	c #8CC99E",
"*.	c #008726",
"=.	c #078B2C",
"-.	c #119035",
";.	c #B6DDC1",
">.	c #CAE6D2",
",.	c #83C596",
"'.	c #8CCA9E",
").	c #D4EBDB",
"!.	c #C6E4CF",
"~.	c #64B77C",
"{.	c #6FBC86",
"].	c #7DC18F",
"^.	c #56B070",
"/.	c #A8D7B6",
"(.	c #B6DDC2",
"_.	c #A1D3B0",
":.	c #A3D4B1",
"<.	c #92CCA3",
"[.	c #0C8E32",
"}.	c #7CC190",
"|.	c #6CBA83",
"1.	c #0E8F33",
"2.	c #54B06F",
"3.	c #50AD6B",
"4.	c #078B2E",
"5.	c #B5DCC0",
"6.	c #E3F2E7",
"7.	c #5DB376",
"8.	c #1C953F",
"9.	c #1E9640",
"0.	c #62B579",
"a.	c #E9F5ED",
"b.	c #BFE1C8",
"c.	c #3EA55C",
"d.	c #DFF0E4",
"e.	c #BCE0C6",
"f.	c #B8DEC2",
"g.	c #D7ECDD",
"h.	c #42A760",
"i.	c #A8D6B6",
"j.	c #8FCBA0",
"k.	c #008622",
"l.	c #79C18E",
"m.	c #7AC18F",
"n.	c #04892A",
"o.	c #008521",
"p.	c #9CD1AC",
"q.	c #269A48",
"r.	c #2A9C4B",
"s.	c #B7DEC2",
"t.	c #B8DEC3",
"u.	c #0A8D2F",
"      . . . . . . . . . . . . . . . . . . . . . . . . . .       ",
"    . . . . . . . . . . . . . . . . . . . . . . . . . . . .     ",
"  . . . . . . . . . . . . . . . . . . . . . . . . . . . . . .   ",
"+ @ @ @ @ @ @ @ @ @ . . . . . . . . . . . . @ @ @ @ @ @ @ @ @ + ",
"# $ $ $ $ $ $ $ $ % & . . . . . . . . . . * = $ $ $ $ $ $ $ $ - ",
"; ; ; ; ; ; ; ; ; ; > , . . . . . . . . , ' ; ; ; ; ; ; ; ; ; ; ",
"; ; ; ; ; ; ; ; ; ; ) ! . . . . . . . . ~ { ; ; ; ; ; ; ; ; ; ; ",
"; ; ; ; ; ; ; ; ; ; ; ] . . . . . . . . ] ; ; ; ; ; ; ; ; ; ; ; ",
"; ; ; ; ; ; ; ; ; ; ; ^ / . . . . . . ( _ ; ; ; ; ; ; ; ; ; ; ; ",
": : : : : : < ; ; ; ; ; [ . . . . . . } ; ; ; ; ; | 1 1 1 1 1 1 ",
"@ @ @ @ @ @ 2 3 ; ; ; ; 4 5 . . . . 6 7 ; ; ; ; 8 9 @ @ @ @ @ @ ",
". . . . . . . 0 ; ; ; ; ; a b b c @ d ; ; ; ; ; e b . . . . . . ",
". . . . . . . f g ; ; ; ; h i ; ; j k ; ; ; ; l m . . . . . . . ",
". . . . . . . b n o p q ; r s ; ; t u o v w x y , . . . . . . . ",
". . . . . . . . a z A B C D E ; ; F G ( H I J 2 . . . . . . . . ",
". . . . . . . . . K ; ; L M ; N O ; P Q ; ; R . . . . . . . . . ",
". . . . . . . . . & S ; ; T 9 U m V W ; ; X Y . . . . . . . . . ",
". . . . . . . . . , Z ; s ` . . . . &  .; ... . . . . . . . . . ",
". . . . . . . . a +.@.#.m . . . . . . $.%.&.*.=.. . . . . . . . ",
". . . . . . . -.;.>.; ,.. . . . . . . . '.; ).!., . . . . . . . ",
". . . . . . . ~.; ; ; {.. . . . . . . @ ].; ; ; ^., . . . . . . ",
". . . . . . . 5 /.(.; W 5 . . . . . . 5 _.; :.<.2 . . . . . . . ",
". . . . . . . . [.* }.; 9 . . . . . . ( ; |.2 1.. . . . . . . . ",
". . . . . . . . . , 2.; A m , . . , f { ; 3.. . . . . . . . . . ",
". . . . . . . . . 4.5.; ; 6.7.8.9.0.a.; ; b.4.. . . . . . . . . ",
". . . . . . . . . c.; ; d.e.; ; ; ; f.g.; ; h.. . . . . . . . . ",
". . . . . . . . . 2 i.j.k.! l.; ; m.n.o.F p.9 . . . . . . . . . ",
". . . . . . . . . . c [.. . q.; ; r.. . 6 [.. . . . . . . . . . ",
". . . . . . . . . . . . . . Y s.t.2 . . . . . . . . . . . . . . ",
"  . . . . . . . . . . . . . . u.d . . . . . . . . . . . . . .   ",
"    . . . . . . . . . . . . . . . . . . . . . . . . . . . .     ",
"      . . . . . . . . . . . . . . . . . . . . . . . . . .       "};
