/* XPM */
static const char * rdadmin_16x16_xpm[] = {
"16 16 103 2",
"  	c None",
". 	c #0F8F34",
"+ 	c #028929",
"@ 	c #088C2E",
"# 	c #078C2D",
"$ 	c #0E8E33",
"% 	c #C6E4CD",
"& 	c #C3E2CB",
"* 	c #C4E2CB",
"= 	c #D4EADA",
"- 	c #0B8D30",
"; 	c #098C2F",
"> 	c #D5EBDA",
", 	c #FFFFFF",
"' 	c #90CBA2",
") 	c #048A2B",
"! 	c #91CCA2",
"~ 	c #A1D3AE",
"{ 	c #A1D2AE",
"] 	c #BEE0C8",
"^ 	c #ECF6EF",
"/ 	c #108F35",
"( 	c #068B2D",
"_ 	c #C0E1C9",
": 	c #A2D3AE",
"< 	c #068C2D",
"[ 	c #38A256",
"} 	c #F7FBF8",
"| 	c #FEFFFE",
"1 	c #7DC18F",
"2 	c #088B2D",
"3 	c #068B2C",
"4 	c #7EC190",
"5 	c #FEFFFF",
"6 	c #F8FCF9",
"7 	c #068C2E",
"8 	c #19943D",
"9 	c #C2E2CB",
"0 	c #BBDFC5",
"a 	c #ACD8B9",
"b 	c #CFE9D7",
"c 	c #CAE6D2",
"d 	c #A8D7B6",
"e 	c #BADFC5",
"f 	c #C3E3CD",
"g 	c #1A943D",
"h 	c #0B8D31",
"i 	c #35A154",
"j 	c #EFF7F1",
"k 	c #C5E4CD",
"l 	c #FBFFFD",
"m 	c #FCFDFD",
"n 	c #C8E5D0",
"o 	c #F0F8F2",
"p 	c #279A49",
"q 	c #0C8E32",
"r 	c #007F19",
"s 	c #CEE8D5",
"t 	c #96CEA7",
"u 	c #008119",
"v 	c #9CD1AC",
"w 	c #BEE1C7",
"x 	c #00811B",
"y 	c #1B953E",
"z 	c #69B77B",
"A 	c #C4E4CD",
"B 	c #058A2B",
"C 	c #0F8F35",
"D 	c #70B981",
"E 	c #1C953F",
"F 	c #2E9D4F",
"G 	c #D3EADA",
"H 	c #D4EBDA",
"I 	c #DDEFE2",
"J 	c #C3E3CC",
"K 	c #2B9C4B",
"L 	c #0D8E32",
"M 	c #007B10",
"N 	c #BEE0C7",
"O 	c #3EA55C",
"P 	c #42A75F",
"Q 	c #B4DCC0",
"R 	c #007E14",
"S 	c #0D8E33",
"T 	c #17923B",
"U 	c #FDFEFD",
"V 	c #E9F5ED",
"W 	c #BBDFC6",
"X 	c #BCDFC6",
"Y 	c #E6F3EA",
"Z 	c #18933D",
"` 	c #108F34",
" .	c #008928",
"..	c #61B579",
"+.	c #C3E4CD",
"@.	c #007D15",
"#.	c #5AB274",
"$.	c #008827",
"%.	c #0A8D30",
"&.	c #4FAD6A",
"*.	c #50AD6A",
"=.	c #088C2F",
"-.	c #109035",
"  . . . . . . . . . . . . . .   ",
"+ @ @ @ # $ . . . . $ # @ @ @ + ",
"% & * * = - . . . . ; > * * & % ",
", , , , , ' ) . . ) ! , , , , , ",
"~ ~ { ] , ^ # . / ( ^ , _ { : : ",
"< < < [ } | 1 2 3 4 5 6 [ 7 < < ",
". . . 8 9 0 a b c d e f g . . . ",
". . . h i j k l m n o p q . . . ",
". . . . r s t r u v w x . . . . ",
". . . y z A B . C 3 n D E . . . ",
". . . F G H 3 . . ( I J K . . . ",
". . . L M N O ; ; P Q R L . . . ",
". . . S T U V W X Y | Z L . . . ",
". . . `  ...R +.A @.#.$./ . . . ",
". . . . / @ %.&.*.%.=.-.. . . . ",
"  . . . . . . h h . . . . . .   "};
