/* XPM */
static const char * rdairplay_32x32_xpm[] = {
"32 32 151 2",
"  	c None",
". 	c #0F8F34",
"+ 	c #109035",
"@ 	c #108F35",
"# 	c #75BE8A",
"$ 	c #72BD88",
"% 	c #77C08D",
"& 	c #028828",
"* 	c #73BD89",
"= 	c #6DBB84",
"- 	c #70BC86",
"; 	c #FFFFFF",
"> 	c #4FAC69",
", 	c #4DAC68",
"' 	c #CCE7D4",
") 	c #048A2B",
"! 	c #C9E6D1",
"~ 	c #2F9E4F",
"{ 	c #2E9D4E",
"] 	c #ACD8B9",
"^ 	c #0C8D31",
"/ 	c #0C8E31",
"( 	c #AAD8B7",
"_ 	c #66B77D",
": 	c #65B77D",
"< 	c #15923A",
"[ 	c #149238",
"} 	c #67B87F",
"| 	c #68B87F",
"1 	c #108F34",
"2 	c #098C2F",
"3 	c #B9DEC4",
"4 	c #97CFA7",
"5 	c #0E8F34",
"6 	c #96CEA6",
"7 	c #BBDFC5",
"8 	c #3EA55C",
"9 	c #088B2D",
"0 	c #078B2C",
"a 	c #41A65E",
"b 	c #008726",
"c 	c #DDEFE3",
"d 	c #7BC290",
"e 	c #7AC18E",
"f 	c #DEF0E3",
"g 	c #5AB172",
"h 	c #FAFDFB",
"i 	c #008725",
"j 	c #FAFCFA",
"k 	c #5BB274",
"l 	c #E7F4EB",
"m 	c #FEFFFE",
"n 	c #66B87E",
"o 	c #65B77C",
"p 	c #038929",
"q 	c #CEE8D6",
"r 	c #EBF6EE",
"s 	c #008623",
"t 	c #008624",
"u 	c #E9F5ED",
"v 	c #03892A",
"w 	c #44A861",
"x 	c #3AA359",
"y 	c #4EAD6A",
"z 	c #E4F3E9",
"A 	c #50AD6B",
"B 	c #4FAD6A",
"C 	c #4EAC69",
"D 	c #3BA359",
"E 	c #2A9B4B",
"F 	c #CCE7D3",
"G 	c #46A862",
"H 	c #139035",
"I 	c #59B172",
"J 	c #54AE6D",
"K 	c #53AE6C",
"L 	c #59B173",
"M 	c #45A862",
"N 	c #CBE7D4",
"O 	c #038A2A",
"P 	c #71BC87",
"Q 	c #DBEEE1",
"R 	c #C1E2CA",
"S 	c #078B2D",
"T 	c #EAF5ED",
"U 	c #86C799",
"V 	c #1F9642",
"W 	c #E5F3E9",
"X 	c #068B2D",
"Y 	c #018828",
"Z 	c #E6F4EA",
"` 	c #33A052",
" .	c #46A860",
"..	c #BFE1C9",
"+.	c #BFE1CA",
"@.	c #008828",
"#.	c #0A8D2F",
"$.	c #269A47",
"%.	c #FDFEFD",
"&.	c #E2F1E6",
"*.	c #68B980",
"=.	c #139036",
"-.	c #2F9C4C",
";.	c #66B87D",
">.	c #79BF8A",
",.	c #68B97F",
"'.	c #0A8D30",
").	c #0D8E33",
"!.	c #DAEEE0",
"~.	c #0C8E32",
"{.	c #D1E9D8",
"].	c #C1E2CB",
"^.	c #DBEEE0",
"/.	c #6DBB83",
"(.	c #47A963",
"_.	c #52AE6C",
":.	c #37A155",
"<.	c #E1F1E6",
"[.	c #46A963",
"}.	c #CAE6D2",
"|.	c #DFF0E5",
"1.	c #43A65F",
"2.	c #299B4B",
"3.	c #9CD1AB",
"4.	c #FCFEFD",
"5.	c #9DD1AB",
"6.	c #44A75F",
"7.	c #CAE7D2",
"8.	c #008827",
"9.	c #7DC391",
"0.	c #F7FBF8",
"a.	c #8FCA9F",
"b.	c #329F50",
"c.	c #149037",
"d.	c #78BE8A",
"e.	c #7DC392",
"f.	c #249946",
"g.	c #CFE8D7",
"h.	c #F3F9F5",
"i.	c #C0E2CA",
"j.	c #018827",
"k.	c #49AA65",
"l.	c #C7E5D0",
"m.	c #068B2C",
"n.	c #1C953F",
"o.	c #7FC393",
"p.	c #D2EAD8",
"q.	c #35A154",
"r.	c #5EB376",
"s.	c #79BF8C",
"t.	c #7FC18F",
"      . . . . . . . . . . . . . . . . . . . . . . . . . .       ",
"    . . . . . . . . . . . . . . . . . . . . . . . . . . . .     ",
"  . . . . . . . . . . . . . . . . . . . . . . . . . . . . . .   ",
"+ @ @ @ @ @ @ @ @ @ . . . . . . . . . . . . @ @ @ @ @ @ @ @ @ + ",
"# $ $ $ $ $ $ $ $ % & . . . . . . . . . . & * = = = = = = = = - ",
"; ; ; ; ; ; ; ; ; ; > @ . . . . . . . . @ , ; ; ; ; ; ; ; ; ; ; ",
"; ; ; ; ; ; ; ; ; ; ' ) . . . . . . . . ) ! ; ; ; ; ; ; ; ; ; ; ",
"; ; ; ; ; ; ; ; ; ; ; ~ . . . . . . . . { ; ; ; ; ; ; ; ; ; ; ; ",
"; ; ; ; ; ; ; ; ; ; ; ] ^ . . . . . . / ( ; ; ; ; ; ; ; ; ; ; ; ",
"_ _ _ _ _ _ : ; ; ; ; ; < . . . . . . [ ; ; ; ; ; } | | | | | | ",
"1 1 1 1 1 1 2 3 ; ; ; ; 4 5 . . . . 5 6 ; ; ; ; 7 2 1 1 1 1 1 1 ",
". . . . . . . 8 ; ; ; ; ; 9 . . . . 0 ; ; ; ; ; a . . . . . . . ",
". . . . . . . b c ; ; ; ; d . . . . e ; ; ; ; f b . . . . . . . ",
". . . . . . . @ g ; ; ; ; h i . . i j ; ; ; ; k @ . . . . . . . ",
". . . . . . . . i l m ; ; ; n @ @ o ; ; ; m l b . . . . . . . . ",
". . . . . . . . . p q ; ; ; r s t u ; ; ; q v . . . . . . . . . ",
". . . . . . . @ w ; x y z ; ; A B ; ; z C D ; w @ . . . . . . . ",
". . . . . . @ E ; ; ; F G H I J K L H M N ; ; ; E @ . . . . . . ",
". . . . . . O P ; ; ; ; ; ; Q R R Q ; ; ; ; ; ; P O . . . . . . ",
". . . . . S T U V W ; ; ; ; ; ; ; ; ; ; ; ; W V U T X . . . . . ",
". . . . Y ' m ; Z `  ...; ; ; ; ; ; ; ; +. .` Z ; m N @.. . . . ",
". . . #.$.%.m ; ; ; &.*.=.-.;.>.>.;.-.=.,.&.; ; ; m %.$.'.. . . ",
". . ).= !.~...; ; ; ; ; ; ; {.].].{.; ; ; ; ; ; ; ..~.^./.).. . ",
". @ (.; m ; _.:.<.; ; ; ; ; ; ; ; ; ; ; ; ; ; <.:._.; m ; [.@ . ",
". ) }.; ; ; ; |.1.2.3.4.; ; ; ; ; ; ; ; 4.5.2.6.|.; ; ; ; 7.) . ",
". . 8.9.; ; ; ; ; 0.a.b.c.a /.d.d./.a c.b.a.0.; ; ; ; ; e.8.. . ",
". . . 5 f.g.; ; ; ; ; ; ; h.F i.i.F h.; ; ; ; ; ; ; q f.5 . . . ",
". . . . . j.k.l.; ; ; ; ; ; ; ; ; ; ; ; ; ; ; ; l.k.j.. . . . . ",
". . . . . . @ m.n.o.p.; ; ; ; ; ; ; ; ; ; p.o.n.m.@ . . . . . . ",
"  . . . . . . . . . X t q.r.s.t.t.s.r.q.t X . . . . . . . . .   ",
"    . . . . . . . . . . . . + + + + . . . . . . . . . . . .     ",
"      . . . . . . . . . . . . . . . . . . . . . . . . . .       "};
