/* XPM */
static const char * rdairplay_22x22_xpm[] = {
"22 22 116 2",
"  	c None",
". 	c #0F8F34",
"+ 	c #1A943E",
"@ 	c #18933C",
"# 	c #19933D",
"$ 	c #0D8E32",
"% 	c #18933B",
"& 	c #1A943D",
"* 	c #CEE8D5",
"= 	c #CDE8D5",
"- 	c #D3EBDA",
"; 	c #139036",
"> 	c #129036",
", 	c #D1E9D8",
"' 	c #CBE7D3",
") 	c #CCE7D3",
"! 	c #FFFFFF",
"~ 	c #7DC292",
"{ 	c #0C8E32",
"] 	c #7BC290",
"^ 	c #FEFFFE",
"/ 	c #CDE7D4",
"( 	c #149138",
"_ 	c #149238",
": 	c #CCE7D4",
"< 	c #6CBA82",
"[ 	c #6FBC85",
"} 	c #289B4A",
"| 	c #279B48",
"1 	c #71BD87",
"2 	c #6EBB84",
"3 	c #098C2F",
"4 	c #0A8C2F",
"5 	c #088C2E",
"6 	c #D8EDDE",
"7 	c #008522",
"8 	c #D7ECDD",
"9 	c #73BD89",
"0 	c #46A963",
"a 	c #0D8E33",
"b 	c #45A861",
"c 	c #74BE89",
"d 	c #17923A",
"e 	c #FBFDFC",
"f 	c #C3E3CC",
"g 	c #0C8E31",
"h 	c #C3E2CB",
"i 	c #169239",
"j 	c #FAFDFB",
"k 	c #239742",
"l 	c #16923A",
"m 	c #34A053",
"n 	c #42A760",
"o 	c #B7DEC3",
"p 	c #DAEEDF",
"q 	c #6DBB84",
"r 	c #6CBB83",
"s 	c #DAEEE0",
"t 	c #43A760",
"u 	c #34A054",
"v 	c #119036",
"w 	c #008420",
"x 	c #C1E2CB",
"y 	c #B3DBBE",
"z 	c #A1D3AF",
"A 	c #048A2B",
"B 	c #FAFCFA",
"C 	c #4BAB67",
"D 	c #F3F9F5",
"E 	c #108F35",
"F 	c #038A29",
"G 	c #A4D4B2",
"H 	c #AAD7B7",
"I 	c #8FCAA0",
"J 	c #5FB477",
"K 	c #7DC18F",
"L 	c #A6D5B2",
"M 	c #038A2A",
"N 	c #078B2E",
"O 	c #84C697",
"P 	c #57B172",
"Q 	c #C0E1CA",
"R 	c #F7FBF8",
"S 	c #C6E4CF",
"T 	c #58B172",
"U 	c #84C696",
"V 	c #0B8D31",
"W 	c #68B87F",
"X 	c #9ED2AD",
"Y 	c #7EC292",
"Z 	c #86C699",
"` 	c #EAF6EE",
" .	c #EBF6EE",
"..	c #67B97F",
"+.	c #008726",
"@.	c #95CEA5",
"#.	c #FDFEFD",
"$.	c #F4F9F5",
"%.	c #64B67B",
"&.	c #159038",
"*.	c #52AE6C",
"=.	c #79BF8B",
"-.	c #95CEA6",
";.	c #109035",
">.	c #068B2D",
",.	c #4CAB67",
"'.	c #BEE1C8",
").	c #FCFDFC",
"!.	c #DFF0E4",
"~.	c #1F9641",
"{.	c #8DC99F",
"].	c #078B2D",
"^.	c #00811C",
"/.	c #44A760",
"(.	c #56AF6E",
"_.	c #0E8F33",
"    . . . . . . . . . . . . . . . . . .     ",
"  . . . . . . . . . . . . . . . . . . . .   ",
"+ @ @ @ @ @ # $ . . . . . . $ @ % % % % % & ",
"* = = = = = - ; . . . . . . > , ' ' ' ' ' ) ",
"! ! ! ! ! ! ! ~ { . . . . { ] ! ! ! ! ! ! ! ",
"! ! ! ! ! ^ ! / ( . . . . _ : ! ^ ! ! ! ! ! ",
"< < < < [ ! ! ! } . . . . | ! ! ! 1 2 2 2 2 ",
"3 3 3 4 5 : ! ! 6 7 . . 7 8 ! ! * 5 4 3 3 3 ",
". . . . . 9 ! ! ! 0 a a b ! ! ! c . . . . . ",
". . . . . d e ! ! f { g h ! ! e % . . . . . ",
". . . . . 4 i ! ! j k k j ! ! l 4 . . . . . ",
". . . . . m ! n o p q r s o t ! u . . . . . ",
". . . v w x ! ! ' y z z y ' ! ! x w v . . . ",
". . . A B C : D ! ! ! ! ! ! D : C B A . . . ",
". E F G ! ! H I J K L L K J I H ! ! G M E . ",
". N O P Q ! ! ! ! R S S R ! ! ! ! Q T U N . ",
"V W ! ! X Y Z ` ! ! ! ! ! !  .Z Y X ! ! ..V ",
". +.@.! ! #.$.%.&.*.=.=.*.&.%.$.#.! ! -.+.. ",
". ;.>.,.'.! ! ! ! ).!.!.).! ! ! ! '.C >.;.. ",
". . . $ ( ~.{.R ! ! ! ! ! ! R {.~.( $ . . . ",
"  . . . . . ].^.i /.(.(./.i ^.].. . . . .   ",
"    . . . . . . _.a $ $ a _.. . . . . .     "};
