/* XPM */
static const char * rdairplay_16x16_xpm[] = {
"16 16 93 2",
"  	c None",
". 	c #0F8F34",
"+ 	c #02892A",
"@ 	c #088C2E",
"# 	c #088B2E",
"$ 	c #078B2E",
"% 	c #0E8E33",
"& 	c #078B2D",
"* 	c #028929",
"= 	c #C7E5CF",
"- 	c #C5E4CE",
"; 	c #D7EDDE",
"> 	c #0B8C2F",
", 	c #0A8C2F",
"' 	c #D5EBDB",
") 	c #C3E3CC",
"! 	c #C5E4CD",
"~ 	c #FFFFFF",
"{ 	c #91CBA3",
"] 	c #048A2B",
"^ 	c #8FCBA1",
"/ 	c #9BD0AA",
"( 	c #BADFC4",
"_ 	c #ECF6EE",
": 	c #048A2A",
"< 	c #EBF6EE",
"[ 	c #BBDFC5",
"} 	c #9DD1AC",
"| 	c #068B2D",
"1 	c #088B2D",
"2 	c #38A257",
"3 	c #F6FBF8",
"4 	c #FEFFFE",
"5 	c #7EC290",
"6 	c #7EC18F",
"7 	c #F7FBF8",
"8 	c #39A357",
"9 	c #18933C",
"0 	c #D7ECDE",
"a 	c #D0E9D7",
"b 	c #19943D",
"c 	c #D8ECDE",
"d 	c #0C8D31",
"e 	c #0E8E32",
"f 	c #3AA256",
"g 	c #108F35",
"h 	c #159138",
"i 	c #EAF5ED",
"j 	c #4FAD6B",
"k 	c #CDE8D4",
"l 	c #85C698",
"m 	c #84C697",
"n 	c #CDE8D5",
"o 	c #50AD6B",
"p 	c #E9F5ED",
"q 	c #119035",
"r 	c #008624",
"s 	c #90C99E",
"t 	c #C3E3CD",
"u 	c #EEF7F0",
"v 	c #E1F1E5",
"w 	c #008623",
"x 	c #98CEA7",
"y 	c #C0E1CA",
"z 	c #8DC99E",
"A 	c #68B87E",
"B 	c #A3D4B0",
"C 	c #7BC290",
"D 	c #80C494",
"E 	c #BDE0C7",
"F 	c #DDEFE2",
"G 	c #E2F1E7",
"H 	c #81C494",
"I 	c #7BC28F",
"J 	c #77BF8C",
"K 	c #E0F1E5",
"L 	c #78C08C",
"M 	c #52AE6C",
"N 	c #94CCA2",
"O 	c #77C08C",
"P 	c #3FA55C",
"Q 	c #FCFDFC",
"R 	c #E7F4EB",
"S 	c #3EA55C",
"T 	c #0A8D2F",
"U 	c #35A055",
"V 	c #90C89B",
"W 	c #A7D6B4",
"X 	c #BDE0C6",
"Y 	c #0D8E32",
"Z 	c #098B2E",
"` 	c #0E8F34",
" .	c #149138",
"  . . . . . . . . . . . . . .   ",
"+ @ # # $ % . . . . % & @ @ @ * ",
"= - - - ; > . . . . , ' ) ) ) ! ",
"~ ~ ~ ~ ~ { ] . . ] ^ ~ ~ ~ ~ ~ ",
"/ / / ( ~ _ ] . . : < ~ [ } } } ",
"& | 1 2 3 4 5 , , 6 4 7 8 & | | ",
". . . 9 0 ~ a b b a ~ c 9 . . . ",
". . . d e ~ ~ f f ~ ~ % d . . . ",
". . g h i j k l m n o p h g . . ",
". q r s t ~ u v v u ~ t s r q . ",
". w x ~ y z A B B A z y ~ x r . ",
". C D E F ~ ~ G G ~ ~ F E H I . ",
"% J ~ K c L M N N M L c K ~ O % ",
". ] P a Q ~ ~ R R ~ ~ Q a S ] . ",
". g T ] U V W X X W V U ] T g . ",
"  . . . Y Z `  . .` Z Y . . .   "};
