/* XPM */
static const char * rdairplay_64x64_xpm[] = {
"64 64 262 2",
"  	c None",
". 	c #0F8F34",
"+ 	c #008726",
"@ 	c #028829",
"# 	c #048A2B",
"$ 	c #108F34",
"% 	c #058A2C",
"& 	c #04892A",
"* 	c #028929",
"= 	c #E5F3E9",
"- 	c #E6F4EA",
"; 	c #E0F1E5",
"> 	c #D8EDDF",
", 	c #DCEFE2",
"' 	c #FEFEFE",
") 	c #FFFFFF",
"! 	c #61B57A",
"~ 	c #108F35",
"{ 	c #5DB476",
"] 	c #FEFFFE",
"^ 	c #E4F3E8",
"/ 	c #008624",
"( 	c #E2F1E6",
"_ 	c #48AA64",
": 	c #44A860",
"< 	c #C4E3CD",
"[ 	c #068B2C",
"} 	c #C0E2CA",
"| 	c #2A9B4B",
"1 	c #279A48",
"2 	c #A7D6B4",
"3 	c #0C8E32",
"4 	c #0D8E32",
"5 	c #A4D5B2",
"6 	c #129037",
"7 	c #109035",
"8 	c #93CCA3",
"9 	c #0F8F33",
"0 	c #8ECA9F",
"a 	c #CCE7D4",
"b 	c #048B2B",
"c 	c #038A2A",
"d 	c #D0E9D8",
"e 	c #D0E9D7",
"f 	c #078B2D",
"g 	c #0E8F33",
"h 	c #77BF8C",
"i 	c #73BE89",
"j 	c #068B2D",
"k 	c #A5D5B3",
"l 	c #F8FCF9",
"m 	c #008725",
"n 	c #008625",
"o 	c #F7FCF9",
"p 	c #A9D7B6",
"q 	c #0C8E31",
"r 	c #299B4A",
"s 	c #62B67A",
"t 	c #5FB477",
"u 	c #2C9C4C",
"v 	c #C1E2CB",
"w 	c #E5F3EA",
"x 	c #E3F2E7",
"y 	c #C7E5D0",
"z 	c #058A2B",
"A 	c #46A963",
"B 	c #49AA65",
"C 	c #45A861",
"D 	c #49AA64",
"E 	c #E3F2E8",
"F 	c #C5E4CE",
"G 	c #058B2C",
"H 	c #E6F3EA",
"I 	c #60B579",
"J 	c #2B9C4C",
"K 	c #289B49",
"L 	c #61B579",
"M 	c #F7FBF8",
"N 	c #A8D6B5",
"O 	c #F9FCFA",
"P 	c #75BE8A",
"Q 	c #139137",
"R 	c #119036",
"S 	c #77BF8B",
"T 	c #048A2A",
"U 	c #94CDA4",
"V 	c #8FCBA0",
"W 	c #53AF6E",
"X 	c #0E8E33",
"Y 	c #43A760",
"Z 	c #78C08D",
"` 	c #74BE8A",
" .	c #44A861",
"..	c #2A9B4A",
"+.	c #038929",
"@.	c #1E9641",
"#.	c #E0F1E4",
"$.	c #E0F0E4",
"%.	c #03892A",
"&.	c #2A9C4B",
"*.	c #B7DDC2",
"=.	c #008827",
"-.	c #71BD87",
";.	c #62B67B",
">.	c #B6DDC2",
",.	c #149239",
"'.	c #FBFDFC",
").	c #F3F9F5",
"!.	c #72BD88",
"~.	c #E8F5EC",
"{.	c #E7F4EA",
"].	c #4AAA65",
"^.	c #FBFDFB",
"/.	c #149138",
"(.	c #078B2E",
"_.	c #E4F2E8",
":.	c #FEFFFF",
"<.	c #C9E6D1",
"[.	c #40A65D",
"}.	c #269A47",
"|.	c #AFDABB",
"1.	c #DEEFE3",
"2.	c #54AF6F",
"3.	c #51AE6C",
"4.	c #269A48",
"5.	c #C8E5D1",
"6.	c #E4F3E9",
"7.	c #CEE8D5",
"8.	c #E7F4EB",
"9.	c #008521",
"0.	c #008523",
"a.	c #008623",
"b.	c #76BF8C",
"c.	c #CFE8D6",
"d.	c #62B57A",
"e.	c #BEE0C8",
"f.	c #8ECAA0",
"g.	c #7CC290",
"h.	c #6FBC85",
"i.	c #70BC85",
"j.	c #7CC190",
"k.	c #8ECBA0",
"l.	c #159239",
"m.	c #088C2E",
"n.	c #54AF6E",
"o.	c #16923A",
"p.	c #49AB65",
"q.	c #1A943D",
"r.	c #D2EAD9",
"s.	c #119035",
"t.	c #B8DEC3",
"u.	c #098C30",
"v.	c #008828",
"w.	c #5EB477",
"x.	c #F7FBF9",
"y.	c #5EB476",
"z.	c #018828",
"A.	c #098C2F",
"B.	c #B8DEC4",
"C.	c #FDFEFD",
"D.	c #5DB376",
"E.	c #008927",
"F.	c #6CBB83",
"G.	c #F1F8F3",
"H.	c #F1F9F3",
"I.	c #6CBA83",
"J.	c #FCFEFD",
"K.	c #DFF0E4",
"L.	c #4BAB67",
"M.	c #008724",
"N.	c #A0D3AF",
"O.	c #44A862",
"P.	c #4BAA66",
"Q.	c #6AB981",
"R.	c #068A2C",
"S.	c #088C2D",
"T.	c #2F9E4F",
"U.	c #72BC85",
"V.	c #9FD2AE",
"W.	c #CCE8D4",
"X.	c #EFF8F2",
"Y.	c #2F9E50",
"Z.	c #068A2B",
"`.	c #A6D6B3",
" +	c #129137",
".+	c #A7D5B4",
"++	c #BADFC5",
"@+	c #6CBA82",
"#+	c #289A49",
"$+	c #008420",
"%+	c #008522",
"&+	c #6DBA82",
"*+	c #F6FBF7",
"=+	c #078C2D",
"-+	c #82C494",
";+	c #7AC18E",
">+	c #55B06F",
",+	c #259A47",
"'+	c #74BE89",
")+	c #0C8D31",
"!+	c #129036",
"~+	c #BFE2CA",
"{+	c #C0E2C9",
"]+	c #C2E3CC",
"^+	c #4AAA66",
"/+	c #EDF7EF",
"(+	c #C2E2CB",
"_+	c #17923A",
":+	c #ECF6EF",
"<+	c #169239",
"[+	c #DEF0E3",
"}+	c #EEF7F1",
"|+	c #59B173",
"1+	c #B3DCBF",
"2+	c #B3DBBF",
"3+	c #59B273",
"4+	c #EFF7F1",
"5+	c #69B980",
"6+	c #67B77D",
"7+	c #018929",
"8+	c #EFF7F2",
"9+	c #E2F2E7",
"0+	c #A8D7B5",
"a+	c #9ED2AD",
"b+	c #66B77D",
"c+	c #8CC99E",
"d+	c #BBDFC5",
"e+	c #DCEFE1",
"f+	c #FAFDFB",
"g+	c #66B77E",
"h+	c #45A862",
"i+	c #4EAD69",
"j+	c #AFDABC",
"k+	c #6EBB83",
"l+	c #309E50",
"m+	c #018928",
"n+	c #008421",
"o+	c #4EAD6A",
"p+	c #0B8D31",
"q+	c #ADD9BA",
"r+	c #B9DEC4",
"s+	c #95CEA6",
"t+	c #7EC290",
"u+	c #78BF8C",
"v+	c #0B8D30",
"w+	c #34A054",
"x+	c #DBEEE1",
"y+	c #DAEEE0",
"z+	c #52AE6C",
"A+	c #E1F1E6",
"B+	c #BADFC4",
"C+	c #44A761",
"D+	c #139138",
"E+	c #79C18E",
"F+	c #1D953F",
"G+	c #0A8D30",
"H+	c #1F9642",
"I+	c #56B170",
"J+	c #81C393",
"K+	c #CBE7D3",
"L+	c #1F9742",
"M+	c #088B2E",
"              . . . . . . . . . . . . . . . . . . . . . . . . . . . . . . . . . . . . . . . . . . . . . . . . . .               ",
"          . . . . . . . . . . . . . . . . . . . . . . . . . . . . . . . . . . . . . . . . . . . . . . . . . . . . . .           ",
"        . . . . . . . . . . . . . . . . . . . . . . . . . . . . . . . . . . . . . . . . . . . . . . . . . . . . . . . .         ",
"      . . . . . . . . . . . . . . . . . . . . . . . . . . . . . . . . . . . . . . . . . . . . . . . . . . . . . . . . . .       ",
"    . . . . . . . . . . . . . . . . . . . . . . . . . . . . . . . . . . . . . . . . . . . . . . . . . . . . . . . . . . . .     ",
"  . . . . . . . . . . . . . . . . . . . . . . . . . . . . . . . . . . . . . . . . . . . . . . . . . . . . . . . . . . . . . .   ",
"  . . . . . . . . . . . . . . . . . . . . . . . . . . . . . . . . . . . . . . . . . . . . . . . . . . . . . . . . . . . . . .   ",
". . . . . . . . . . . . . . . . . . . . . . . . . . . . . . . . . . . . . . . . . . . . . . . . . . . . . . . . . . . . . . . . ",
"+ @ @ @ @ @ @ @ @ @ @ @ @ @ @ @ @ @ @ # $ . . . . . . . . . . . . . . . . . . . . . . $ % & & & & & & & & & & & & & & & & & & * ",
"= - - - - - - - - - - - - - - - - - - ; + . . . . . . . . . . . . . . . . . . . . . . + > , , , , , , , , , , , , , , , , , , , ",
"' ) ) ) ) ) ) ) ) ) ) ) ) ) ) ) ) ) ) ) ! ~ . . . . . . . . . . . . . . . . . . . . ~ { ) ) ) ) ) ) ) ) ) ) ) ) ) ) ) ) ) ) ) ] ",
") ) ) ) ) ) ) ) ) ) ) ) ) ) ) ) ) ) ) ) ^ / . . . . . . . . . . . . . . . . . . . . + ( ) ) ) ) ) ) ) ) ) ) ) ) ) ) ) ) ) ) ) ) ",
") ) ) ) ) ) ) ) ) ) ) ) ) ) ) ) ) ) ) ) ) _ ~ . . . . . . . . . . . . . . . . . . . : ) ) ) ) ) ) ) ) ) ) ) ) ) ) ) ) ) ) ) ) ) ",
") ) ) ) ) ) ) ) ) ) ) ) ) ) ) ) ) ) ) ) ) < [ . . . . . . . . . . . . . . . . . . [ } ) ) ) ) ) ) ) ) ) ) ) ) ) ) ) ) ) ) ) ) ) ",
") ) ) ) ) ) ) ) ) ) ) ) ) ) ) ) ) ) ) ) ) ) | . . . . . . . . . . . . . . . . . . 1 ) ) ) ) ) ) ) ) ) ) ) ) ) ) ) ) ) ) ) ) ) ) ",
") ) ) ) ) ) ) ) ) ) ) ) ) ) ) ) ) ) ) ) ) ) 2 3 . . . . . . . . . . . . . . . . 4 5 ) ) ) ) ) ) ) ) ) ) ) ) ) ) ) ) ) ) ) ) ) ) ",
") ) ) ) ) ) ) ) ) ) ) ) ) ) ) ) ) ) ) ) ) ) ) 6 . . . . . . . . . . . . . . . . 7 ) ) ) ) ) ) ) ) ) ) ) ) ) ) ) ) ) ) ) ) ) ) ) ",
") ) ) ) ) ) ) ) ) ) ) ) ) ) ) ) ) ) ) ) ) ) ) 8 9 . . . . . . . . . . . . . . . 0 ) ) ) ) ) ) ) ) ) ) ) ) ) ) ) ) ) ) ) ) ) ) ) ",
"a a a a a a a a a a a a a ( ) ) ) ) ) ) ) ) ) ) b . . . . . . . . . . . . . . c ) ) ) ) ) ) ) ) ) ) = d e e e e e e e e e e e e ",
"f f f f f f f f f f f f f g ) ) ) ) ) ) ) ) ) ) h . . . . . . . . . . . . . . i ) ) ) ) ) ) ) ) ) ) g j j j j j j j j j j j j j ",
". . . . . . . . . . . . . 4 k ) ) ) ) ) ) ) ) ) l m . . . . . . . . . . . . n o ) ) ) ) ) ) ) ) ) p q . . . . . . . . . . . . . ",
". . . . . . . . . . . . . . r ) ) ) ) ) ) ) ) ) ) s ~ . . . . . . . . . . ~ t ) ) ) ) ) ) ) ) ) ) u . . . . . . . . . . . . . . ",
". . . . . . . . . . . . . . j v ) ) ) ) ) ) ) ) ) w n . . . . . . . . . . m x ) ) ) ) ) ) ) ) ) y z . . . . . . . . . . . . . . ",
". . . . . . . . . . . . . . $ A ) ) ) ) ) ) ) ) ) ) B ~ . . . . . . . . . C ) ) ) ) ) ) ) ) ) ) D ~ . . . . . . . . . . . . . . ",
". . . . . . . . . . . . . . . / E ) ) ) ) ) ) ) ) ) F G . . . . . . . . [ v ) ) ) ) ) ) ) ) ) H m . . . . . . . . . . . . . . . ",
". . . . . . . . . . . . . . . ~ I ) ) ) ) ) ) ) ) ) ) J . . . . . . . . K ) ) ) ) ) ) ) ) ) ) L ~ . . . . . . . . . . . . . . . ",
". . . . . . . . . . . . . . . . / M ) ) ) ) ) ) ) ) ) N q . . . . . . 4 k ) ) ) ) ) ) ) ) ) O m . . . . . . . . . . . . . . . . ",
". . . . . . . . . . . . . . . . . P ) ) ) ) ) ) ) ) ) ) Q . . . . . . R ) ) ) ) ) ) ) ) ) ) S . . . . . . . . . . . . . . . . . ",
". . . . . . . . . . . . . . . . . T ) ) ) ) ) ) ) ) ) ) U g . . . . . V ) ) ) ) ) ) ) ) ) ) z . . . . . . . . . . . . . . . . . ",
". . . . . . . . . . . . . . . . . . W ) ) ) ) ) ) ) ) ) ) % . . . . T ) ) ) ) ) ) ) ) ) ) W . . . . . . . . . . . . . . . . . . ",
". . . . . . . . . . . . . . . . . . X Y ) ) ) ) ) ) ) ) ) Z . . . . ` ) ) ) ) ) ) ) ) )  .X . . . . . . . . . . . . . . . . . . ",
". . . . . . . . . . . . . . . . . ~ ..+.@.#.) ) ) ) ) ) ) O m . . m l ) ) ) ) ) ) ) $.@.%.&.~ . . . . . . . . . . . . . . . . . ",
". . . . . . . . . . . . . . . . 7 r ) *.[ =.-.) ) ) ) ) ) ) ;.~ ~ I ) ) ) ) ) ) ) -.=.[ >.) r 7 . . . . . . . . . . . . . . . . ",
". . . . . . . . . . . . . . . . ,.'.) ) ).B * # !.~.) ) ) ) {./ m ^ ) ) ) ) ~.!.& * ].).) ) ^./.. . . . . . . . . . . . . . . . ",
". . . . . . . . . . . . . . . (._.:.) ) ) ) <.[.m =.}.` |.1.) 2.3.) 1.|.` 4.=.m [.5.) ) ) ) :.6.f . . . . . . . . . . . . . . . ",
". . . . . . . . . . . . . . =.7.] ) ) ) ) ) ) ) 8.h K 9.z * 0.f f a.* % 9.K b.8.) ) ) ) ) ) ) ] c.=.. . . . . . . . . . . . . . ",
". . . . . . . . . . . . . . d.) ) ) ) ) ) ) ) ) ) ) ) ) e.f.g.h.i.j.k.e.) ) ) ) ) ) ) ) ) ) ) ) ) ! . . . . . . . . . . . . . . ",
". . . . . . . . . . . . 3 l.m.W ) ) ) ) ) ) ) ) ) ) ) ) ) ) ) ) ) ) ) ) ) ) ) ) ) ) ) ) ) ) ) ) n.m.o.3 . . . . . . . . . . . . ",
". . . . . . . . . . . ~ p.) ;.T q.r.) ) ) ) ) ) ) ) ) ) ) ) ) ) ) ) ) ) ) ) ) ) ) ) ) ) ) ) r.q.# s ) B ~ . . . . . . . . . . . ",
". . . . . . . . . . s.J ) ) ) t.u.v.w.M ) ) ) ) ) ) ) ) ) ) ) ) ) ) ) ) ) ) ) ) ) ) ) ) x.y.z.A.B.) ) ) &.7 . . . . . . . . . . ",
". . . . . . . . . . l.C.) ) ) ) ] D.+ E.F.G.) ) ) ) ) ) ) ) ) ) ) ) ) ) ) ) ) ) ) ) H.I.E.+ { ] ) ) ) ) J.l.. . . . . . . . . . ",
". . . . . . . . . m.= ) ) ) ) ) ) ) K.L.m M.C N.) ) ) ) ) ) ) ) ) ) ) ) ) ) ) ) N.O.M.m P.K.) ) ) ) ) ) :.= f . . . . . . . . . ",
". . . . . . . . 4 k ) ) ) ) ) ) ) ) ) ) 8.Q.R.S.0.T.U.V.W.X.) ) ) ) X.W.V.U.Y.0.m.Z.Q.8.) ) ) ) ) ) ) ) ) :.`.4 . . . . . . . . ",
". . . . . . . [  +* .+) ) ) ) ) ) ) ) ) ) ) ) ++@+#+$+z T + %+%+%+%++ T z $+#+&+++) ) ) ) ) ) ) ) ) ) ) ) 2 * 6 j . . . . . . . ",
". . . . . . 3 P *+}.=+2.) :.) ) ) ) ) ) ) ) ) ) ) ) ) c.k -+;+h.h.;+-+k c.) ) ) ) ) ) ) ) ) ) ) ) ) :.) >+f ,+M '+)+. . . . . . ",
". . . . . ~ L.) ) ) ;.* !+~+) ) ) ) ) ) ) ) ) ) ) ) ) ) ) ) ) ) ) ) ) ) ) ) ) ) ) ) ) ) ) ) ) ) ) ) {+R * ;.) ) ) L.~ . . . . . ",
". . . . 7 u ) ) ) ) ) ]+~ z ^+/+) ) ) ) ) ) ) ) ) ) ) ) ) ) ) ) ) ) ) ) ) ) ) ) ) ) ) ) ) ) ) ) /+^+z ~ (+) ) ) ) ) J 7 . . . . ",
". . . $ _+' ) ) ) ) ) :.) h.+ + I :+) ) ) ) ) ) ) ) ) ) ) ) ) ) ) ) ) ) ) ) ) ) ) ) ) ) ) ) :+I m + h.) :.) ) ) ) ) ' <+$ . . . ",
". . . %.[+] ) ) ) ) ) ) ) ) }+|+n m ^+1+) ) ) ) ) ) ) ) ) ) ) ) ) ) ) ) ) ) ) ) ) ) ) ) 2+^+m m 3+}+) ) ) ) ) ) ) ) ] K.c . . . ",
". . . 7 <+( ) ) ) ) ) ) ) ) ) ) 4+5+* A.j 6+1+) ) ) ) ) ) ) ) ) ) ) ) ) ) ) ) ) ) 1+6+f A.7+5+8+) ) ) ) ) ) ) ) ) ) 9+l.7 . . . ",
". . . . . %.0+) ) ) ) ) ) ) ) ) ) ) ) a+C 0.j %+&.b+c+d+e+f+) ) ) ) f+e+d+c+g+&.%+j 0.h+a+) ) ) ) ) ) ) ) ) ) ) ) p +.. . . . . ",
". . . . . . f i+) ) ) ) ) ) ) ) ) ) ) ) ) ) j+k+l+%+m+z * / n+%+%+n+/ * z m+%+l+k+j+) ) ) ) ) ) ) ) ) ) ) ) :.) o+f . . . . . . ",
". . . . . . . ~ p+q+) ) ) ) ) ) ) ) ) ) ) ) ) ) ) ) x r+s+t+u+h.h.u+t+s+r+9+) ) ) ) ) ) ) ) ) ) ) ) ) ) ) ) q+v+~ . . . . . . . ",
". . . . . . . . . A.w+x+) ) ) ) ) ) ) ) ) ) ) ) ) ) ) ) ) ) ) ) ) ) ) ) ) ) ) ) ) ) ) ) ) ) ) ) ) ) ) ) y+w+A.. . . . . . . . . ",
". . . . . . . . . . ~ + z+A+) ) ) ) ) ) ) ) ) ) ) ) ) ) ) ) ) ) ) ) ) ) ) ) ) ) ) ) ) ) ) ) ) ) ) ) A+z++ ~ . . . . . . . . . . ",
". . . . . . . . . . . . ~ +  .B+) ) ) ) ) ) ) ) ) ) ) ) ) ) ) ) ) ) ) ) ) ) ) ) ) ) ) ) ) ) ) ) B+C++ ~ . . . . . . . . . . . . ",
". . . . . . . . . . . . . . $ A.D+E+x ) ) ) ) ) ) ) ) ) ) ) ) ) ) ) ) ) ) ) ) ) ) ) ) ) ) x E+Q A.$ . . . . . . . . . . . . . . ",
"  . . . . . . . . . . . . . . . . . v.F+k+t.) ) ) ) ) ) ) ) ) ) ) ) ) ) ) ) ) ) ) ) t.k+F+v.. . . . . . . . . . . . . . . . .   ",
"  . . . . . . . . . . . . . . . . . . . ~ G+%+H+I+J+N K+- ) ) ) ) ) ) - K+N J+I+L+9.G+~ . . . . . . . . . . . . . . . . . . .   ",
"    . . . . . . . . . . . . . . . . . . . . . . . 7 )+M+z.n+$+%+%+$+n+z.M+)+7 . . . . . . . . . . . . . . . . . . . . . . .     ",
"      . . . . . . . . . . . . . . . . . . . . . . . . . . . . . . . . . . . . . . . . . . . . . . . . . . . . . . . . . .       ",
"        . . . . . . . . . . . . . . . . . . . . . . . . . . . . . . . . . . . . . . . . . . . . . . . . . . . . . . . .         ",
"          . . . . . . . . . . . . . . . . . . . . . . . . . . . . . . . . . . . . . . . . . . . . . . . . . . . . . .           ",
"              . . . . . . . . . . . . . . . . . . . . . . . . . . . . . . . . . . . . . . . . . . . . . . . . . .               "};
