/* XPM */
static const char * rdcastmanager_22x22_xpm[] = {
"22 22 127 2",
"  	c None",
". 	c #0F8F34",
"+ 	c #1A943E",
"@ 	c #18933C",
"# 	c #19933C",
"$ 	c #0D8E32",
"% 	c #18933B",
"& 	c #19933D",
"* 	c #CEE8D5",
"= 	c #CDE8D5",
"- 	c #CDE8D4",
"; 	c #D3EBDA",
"> 	c #139036",
", 	c #129036",
"' 	c #D1E9D8",
") 	c #CBE7D3",
"! 	c #CBE7D4",
"~ 	c #FFFFFF",
"{ 	c #7DC291",
"] 	c #0C8E32",
"^ 	c #7BC290",
"/ 	c #FEFFFE",
"( 	c #CDE7D4",
"_ 	c #149138",
": 	c #149238",
"< 	c #CCE7D4",
"[ 	c #6ABA81",
"} 	c #6DBB84",
"| 	c #289B49",
"1 	c #279B48",
"2 	c #72BD87",
"3 	c #6EBB84",
"4 	c #098C2F",
"5 	c #088C2E",
"6 	c #75BE89",
"7 	c #8DCA9F",
"8 	c #A0D2AD",
"9 	c #79C08D",
"0 	c #008726",
"a 	c #008522",
"b 	c #D8ECDD",
"c 	c #0A8C2F",
"d 	c #C3E3CD",
"e 	c #F5FAF7",
"f 	c #EDF7F0",
"g 	c #EEF7F0",
"h 	c #71BD87",
"i 	c #008725",
"j 	c #0E8E33",
"k 	c #45A861",
"l 	c #74BE89",
"m 	c #C7E5D1",
"n 	c #FDFFFD",
"o 	c #52AE6C",
"p 	c #8FCA9F",
"q 	c #FCFDFC",
"r 	c #18923B",
"s 	c #139037",
"t 	c #D7EDDD",
"u 	c #CEE9D6",
"v 	c #35A153",
"w 	c #89C89A",
"x 	c #048A2B",
"y 	c #108F34",
"z 	c #299C4B",
"A 	c #44A660",
"B 	c #8CC99E",
"C 	c #F7FBF8",
"D 	c #E7F4EB",
"E 	c #87C799",
"F 	c #109035",
"G 	c #CFE9D7",
"H 	c #E3F2E7",
"I 	c #B9DEC3",
"J 	c #61B57A",
"K 	c #E2F1E7",
"L 	c #B6DDC1",
"M 	c #108F35",
"N 	c #C8E6D1",
"O 	c #33A053",
"P 	c #DBEFE0",
"Q 	c #66B77E",
"R 	c #76BF8B",
"S 	c #D6ECDD",
"T 	c #FEFFFF",
"U 	c #1A943D",
"V 	c #078C2E",
"W 	c #008420",
"X 	c #9CD1AB",
"Y 	c #FCFEFD",
"Z 	c #F2F9F4",
"` 	c #7AC08B",
" .	c #0E8F33",
"..	c #119035",
"+.	c #5EB477",
"@.	c #CFE9D6",
"#.	c #A7D6B4",
"$.	c #58B172",
"%.	c #B5DCC0",
"&.	c #119036",
"*.	c #0A8D30",
"=.	c #F9FCFA",
"-.	c #93CCA2",
";.	c #63B67B",
">.	c #289A48",
",.	c #ECF6EF",
"'.	c #0A8C30",
").	c #F8FCF9",
"!.	c #81C495",
"~.	c #299C4A",
"{.	c #F3F9F4",
"].	c #40A65D",
"^.	c #058726",
"/.	c #50AE6B",
"(.	c #B7DDC2",
"_.	c #17923B",
":.	c #209742",
"<.	c #EBF5ED",
"[.	c #77BF8B",
"}.	c #F1F9F4",
"|.	c #0C8D31",
"1.	c #00821D",
"2.	c #00801A",
"3.	c #008019",
"4.	c #028829",
"5.	c #00821C",
"6.	c #007F17",
"    . . . . . . . . . . . . . . . . . .     ",
"  . . . . . . . . . . . . . . . . . . . .   ",
"+ @ @ @ @ @ # $ . . . . . . $ @ % % % % % & ",
"* = = = = - ; > . . . . . . , ' ) ) ) ) ) ! ",
"~ ~ ~ ~ ~ ~ ~ { ] . . . . ] ^ ~ ~ ~ ~ ~ ~ ~ ",
"~ ~ ~ ~ ~ / ~ ( _ . . . . : < ~ / ~ ~ ~ ~ ~ ",
"[ [ [ [ } ~ ~ ~ | . . . . 1 ~ ~ ~ 2 3 3 3 3 ",
"4 4 4 4 5 6 7 8 9 0 . . a b ~ ~ * 5 c 4 4 4 ",
". . . . > d e f g h i j k ~ ~ ~ l . . . . . ",
". . . . > m ~ ~ ~ ~ n o p ~ ~ q r . . . . . ",
". . . . s t ~ ~ ~ ~ ~ ~ u v ~ w x . . . . . ",
". . . . y z A B ) C ~ ~ ~ D E a F . . . . . ",
". . . . s G ~ H I J K ~ ~ ~ L i M . . . . . ",
". . . . > N ~ ~ ~ ~ O P ~ ~ ~ Q 4 . . . . . ",
". . . . , L ~ ~ ~ ~ ~ R S T ~ ~ U . . . . . ",
". . . . . V W X Y ~ ~ Z 3 ~ ~ ~ `  .. . . . ",
". . . . ..+.@.#.$.~ ~ ~ ^ G ~ ~ %.&.. . . . ",
". . . M *.=.~ ~ -.;.~ ~ ~ >.~ ~ ,.$ . . . . ",
". . . M '.).~ ~ !.~.{.~ ~ ].~ ~ ~ ^.F . . . ",
". . . . . /.).(._.:.<.~ ~ [.}.~ ~ j y . . . ",
"  . . . . |.1.0 . $ 1.2.3.4.5.2.6.. . . .   ",
"    . . . . . . . . . . . . . . . . . .     "};
