/* XPM */
static const char * rdcastmanager_64x64_xpm[] = {
"64 64 232 2",
"  	c None",
". 	c #0F8F34",
"+ 	c #008726",
"@ 	c #018828",
"# 	c #03892A",
"$ 	c #108F35",
"% 	c #108F34",
"& 	c #058A2C",
"* 	c #038A2A",
"= 	c #018929",
"- 	c #E5F3EA",
"; 	c #E6F4EA",
"> 	c #E1F1E6",
", 	c #D7EDDE",
"' 	c #DCEEE1",
") 	c #DBEEE1",
"! 	c #FEFEFE",
"~ 	c #FFFFFF",
"{ 	c #60B578",
"] 	c #5EB477",
"^ 	c #E5F3E9",
"/ 	c #008624",
"( 	c #008725",
"_ 	c #E2F2E6",
": 	c #48AA64",
"< 	c #44A861",
"[ 	c #C5E4CE",
"} 	c #058A2B",
"| 	c #078B2D",
"1 	c #C0E2C9",
"2 	c #2A9C4B",
"3 	c #279A48",
"4 	c #A7D5B4",
"5 	c #0C8E32",
"6 	c #0D8E32",
"7 	c #A5D5B2",
"8 	c #129037",
"9 	c #119035",
"0 	c #92CCA3",
"a 	c #8DCA9F",
"b 	c #C7E5CF",
"c 	c #C7E5D0",
"d 	c #DFF0E4",
"e 	c #048A2A",
"f 	c #E6F3EA",
"g 	c #D1E9D8",
"h 	c #D1E9D7",
"i 	c #088C2F",
"j 	c #0F8F33",
"k 	c #76BF8B",
"l 	c #73BE88",
"m 	c #068B2D",
"n 	c #AAD8B8",
"o 	c #F8FCF9",
"p 	c #008625",
"q 	c #F7FBF8",
"r 	c #A8D6B5",
"s 	c #048929",
"t 	c #00831E",
"u 	c #0F8F35",
"v 	c #299B4A",
"w 	c #4AAA65",
"x 	c #71BC85",
"y 	c #95CDA5",
"z 	c #62B57A",
"A 	c #60B579",
"B 	c #2C9C4D",
"C 	c #0B8D31",
"D 	c #65B77C",
"E 	c #54AF6E",
"F 	c #3CA45A",
"G 	c #19943D",
"H 	c #008420",
"I 	c #048A2B",
"J 	c #43A760",
"K 	c #098C2F",
"L 	c #D6ECDC",
"M 	c #97CEA7",
"N 	c #4AAA66",
"O 	c #DAEEE0",
"P 	c #78C08D",
"Q 	c #139037",
"R 	c #0A8C2F",
"S 	c #068B2C",
"T 	c #C2E3CC",
"U 	c #B7DDC2",
"V 	c #42A75F",
"W 	c #008827",
"X 	c #289B49",
"Y 	c #62B67A",
"Z 	c #D9EEDF",
"` 	c #45A861",
" .	c #0C8E31",
"..	c #A6D5B4",
"+.	c #F8FCFA",
"@.	c #C3E3CC",
"#.	c #1C953F",
"$.	c #FEFFFE",
"%.	c #7BC290",
"&.	c #008828",
"*.	c #CAE6D2",
"=.	c #139137",
"-.	c #8FCBA0",
";.	c #92CCA2",
">.	c #FEFFFF",
",.	c #35A154",
"'.	c #088C2E",
").	c #5DB476",
"!.	c #139138",
"~.	c #53AF6D",
"{.	c #0B8D30",
"].	c #4BAB67",
"^.	c #0E8E33",
"/.	c #38A256",
"(.	c #40A65D",
"_.	c #54AF6F",
":.	c #77C08C",
"<.	c #99CFA9",
"[.	c #D8EDDE",
"}.	c #65B77D",
"|.	c #0A8D30",
"1.	c #4EAC6A",
"2.	c #2B9C4C",
"3.	c #37A256",
"4.	c #269947",
"5.	c #008522",
"6.	c #5AB273",
"7.	c #ADD9BA",
"8.	c #69B980",
"9.	c #CCE7D4",
"0.	c #CFE9D6",
"a.	c #90CBA1",
"b.	c #51AE6B",
"c.	c #79C18E",
"d.	c #FCFEFD",
"e.	c #4DAC68",
"f.	c #078C2D",
"g.	c #229844",
"h.	c #A4D4B2",
"i.	c #36A155",
"j.	c #028929",
"k.	c #7EC392",
"l.	c #2C9C4C",
"m.	c #109035",
"n.	c #3AA358",
"o.	c #078B2E",
"p.	c #15923A",
"q.	c #F6FBF7",
"r.	c #0C8D31",
"s.	c #B6DDC1",
"t.	c #2C9D4D",
"u.	c #9FD2AE",
"v.	c #038929",
"w.	c #2F9E4F",
"x.	c #A0D3AF",
"y.	c #98CFA8",
"z.	c #4CAC67",
"A.	c #209742",
"B.	c #ABD8B8",
"C.	c #75BE89",
"D.	c #7CC18F",
"E.	c #A3D4B1",
"F.	c #E8F4EC",
"G.	c #329F51",
"H.	c #E0F1E5",
"I.	c #16923A",
"J.	c #008826",
"K.	c #1D9540",
"L.	c #86C698",
"M.	c #F1F8F3",
"N.	c #8ECA9F",
"O.	c #0E8F33",
"P.	c #94CDA4",
"Q.	c #A2D4B0",
"R.	c #FDFEFD",
"S.	c #008623",
"T.	c #2D9D4D",
"U.	c #1A943D",
"V.	c #FCFEFC",
"W.	c #119036",
"X.	c #4EAC69",
"Y.	c #269A47",
"Z.	c #F4FAF6",
"`.	c #66B87E",
" +	c #EFF8F2",
".+	c #A4D5B2",
"++	c #A2D4B1",
"@+	c #9ED1AD",
"#+	c #B2DBBD",
"$+	c #33A053",
"%+	c #F9FCFB",
"&+	c #46A862",
"*+	c #EBF6EE",
"=+	c #239845",
"-+	c #7DC291",
";+	c #F4FAF5",
">+	c #B1DABD",
",+	c #8BC89B",
"'+	c #C4E3CD",
")+	c #16933A",
"!+	c #149138",
"~+	c #3FA55D",
"{+	c #91CCA2",
"]+	c #D3EADA",
"^+	c #B0DABC",
"/+	c #ADD8B9",
"(+	c #56B070",
"_+	c #8ECAA0",
":+	c #F1F9F3",
"<+	c #57B070",
"[+	c #BCE0C6",
"}+	c #BEE1C8",
"|+	c #B2DBBE",
"1+	c #00821D",
"2+	c #D1EAD8",
"3+	c #239945",
"4+	c #E8F4EB",
"5+	c #3BA459",
"6+	c #C0E2CA",
"7+	c #FAFDFB",
"8+	c #83C596",
"9+	c #55AF70",
"0+	c #A9D7B6",
"a+	c #CEE8D6",
"b+	c #C1E2CB",
"c+	c #7BC28F",
"d+	c #D2EAD9",
"e+	c #6AB981",
"f+	c #D2EBD9",
"g+	c #DCEFE2",
"h+	c #1E9641",
"i+	c #068A2C",
"              . . . . . . . . . . . . . . . . . . . . . . . . . . . . . . . . . . . . . . . . . . . . . . . . . .               ",
"          . . . . . . . . . . . . . . . . . . . . . . . . . . . . . . . . . . . . . . . . . . . . . . . . . . . . . .           ",
"        . . . . . . . . . . . . . . . . . . . . . . . . . . . . . . . . . . . . . . . . . . . . . . . . . . . . . . . .         ",
"      . . . . . . . . . . . . . . . . . . . . . . . . . . . . . . . . . . . . . . . . . . . . . . . . . . . . . . . . . .       ",
"    . . . . . . . . . . . . . . . . . . . . . . . . . . . . . . . . . . . . . . . . . . . . . . . . . . . . . . . . . . . .     ",
"  . . . . . . . . . . . . . . . . . . . . . . . . . . . . . . . . . . . . . . . . . . . . . . . . . . . . . . . . . . . . . .   ",
"  . . . . . . . . . . . . . . . . . . . . . . . . . . . . . . . . . . . . . . . . . . . . . . . . . . . . . . . . . . . . . .   ",
". . . . . . . . . . . . . . . . . . . . . . . . . . . . . . . . . . . . . . . . . . . . . . . . . . . . . . . . . . . . . . . . ",
"+ @ @ @ @ @ @ @ @ @ @ @ @ @ @ @ @ @ @ # $ . . . . . . . . . . . . . . . . . . . . . . % & * * * * * * * * * * * * * * * * * * = ",
"- ; ; ; ; ; ; ; ; ; ; ; ; ; ; ; ; ; ; > + . . . . . . . . . . . . . . . . . . . . . . + , ' ' ' ' ' ' ' ' ' ' ' ' ' ' ' ' ' ' ) ",
"! ~ ~ ~ ~ ~ ~ ~ ~ ~ ~ ~ ~ ~ ~ ~ ~ ~ ~ ~ { $ . . . . . . . . . . . . . . . . . . . . $ ] ~ ~ ~ ~ ~ ~ ~ ~ ~ ~ ~ ~ ~ ~ ~ ~ ~ ~ ~ ! ",
"~ ~ ~ ~ ~ ~ ~ ~ ~ ~ ~ ~ ~ ~ ~ ~ ~ ~ ~ ~ ^ / . . . . . . . . . . . . . . . . . . . . ( _ ~ ~ ~ ~ ~ ~ ~ ~ ~ ~ ~ ~ ~ ~ ~ ~ ~ ~ ~ ~ ",
"~ ~ ~ ~ ~ ~ ~ ~ ~ ~ ~ ~ ~ ~ ~ ~ ~ ~ ~ ~ ~ : $ . . . . . . . . . . . . . . . . . . . < ~ ~ ~ ~ ~ ~ ~ ~ ~ ~ ~ ~ ~ ~ ~ ~ ~ ~ ~ ~ ~ ",
"~ ~ ~ ~ ~ ~ ~ ~ ~ ~ ~ ~ ~ ~ ~ ~ ~ ~ ~ ~ ~ [ } . . . . . . . . . . . . . . . . . . | 1 ~ ~ ~ ~ ~ ~ ~ ~ ~ ~ ~ ~ ~ ~ ~ ~ ~ ~ ~ ~ ~ ",
"~ ~ ~ ~ ~ ~ ~ ~ ~ ~ ~ ~ ~ ~ ~ ~ ~ ~ ~ ~ ~ ~ 2 . . . . . . . . . . . . . . . . . . 3 ~ ~ ~ ~ ~ ~ ~ ~ ~ ~ ~ ~ ~ ~ ~ ~ ~ ~ ~ ~ ~ ~ ",
"~ ~ ~ ~ ~ ~ ~ ~ ~ ~ ~ ~ ~ ~ ~ ~ ~ ~ ~ ~ ~ ~ 4 5 . . . . . . . . . . . . . . . . 6 7 ~ ~ ~ ~ ~ ~ ~ ~ ~ ~ ~ ~ ~ ~ ~ ~ ~ ~ ~ ~ ~ ~ ",
"~ ~ ~ ~ ~ ~ ~ ~ ~ ~ ~ ~ ~ ~ ~ ~ ~ ~ ~ ~ ~ ~ ~ 8 . . . . . . . . . . . . . . . . 9 ~ ~ ~ ~ ~ ~ ~ ~ ~ ~ ~ ~ ~ ~ ~ ~ ~ ~ ~ ~ ~ ~ ~ ",
"~ ~ ~ ~ ~ ~ ~ ~ ~ ~ ~ ~ ~ ~ ~ ~ ~ ~ ~ ~ ~ ~ ~ 0 . . . . . . . . . . . . . . . . a ~ ~ ~ ~ ~ ~ ~ ~ ~ ~ ~ ~ ~ ~ ~ ~ ~ ~ ~ ~ ~ ~ ~ ",
"b b b b b b b b b b b b c d ~ ~ ~ ~ ~ ~ ~ ~ ~ ~ } . . . . . . . . . . . . . . e ~ ~ ~ ~ ~ ~ ~ ~ ~ ~ f g h h h h h h h h h h h h ",
"i i i i i i i i i i i i i j ~ ~ ~ ~ ~ ~ ~ ~ ~ ~ k . . . . . . . . . . . . . . l ~ ~ ~ ~ ~ ~ ~ ~ ~ ~ . m m m m m m m m m m m m m ",
". . . . . . . . . . . . . 5 n ~ ~ ~ ~ ~ ~ ~ ~ ~ o ( . . . . . . . . . . . . p q ~ ~ ~ ~ ~ ~ ~ ~ ~ r 5 . . . . . . . . . . . . . ",
". . . . . . . . . . . . . . s t ( u v w x y g ~ ~ z $ . . . . . . . . . . $ A ~ ~ ~ ~ ~ ~ ~ ~ ~ ~ B . . . . . . . . . . . . . . ",
". . . . . . . . . . . . . . C k D E F G H I I ( J k K . . . . . . . . . . + _ ~ ~ ~ ~ ~ ~ ~ ~ ~ c } . . . . . . . . . . . . . . ",
". . . . . . . . . . . . . . | ~ ~ ~ ~ ~ ~ L M { 9 = $ . . . . . . . . . $ < ~ ~ ~ ~ ~ ~ ~ ~ ~ ~ N $ . . . . . . . . . . . . . . ",
". . . . . . . . . . . . . . | ~ ~ ~ ~ ~ ~ ~ ~ ~ ~ O P Q R . . . . . . . S T ~ ~ ~ ~ ~ ~ ~ ~ ~ f / . . . . . . . . . . . . . . . ",
". . . . . . . . . . . . . . | ~ ~ ~ ~ ~ ~ ~ ~ ~ ~ ~ ~ ~ U V W $ . . . . X ~ ~ ~ ~ ~ ~ ~ ~ ~ ~ Y $ . . . . . . . . . . . . . . . ",
". . . . . . . . . . . . . . | ~ ~ ~ ~ ~ ~ ~ ~ ~ ~ ~ ~ ~ ~ ~ Z ` # . .  ...~ ~ ~ ~ ~ ~ ~ ~ ~ +.( . . . . . . . . . . . . . . . . ",
". . . . . . . . . . . . . . | ~ ~ ~ ~ ~ ~ ~ ~ ~ ~ ~ ~ ~ ~ ~ ~ ~ @.#.. W ~ $.~ ~ ~ ~ ~ ~ ~ ~ P . . . . . . . . . . . . . . . . . ",
". . . . . . . . . . . . . . | ~ ~ ~ ~ ~ ~ ~ ~ ~ ~ ~ ~ ~ ~ ~ ~ ~ ~ ~ %.&.C *.~ ~ ~ ~ ~ ~ ~ ~ } . . . . . . . . . . . . . . . . . ",
". . . . . . . . . . . . . . | ~ ~ ~ ~ ~ ~ ~ ~ ~ ~ ~ ~ ~ ~ ~ ~ ~ ~ ~ ~ L =.@ -.~ ~ ~ ~ ~ ~ ;.. . . . . . . . . . . . . . . . . . ",
". . . . . . . . . . . . . . | ~ ~ ~ ~ ~ ~ ~ ~ ~ ~ ~ ~ ~ ~ ~ ~ ~ ~ ~ ~ >.~ ,.'.).~ ~ ~ ~ ~ !.. . . . . . . . . . . . . . . . . . ",
". . . . . . . . . . . . . . | ~ ~ ~ ~ ~ ~ ~ ~ ~ ~ ~ ~ ~ ~ ~ ~ ~ ~ ~ ~ ~ ~ ~ ~.{.].~ ~ ~ r 5 . . . . . . . . . . . . . . . . . . ",
". . . . . . . . . . . . . . ^./.(._.:.<.[.~ ~ ~ ~ ~ ~ ~ ~ ~ ~ ~ ~ ~ ~ ~ ~ ~ ~ }.|.1.~ ~ 2.. . . . . . . . . . . . . . . . . . . ",
". . . . . . . . . . . . . . ^.3.4.'.5.I e } 6.7.~ ~ ~ ~ ~ ~ ~ ~ ~ ~ ~ ~ ~ ~ ~ ~ Y |.8.9.& . . . . . . . . . . . . . . . . . . . ",
". . . . . . . . . . . . . . | ~ ~ ~ ~ 0.a.b.+ K '.c.d.~ ~ ~ ~ ~ ~ ~ ~ ~ ~ ~ ~ ~ ~ e.f.g.% . . . . . . . . . . . . . . . . . . . ",
". . . . . . . . . . . . . . | ~ ~ ~ ~ ~ ~ ~ ~ h.i.# j.k.~ >.~ ~ ~ ~ ~ ~ ~ ~ ~ ~ ~ ~ l.m.. . . . . . . . . . . . . . . . . . . . ",
". . . . . . . . . . . . . . | ~ ~ ~ ~ ~ ~ ~ ~ ~ ~ 0.n.o.p.9.~ ~ ~ ~ ~ ~ ~ ~ ~ ~ ~ ~ q.r.. . . . . . . . . . . . . . . . . . . . ",
". . . . . . . . . . . . . . | ~ ~ ~ ~ ~ ~ ~ ~ ~ ~ ~ ~ s.^.&.c.~ ~ ~ ~ ~ ~ ~ ~ ~ ~ ~ $.[ @ . . . . . . . . . . . . . . . . . . . ",
". . . . . . . . . . . . . . | ~ ~ ~ ~ ~ ~ ~ ~ ~ ~ ~ ~ $.~ V |.(.~ ~ ~ ~ ~ ~ ~ ~ ~ ~ ~ ~ A $ . . . . . . . . . . . . . . . . . . ",
". . . . . . . . . . . . . . | ~ ~ ~ ~ ~ ~ ~ ~ ~ ~ ~ ~ ~ ~ ~ P } t.~ ~ ~ ~ ~ ~ ~ ~ ~ ~ ~ ~ r.. . . . . . . . . . . . . . . . . . ",
". . . . . . . . . . . . . . | ~ ~ ~ ~ ~ ~ ~ ~ ~ ~ ~ ~ ~ ~ ~ ~ u.v.w.~ ~ ~ ~ ~ ~ ~ ~ ~ ~ ~ x.6 . . . . . . . . . . . . . . . . . ",
". . . . . . . . . . . . . . | ~ ~ ~ ~ ~ ~ ~ ~ ~ ~ ~ ~ ~ ~ ~ ~ ~ y.m z.~ ~ ~ ~ ~ ~ ~ ~ ~ ~ ~ A.. . . . . . . . . . . . . . . . . ",
". . . . . . . . . . . . . . | ~ ~ ~ ~ ~ ~ ~ ~ ~ ~ ~ ~ ~ ~ ~ ~ ~ ~ 8.|.a.~ ~ ~ ~ ~ ~ ~ ~ ~ ~ B.C . . . . . . . . . . . . . . . . ",
". . . . . . . . . . . . . .  .C.D.E.F.~ ~ ~ ~ ~ ~ ~ ~ ~ ~ ~ ~ ~ ~ ~ G.&.H.~ ~ ~ ~ ~ ~ ~ ~ ~ ~ I.. . . . . . . . . . . . . . . . ",
". . . . . . . . . . . . . . . $ m. .J.K.L.~ ~ ~ ~ ~ ~ ~ ~ ~ ~ ~ ~ ~ M.} v ~ ~ ~ ~ ~ ~ ~ ~ ~ ~ N.O.. . . . . . . . . . . . . . . ",
". . . . . . . . . . . . . . . . . . . . . e -.~ ~ ~ ~ ~ ~ ~ ~ ~ ~ ~ ~ P.C Q.~ ~ ~ ~ ~ ~ ~ ~ ~ R.S.. . . . . . . . . . . . . . . ",
". . . . . . . . . . . . . . . . . '.e T.U./ ^.G.V.~ ~ ~ ~ ~ ~ ~ ~ ~ ~ ~ G W.~ ~ ~ ~ ~ ~ ~ ~ ~ ~ X.. . . . . . . . . . . . . . . ",
". . . . . . . . . . . . . . . $ Y.1 ~ ~ ~ Z.`.j.I. +~ ~ ~ ~ ~ ~ ~ ~ ~ ~ .+{.++~ ~ ~ ~ ~ ~ ~ ~ ~ @+6 . . . . . . . . . . . . . . ",
". . . . . . . . . . . . . . m.F ~ ~ ~ ~ ~ ~ ~ #+* U.~ ~ ~ ~ ~ ~ ~ ~ ~ ~ ~ ^.$+~ ~ ~ ~ ~ ~ ~ ~ ~ %+S.. . . . . . . . . . . . . . ",
". . . . . . . . . . . . . .  .~ ~ ~ ~ ~ ~ ~ ~ ~ }.9 &+~ ~ ~ ~ ~ ~ ~ ~ ~ ~ :.p *+~ ~ ~ ~ ~ ~ ~ ~ ~ =+. . . . . . . . . . . . . . ",
". . . . . . . . . . . . . . -+~ ~ ~ ~ ~ ~ ~ ~ ~ ;+/ '.>+>.~ ~ ~ ~ ~ ~ ~ ~ d @ ,+~ ~ ~ ~ ~ ~ ~ ~ ~ D $ . . . . . . . . . . . . . ",
". . . . . . . . . . . . . K '+~ ~ ~ ~ ~ ~ ~ ~ ~ ~ G . )+~ ~ ~ ~ ~ ~ ~ ~ ~ ~ !+~+~ ~ ~ ~ ~ ~ ~ ~ ~ {+^.. . . . . . . . . . . . . ",
". . . . . . . . . . . . . S ]+~ ~ ~ ~ ~ ~ ~ ~ ~ ~ B . {.^+~ ~ ~ ~ ~ ~ ~ ~ ~ ] ( ~ ~ ~ ~ ~ ~ ~ ~ ~ [ '.. . . . . . . . . . . . . ",
". . . . . . . . . . . . . C /+~ ~ ~ ~ ~ ~ ~ ~ ~ ~ v.. $ (+~ ~ ~ ~ ~ ~ ~ ~ ~ _+j.d ~ ~ ~ ~ ~ ~ ~ ~ :++ . . . . . . . . . . . . . ",
". . . . . . . . . . . . . $ <+~ ~ ~ ~ ~ ~ ~ ~ ~ [+K . . s ~ ~ ~ ~ ~ ~ ~ ~ ~ }+I |+~ ~ ~ ~ ~ ~ ~ ~ ~ 1+. . . . . . . . . . . . . ",
". . . . . . . . . . . . . . @ 2+$.~ ~ ~ ~ ~ ~ ~ 3+. . . @ 4+~ ~ ~ ~ ~ ~ ~ ~ d j.-.~ ~ ~ ~ ~ ~ ~ ~ ~ K . . . . . . . . . . . . . ",
". . . . . . . . . . . . . . . r.2+~ ~ ~ ~ ~ ~ 5+$ . . . K 6+~ ~ ~ ~ ~ ~ ~ ~ 7+/ 8+~ ~ ~ ~ ~ ~ ~ ~ ~ U.. . . . . . . . . . . . . ",
"  . . . . . . . . . . . . . . . &.9+0+a+b+c+C m.. . . . C P.d+d+d+d+d+d+d+d+L + e+f+d+d+d+d+d+d+d+g+h+. . . . . . . . . . . .   ",
"  . . . . . . . . . . . . . . . . % C | K . . . . . . . . i S i+i+i+i+i+i+i+i+$ |.i+i+i+i+i+i+i+i+& O.. . . . . . . . . . . .   ",
"    . . . . . . . . . . . . . . . . . . . . . . . . . . . . . . . . . . . . . . . . . . . . . . . . . . . . . . . . . . . .     ",
"      . . . . . . . . . . . . . . . . . . . . . . . . . . . . . . . . . . . . . . . . . . . . . . . . . . . . . . . . . .       ",
"        . . . . . . . . . . . . . . . . . . . . . . . . . . . . . . . . . . . . . . . . . . . . . . . . . . . . . . . .         ",
"          . . . . . . . . . . . . . . . . . . . . . . . . . . . . . . . . . . . . . . . . . . . . . . . . . . . . . .           ",
"              . . . . . . . . . . . . . . . . . . . . . . . . . . . . . . . . . . . . . . . . . . . . . . . . . .               "};
