/* XPM */
static const char * rdcartslots_16x16_xpm[] = {
"16 16 69 1",
" 	c None",
".	c #0F8F34",
"+	c #028929",
"@	c #088C2E",
"#	c #088B2E",
"$	c #078B2E",
"%	c #0E8E33",
"&	c #088B2D",
"*	c #C7E5D0",
"=	c #C6E4CE",
"-	c #D8EDDE",
";	c #0B8C2F",
">	c #0A8C2F",
",	c #D6ECDD",
"'	c #C3E3CD",
")	c #C4E3CD",
"!	c #C5E4CE",
"~	c #FFFFFF",
"{	c #91CBA2",
"]	c #048A2B",
"^	c #058A2B",
"/	c #90CBA1",
"(	c #9AD0A9",
"_	c #B9DEC3",
":	c #ECF6EF",
"<	c #EBF6EE",
"[	c #BBDFC5",
"}	c #9DD2AD",
"|	c #078B2D",
"1	c #39A257",
"2	c #F7FBF8",
"3	c #FEFFFF",
"4	c #7FC190",
"5	c #7EC18F",
"6	c #FEFFFE",
"7	c #068B2D",
"8	c #1C953E",
"9	c #AAD7B7",
"0	c #CBE7D3",
"a	c #A1D4B0",
"b	c #19943D",
"c	c #A1D3B0",
"d	c #1C953F",
"e	c #108F35",
"f	c #3FA65D",
"g	c #E0F1E5",
"h	c #DDF0E3",
"i	c #47A863",
"j	c #F4FAF6",
"k	c #EEF7F0",
"l	c #37A256",
"m	c #B5DCC1",
"n	c #B1DBBD",
"o	c #B5DDC1",
"p	c #37A156",
"q	c #4AAA66",
"r	c #4AAA65",
"s	c #40A75E",
"t	c #DAEDDF",
"u	c #D3EADA",
"v	c #41A75E",
"w	c #41A65E",
"x	c #DEEFE2",
"y	c #DEEFE3",
"z	c #FEFEFE",
"A	c #F6FBF7",
"B	c #0C8D30",
"C	c #038523",
"D	c #048623",
" .............. ",
"+@##$%....%&@@@+",
"*===-;....>,')'!",
"~~~~~{]..^/~~~~~",
"(((_~:]..]<~[}}}",
"|||1234>>5621|77",
"...890abbc09d...",
"..efghh,,hhgfe..",
"..eijkkkkkkjie..",
"..elmnnnnnnope..",
"..eq~666666~re..",
"..estuuuuuutve..",
"..ewx------ywe..",
"..eqzAAAAAAzre..",
"...BCDDDDDDCB...",
" .............. "};
