/* XPM */
static const char * rdcatch_22x22_xpm[] = {
"22 22 87 1",
" 	c None",
".	c #0F8F34",
"+	c #1A953E",
"@	c #18933C",
"#	c #19933D",
"$	c #0D8E32",
"%	c #19933C",
"&	c #18933B",
"*	c #1A943D",
"=	c #CEE8D6",
"-	c #CDE8D5",
";	c #D3EBDA",
">	c #139036",
",	c #129036",
"'	c #D2EAD8",
")	c #CBE7D3",
"!	c #CCE7D3",
"~	c #CDE7D4",
"{	c #FFFFFF",
"]	c #7DC291",
"^	c #0C8E32",
"/	c #7CC290",
"(	c #FEFFFE",
"_	c #149138",
":	c #149238",
"<	c #CCE7D4",
"[	c #FEFFFF",
"}	c #6CBB83",
"|	c #6FBC85",
"1	c #289B49",
"2	c #279A48",
"3	c #73BD88",
"4	c #70BC86",
"5	c #098C2F",
"6	c #0A8C2F",
"7	c #088C2E",
"8	c #D8ECDD",
"9	c #008522",
"0	c #D7ECDD",
"a	c #CEE8D5",
"b	c #088B2E",
"c	c #74BD88",
"d	c #49AB65",
"e	c #0D8E33",
"f	c #48AA64",
"g	c #74BE89",
"h	c #0E8F33",
"i	c #3CA45A",
"j	c #8FCAA0",
"k	c #8FCBA0",
"l	c #77BF8B",
"m	c #2D9D4D",
"n	c #76BF8B",
"o	c #108F35",
"p	c #0A8D31",
"q	c #E8F4EC",
"r	c #EDF6EF",
"s	c #EEF7F0",
"t	c #F0F8F2",
"u	c #0A8D30",
"v	c #108F34",
"w	c #0C8D31",
"x	c #BBDFC6",
"y	c #9BD0AA",
"z	c #5DB375",
"A	c #6DBB83",
"B	c #D8ECDE",
"C	c #0A8C30",
"D	c #F7FBF8",
"E	c #FAFDFA",
"F	c #2C9C4C",
"G	c #0B8D30",
"H	c #F9FCFA",
"I	c #37A256",
"J	c #48A962",
"K	c #C0E2CA",
"L	c #FCFDFC",
"M	c #B2DBBE",
"N	c #7FC392",
"O	c #90CBA1",
"P	c #86C799",
"Q	c #F8FCF8",
"R	c #FDFEFE",
"S	c #FAFCFA",
"T	c #168E32",
"U	c #178E32",
"V	c #109036",
"  ..................  ",
" .................... ",
"+@@@@@#$......$%&&&&&*",
"=-----;>......,')!!!)~",
"{{{{{{{]^....$/{{{{{{{",
"{{{{{({~_....:<{[{{{{{",
"}}}}|{{{1....2{{{34444",
"55567~{{89..90{{ab6555",
".....c{{{deef{{{g.....",
"....hijkjlmmnjkjih....",
"...opqrrrsttsrrrqpo...",
"...ou;q{{{{{{{{q;uo...",
"...vwxyzAB{{BAzyxwv...",
"...oCD{{E/FF/E{{DCo...",
"...oGH{{{{{{{{{{HGo...",
"....$IJKHL{{LHKJI$....",
"...oC{{MNOPPONM{{Co...",
"...oCQ{{{RSSR{{{QCo...",
"...oC{{{{{{{{{{{{Co...",
".....TUUUUUUUUUUT.....",
" ....VVVVVVVVVVVV.... ",
"  ..................  "};
