/* XPM */
static const char * rdcartslots_64x64_xpm[] = {
"64 64 111 2",
"  	c None",
". 	c #0F8F34",
"+ 	c #008827",
"@ 	c #018929",
"# 	c #038A2A",
"$ 	c #108F35",
"% 	c #108F34",
"& 	c #058A2C",
"* 	c #04892A",
"= 	c #028828",
"- 	c #E7F4EA",
"; 	c #E9F5EB",
"> 	c #E3F2E7",
", 	c #008726",
"' 	c #008725",
") 	c #D9EEDF",
"! 	c #DEF0E4",
"~ 	c #DFF0E4",
"{ 	c #FEFFFE",
"] 	c #FFFFFF",
"^ 	c #5FB578",
"/ 	c #60B578",
"( 	c #E5F3E9",
"_ 	c #E1F1E6",
": 	c #46A962",
"< 	c #45A862",
"[ 	c #C6E4CE",
"} 	c #078B2D",
"| 	c #BFE1C9",
"1 	c #2A9C4B",
"2 	c #279A48",
"3 	c #A7D6B5",
"4 	c #0C8E32",
"5 	c #0D8E32",
"6 	c #A4D4B2",
"7 	c #119036",
"8 	c #119035",
"9 	c #93CCA3",
"0 	c #0E8F34",
"a 	c #8DCA9F",
"b 	c #C8E5D1",
"c 	c #E0F0E4",
"d 	c #048A2B",
"e 	c #E6F3EA",
"f 	c #D1EAD9",
"g 	c #088C2E",
"h 	c #0E8F33",
"i 	c #77BF8C",
"j 	c #74BE89",
"k 	c #068B2C",
"l 	c #A5D5B3",
"m 	c #F8FCF9",
"n 	c #008625",
"o 	c #F7FBF8",
"p 	c #A9D7B6",
"q 	c #0C8E31",
"r 	c #299B4A",
"s 	c #62B57A",
"t 	c #5FB478",
"u 	c #2C9D4D",
"v 	c #068B2D",
"w 	c #C2E2CB",
"x 	c #E5F3EA",
"y 	c #C7E5D0",
"z 	c #47A963",
"A 	c #49AA65",
"B 	c #44A861",
"C 	c #48AA64",
"D 	c #C5E4CD",
"E 	c #068A2C",
"F 	c #C2E3CC",
"G 	c #60B579",
"H 	c #2B9C4C",
"I 	c #289B49",
"J 	c #61B67A",
"K 	c #FBFDFC",
"L 	c #B2DBBE",
"M 	c #0B8D31",
"N 	c #0C8D31",
"O 	c #B0DABC",
"P 	c #FEFEFE",
"Q 	c #249946",
"R 	c #36A155",
"S 	c #3BA359",
"T 	c #0A8D30",
"U 	c #0A8C30",
"V 	c #37A155",
"W 	c #A0D2AE",
"X 	c #A2D4B1",
"Y 	c #9BD0AA",
"Z 	c #9DD1AC",
"` 	c #86C799",
" .	c #D8EDDF",
"..	c #D9EDDF",
"+.	c #88C79A",
"@.	c #038929",
"#.	c #0E8E33",
"$.	c #63B67B",
"%.	c #9CD0AB",
"&.	c #9ED2AD",
"*.	c #48A964",
"=.	c #6CBA83",
"-.	c #6CBB83",
";.	c #03892A",
">.	c #008523",
",.	c #008623",
"'.	c #A7D6B4",
").	c #A8D6B6",
"!.	c #018726",
"~.	c #00821C",
"{.	c #018725",
"              . . . . . . . . . . . . . . . . . . . . . . . . . . . . . . . . . . . . . . . . . . . . . . . . . .               ",
"          . . . . . . . . . . . . . . . . . . . . . . . . . . . . . . . . . . . . . . . . . . . . . . . . . . . . . .           ",
"        . . . . . . . . . . . . . . . . . . . . . . . . . . . . . . . . . . . . . . . . . . . . . . . . . . . . . . . .         ",
"      . . . . . . . . . . . . . . . . . . . . . . . . . . . . . . . . . . . . . . . . . . . . . . . . . . . . . . . . . .       ",
"    . . . . . . . . . . . . . . . . . . . . . . . . . . . . . . . . . . . . . . . . . . . . . . . . . . . . . . . . . . . .     ",
"  . . . . . . . . . . . . . . . . . . . . . . . . . . . . . . . . . . . . . . . . . . . . . . . . . . . . . . . . . . . . . .   ",
"  . . . . . . . . . . . . . . . . . . . . . . . . . . . . . . . . . . . . . . . . . . . . . . . . . . . . . . . . . . . . . .   ",
". . . . . . . . . . . . . . . . . . . . . . . . . . . . . . . . . . . . . . . . . . . . . . . . . . . . . . . . . . . . . . . . ",
"+ @ @ @ @ @ @ @ @ @ @ @ @ @ @ @ @ @ @ # $ . . . . . . . . . . . . . . . . . . . . . . % & * * * * * * * * * * * * * * * * * * = ",
"- ; ; ; ; ; ; ; ; ; ; ; ; ; ; ; ; ; ; > , . . . . . . . . . . . . . . . . . . . . . . ' ) ! ! ! ! ! ! ! ! ! ! ! ! ! ! ! ! ! ! ~ ",
"{ ] ] ] ] ] ] ] ] ] ] ] ] ] ] ] ] ] ] ] ^ $ . . . . . . . . . . . . . . . . . . . . $ / ] ] ] ] ] ] ] ] ] ] ] ] ] ] ] ] ] ] ] { ",
"] ] ] ] ] ] ] ] ] ] ] ] ] ] ] ] ] ] ] ] ( ' . . . . . . . . . . . . . . . . . . . . ' _ ] ] ] ] ] ] ] ] ] ] ] ] ] ] ] ] ] ] ] ] ",
"] ] ] ] ] ] ] ] ] ] ] ] ] ] ] ] ] ] ] ] ] : $ . . . . . . . . . . . . . . . . . . % < ] ] ] ] ] ] ] ] ] ] ] ] ] ] ] ] ] ] ] ] ] ",
"] ] ] ] ] ] ] ] ] ] ] ] ] ] ] ] ] ] ] ] ] [ & . . . . . . . . . . . . . . . . . . } | ] ] ] ] ] ] ] ] ] ] ] ] ] ] ] ] ] ] ] ] ] ",
"] ] ] ] ] ] ] ] ] ] ] ] ] ] ] ] ] ] ] ] ] ] 1 . . . . . . . . . . . . . . . . . . 2 ] ] ] ] ] ] ] ] ] ] ] ] ] ] ] ] ] ] ] ] ] ] ",
"] ] ] ] ] ] ] ] ] ] ] ] ] ] ] ] ] ] ] ] ] ] 3 4 . . . . . . . . . . . . . . . . 5 6 ] ] ] ] ] ] ] ] ] ] ] ] ] ] ] ] ] ] ] ] ] ] ",
"] ] ] ] ] ] ] ] ] ] ] ] ] ] ] ] ] ] ] ] ] ] ] 7 . . . . . . . . . . . . . . . . 8 ] ] ] ] ] ] ] ] ] ] ] ] ] ] ] ] ] ] ] ] ] ] ] ",
"] ] ] ] ] ] ] ] ] ] ] ] ] ] ] ] ] ] ] ] ] ] ] 9 0 . . . . . . . . . . . . . . . a ] ] ] ] ] ] ] ] ] ] ] ] ] ] ] ] ] ] ] ] ] ] ] ",
"b b b b b b b b b b b b b c ] ] ] ] ] ] ] ] ] ] d . . . . . . . . . . . . . . d ] ] ] ] ] ] ] ] ] ] e f f f f f f f f f f f f f ",
"g g g g g g g g g g g g g h ] ] ] ] ] ] ] ] ] ] i . . . . . . . . . . . . . . j ] ] ] ] ] ] ] ] ] ] h k k k k k k k k k k k k k ",
". . . . . . . . . . . . . 5 l ] ] ] ] ] ] ] ] ] m ' . . . . . . . . . . . . n o ] ] ] ] ] ] ] ] ] p q . . . . . . . . . . . . . ",
". . . . . . . . . . . . . . r ] ] ] ] ] ] ] ] ] ] s $ . . . . . . . . . . $ t ] ] ] ] ] ] ] ] ] ] u . . . . . . . . . . . . . . ",
". . . . . . . . . . . . . . v w ] ] ] ] ] ] ] ] ] x n . . . . . . . . . . ' > ] ] ] ] ] ] ] ] ] y d . . . . . . . . . . . . . . ",
". . . . . . . . . . . . . . $ z ] ] ] ] ] ] ] ] ] ] A $ . . . . . . . . % B ] ] ] ] ] ] ] ] ] ] C $ . . . . . . . . . . . . . . ",
". . . . . . . . . . . . . . . ' > ] ] ] ] ] ] ] ] ] D k . . . . . . . . E F ] ] ] ] ] ] ] ] ] - n . . . . . . . . . . . . . . . ",
". . . . . . . . . . . . . . . $ G ] ] ] ] ] ] ] ] ] ] H . . . . . . . . I ] ] ] ] ] ] ] ] ] ] J $ . . . . . . . . . . . . . . . ",
". . . . . . . . . . . . . . . . n K ] ] ] ] ] ] ] ] ] L M . . . . . . N O ] ] ] ] ] ] ] ] ] P ' . . . . . . . . . . . . . . . . ",
". . . . . . . . . . . . . . . . . Q R R R R R R R R R S T . . . . . . U S R R R R R R R R R Q . . . . . . . . . . . . . . . . . ",
". . . . . . . . . . . . . . 2 R V V R R R R R R R R R R V V V V V V V V R R R R R R R R R R V V R 2 . . . . . . . . . . . . . . ",
". . . . . . . . . . . . . 5 W ] ] ] ] ] ] ] ] ] ] ] ] ] ] ] ] ] ] ] ] ] ] ] ] ] ] ] ] ] ] ] ] ] ] X 4 . . . . . . . . . . . . . ",
". . . . . . . . . . . . . 5 Y ] ] ] ] ] ] ] ] ] ] ] ] ] ] ] ] ] ] ] ] ] ] ] ] ] ] ] ] ] ] ] ] ] ] Z 5 . . . . . . . . . . . . . ",
". . . . . . . . . . . . . 5 Y ] ] ] ] ] ] ] ] ] ] ] ] ] ] ] ] ] ] ] ] ] ] ] ] ] ] ] ] ] ] ] ] ] ] Z 5 . . . . . . . . . . . . . ",
". . . . . . . . . . . . . 5 Y ] ] ] ] ] ] ] ] ] ] ] ] ] ] ] ] ] ] ] ] ] ] ] ] ] ] ] ] ] ] ] ] ] ] Z 5 . . . . . . . . . . . . . ",
". . . . . . . . . . . . . 5 Y ] ] ] ] ] ] ] ] ] ] ] ] ] ] ] ] ] ] ] ] ] ] ] ] ] ] ] ] ] ] ] ] ] ] Z 5 . . . . . . . . . . . . . ",
". . . . . . . . . . . . . 5 Y ] ] ] ] ] ] ] ] ] ] ] ] ] ] ] ] ] ] ] ] ] ] ] ] ] ] ] ] ] ] ] ] ] ] Z 5 . . . . . . . . . . . . . ",
". . . . . . . . . . . . . 5 Y ] ] ] ] ] ] ] ] ] ] ] ] ] ] ] ] ] ] ] ] ] ] ] ] ] ] ] ] ] ] ] ] ] ] Z 5 . . . . . . . . . . . . . ",
". . . . . . . . . . . . . 5 `  ...................................................................+.5 . . . . . . . . . . . . . ",
". . . . . . . . . . . . . . g @.@.@.@.@.@.@.@.@.@.@.@.@.@.@.@.@.@.@.@.@.@.@.@.@.@.@.@.@.@.@.@.@.@.g . . . . . . . . . . . . . . ",
". . . . . . . . . . . . . #.s Y Y Y Y Y Y Y Y Y Y Y Y Y Y Y Y Y Y Y Y Y Y Y Y Y Y Y Y Y Y Y Y Y Y $.#.. . . . . . . . . . . . . ",
". . . . . . . . . . . . . 5 Y ] ] ] ] ] ] ] ] ] ] ] ] ] ] ] ] ] ] ] ] ] ] ] ] ] ] ] ] ] ] ] ] ] ] Z 5 . . . . . . . . . . . . . ",
". . . . . . . . . . . . . 5 Y ] ] ] ] ] ] ] ] ] ] ] ] ] ] ] ] ] ] ] ] ] ] ] ] ] ] ] ] ] ] ] ] ] ] Z 5 . . . . . . . . . . . . . ",
". . . . . . . . . . . . . 5 Y ] ] ] ] ] ] ] ] ] ] ] ] ] ] ] ] ] ] ] ] ] ] ] ] ] ] ] ] ] ] ] ] ] ] Z 5 . . . . . . . . . . . . . ",
". . . . . . . . . . . . . 5 Y ] ] ] ] ] ] ] ] ] ] ] ] ] ] ] ] ] ] ] ] ] ] ] ] ] ] ] ] ] ] ] ] ] ] Z 5 . . . . . . . . . . . . . ",
". . . . . . . . . . . . . 5 Y ] ] ] ] ] ] ] ] ] ] ] ] ] ] ] ] ] ] ] ] ] ] ] ] ] ] ] ] ] ] ] ] ] ] Z 5 . . . . . . . . . . . . . ",
". . . . . . . . . . . . . 5 Y ] ] ] ] ] ] ] ] ] ] ] ] ] ] ] ] ] ] ] ] ] ] ] ] ] ] ] ] ] ] ] ] ] ] Z 5 . . . . . . . . . . . . . ",
". . . . . . . . . . . . . 5 %.] ] ] ] ] ] ] ] ] ] ] ] ] ] ] ] ] ] ] ] ] ] ] ] ] ] ] ] ] ] ] ] ] ] &.5 . . . . . . . . . . . . . ",
". . . . . . . . . . . . . h *.=.-.-.-.-.-.-.-.-.-.-.-.-.-.-.-.-.-.-.-.-.-.-.-.-.-.-.-.-.-.-.-.-.-.C h . . . . . . . . . . . . . ",
". . . . . . . . . . . . . . ;.>.,.,.,.,.,.,.,.,.,.,.,.,.,.,.,.,.,.,.,.,.,.,.,.,.,.,.,.,.,.,.,.,.>.;.. . . . . . . . . . . . . . ",
". . . . . . . . . . . . . 5 6 ] ] ] ] ] ] ] ] ] ] ] ] ] ] ] ] ] ] ] ] ] ] ] ] ] ] ] ] ] ] ] ] ] ] '.4 . . . . . . . . . . . . . ",
". . . . . . . . . . . . . 5 Y ] ] ] ] ] ] ] ] ] ] ] ] ] ] ] ] ] ] ] ] ] ] ] ] ] ] ] ] ] ] ] ] ] ] Z 5 . . . . . . . . . . . . . ",
". . . . . . . . . . . . . 5 Y ] ] ] ] ] ] ] ] ] ] ] ] ] ] ] ] ] ] ] ] ] ] ] ] ] ] ] ] ] ] ] ] ] ] Z 5 . . . . . . . . . . . . . ",
". . . . . . . . . . . . . 5 Y ] ] ] ] ] ] ] ] ] ] ] ] ] ] ] ] ] ] ] ] ] ] ] ] ] ] ] ] ] ] ] ] ] ] Z 5 . . . . . . . . . . . . . ",
". . . . . . . . . . . . . 5 Y ] ] ] ] ] ] ] ] ] ] ] ] ] ] ] ] ] ] ] ] ] ] ] ] ] ] ] ] ] ] ] ] ] ] Z 5 . . . . . . . . . . . . . ",
". . . . . . . . . . . . . 5 Y ] ] ] ] ] ] ] ] ] ] ] ] ] ] ] ] ] ] ] ] ] ] ] ] ] ] ] ] ] ] ] ] ] ] Z 5 . . . . . . . . . . . . . ",
". . . . . . . . . . . . . 5 Y ] ] ] ] ] ] ] ] ] ] ] ] ] ] ] ] ] ] ] ] ] ] ] ] ] ] ] ] ] ] ] ] ] ] Z 5 . . . . . . . . . . . . . ",
". . . . . . . . . . . . . 5 l ] ] ] ] ] ] ] ] ] ] ] ] ] ] ] ] ] ] ] ] ] ] ] ] ] ] ] ] ] ] ] ] ] ] ).4 . . . . . . . . . . . . . ",
". . . . . . . . . . . . . . !.~.~.~.~.~.~.~.~.~.~.~.~.~.~.~.~.~.~.~.~.~.~.~.~.~.~.~.~.~.~.~.~.~.~.{.. . . . . . . . . . . . . . ",
"  . . . . . . . . . . . . . . . . . . . . . . . . . . . . . . . . . . . . . . . . . . . . . . . . . . . . . . . . . . . . . .   ",
"  . . . . . . . . . . . . . . . . . . . . . . . . . . . . . . . . . . . . . . . . . . . . . . . . . . . . . . . . . . . . . .   ",
"    . . . . . . . . . . . . . . . . . . . . . . . . . . . . . . . . . . . . . . . . . . . . . . . . . . . . . . . . . . . .     ",
"      . . . . . . . . . . . . . . . . . . . . . . . . . . . . . . . . . . . . . . . . . . . . . . . . . . . . . . . . . .       ",
"        . . . . . . . . . . . . . . . . . . . . . . . . . . . . . . . . . . . . . . . . . . . . . . . . . . . . . . . .         ",
"          . . . . . . . . . . . . . . . . . . . . . . . . . . . . . . . . . . . . . . . . . . . . . . . . . . . . . .           ",
"              . . . . . . . . . . . . . . . . . . . . . . . . . . . . . . . . . . . . . . . . . . . . . . . . . .               "};
