/* XPM */
static const char * rdcatch_32x32_xpm[] = {
"32 32 98 2",
"  	c None",
". 	c #0F8F34",
"+ 	c #109035",
"@ 	c #108F35",
"# 	c #76BF8B",
"$ 	c #72BD88",
"% 	c #78C08D",
"& 	c #028828",
"* 	c #74BE89",
"= 	c #6EBB84",
"- 	c #72BD87",
"; 	c #FFFFFF",
"> 	c #4FAC69",
", 	c #4DAC68",
"' 	c #CBE7D4",
") 	c #048A2A",
"! 	c #058A2B",
"~ 	c #C9E6D2",
"{ 	c #2F9E4F",
"] 	c #2D9D4E",
"^ 	c #ACD8B9",
"/ 	c #0C8D31",
"( 	c #0C8E31",
"_ 	c #ABD8B7",
": 	c #66B87E",
"< 	c #65B77D",
"[ 	c #159239",
"} 	c #149138",
"| 	c #69B980",
"1 	c #6AB981",
"2 	c #108F34",
"3 	c #098C2F",
"4 	c #B9DEC3",
"5 	c #98CEA6",
"6 	c #0E8F34",
"7 	c #96CDA6",
"8 	c #BBDFC6",
"9 	c #3FA55C",
"0 	c #088B2D",
"a 	c #078B2D",
"b 	c #40A65D",
"c 	c #008726",
"d 	c #DDEFE2",
"e 	c #7BC28F",
"f 	c #79C18E",
"g 	c #DEF0E4",
"h 	c #008725",
"i 	c #0E8F33",
"j 	c #45A861",
"k 	c #9CD0AB",
"l 	c #9BD0AA",
"m 	c #95CDA5",
"n 	c #03892A",
"o 	c #0D8E32",
"p 	c #94CDA4",
"q 	c #46A862",
"r 	c #85C698",
"s 	c #99CFA8",
"t 	c #98CFA8",
"u 	c #9CD1AB",
"v 	c #9BD1AA",
"w 	c #058A2C",
"x 	c #D6ECDC",
"y 	c #048A2B",
"z 	c #E3F2E7",
"A 	c #0E8E33",
"B 	c #1C953E",
"C 	c #89C79A",
"D 	c #DDEFE3",
"E 	c #ADD9BA",
"F 	c #5EB375",
"G 	c #159138",
"H 	c #50AD6A",
"I 	c #A2D3B0",
"J 	c #FAFDFB",
"K 	c #E9F5EC",
"L 	c #90CBA1",
"M 	c #3CA358",
"N 	c #1F9641",
"O 	c #078C2D",
"P 	c #B6DDC1",
"Q 	c #0B8D30",
"R 	c #53AF6E",
"S 	c #169239",
"T 	c #4AAA64",
"U 	c #F7FBF8",
"V 	c #D8EDDE",
"W 	c #F0F8F2",
"X 	c #42A65E",
"Y 	c #19933B",
"Z 	c #66B77D",
"` 	c #BADFC5",
" .	c #D0E9D8",
"..	c #7DC290",
"+.	c #259946",
"@.	c #E6F3EA",
"#.	c #008521",
"$.	c #00831E",
"      . . . . . . . . . . . . . . . . . . . . . . . . . .       ",
"    . . . . . . . . . . . . . . . . . . . . . . . . . . . .     ",
"  . . . . . . . . . . . . . . . . . . . . . . . . . . . . . .   ",
"+ @ @ @ @ @ @ @ @ @ . . . . . . . . . . . . @ @ @ @ @ @ @ @ @ + ",
"# $ $ $ $ $ $ $ $ % & . . . . . . . . . . & * = = = = = = = = - ",
"; ; ; ; ; ; ; ; ; ; > @ . . . . . . . . @ , ; ; ; ; ; ; ; ; ; ; ",
"; ; ; ; ; ; ; ; ; ; ' ) . . . . . . . . ! ~ ; ; ; ; ; ; ; ; ; ; ",
"; ; ; ; ; ; ; ; ; ; ; { . . . . . . . . ] ; ; ; ; ; ; ; ; ; ; ; ",
"; ; ; ; ; ; ; ; ; ; ; ^ / . . . . . . ( _ ; ; ; ; ; ; ; ; ; ; ; ",
": : : : : : < ; ; ; ; ; [ . . . . . . } ; ; ; ; ; | 1 1 1 1 1 1 ",
"2 2 2 2 2 2 3 4 ; ; ; ; 5 6 . . . . 6 7 ; ; ; ; 8 3 2 2 2 2 2 2 ",
". . . . . . . 9 ; ; ; ; ; 0 . . . . a ; ; ; ; ; b . . . . . . . ",
". . . . . . . c d ; ; ; ; e . . . . f ; ; ; ; g h . . . . . . . ",
". . . . . . . i j k l l l m n o o n p l l l k q i . . . . . . . ",
". . . . . . 3 r l s s s s t u v v u t s s s s l r 3 . . . . . . ",
". . . . . . w x ; ; ; ; ; ; ; ; ; ; ; ; ; ; ; ; x w . . . . . . ",
". . . . . . y z ; ; ; ; ; ; ; ; ; ; ; ; ; ; ; ; z y . . . . . . ",
". . . . . . A B { C d ; ; ; ; ; ; ; ; ; ; d C { B A . . . . . . ",
". . . . . . ! D ; E F G H I J ; ; J I H G F E ; D ! . . . . . . ",
". . . . . . w x ; ; ; ; K L M N N M L K ; ; ; ; x w . . . . . . ",
". . . . . . w x ; ; ; ; ; ; ; ; ; ; ; ; ; ; ; ; x w . . . . . . ",
". . . . . . O P ; ; ; ; ; ; ; ; ; ; ; ; ; ; ; ; P O . . . . . . ",
". . . . . . Q R S T l U ; ; ; ; ; ; ; ; U l T S R Q . . . . . . ",
". . . . . . w V ; W m X Y Z ` ; ; ` Z Y X m W ; V w . . . . . . ",
". . . . . . w x ; ; ; ; ;  ...+.+... .; ; ; ; ; x w . . . . . . ",
". . . . . . w x ; ; ; ; ; ; ; ; ; ; ; ; ; ; ; ; x w . . . . . . ",
". . . . . . w x ; ; ; ; ; ; ; ; ; ; ; ; ; ; ; ; x w . . . . . . ",
". . . . . . y @.; ; ; ; ; ; ; ; ; ; ; ; ; ; ; ; @.y . . . . . . ",
". . . . . . + #.$.$.$.$.$.$.$.$.$.$.$.$.$.$.$.$.#.+ . . . . . . ",
"  . . . . . . . . . . . . . . . . . . . . . . . . . . . . . .   ",
"    . . . . . . . . . . . . . . . . . . . . . . . . . . . .     ",
"      . . . . . . . . . . . . . . . . . . . . . . . . . .       "};
