/* XPM */
static const char * rdcastmanager_16x16_xpm[] = {
"16 16 103 2",
"  	c None",
". 	c #0F8F34",
"+ 	c #028929",
"@ 	c #088C2E",
"# 	c #088B2E",
"$ 	c #078B2D",
"% 	c #0E8E33",
"& 	c #018829",
"* 	c #C7E5CF",
"= 	c #C5E4CE",
"- 	c #D7EDDD",
"; 	c #0B8C2F",
"> 	c #0A8C2F",
", 	c #D5EBDB",
"' 	c #C3E3CC",
") 	c #C4E4CE",
"! 	c #FFFFFF",
"~ 	c #91CBA2",
"{ 	c #048A2B",
"] 	c #8FCBA1",
"^ 	c #9AD0A9",
"/ 	c #BADFC5",
"( 	c #F3F9F4",
"_ 	c #048A2A",
": 	c #EBF6EE",
"< 	c #BBDFC5",
"[ 	c #9DD1AC",
"} 	c #239844",
"| 	c #89C89B",
"1 	c #A0D2AD",
"2 	c #48A964",
"3 	c #0B8D30",
"4 	c #7EC18F",
"5 	c #FEFFFE",
"6 	c #F7FBF8",
"7 	c #39A357",
"8 	c #068B2D",
"9 	c #44A760",
"0 	c #F8FCFA",
"a 	c #FAFDFB",
"b 	c #E3F2E7",
"c 	c #78C08B",
"d 	c #249845",
"e 	c #CBE7D3",
"f 	c #D3EADA",
"g 	c #19933C",
"h 	c #4AAA65",
"i 	c #6CBB82",
"j 	c #6FBC85",
"k 	c #1A943D",
"l 	c #47A863",
"m 	c #94CDA5",
"n 	c #D2EAD8",
"o 	c #F9FCFA",
"p 	c #8DCA9E",
"q 	c #008018",
"r 	c #109035",
"s 	c #47A862",
"t 	c #D0E9D7",
"u 	c #6EBB85",
"v 	c #FCFEFC",
"w 	c #E9F5EC",
"x 	c #0D8E32",
"y 	c #3EA55B",
"z 	c #F8FCF9",
"A 	c #7CC290",
"B 	c #F4FAF7",
"C 	c #BCE0C6",
"D 	c #0E8F33",
"E 	c #159035",
"F 	c #E7F4EB",
"G 	c #B1DBBD",
"H 	c #E5F3E8",
"I 	c #2E9E4D",
"J 	c #108F35",
"K 	c #40A65E",
"L 	c #F6FBF8",
"M 	c #7AC08D",
"N 	c #F1F8F3",
"O 	c #FCFEFD",
"P 	c #7EC392",
"Q 	c #FDFEFD",
"R 	c #46A963",
"S 	c #48A965",
"T 	c #45A862",
"U 	c #D4EBDA",
"V 	c #85C698",
"W 	c #49A760",
"X 	c #139137",
"Y 	c #76BD87",
"Z 	c #60B478",
"` 	c #058A2C",
" .	c #76BC87",
"..	c #94C99E",
"+.	c #63B478",
"@.	c #87C495",
"#.	c #98CBA0",
"$.	c #339E50",
"%.	c #108F34",
"&.	c #0A8D30",
"*.	c #098B2D",
"=.	c #0B8C30",
"-.	c #0A8C2E",
"  . . . . . . . . . . . . . .   ",
"+ @ # # $ % . . . . % $ @ @ @ & ",
"* = = = - ; . . . . > , ' ' ' ) ",
"! ! ! ! ! ~ { . . { ] ! ! ! ! ! ",
"^ ^ ^ / ! ( @ . . _ : ! < [ [ [ ",
"$ $ $ } | 1 2 3 > 4 5 6 7 $ 8 8 ",
". . . 9 0 a b c d e ! f g . . . ",
". . . h ! ! ! ! b i ! j $ . . . ",
". . . k l m n o ! ! p q r . . . ",
". . . s ! 6 t u v ! w g x . . . ",
". . . y z ! ! ! A B ! C > . . . ",
". . . D E ^ w ! F G ! H I . . . ",
". . J K L b M N O P z Q R . . . ",
". . J S ! z T U ! V z ! W r . . ",
". . . X Y Z `  ...+.@.#.$.%.. . ",
"  . . . > &.. > *.=.-.*.x . .   "};
