/* XPM */
static const char * rdcastmanager_32x32_xpm[] = {
"32 32 151 2",
"  	c None",
". 	c #0F8F34",
"+ 	c #109035",
"@ 	c #108F35",
"# 	c #75BE8A",
"$ 	c #71BD87",
"% 	c #77C08C",
"& 	c #028828",
"* 	c #72BD88",
"= 	c #6DBB83",
"- 	c #6FBC86",
"; 	c #FFFFFF",
"> 	c #4FAC69",
", 	c #4DAC68",
"' 	c #CCE7D4",
") 	c #04892A",
"! 	c #048A2B",
"~ 	c #C9E6D1",
"{ 	c #2F9E4F",
"] 	c #2E9D4E",
"^ 	c #ACD8B9",
"/ 	c #0C8D31",
"( 	c #0C8E31",
"_ 	c #AAD8B7",
": 	c #64B77C",
"< 	c #63B67C",
"[ 	c #159239",
"} 	c #149238",
"| 	c #68B87F",
"1 	c #0A8D30",
"2 	c #69B77D",
"3 	c #7DC291",
"4 	c #9DD1AC",
"5 	c #C8E5D0",
"6 	c #A1D3AF",
"7 	c #0E8E33",
"8 	c #0E8F34",
"9 	c #97CEA6",
"0 	c #BBDFC5",
"a 	c #098C2F",
"b 	c #108F34",
"c 	c #66B87E",
"d 	c #B3DCBF",
"e 	c #94CDA5",
"f 	c #6EBA82",
"g 	c #269947",
"h 	c #219844",
"i 	c #088B2E",
"j 	c #078B2D",
"k 	c #41A65E",
"l 	c #82C596",
"m 	c #A5D5B3",
"n 	c #3CA459",
"o 	c #018828",
"p 	c #7AC18E",
"q 	c #DEF0E4",
"r 	c #008725",
"s 	c #D3EBD9",
"t 	c #2E9E4F",
"u 	c #008521",
"v 	c #5BB274",
"w 	c #99D0A9",
"x 	c #1A943D",
"y 	c #F4FAF6",
"z 	c #FEFFFE",
"A 	c #F5FAF6",
"B 	c #008624",
"C 	c #89C89B",
"D 	c #DEF0E3",
"E 	c #0F8F33",
"F 	c #E3F2E7",
"G 	c #6FBC85",
"H 	c #17933B",
"I 	c #15923A",
"J 	c #2E9C4D",
"K 	c #CAE6D2",
"L 	c #EAF5EE",
"M 	c #EDF7F0",
"N 	c #018929",
"O 	c #88C89B",
"P 	c #BFE1C9",
"Q 	c #61B579",
"R 	c #0D8E32",
"S 	c #A1D3B0",
"T 	c #E4F3E8",
"U 	c #008827",
"V 	c #7AC18F",
"W 	c #1D9540",
"X 	c #EEF7F1",
"Y 	c #BCE0C6",
"Z 	c #028929",
"` 	c #E1F1E6",
" .	c #DCEFE1",
"..	c #58B172",
"+.	c #FEFFFF",
"@.	c #FAFDFB",
"#.	c #139137",
"$.	c #E2F2E7",
"%.	c #F9FCFA",
"&.	c #64B77B",
"*.	c #CDE7D4",
"=.	c #EBF6EE",
"-.	c #119036",
";.	c #0C8E32",
">.	c #078C2D",
",.	c #008623",
"'.	c #F3FAF5",
").	c #A9D7B6",
"!.	c #6EBB84",
"~.	c #F3F9F4",
"{.	c #008622",
"].	c #34A153",
"^.	c #8FCBA0",
"/.	c #88C799",
"(.	c #088C2E",
"_.	c #D0E9D7",
":.	c #F8FCFA",
"<.	c #39A358",
"[.	c #4CAC68",
"}.	c #DFF0E4",
"|.	c #A3D4B2",
"1.	c #84C596",
"2.	c #87C699",
"3.	c #DCEFE2",
"4.	c #87C698",
"5.	c #299B4A",
"6.	c #1C943E",
"7.	c #C4E4CD",
"8.	c #EFF7F1",
"9.	c #8FCAA0",
"0.	c #068B2C",
"a.	c #C8E6D1",
"b.	c #239844",
"c.	c #FCFEFC",
"d.	c #8ECA9F",
"e.	c #32A052",
"f.	c #78BF8C",
"g.	c #5DB476",
"h.	c #D8EDDE",
"i.	c #00831F",
"j.	c #8DCA9F",
"k.	c #ECF6EF",
"l.	c #DBEEE1",
"m.	c #59B172",
"n.	c #FAFCFA",
"o.	c #F5FAF7",
"p.	c #73BD87",
"q.	c #C0E2CA",
"r.	c #008828",
"s.	c #098C30",
"t.	c #008625",
"      . . . . . . . . . . . . . . . . . . . . . . . . . .       ",
"    . . . . . . . . . . . . . . . . . . . . . . . . . . . .     ",
"  . . . . . . . . . . . . . . . . . . . . . . . . . . . . . .   ",
"+ @ @ @ @ @ @ @ @ @ . . . . . . . . . . . . @ @ @ @ @ @ @ @ @ @ ",
"# $ $ $ $ $ $ $ $ % & . . . . . . . . . . & * = = = = = = = = - ",
"; ; ; ; ; ; ; ; ; ; > @ . . . . . . . . @ , ; ; ; ; ; ; ; ; ; ; ",
"; ; ; ; ; ; ; ; ; ; ' ) . . . . . . . . ! ~ ; ; ; ; ; ; ; ; ; ; ",
"; ; ; ; ; ; ; ; ; ; ; { . . . . . . . . ] ; ; ; ; ; ; ; ; ; ; ; ",
"; ; ; ; ; ; ; ; ; ; ; ^ / . . . . . . ( _ ; ; ; ; ; ; ; ; ; ; ; ",
": : : : : : < ; ; ; ; ; [ . . . . . . } ; ; ; ; ; | | | | | | | ",
". . . . . . 1 2 3 4 5 ; 6 7 . . . . 8 9 ; ; ; ; 0 a b b b b b b ",
". . . . . . . c d e f g h i . . . . j ; ; ; ; ; k . . . . . . . ",
". . . . . . b l ; ; ; ; ; m n o b . p ; ; ; ; q r . . . . . . . ",
". . . . . . b l ; ; ; ; ; ; ; s t u ; ; ; ; ; v @ . . . . . . . ",
". . . . . . b l ; ; ; ; ; ; ; ; ; w x y z ; A B . . . . . . . . ",
". . . . . . b C ; ; ; ; ; ; ; ; ; ; D E F ; G . . . . . . . . . ",
". . . . . . . H I J G K ; ; ; ; ; ; z L @ M N . . . . . . . . . ",
". . . . . . b O ; ; P Q R S ; ; ; ; ; z T U b . . . . . . . . . ",
". . . . . . b l ; ; ; ; ; V W X z ; ; ; ; Y Z . . . . . . . . . ",
". . . . . . b l ; ; ; ; ; ; ` .  .z ; ; ; ; ..@ . . . . . . . . ",
". . . . . . b l ; ; ; ; ; ; +.@.#.$.; ; ; ; %.Z . . . . . . . . ",
". . . . . . . &.*.; ; ; ; ; ; ; =.-.; ; ; ; ; $ . . . . . . . . ",
". . . . . . . ;.>.,.Q '.z ; ; ; ; ).!.; ; ; ; ~.{.. . . . . . . ",
". . . . . . . 7 ].^./.(._.; ; ; ; ; H :.; ; ; ; <.. . . . . . . ",
". . . . . . b [.; ; ; ; ! }.; ; ; ; |.1.; ; ; ; 2.. . . . . . . ",
". . . . . . ! 3.; ; ; ; 4.5.; ; ; ; ; 6.; ; ; ; 7.(.. . . . . . ",
". . . . . . U 8.; ; ; ; 9.0.a.; ; ; ; b.; ; ; ; c.B . . . . . . ",
". . . . . . 7 d.; ; ; ; e.+ f.; ; ; ; g.h.; ; ; ; i.. . . . . . ",
". . . . . . . Z j.k.l.[.7 . m.n.o.o.o.p.q.o.o.o.; a . . . . . . ",
"  . . . . . . . 7 r.! b . . s.r t.t.r i Z r t.t.B . . . . . .   ",
"    . . . . . . . . . . . . . . . . . . . . . . . . . . . .     ",
"      . . . . . . . . . . . . . . . . . . . . . . . . . .       "};
