/* XPM */
static const char * rdcartslots_22x22_xpm[] = {
"22 22 81 1",
" 	c None",
".	c #0F8F34",
"+	c #1A953E",
"@	c #18933C",
"#	c #19933D",
"$	c #0D8E32",
"%	c #19933C",
"&	c #18933B",
"*	c #1A943D",
"=	c #CEE8D6",
"-	c #CEE8D5",
";	c #D4EBDA",
">	c #139036",
",	c #129036",
"'	c #D2EAD9",
")	c #CBE7D4",
"!	c #CCE7D4",
"~	c #FFFFFF",
"{	c #7DC291",
"]	c #0C8E32",
"^	c #7CC290",
"/	c #FEFFFE",
"(	c #CDE7D5",
"_	c #149138",
":	c #149238",
"<	c #6ABA81",
"[	c #6EBB83",
"}	c #289B4A",
"|	c #279B49",
"1	c #72BD87",
"2	c #6EBC85",
"3	c #098C2F",
"4	c #088C2E",
"5	c #D8ECDE",
"6	c #008522",
"7	c #D7ECDD",
"8	c #088B2E",
"9	c #0A8C2F",
"0	c #74BD88",
"a	c #49AB65",
"b	c #0D8E33",
"c	c #48AA64",
"d	c #74BE89",
"e	c #0E8F33",
"f	c #3CA45A",
"g	c #8ECAA0",
"h	c #8FCBA1",
"i	c #76BF8C",
"j	c #2E9D4E",
"k	c #77BF8B",
"l	c #3DA45B",
"m	c #108F35",
"n	c #0A8D31",
"o	c #E9F5EC",
"p	c #EDF7F0",
"q	c #EEF7F1",
"r	c #F1F8F3",
"s	c #EAF5ED",
"t	c #0A8D30",
"u	c #0A8C30",
"v	c #FBFDFB",
"w	c #FBFDFC",
"x	c #82C495",
"y	c #85C698",
"z	c #83C496",
"A	c #0C8D32",
"B	c #0B8D30",
"C	c #DAEDE0",
"D	c #E0F1E5",
"E	c #DAEEE0",
"F	c #F9FCFA",
"G	c #FAFCFA",
"H	c #F6FBF7",
"I	c #F7FBF8",
"J	c #81C494",
"K	c #80C392",
"L	c #82C494",
"M	c #F8FCF9",
"N	c #168C2F",
"O	c #178C2E",
"P	c #109036",
"  ..................  ",
" .................... ",
"+@@@@@#$......$%@@@@&*",
"=-----;>......,')!!!)!",
"~~~~~~~{]....$^~~~~~~~",
"~~~~~/~(_....:!~/~~~~~",
"<<<<[~~~}....|~~~12222",
"33334(~~56..67~~-89333",
".....0~~~abbc~~~d.....",
"....efghhijjkhhgle....",
"...mnopppqrrqpppstm...",
"...muv~~~~~~~~~~w9m...",
"....]xyyyyyyyyyyzA....",
"...mBCDDDDDDDDDDEBm...",
"...muF~~~~~~~~~~G9m...",
"...mtHFFFFFFFFFFItm...",
"....]JKKKKKKKKKKL]....",
"...muM~~~~~~~~~~F9m...",
"...mu~~~~~~~~~~~~9m...",
".....NOOOOOOOOOON.....",
" ....PPPPPPPPPPPP.... ",
"  ..................  "};
