/* XPM */
static const char * rdcartslots_32x32_xpm[] = {
"32 32 85 1",
" 	c None",
".	c #0F8F34",
"+	c #109035",
"@	c #108F35",
"#	c #76BF8B",
"$	c #73BE88",
"%	c #79C18D",
"&	c #028828",
"*	c #74BE8A",
"=	c #6EBB85",
"-	c #71BD87",
";	c #FFFFFF",
">	c #4FAD69",
",	c #4EAC68",
"'	c #CCE7D3",
")	c #04892B",
"!	c #058A2B",
"~	c #C9E6D2",
"{	c #2F9E50",
"]	c #2E9D4E",
"^	c #ACD8B9",
"/	c #0B8D31",
"(	c #0C8E31",
"_	c #AAD8B7",
":	c #64B77C",
"<	c #64B67B",
"[	c #15923A",
"}	c #149239",
"|	c #68B97F",
"1	c #68B980",
"2	c #098C2F",
"3	c #B9DEC4",
"4	c #97CEA7",
"5	c #0E8F34",
"6	c #96CDA6",
"7	c #BBDFC5",
"8	c #108F34",
"9	c #3FA55D",
"0	c #088B2D",
"a	c #078B2C",
"b	c #40A65E",
"c	c #008726",
"d	c #DDEFE2",
"e	c #7BC28F",
"f	c #7AC18E",
"g	c #DEF0E3",
"h	c #0E8F33",
"i	c #45A861",
"j	c #9BD0AB",
"k	c #9AD0AA",
"l	c #94CDA5",
"m	c #02892A",
"n	c #0C8E32",
"o	c #03892A",
"p	c #94CDA4",
"q	c #46A862",
"r	c #0E8E33",
"s	c #87C699",
"t	c #9DD1AC",
"u	c #9ED1AC",
"v	c #87C79A",
"w	c #058A2C",
"x	c #D6ECDC",
"y	c #D7ECDD",
"z	c #D8EDDE",
"A	c #D9EDDF",
"B	c #54AF6E",
"C	c #62B57A",
"D	c #55AF6F",
"E	c #078B2D",
"F	c #B5DCC0",
"G	c #D6ECDD",
"H	c #B6DDC1",
"I	c #DEEFE3",
"J	c #DFF0E4",
"K	c #1A933C",
"L	c #1D953E",
"M	c #048A2B",
"N	c #E6F3EA",
"O	c #E8F4EB",
"P	c #E6F4EB",
"Q	c #E8F4EC",
"R	c #048A2A",
"S	c #00831E",
"T	c #00811A",
"   ..........................   ",
"  ............................  ",
" .............................. ",
"+@@@@@@@@@............@@@@@@@@@+",
"#$$$$$$$$%&..........&*========-",
";;;;;;;;;;>@........@,;;;;;;;;;;",
";;;;;;;;;;')........!~;;;;;;;;;;",
";;;;;;;;;;;{........];;;;;;;;;;;",
";;;;;;;;;;;^/......(_;;;;;;;;;;;",
"::::::<;;;;;[......};;;;;|111111",
"......23;;;;45....56;;;;72888888",
".......9;;;;;0....a;;;;;b.......",
".......cd;;;;e....f;;;;gc.......",
".......hijkkklmnnopkkkjqr.......",
"......2stkkkkkuuuukkkkktv2......",
"......wx;;;;;;;;;;;;;;;;y!......",
"......wx;;;;;;;;;;;;;;;;y!......",
"......!z;;;;;;;;;;;;;;;;A!......",
"....../BCCCCCCCCCCCCCCCCD/......",
"......EFGGGGGGGGGGGGGGGGHE......",
"......wx;;;;;;;;;;;;;;;;y!......",
"......wx;;;;;;;;;;;;;;;;y!......",
"......!I;;;;;;;;;;;;;;;;J!......",
"......hKLLLLLLLLLLLLLLLLKh......",
"......MN;;;;;;;;;;;;;;;;OM......",
"......wx;;;;;;;;;;;;;;;;y!......",
"......wx;;;;;;;;;;;;;;;;y!......",
"......MP;;;;;;;;;;;;;;;;QR......",
"......+STTTTTTTTTTTTTTTTS+......",
" .............................. ",
"  ............................  ",
"   ..........................   "};
