/* XPM */
static const char * rdcatch_16x16_xpm[] = {
"16 16 75 1",
" 	c None",
".	c #0F8F34",
"+	c #028929",
"@	c #088C2E",
"#	c #088B2E",
"$	c #078B2E",
"%	c #0E8E33",
"&	c #088B2D",
"*	c #C7E5D0",
"=	c #C5E4CE",
"-	c #D7EDDE",
";	c #0B8C2F",
">	c #0A8C2F",
",	c #D6ECDB",
"'	c #C3E3CC",
")	c #C4E3CC",
"!	c #C6E4CE",
"~	c #FFFFFF",
"{	c #91CBA2",
"]	c #048A2B",
"^	c #058A2B",
"/	c #90CBA1",
"(	c #9BD1AB",
"_	c #B9DFC4",
":	c #ECF6EE",
"<	c #048A2A",
"[	c #EBF6EE",
"}	c #BCDFC6",
"|	c #9ED2AD",
"1	c #9FD2AD",
"2	c #078B2D",
"3	c #068B2D",
"4	c #39A257",
"5	c #F7FBF8",
"6	c #FEFFFE",
"7	c #7FC18F",
"8	c #7EC18F",
"9	c #1C953E",
"0	c #ABD7B7",
"a	c #CBE7D3",
"b	c #A1D3B0",
"c	c #19943C",
"d	c #A1D3AF",
"e	c #AAD7B7",
"f	c #1C953F",
"g	c #108F35",
"h	c #40A65E",
"i	c #E1F1E6",
"j	c #DDEFE2",
"k	c #DEEFE2",
"l	c #D5ECDB",
"m	c #3FA65C",
"n	c #DDEFE3",
"o	c #E8F4EB",
"p	c #F1F9F3",
"q	c #44A761",
"r	c #B1DBBD",
"s	c #ABD8B8",
"t	c #7BC18F",
"u	c #4DAC68",
"v	c #FDFEFD",
"w	c #229844",
"x	c #66B77C",
"y	c #B8DEC3",
"z	c #D8EDDE",
"A	c #DAEEE0",
"B	c #4CAB68",
"C	c #E8F4EC",
"D	c #D9EDDF",
"E	c #D7ECDD",
"F	c #4AAA66",
"G	c #F6FBF7",
"H	c #0C8D30",
"I	c #038725",
"J	c #048726",
" .............. ",
"+@##$%....%&@@@+",
"*===-;....>,')'!",
"~~~~~{]..^/~~~~~",
"(((_~:]..<[~}|11",
"23&4567>>8654233",
"...90abccdaef...",
"..ghijklljjihg..",
"..gmnop~~ponmg..",
"..gqjrsttsrjqg..",
"..gu~~v55v~~ug..",
"...wxyzAAzyxw...",
"..gB~CDEEDC~Bg..",
"..gF6GG55GG6Fg..",
"...HIJJJJJJIH...",
" .............. "};
