/* XPM */
static const char * rdcatch_64x64_xpm[] = {
"64 64 161 2",
"  	c None",
". 	c #0F8F34",
"+ 	c #008727",
"@ 	c #018829",
"# 	c #038A2A",
"$ 	c #108F35",
"% 	c #108F34",
"& 	c #058A2C",
"* 	c #04892A",
"= 	c #028828",
"- 	c #E7F4EA",
"; 	c #E8F4EB",
"> 	c #E3F2E7",
", 	c #008726",
"' 	c #D9EDDF",
") 	c #DEF0E3",
"! 	c #DEEFE3",
"~ 	c #FEFFFE",
"{ 	c #FFFFFF",
"] 	c #61B579",
"^ 	c #5FB478",
"/ 	c #E4F3E8",
"( 	c #008624",
"_ 	c #008725",
": 	c #E1F1E6",
"< 	c #48AA65",
"[ 	c #45A862",
"} 	c #C3E3CC",
"| 	c #068B2C",
"1 	c #078B2D",
"2 	c #BFE1C9",
"3 	c #2A9B4B",
"4 	c #269A48",
"5 	c #A7D6B4",
"6 	c #0C8E32",
"7 	c #0D8E32",
"8 	c #A4D5B2",
"9 	c #129137",
"0 	c #119035",
"a 	c #92CBA3",
"b 	c #8FCA9F",
"c 	c #CCE8D4",
"d 	c #E2F2E7",
"e 	c #048A2B",
"f 	c #03892A",
"g 	c #E7F4EB",
"h 	c #D4EBDB",
"i 	c #078B2E",
"j 	c #0D8E33",
"k 	c #76BF8B",
"l 	c #73BE88",
"m 	c #0E8F33",
"n 	c #068A2C",
"o 	c #A6D5B3",
"p 	c #F9FCF9",
"q 	c #008625",
"r 	c #F7FBF8",
"s 	c #A9D7B6",
"t 	c #0C8E31",
"u 	c #289B49",
"v 	c #2C9C4D",
"w 	c #C1E3CB",
"x 	c #E5F3EA",
"y 	c #C5E4CE",
"z 	c #058A2B",
"A 	c #47A964",
"B 	c #49AA66",
"C 	c #46A863",
"D 	c #4AAB66",
"E 	c #C4E4CD",
"F 	c #058B2C",
"G 	c #068B2D",
"H 	c #C1E2CA",
"I 	c #E6F3EA",
"J 	c #60B579",
"K 	c #2B9C4C",
"L 	c #63B67B",
"M 	c #FBFDFC",
"N 	c #B2DBBE",
"O 	c #0B8D31",
"P 	c #0C8D31",
"Q 	c #AFDABC",
"R 	c #FDFEFD",
"S 	c #259946",
"T 	c #36A155",
"U 	c #37A155",
"V 	c #3DA45A",
"W 	c #0A8C2F",
"X 	c #0A8D30",
"Y 	c #3BA459",
"Z 	c #259947",
"` 	c #32A052",
" .	c #33A052",
"..	c #A0D2AF",
"+.	c #9BD0AA",
"@.	c #038928",
"#.	c #19943D",
"$.	c #69B87E",
"%.	c #B0DABC",
"&.	c #0E8E33",
"*.	c #55B06F",
"=.	c #008522",
"-.	c #34A154",
";.	c #7FC392",
">.	c #CBE7D3",
",.	c #9AD0AA",
"'.	c #77C08C",
").	c #329F51",
"!.	c #008521",
"~.	c #048A2A",
"{.	c #51AE6C",
"].	c #94CDA4",
"^.	c #E8F4EC",
"/.	c #FDFEFE",
"(.	c #A8D6B5",
"_.	c #66B77C",
":.	c #129036",
"<.	c #018828",
"[.	c #19933C",
"}.	c #6AB981",
"|.	c #ACD9B9",
"1.	c #90CBA1",
"2.	c #4BAB67",
"3.	c #008827",
"4.	c #37A156",
"5.	c #7FC393",
"6.	c #C6E5CF",
"7.	c #2D9D4E",
"8.	c #008623",
"9.	c #FCFDFC",
"0.	c #9BD0AB",
"a.	c #4EAD69",
"b.	c #BEE1C8",
"c.	c #45A962",
"d.	c #8DC99E",
"e.	c #E0F0E4",
"f.	c #9FD2AE",
"g.	c #B5DCC0",
"h.	c #6CBA81",
"i.	c #1F9642",
"j.	c #60B478",
"k.	c #A4D4B2",
"l.	c #F1F8F3",
"m.	c #97CFA8",
"n.	c #55AF6F",
"o.	c #068A2B",
"p.	c #008523",
"q.	c #74BE89",
"r.	c #C0E1C9",
"s.	c #D0E9D7",
"t.	c #82C495",
"u.	c #3DA45B",
"v.	c #47A963",
"w.	c #8DCA9E",
"x.	c #DBEEE1",
"y.	c #6DBB83",
"z.	c #1D9540",
"A.	c #028929",
"B.	c #EFF7F1",
"C.	c #98CFA8",
"D.	c #52AE6C",
"              . . . . . . . . . . . . . . . . . . . . . . . . . . . . . . . . . . . . . . . . . . . . . . . . . .               ",
"          . . . . . . . . . . . . . . . . . . . . . . . . . . . . . . . . . . . . . . . . . . . . . . . . . . . . . .           ",
"        . . . . . . . . . . . . . . . . . . . . . . . . . . . . . . . . . . . . . . . . . . . . . . . . . . . . . . . .         ",
"      . . . . . . . . . . . . . . . . . . . . . . . . . . . . . . . . . . . . . . . . . . . . . . . . . . . . . . . . . .       ",
"    . . . . . . . . . . . . . . . . . . . . . . . . . . . . . . . . . . . . . . . . . . . . . . . . . . . . . . . . . . . .     ",
"  . . . . . . . . . . . . . . . . . . . . . . . . . . . . . . . . . . . . . . . . . . . . . . . . . . . . . . . . . . . . . .   ",
"  . . . . . . . . . . . . . . . . . . . . . . . . . . . . . . . . . . . . . . . . . . . . . . . . . . . . . . . . . . . . . .   ",
". . . . . . . . . . . . . . . . . . . . . . . . . . . . . . . . . . . . . . . . . . . . . . . . . . . . . . . . . . . . . . . . ",
"+ @ @ @ @ @ @ @ @ @ @ @ @ @ @ @ @ @ @ # $ . . . . . . . . . . . . . . . . . . . . . . % & * * * * * * * * * * * * * * * * * * = ",
"- ; ; ; ; ; ; ; ; ; ; ; ; ; ; ; ; ; ; > , . . . . . . . . . . . . . . . . . . . . . . , ' ) ) ) ) ) ) ) ) ) ) ) ) ) ) ) ) ) ) ! ",
"~ { { { { { { { { { { { { { { { { { { { ] $ . . . . . . . . . . . . . . . . . . . . $ ^ { { { { { { { { { { { { { { { { { { { ~ ",
"{ { { { { { { { { { { { { { { { { { { { / ( . . . . . . . . . . . . . . . . . . . . _ : { { { { { { { { { { { { { { { { { { { { ",
"{ { { { { { { { { { { { { { { { { { { { { < % . . . . . . . . . . . . . . . . . . % [ { { { { { { { { { { { { { { { { { { { { { ",
"{ { { { { { { { { { { { { { { { { { { { { } | . . . . . . . . . . . . . . . . . . 1 2 { { { { { { { { { { { { { { { { { { { { { ",
"{ { { { { { { { { { { { { { { { { { { { { { 3 . . . . . . . . . . . . . . . . . . 4 { { { { { { { { { { { { { { { { { { { { { { ",
"{ { { { { { { { { { { { { { { { { { { { { { 5 6 . . . . . . . . . . . . . . . . 7 8 { { { { { { { { { { { { { { { { { { { { { { ",
"{ { { { { { { { { { { { { { { { { { { { { { { 9 . . . . . . . . . . . . . . . . 0 { { { { { { { { { { { { { { { { { { { { { { { ",
"{ { { { { { { { { { { { { { { { { { { { { { { a . . . . . . . . . . . . . . . . b { { { { { { { { { { { { { { { { { { { { { { { ",
"c c c c c c c c c c c c c d { { { { { { { { { { e . . . . . . . . . . . . . . f { { { { { { { { { { g h h h h h h h h h h h h h ",
"i i i i i i i i i i i i 1 j { { { { { { { { { { k . . . . . . . . . . . . . . l { { { { { { { { { { m n n n n n n n n n n n n n ",
". . . . . . . . . . . . . 6 o { { { { { { { { { p _ . . . . . . . . . . . . q r { { { { { { { { { s t . . . . . . . . . . . . . ",
". . . . . . . . . . . . . . u { { { { { { { { { { ] $ . . . . . . . . . . $ ^ { { { { { { { { { { v . . . . . . . . . . . . . . ",
". . . . . . . . . . . . . . | w { { { { { { { { { x ( . . . . . . . . . . _ d { { { { { { { { { y z . . . . . . . . . . . . . . ",
". . . . . . . . . . . . . . % A { { { { { { { { { { B $ . . . . . . . . % C { { { { { { { { { { D % . . . . . . . . . . . . . . ",
". . . . . . . . . . . . . . . _ > { { { { { { { { { E F . . . . . . . . G H { { { { { { { { { I ( . . . . . . . . . . . . . . . ",
". . . . . . . . . . . . . . . $ J { { { { { { { { { { K . . . . . . . . u { { { { { { { { { { L $ . . . . . . . . . . . . . . . ",
". . . . . . . . . . . . . . . . ( M { { { { { { { { { N O . . . . . . P Q { { { { { { { { { R _ . . . . . . . . . . . . . . . . ",
". . . . . . . . . . . . . . . . . S T U U U U U U U U V W . . . . . . X Y U U U U U U U U T S . . . . . . . . . . . . . . . . . ",
". . . . . . . . . . . . . . Z `  . . . . . . . . . . . . . . . . . . . . . . . . . . . . . . . .` Z . . . . . . . . . . . . . . ",
". . . . . . . . . . . . . 7 ..{ { { { { { { { { { { { { { { { { { { { { { { { { { { { { { { { { { ..7 . . . . . . . . . . . . . ",
". . . . . . . . . . . . . 7 +.{ { { { { { { { { { { { { { { { { { { { { { { { { { { { { { { { { { +.7 . . . . . . . . . . . . . ",
". . . . . . . . . . . . . 7 +.{ { { { { { { { { { { { { { { { { { { { { { { { { { { { { { { { { { +.7 . . . . . . . . . . . . . ",
". . . . . . . . . . . . . 7 +.{ { { { { { { { { { { { { { { { { { { { { { { { { { { { { { { { { { +.7 . . . . . . . . . . . . . ",
". . . . . . . . . . . . . 7 +.{ { { { { { { { { { { { { { { { { { { { { { { { { { { { { { { { { { +.7 . . . . . . . . . . . . . ",
". . . . . . . . . . . . . . @.#.$.%.{ { { { { { { { { { { { { { { { { { { { { { { { { { { { %.$.#.@.. . . . . . . . . . . . . . ",
". . . . . . . . . . . . . &.*.D , e =.-.;.>.{ { { { { { { { { { { { { { { { { { { { >.;.-.=.e , D *.&.. . . . . . . . . . . . . ",
". . . . . . . . . . . . . 7 ,.{ { } '.).!.~.= {.].^.{ { { { { { { { { { { { ^.].{.= ~.!.).'.} { { ,.7 . . . . . . . . . . . . . ",
". . . . . . . . . . . . . 7 +.{ { { { { /.(._.:.<., [.}.|.{ { { { { { |.}.[., <.:._.(./.{ { { { { +.7 . . . . . . . . . . . . . ",
". . . . . . . . . . . . . 7 +.{ { { { { { { { { : 1.2.3.e !.4.5.5.4.!.e 3.2.1.: { { { { { { { { { +.7 . . . . . . . . . . . . . ",
". . . . . . . . . . . . . 7 +.{ { { { { { { { { { { { { 6.'.7.8.8.7.'.6.{ { { { { { { { { { { { { +.7 . . . . . . . . . . . . . ",
". . . . . . . . . . . . . 7 +.{ { { { { { { { { { { { { { { { 9.9.{ { { { { { { { { { { { { { { { +.7 . . . . . . . . . . . . . ",
". . . . . . . . . . . . . 7 +.{ { { { { { { { { { { { { { { { { { { { { { { { { { { { { { { { { { +.7 . . . . . . . . . . . . . ",
". . . . . . . . . . . . . 7 0.{ { { { { { { { { { { { { { { { { { { { { { { { { { { { { { { { { { 0.7 . . . . . . . . . . . . . ",
". . . . . . . . . . . . . m a.b.{ { { { { { { { { { { { { { { { { { { { { { { { { { { { { { { { b.a.m . . . . . . . . . . . . . ",
". . . . . . . . . . . . . . f e ( c.d.e.{ { { { { { { { { { { { { { { { { { { { { { { { e.d.c.( e f . . . . . . . . . . . . . . ",
". . . . . . . . . . . . . 7 f.g.h.i.( 3.m j.k.9.{ { { { { { { { { { { { { { { { 9.k.j.m 3.( i.h.g.f.7 . . . . . . . . . . . . . ",
". . . . . . . . . . . . . 7 +.{ { { l.m.n.o.e p.u q.r.{ { { { { { { { { { r.q.u p.e o.n.m.l.{ { { +.7 . . . . . . . . . . . . . ",
". . . . . . . . . . . . . 7 +.{ { { { { { { s.t.u.=.e _ v.w.x.{ { x.w.v._ e =.u.t.s.{ { { { { { { +.7 . . . . . . . . . . . . . ",
". . . . . . . . . . . . . 7 +.{ { { { { { { { { { { N y.z._ A.0 0 A._ z.y.N { { { { { { { { { { { +.7 . . . . . . . . . . . . . ",
". . . . . . . . . . . . . 7 +.{ { { { { { { { { { { { { { B.C.D.D.C.B.{ { { { { { { { { { { { { { +.7 . . . . . . . . . . . . . ",
". . . . . . . . . . . . . 7 +.{ { { { { { { { { { { { { { { { { { { { { { { { { { { { { { { { { { +.7 . . . . . . . . . . . . . ",
". . . . . . . . . . . . . 7 +.{ { { { { { { { { { { { { { { { { { { { { { { { { { { { { { { { { { +.7 . . . . . . . . . . . . . ",
". . . . . . . . . . . . . 7 +.{ { { { { { { { { { { { { { { { { { { { { { { { { { { { { { { { { { +.7 . . . . . . . . . . . . . ",
". . . . . . . . . . . . . 7 +.{ { { { { { { { { { { { { { { { { { { { { { { { { { { { { { { { { { +.7 . . . . . . . . . . . . . ",
". . . . . . . . . . . . . 7 +.{ { { { { { { { { { { { { { { { { { { { { { { { { { { { { { { { { { +.7 . . . . . . . . . . . . . ",
". . . . . . . . . . . . . 7 8 { { { { { { { { { { { { { { { { { { { { { { { { { { { { { { { { { { 8 7 . . . . . . . . . . . . . ",
". . . . . . . . . . . . . . f 8.8.8.8.8.8.8.8.8.8.8.8.8.8.8.8.8.8.8.8.8.8.8.8.8.8.8.8.8.8.8.8.8.8.f . . . . . . . . . . . . . . ",
"  . . . . . . . . . . . . . . . . . . . . . . . . . . . . . . . . . . . . . . . . . . . . . . . . . . . . . . . . . . . . . .   ",
"  . . . . . . . . . . . . . . . . . . . . . . . . . . . . . . . . . . . . . . . . . . . . . . . . . . . . . . . . . . . . . .   ",
"    . . . . . . . . . . . . . . . . . . . . . . . . . . . . . . . . . . . . . . . . . . . . . . . . . . . . . . . . . . . .     ",
"      . . . . . . . . . . . . . . . . . . . . . . . . . . . . . . . . . . . . . . . . . . . . . . . . . . . . . . . . . .       ",
"        . . . . . . . . . . . . . . . . . . . . . . . . . . . . . . . . . . . . . . . . . . . . . . . . . . . . . . . .         ",
"          . . . . . . . . . . . . . . . . . . . . . . . . . . . . . . . . . . . . . . . . . . . . . . . . . . . . . .           ",
"              . . . . . . . . . . . . . . . . . . . . . . . . . . . . . . . . . . . . . . . . . . . . . . . . . .               "};
