/* XPM */
static const char * rdlibrary_22x22_xpm[] = {
"22 22 78 1",
" 	c None",
".	c #0F8F34",
"+	c #1A953E",
"@	c #18933C",
"#	c #19933D",
"$	c #0D8E32",
"%	c #19933C",
"&	c #18933B",
"*	c #1A943D",
"=	c #CEE8D6",
"-	c #CEE8D5",
";	c #D4EBDA",
">	c #139036",
",	c #129036",
"'	c #D2EAD9",
")	c #CBE7D4",
"!	c #CCE7D4",
"~	c #FFFFFF",
"{	c #7DC291",
"]	c #0C8E32",
"^	c #7CC290",
"/	c #FEFFFE",
"(	c #CDE7D5",
"_	c #149138",
":	c #149238",
"<	c #6ABA81",
"[	c #6EBB83",
"}	c #289B4A",
"|	c #279B49",
"1	c #72BD87",
"2	c #6EBC85",
"3	c #098C2F",
"4	c #088C2E",
"5	c #D8ECDE",
"6	c #008522",
"7	c #D7ECDD",
"8	c #088B2E",
"9	c #0A8C2F",
"0	c #74BD88",
"a	c #49AB65",
"b	c #0D8E33",
"c	c #48AA64",
"d	c #74BE89",
"e	c #0E8F33",
"f	c #3CA45A",
"g	c #8ECAA0",
"h	c #90CCA2",
"i	c #7BC18F",
"j	c #74BE8A",
"k	c #2E9D4E",
"l	c #3DA45B",
"m	c #108F35",
"n	c #0A8D31",
"o	c #E9F5EC",
"p	c #EDF7F0",
"q	c #F4FAF6",
"r	c #61B579",
"s	c #DBEEE0",
"t	c #F1F8F3",
"u	c #DCEEE2",
"v	c #60B578",
"w	c #EAF5ED",
"x	c #0A8D30",
"y	c #0A8C30",
"z	c #F8FCF8",
"A	c #69B980",
"B	c #ECF5EF",
"C	c #F8FCF9",
"D	c #72BD88",
"E	c #FBFEFC",
"F	c #FDFEFE",
"G	c #71BD88",
"H	c #168C2F",
"I	c #178C2E",
"J	c #0F8E32",
"K	c #168D2F",
"L	c #168D30",
"M	c #109036",
"  ..................  ",
" .................... ",
"+@@@@@#$......$%@@@@&*",
"=-----;>......,')!!!)!",
"~~~~~~~{]....$^~~~~~~~",
"~~~~~/~(_....:!~/~~~~~",
"<<<<[~~~}....|~~~12222",
"33334(~~56..67~~-89333",
".....0~~~abbc~~~d.....",
"....efghijkkjihgle....",
"...mnopqrsttuvqpwxm...",
"...myz~~Aw~~BA~~C9m...",
"...myz~~Aw~~BA~~C9m...",
"...myz~~Aw~~BA~~C9m...",
"...myz~~Aw~~BA~~C9m...",
"...myz~~Aw~~BA~~C9m...",
"...myz~~Aw~~BA~~C9m...",
"...myz~~Aw~~BA~~C9m...",
"...my~~~DE~~FG~~~9m...",
".....HIIJKIILJIIH.....",
" ....MMMmMMMMmMMM.... ",
"  ..................  "};
