/* XPM */
static const char * rdlibrary_16x16_xpm[] = {
"16 16 70 1",
" 	c None",
".	c #0F8F34",
"+	c #028929",
"@	c #088C2E",
"#	c #088B2E",
"$	c #078B2E",
"%	c #0E8E33",
"&	c #088B2D",
"*	c #C7E5D0",
"=	c #C6E4CE",
"-	c #D8EDDE",
";	c #0B8C2F",
">	c #0A8C2F",
",	c #D6ECDD",
"'	c #C3E3CD",
")	c #C4E3CD",
"!	c #C5E4CE",
"~	c #FFFFFF",
"{	c #91CBA2",
"]	c #048A2B",
"^	c #058A2B",
"/	c #90CBA1",
"(	c #9AD0A9",
"_	c #B9DEC3",
":	c #ECF6EF",
"<	c #EBF6EE",
"[	c #BBDFC5",
"}	c #9DD2AD",
"|	c #078B2D",
"1	c #39A257",
"2	c #F7FBF8",
"3	c #FEFFFF",
"4	c #7FC190",
"5	c #7EC18F",
"6	c #FEFFFE",
"7	c #068B2D",
"8	c #1C953E",
"9	c #AAD7B7",
"0	c #CBE7D3",
"a	c #A0D3AF",
"b	c #19943D",
"c	c #A0D3AE",
"d	c #1C953F",
"e	c #108F35",
"f	c #3FA65E",
"g	c #DFF1E4",
"h	c #DFF0E4",
"i	c #86C698",
"j	c #D6EBDC",
"k	c #85C698",
"l	c #E0F1E5",
"m	c #40A65D",
"n	c #4AAA66",
"o	c #FAFDFB",
"p	c #95CDA5",
"q	c #96CDA6",
"r	c #4AAA65",
"s	c #F9FCFA",
"t	c #94CDA4",
"u	c #FEFEFE",
"v	c #93CCA3",
"w	c #94CCA4",
"x	c #F1F8F3",
"y	c #9DD1AC",
"z	c #F8FCF9",
"A	c #9DD1AD",
"B	c #0C8D30",
"C	c #038523",
"D	c #048623",
"E	c #078A2A",
" .............. ",
"+@##$%....%&@@@+",
"*===-;....>,')'!",
"~~~~~{]..^/~~~~~",
"(((_~:]..]<~[}}}",
"|||1234>>5621|77",
"...890abbc09d...",
"..efghijjkhlme..",
"..en~op~~qo~re..",
"..en~stuups~re..",
"..en~stuups~re..",
"..en~stuups~re..",
"..en~svuuws~re..",
"..enuxyzzAxure..",
"...BCDEDDEDCB...",
" .............. "};
