/* XPM */
static const char * rdlogedit_22x22_xpm[] = {
"22 22 104 2",
"  	c None",
". 	c #0F8F34",
"+ 	c #1A943E",
"@ 	c #18933C",
"# 	c #19933D",
"$ 	c #0D8E32",
"% 	c #18933B",
"& 	c #1A943D",
"* 	c #CEE8D5",
"= 	c #CDE8D5",
"- 	c #D3EBDA",
"; 	c #139036",
"> 	c #129036",
", 	c #D1E9D8",
"' 	c #CBE7D3",
") 	c #CCE7D4",
"! 	c #FFFFFF",
"~ 	c #7DC292",
"{ 	c #0C8E32",
"] 	c #7BC290",
"^ 	c #FEFFFE",
"/ 	c #CDE7D4",
"( 	c #149138",
"_ 	c #149238",
": 	c #6CBA82",
"< 	c #6FBC85",
"[ 	c #289B4A",
"} 	c #279B48",
"| 	c #71BD87",
"1 	c #6EBB84",
"2 	c #098C2F",
"3 	c #0A8C2F",
"4 	c #088C2E",
"5 	c #D8EDDE",
"6 	c #008522",
"7 	c #D7ECDD",
"8 	c #74BD88",
"9 	c #49AB66",
"0 	c #0D8E33",
"a 	c #48AA64",
"b 	c #74BD89",
"c 	c #0E8F33",
"d 	c #3CA45A",
"e 	c #8DCA9F",
"f 	c #82C495",
"g 	c #8ECAA0",
"h 	c #76BE8B",
"i 	c #2E9D4E",
"j 	c #8FCBA1",
"k 	c #3DA45A",
"l 	c #108F35",
"m 	c #0A8D30",
"n 	c #E8F4EC",
"o 	c #EDF6F0",
"p 	c #91CBA0",
"q 	c #D9EDDF",
"r 	c #EEF7F0",
"s 	c #F0F8F3",
"t 	c #EEF7F1",
"u 	c #EDF7F0",
"v 	c #E9F5ED",
"w 	c #0A8C30",
"x 	c #FAFDFB",
"y 	c #9ED1AB",
"z 	c #EBF5ED",
"A 	c #FBFDFC",
"B 	c #0C8D32",
"C 	c #81C494",
"D 	c #84C697",
"E 	c #55AF6E",
"F 	c #80C393",
"G 	c #83C597",
"H 	c #81C495",
"I 	c #0B8D30",
"J 	c #E0F1E4",
"K 	c #8ECA9E",
"L 	c #DBEEE0",
"M 	c #DFF0E3",
"N 	c #DAEEE0",
"O 	c #F9FCF9",
"P 	c #9DD1AB",
"Q 	c #E9F5EC",
"R 	c #FAFCFA",
"S 	c #F6FBF7",
"T 	c #F9FCFA",
"U 	c #99CFA7",
"V 	c #E3F2E7",
"W 	c #F7FBF8",
"X 	c #81C493",
"Y 	c #80C392",
"Z 	c #52AE6B",
"` 	c #77BF8B",
" .	c #82C494",
"..	c #0C8E31",
"+.	c #9DD0AA",
"@.	c #E8F4EB",
"#.	c #A5D4B1",
"$.	c #F4FAF5",
"%.	c #168E32",
"&.	c #178E32",
"*.	c #138E32",
"=.	c #168D30",
"-.	c #109036",
";.	c #109035",
"    . . . . . . . . . . . . . . . . . .     ",
"  . . . . . . . . . . . . . . . . . . . .   ",
"+ @ @ @ @ @ # $ . . . . . . $ @ % % % % % & ",
"* = = = = = - ; . . . . . . > , ' ' ' ' ' ) ",
"! ! ! ! ! ! ! ~ { . . . . { ] ! ! ! ! ! ! ! ",
"! ! ! ! ! ^ ! / ( . . . . _ ) ! ^ ! ! ! ! ! ",
": : : : < ! ! ! [ . . . . } ! ! ! | 1 1 1 1 ",
"2 2 2 3 4 ) ! ! 5 6 . . 6 7 ! ! * 4 3 2 2 2 ",
". . . . . 8 ! ! ! 9 0 0 a ! ! ! b . . . . . ",
". . . . c d e f g h i i h j j e k c . . . . ",
". . . l m n o p q r s s t u u o v m l . . . ",
". . . l w x ! y z ! ! ! ! ! ! ! A 3 l . . . ",
". . . . B C D E F G D D D D D D H B . . . . ",
". . . l I q J K L M J J J J J J N I l . . . ",
". . . l w O ! P Q ! ! ! ! ! ! ! R 3 l . . . ",
". . . l m S T U V T T T T T T T W m l . . . ",
". . . . { X Y Z ` Y Y Y Y Y Y Y  .... . . . ",
". . . l w W ! +.@.! ! ! ! ! ! ! T 3 l . . . ",
". . . l w ! ! #.$.! ! ! ! ! ! ! ! 3 l . . . ",
". . . . . %.&.*.=.&.&.&.&.&.&.&.%.. . . . . ",
"  . . . . -.-.;.-.-.-.-.-.-.-.-.-.. . . .   ",
"    . . . . . . . . . . . . . . . . . .     "};
