/* XPM */
static const char * rdlogmanager_16x16_xpm[] = {
"16 16 124 2",
"  	c None",
". 	c #0F8F34",
"+ 	c #028929",
"@ 	c #088C2E",
"# 	c #088B2E",
"$ 	c #078B2E",
"% 	c #0E8E33",
"& 	c #108F35",
"* 	c #0B8D30",
"= 	c #0C8D31",
"- 	c #078B2D",
"; 	c #C7E5D0",
"> 	c #C6E4CE",
", 	c #D8EDDE",
"' 	c #0B8C30",
") 	c #048A2A",
"! 	c #43A75F",
"~ 	c #34A054",
"{ 	c #0B8E31",
"] 	c #0A8C2F",
"^ 	c #D5EBDB",
"/ 	c #C3E3CC",
"( 	c #C5E4CD",
"_ 	c #FFFFFF",
": 	c #8FCBA0",
"< 	c #56B070",
"[ 	c #75BE89",
"} 	c #7FC392",
"| 	c #098C2F",
"1 	c #90CBA1",
"2 	c #9ACFA9",
"3 	c #B8DEC2",
"4 	c #EAF5ED",
"5 	c #319F51",
"6 	c #279A48",
"7 	c #54AF6F",
"8 	c #BADFC4",
"9 	c #9BD1AB",
"0 	c #38A257",
"a 	c #F7FBF8",
"b 	c #FEFFFE",
"c 	c #9FD2AD",
"d 	c #38A256",
"e 	c #73BE88",
"f 	c #78BF8B",
"g 	c #39A357",
"h 	c #088B2D",
"i 	c #068B2D",
"j 	c #1B943E",
"k 	c #A7D6B5",
"l 	c #BEE1C9",
"m 	c #9DD1AC",
"n 	c #108C2F",
"o 	c #6DBB84",
"p 	c #96CEA5",
"q 	c #C7E5CF",
"r 	c #A6D6B4",
"s 	c #109035",
"t 	c #008623",
"u 	c #72BE88",
"v 	c #18933C",
"w 	c #DCEEE1",
"x 	c #49A963",
"y 	c #9ED2AE",
"z 	c #1A943D",
"A 	c #0E8F33",
"B 	c #0C8E31",
"C 	c #058A2B",
"D 	c #E0F1E5",
"E 	c #129036",
"F 	c #81C595",
"G 	c #038A2A",
"H 	c #A8D7B6",
"I 	c #4FAB67",
"J 	c #77C08C",
"K 	c #2E9E4F",
"L 	c #1D953F",
"M 	c #7DC18E",
"N 	c #65B67C",
"O 	c #1E9641",
"P 	c #92CCA3",
"Q 	c #95CDA5",
"R 	c #1B953F",
"S 	c #098828",
"T 	c #A5D5B2",
"U 	c #299B4A",
"V 	c #38A357",
"W 	c #F2F9F4",
"X 	c #249742",
"Y 	c #F0F8F3",
"Z 	c #ECF6EE",
"` 	c #3DA459",
" .	c #DDEFE2",
"..	c #299C4A",
"+.	c #139137",
"@.	c #46A760",
"#.	c #7FC18E",
"$.	c #17923B",
"%.	c #0E8B2C",
"&.	c #0F8826",
"*.	c #1C9137",
"=.	c #CFE7D3",
"-.	c #A7D4B0",
";.	c #259845",
">.	c #42A75E",
",.	c #E3F0E5",
"'.	c #D5EAD9",
").	c #83C495",
"!.	c #E0EFE2",
"~.	c #E1F0E3",
"{.	c #D5EAD8",
"].	c #DCECDD",
"^.	c #41A65E",
"/.	c #49AA65",
"(.	c #F1F8F3",
"_.	c #9CD1AB",
":.	c #F8FCF9",
"<.	c #F6FBF7",
"[.	c #FEFEFE",
"}.	c #0C8D30",
"|.	c #048623",
"1.	c #048624",
"2.	c #078A2A",
"3.	c #048523",
"  . . . . . . . . . . . . . .   ",
"+ @ # # $ % & * = . % - @ @ @ + ",
"; > > > , ' ) ! ~ { ] ^ / / / ( ",
"_ _ _ _ _ : < [ } | 1 _ _ _ _ _ ",
"2 2 2 3 _ 4 ! 5 6 7 4 _ 8 9 9 9 ",
"- - - 0 a b c d e f _ a g h i - ",
". . . j k l m n o p q r j . . . ",
". . . s t u v w x y z A B . . . ",
". . . C [ D E F G H I J K . . . ",
". . . L M N O P Q R S T U . . . ",
". . . V W a X Y Z ` W  .... . . ",
". . . +.@.#.$.%.&.*.=.-.;.. . . ",
". . & >.,.'.).!.~.~.{.].^.& . . ",
". . & /.b (._.:.<.<.<.[./.& . . ",
". . . }.|.1.2.1.1.1.1.3.}.. . . ",
"  . . . . . . . . . . . . . .   "};
