/* XPM */
static const char * rdlogmanager_32x32_xpm[] = {
"32 32 174 2",
"  	c None",
". 	c #0F8F34",
"+ 	c #109035",
"@ 	c #108F35",
"# 	c #76BF8B",
"$ 	c #73BD88",
"% 	c #79C08D",
"& 	c #028828",
"* 	c #0C8D31",
"= 	c #0B8D31",
"- 	c #6DBB83",
"; 	c #70BC86",
"> 	c #FFFFFF",
", 	c #4FAC69",
"' 	c #0E8F33",
") 	c #088B2D",
"! 	c #96CEA6",
"~ 	c #82C495",
"{ 	c #0C8E32",
"] 	c #4DAC68",
"^ 	c #CBE7D3",
"/ 	c #058A2B",
"( 	c #45A862",
"_ 	c #6BB981",
": 	c #0A8D30",
"< 	c #C2E2CB",
"[ 	c #D3EAD9",
"} 	c #078B2D",
"| 	c #CAE6D2",
"1 	c #2B9C4C",
"2 	c #AFDABC",
"3 	c #F6FBF8",
"4 	c #008523",
"5 	c #2E9D4D",
"6 	c #1F9641",
"7 	c #088C2E",
"8 	c #048A2B",
"9 	c #2D9D4E",
"0 	c #AAD7B7",
"a 	c #3FA55C",
"b 	c #54AF6E",
"c 	c #0A8C30",
"d 	c #0C8E31",
"e 	c #ADD9BA",
"f 	c #299B4B",
"g 	c #ABD8B7",
"h 	c #64B67B",
"i 	c #63B57A",
"j 	c #159239",
"k 	c #3AA358",
"l 	c #B7DDC2",
"m 	c #17933B",
"n 	c #65B77D",
"o 	c #DEEFE3",
"p 	c #068B2D",
"q 	c #66B77D",
"r 	c #66B87E",
"s 	c #098C2F",
"t 	c #B8DEC3",
"u 	c #97CFA7",
"v 	c #43A75F",
"w 	c #319F51",
"x 	c #3BA459",
"y 	c #249845",
"z 	c #04892B",
"A 	c #98CFA7",
"B 	c #BADFC5",
"C 	c #108F34",
"D 	c #3FA55D",
"E 	c #139037",
"F 	c #42A65E",
"G 	c #0D8E33",
"H 	c #D4EBDA",
"I 	c #C6E4CE",
"J 	c #41A65E",
"K 	c #008726",
"L 	c #DDEFE3",
"M 	c #7BC28F",
"N 	c #048929",
"O 	c #98CFA8",
"P 	c #79C18E",
"Q 	c #008725",
"R 	c #48A963",
"S 	c #9FD2AE",
"T 	c #99CFA9",
"U 	c #008522",
"V 	c #038929",
"W 	c #98CEA7",
"X 	c #49AA64",
"Y 	c #03892A",
"Z 	c #0D8E32",
"` 	c #6DBA81",
" .	c #84C596",
"..	c #0F8E33",
"+.	c #85C697",
"@.	c #AFDABB",
"#.	c #3BA359",
"$.	c #239844",
"%.	c #CEE8D6",
"&.	c #229844",
"*.	c #7EC392",
"=.	c #008827",
"-.	c #47A962",
";.	c #40A65E",
">.	c #46A862",
",.	c #BDE0C8",
"'.	c #39A358",
").	c #068B2C",
"!.	c #078B2E",
"~.	c #0E8F34",
"{.	c #B5DCC0",
"].	c #249946",
"^.	c #00821E",
"/.	c #B0DBBD",
"(.	c #0B8D30",
"_.	c #018726",
":.	c #008724",
"<.	c #0F8F35",
"[.	c #52AE6C",
"}.	c #40A55C",
"|.	c #3DA45B",
"1.	c #038A2A",
"2.	c #D1EAD8",
"3.	c #87C699",
"4.	c #00821D",
"5.	c #F0F8F2",
"6.	c #B9DEC3",
"7.	c #8BC79A",
"8.	c #239845",
"9.	c #19943C",
"0.	c #38A256",
"a.	c #62B478",
"b.	c #67B87E",
"c.	c #19943D",
"d.	c #17923A",
"e.	c #57B171",
"f.	c #F7FBF8",
"g.	c #00831E",
"h.	c #1D9640",
"i.	c #F6FBF7",
"j.	c #F8FBF9",
"k.	c #00831D",
"l.	c #299B4A",
"m.	c #34A053",
"n.	c #66B87D",
"o.	c #8BC89B",
"p.	c #9CCFA9",
"q.	c #088C2F",
"r.	c #0E8E33",
"s.	c #008420",
"t.	c #007F18",
"u.	c #129138",
"v.	c #EAF6EE",
"w.	c #B8DDC1",
"x.	c #279A48",
"y.	c #00821C",
"z.	c #008019",
"A.	c #007E15",
"B.	c #068A2A",
"C.	c #007F17",
"D.	c #1A9035",
"E.	c #00780A",
"F.	c #00790D",
"G.	c #EBF6EF",
"H.	c #68B87F",
"I.	c #E8F5EC",
"J.	c #E9F5ED",
"K.	c #048A2A",
"L.	c #DAEDE0",
"M.	c #5EB477",
"N.	c #D7ECDD",
"O.	c #D8EDDE",
"P.	c #00811B",
"Q.	c #068A2B",
"      . . . . . . . . . . . . . . . . . . . . . . . . . .       ",
"    . . . . . . . . . . . . . . . . . . . . . . . . . . . .     ",
"  . . . . . . . . . . . . . . . . . . . . . . . . . . . . . .   ",
"+ @ @ @ @ @ @ @ @ @ . . . . . . . . . . . . @ @ @ @ @ @ @ @ @ + ",
"# $ $ $ $ $ $ $ $ % & . . . . * = . . . . & $ - - - - - - - - ; ",
"> > > > > > > > > > , @ ' @ ) ! ~ { . . @ ] > > > > > > > > > > ",
"> > > > > > > > > > ^ / ( _ : < [ } . . / | > > > > > > > > > > ",
"> > > > > > > > > > > 1 2 3 4 5 6 7 8 @ 9 > > > > > > > > > > > ",
"> > > > > > > > > > > 0 a b c . d e [ f g > > > > > > > > > > > ",
"h h h h h h i > > > > > j k l m : n o p > > > > > q r r r r r r ",
". . . . . . s t > > > > u v > w x y z A > > > > B s C C C C C C ",
". . . . . . . D > > > > > E F G H I & > > > > > J . . . . . . . ",
". . . . . . . K L > > > > M . N O h P > > > > o Q . . . . . . . ",
". . . . . . . @ R S S S S T c U : V W S S S S X @ . . . . . . . ",
". . . . . . . . ' { { Y { Z ` >  .Z / 1 s { { ' . . . . . . . . ",
". . . . . . . . + ..+.@.c = e > ` / @.> #.+ . . . . . . . . . . ",
". . . . . . . . 7 | > > $.s - %.&.. *.> > =.$.-.;.. . . . . . . ",
". . . . . . . . . >.,.'.).. + !.~.. K {.].^.> > /.(.. . . . . . ",
". . . . . . . . _.:.8 <.. } r [.}.|.+ : @ 1.2.I 3.: . . . . . . ",
". . . . . . . 4.> 5.6.7.8.s > > > > 9.7 _.0.a.b.s . . . . . . . ",
". . . . . . . 9.> > > > c.d.> > > > } e.> > > f.Q . . . . . . . ",
". . . . . . . b > > > > g.h.i.j.> > k.l.> > > > ).. . . . . . . ",
". . . . . . . ~.m.n.o.p.q.r.=.Q s.t.u.g.> > v.w.x.. . . . . . . ",
". . . . . . + y.z.z.z.A.B.4.z.z.z.z.z.C.D.E.F.A.4.+ . . . . . . ",
". . . . . . V G.> > > > H.I.> > > > > > > > > > J.1.. . . . . . ",
". . . . . . K.L.> > > > M.N.> > > > > > > > > > O.8 . . . . . . ",
". . . . . . K.L.> > > > M.N.> > > > > > > > > > O.8 . . . . . . ",
". . . . . . Y G.> > > > H.I.> > > > > > > > > > J.1.. . . . . . ",
". . . . . . + g.P.P.P.P.Q.g.P.P.P.P.P.P.P.P.P.P.g.+ . . . . . . ",
"  . . . . . . . . . . . . . . . . . . . . . . . . . . . . . .   ",
"    . . . . . . . . . . . . . . . . . . . . . . . . . . . .     ",
"      . . . . . . . . . . . . . . . . . . . . . . . . . .       "};
