/* XPM */
static const char * rdlogmanager_64x64_xpm[] = {
"64 64 281 2",
"  	c None",
". 	c #0F8F34",
"+ 	c #008726",
"@ 	c #028828",
"# 	c #048A2A",
"$ 	c #108F34",
"% 	c #058A2C",
"& 	c #04892A",
"* 	c #028929",
"= 	c #E7F4EB",
"- 	c #E8F4EB",
"; 	c #E2F1E6",
"> 	c #109035",
", 	c #008725",
"' 	c #D8EDDE",
") 	c #DCEFE1",
"! 	c #FEFFFE",
"~ 	c #FFFFFF",
"{ 	c #60B579",
"] 	c #108F35",
"^ 	c #0E8F33",
"/ 	c #309E50",
"( 	c #58B172",
"_ 	c #7DC18F",
": 	c #249946",
"< 	c #5EB477",
"[ 	c #E4F3E8",
"} 	c #008624",
"| 	c #0C8D31",
"1 	c #AAD7B7",
"2 	c #4EAC69",
"3 	c #E2F2E7",
"4 	c #48A964",
"5 	c #299B4A",
"6 	c #008523",
"7 	c #0D8E33",
"8 	c #7FC291",
"9 	c #73BD87",
"0 	c #46A863",
"a 	c #C2E3CC",
"b 	c #068B2D",
"c 	c #03892A",
"d 	c #DEF0E3",
"e 	c #A1D3AF",
"f 	c #1B943E",
"g 	c #94CCA4",
"h 	c #078B2E",
"i 	c #BFE1C8",
"j 	c #19943C",
"k 	c #FAFDFB",
"l 	c #2A9B4A",
"m 	c #7EC18F",
"n 	c #57B071",
"o 	c #2C9C4C",
"p 	c #0E8F34",
"q 	c #269A48",
"r 	c #A7D6B4",
"s 	c #0D8E32",
"t 	c #7EC392",
"u 	c #98CFA8",
"v 	c #0E8E33",
"w 	c #159138",
"x 	c #078B2D",
"y 	c #A4D4B2",
"z 	c #51AD6B",
"A 	c #B0DABD",
"B 	c #3EA55C",
"C 	c #0D8D31",
"D 	c #C6E4CF",
"E 	c #58B070",
"F 	c #008827",
"G 	c #94CCA3",
"H 	c #0B8D31",
"I 	c #088B2D",
"J 	c #0C8E31",
"K 	c #7AC18F",
"L 	c #A0D3AF",
"M 	c #90CBA0",
"N 	c #C6E3CD",
"O 	c #DFEFE3",
"P 	c #048A2B",
"Q 	c #249945",
"R 	c #42A75F",
"S 	c #5CB375",
"T 	c #1C953F",
"U 	c #0A8D30",
"V 	c #88C799",
"W 	c #E3F2E8",
"X 	c #CCE8D4",
"Y 	c #098C2F",
"Z 	c #74BE8A",
"` 	c #0B8D30",
" .	c #B2DBBE",
"..	c #43A760",
"+.	c #68B87F",
"@.	c #AFD9BB",
"#.	c #72BD88",
"$.	c #A5D5B3",
"%.	c #F8FCF9",
"&.	c #90CBA1",
"*.	c #0C8E32",
"=.	c #F7FBF8",
"-.	c #A9D7B6",
";.	c #279A49",
">.	c #61B67A",
",.	c #119036",
"'.	c #7FC28F",
").	c #6FBC85",
"!.	c #39A257",
"~.	c #A2D4B0",
"{.	c #6BB981",
"].	c #279A48",
"^.	c #60B578",
"/.	c #2A9B4B",
"(.	c #C0E2CA",
"_.	c #E5F3E9",
":.	c #008625",
"<.	c #49AA65",
"[.	c #83C493",
"}.	c #7AC08D",
"|.	c #38A256",
"1.	c #74BD89",
"2.	c #8DC99D",
"3.	c #C5E4CE",
"4.	c #068B2C",
"5.	c #48AA65",
"6.	c #0F8F35",
"7.	c #B3DCBF",
"8.	c #4BAB67",
"9.	c #48A965",
"0.	c #4AAA66",
"a.	c #098C2E",
"b.	c #BFE1C9",
"c.	c #E5F3EA",
"d.	c #2A9C4B",
"e.	c #3FA55D",
"f.	c #79C08D",
"g.	c #62B57A",
"h.	c #FBFDFC",
"i.	c #FDFEFD",
"j.	c #269947",
"k.	c #39A258",
"l.	c #3EA45C",
"m.	c #2B9B4B",
"n.	c #0A8C2E",
"o.	c #3EA45B",
"p.	c #0B8E31",
"q.	c #DBEEE1",
"r.	c #8EC99D",
"s.	c #2D9D4E",
"t.	c #088B2E",
"u.	c #00831F",
"v.	c #3BA359",
"w.	c #48AA64",
"x.	c #6DBB84",
"y.	c #3CA45A",
"z.	c #C6E5CF",
"A.	c #259946",
"B.	c #319F50",
"C.	c #008420",
"D.	c #038929",
"E.	c #A0D3AE",
"F.	c #5AB173",
"G.	c #DCEFE2",
"H.	c #9ED2AD",
"I.	c #75BF8A",
"J.	c #B4DCC0",
"K.	c #028928",
"L.	c #E8F5EC",
"M.	c #0E8D31",
"N.	c #9FD2AE",
"O.	c #6EBA82",
"P.	c #4DAC68",
"Q.	c #9FD2AD",
"R.	c #0A8C2F",
"S.	c #088C2E",
"T.	c #2D9D4D",
"U.	c #81C494",
"V.	c #058929",
"W.	c #54AF6E",
"X.	c #9ED1AC",
"Y.	c #269A47",
"Z.	c #A8D6B5",
"`.	c #FEFFFF",
" +	c #3DA45A",
".+	c #5EB577",
"++	c #7FC18E",
"@+	c #D0E9D7",
"#+	c #1F9642",
"$+	c #058A2B",
"%+	c #CBE7D3",
"&+	c #B7DEC2",
"*+	c #3FA55C",
"=+	c #EDF7F0",
"-+	c #BBE0C6",
";+	c #00821D",
">+	c #44A860",
",+	c #50AD6A",
"'+	c #A4D5B2",
")+	c #1E9641",
"!+	c #66B77D",
"~+	c #018828",
"{+	c #E9F5ED",
"]+	c #68B980",
"^+	c #C2E2CA",
"/+	c #8AC699",
"(+	c #209743",
"_+	c #038A2A",
":+	c #D1E9D8",
"<+	c #ADD9BA",
"[+	c #84C596",
"}+	c #7FC18F",
"|+	c #70BC87",
"1+	c #209742",
"2+	c #82C595",
"3+	c #8EC99E",
"4+	c #72BD87",
"5+	c #DDEFE2",
"6+	c #DEEFE3",
"7+	c #7EC290",
"8+	c #239845",
"9+	c #1D953F",
"0+	c #008421",
"a+	c #068A2C",
"b+	c #70BC86",
"c+	c #219743",
"d+	c #34A053",
"e+	c #2B9C4C",
"f+	c #88C698",
"g+	c #BBDFC5",
"h+	c #87C698",
"i+	c #52AE6D",
"j+	c #2E9D4E",
"k+	c #B1DBBD",
"l+	c #B8DDC2",
"m+	c #52AE6C",
"n+	c #17923B",
"o+	c #96CEA6",
"p+	c #7BC18E",
"q+	c #71BC85",
"r+	c #038828",
"s+	c #D7ECDD",
"t+	c #39A358",
"u+	c #BDE0C7",
"v+	c #C6E4CD",
"w+	c #CFE8D6",
"x+	c #FBFDFB",
"y+	c #00821C",
"z+	c #259947",
"A+	c #54B06E",
"B+	c #82C494",
"C+	c #B3DBBE",
"D+	c #A3D4B1",
"E+	c #008019",
"F+	c #129137",
"G+	c #048929",
"H+	c #77BE8A",
"I+	c #008623",
"J+	c #2F9E4F",
"K+	c #61B57A",
"L+	c #43A359",
"M+	c #F0F8F2",
"N+	c #A4D5B3",
"O+	c #73BC85",
"P+	c #49A964",
"Q+	c #149239",
"R+	c #66B77B",
"S+	c #57B171",
"T+	c #00831D",
"U+	c #00811A",
"V+	c #00831E",
"W+	c #00811B",
"X+	c #AED9BB",
"Y+	c #E1F1E6",
"Z+	c #A7D6B5",
"`+	c #A9D7B7",
" @	c #A2D3B1",
".@	c #9CD1AB",
"+@	c #00821E",
"@@	c #008522",
"#@	c #018726",
"              . . . . . . . . . . . . . . . . . . . . . . . . . . . . . . . . . . . . . . . . . . . . . . . . . .               ",
"          . . . . . . . . . . . . . . . . . . . . . . . . . . . . . . . . . . . . . . . . . . . . . . . . . . . . . .           ",
"        . . . . . . . . . . . . . . . . . . . . . . . . . . . . . . . . . . . . . . . . . . . . . . . . . . . . . . . .         ",
"      . . . . . . . . . . . . . . . . . . . . . . . . . . . . . . . . . . . . . . . . . . . . . . . . . . . . . . . . . .       ",
"    . . . . . . . . . . . . . . . . . . . . . . . . . . . . . . . . . . . . . . . . . . . . . . . . . . . . . . . . . . . .     ",
"  . . . . . . . . . . . . . . . . . . . . . . . . . . . . . . . . . . . . . . . . . . . . . . . . . . . . . . . . . . . . . .   ",
"  . . . . . . . . . . . . . . . . . . . . . . . . . . . . . . . . . . . . . . . . . . . . . . . . . . . . . . . . . . . . . .   ",
". . . . . . . . . . . . . . . . . . . . . . . . . . . . . . . . . . . . . . . . . . . . . . . . . . . . . . . . . . . . . . . . ",
"+ @ @ @ @ @ @ @ @ @ @ @ @ @ @ @ @ @ @ # $ . . . . . . . . . . . . . . . . . . . . . . . % & & & & & & & & & & & & & & & & & & * ",
"= - - - - - - - - - - - - - - - - - - ; + . . . . . . . . . . . > . . . . . . . . . . , ' ) ) ) ) ) ) ) ) ) ) ) ) ) ) ) ) ) ) ) ",
"! ~ ~ ~ ~ ~ ~ ~ ~ ~ ~ ~ ~ ~ ~ ~ ~ ~ ~ ~ { ] . . . . . . . ^ / ( _ : . . . . . . . . ] < ~ ~ ~ ~ ~ ~ ~ ~ ~ ~ ~ ~ ~ ~ ~ ~ ~ ~ ~ ~ ",
"~ ~ ~ ~ ~ ~ ~ ~ ~ ~ ~ ~ ~ ~ ~ ~ ~ ~ ~ ~ [ } . . . . . . . | 1 ~ ~ 2 . . . . . . . . } 3 ~ ~ ~ ~ ~ ~ ~ ~ ~ ~ ~ ~ ~ ~ ~ ~ ~ ~ ~ ~ ",
"~ ~ ~ ~ ~ ~ ~ ~ ~ ~ ~ ~ ~ ~ ~ ~ ~ ~ ~ ~ ~ 4 ] . . 5 6 7 . > 8 ~ ~ 9 ] . . . . . . $ 0 ~ ~ ~ ~ ~ ~ ~ ~ ~ ~ ~ ~ ~ ~ ~ ~ ~ ~ ~ ~ ~ ",
"~ ~ ~ ~ ~ ~ ~ ~ ~ ~ ~ ~ ~ ~ ~ ~ ~ ~ ~ ~ ~ a b . c d ~ e f . { ~ ~ g ^ . . . . . . h i ~ ~ ~ ~ ~ ~ ~ ~ ~ ~ ~ ~ ~ ~ ~ ~ ~ ~ ~ ~ ~ ",
"~ ~ ~ ~ ~ ~ ~ ~ ~ ~ ~ ~ ~ ~ ~ ~ ~ ~ ~ ~ ~ ~ 5 . j ~ ~ k 6 . l m n o p . . . . . . q ~ ~ ~ ~ ~ ~ ~ ~ ~ ~ ~ ~ ~ ~ ~ ~ ~ ~ ~ ~ ~ ~ ",
"~ ~ ~ ~ ~ ~ ~ ~ ~ ~ ~ ~ ~ ~ ~ ~ ~ ~ ~ ~ ~ ~ r s t ~ ~ u v . . > . . ^ w x ] . . s y ~ ~ ~ ~ ~ ~ ~ ~ ~ ~ ~ ~ ~ ~ ~ ~ ~ ~ ~ ~ ~ ~ ",
"~ ~ ~ ~ ~ ~ ~ ~ ~ ~ ~ ~ ~ ~ ~ ~ ~ ~ ~ ~ ~ ~ ~ $ z A ~ B . . . . . . C ~ D E F . $ ~ ~ ~ ~ ~ ~ ~ ~ ~ ~ ~ ~ ~ ~ ~ ~ ~ ~ ~ ~ ~ ~ ~ ",
"~ ~ ~ ~ ~ ~ ~ ~ ~ ~ ~ ~ ~ ~ ~ ~ ~ ~ ~ ~ ~ ~ ~ G . H I J . . . . . . K ~ ~ ~ L 7 M ~ ~ ~ ~ ~ ~ ~ ~ ~ ~ ~ ~ ~ ~ ~ ~ ~ ~ ~ ~ ~ ~ ~ ",
"N N N N N N N N N N N N N O ~ ~ ~ ~ ~ ~ ~ ~ ~ ~ P . p Q R S T . . U V ~ ~ ~ 5 c ~ ~ ~ ~ ~ ~ ~ ~ ~ ~ W X X X X X X X X X X X X X ",
"Y Y Y Y Y Y Y Y Y Y Y Y Y s ~ ~ ~ ~ ~ ~ ~ ~ ~ ~ Z . `  .~ ~ ... . . v F +.@.P #.~ ~ ~ ~ ~ ~ ~ ~ ~ ~ v x h h h h h h h h h h h h ",
". . . . . . . . . . . . . s $.~ ~ ~ ~ ~ ~ ~ ~ ~ %., ^ &.~ ~ ( . 7 *.] . ] Y , =.~ ~ ~ ~ ~ ~ ~ ~ ~ -.*.. . . . . . . . . . . . . ",
". . . . . . . . . . . . . . ;.~ ~ ~ ~ ~ ~ ~ ~ ~ ~ >.,.'.~ ~ ).] !.~.{.].. ] ^.~ ~ ~ ~ ~ ~ ~ ~ ~ ~ /.. . . . . . . . . . . . . . ",
". . . . . . . . . . . . . . x (.~ ~ ~ ~ ~ ~ ~ ~ ~ _.:.<.[.}.|.,.1.~ ~ 2.. } 3 ~ ~ ~ ~ ~ ~ ~ ~ ~ 3.4.. . . . . . . . . . . . . . ",
". . . . . . . . . . . . . . $ 5.~ ~ ~ ~ ~ ~ ~ ~ ~ ~ <.. 6.> . ` 7.~ ~ 8.$ 9.~ ~ ~ ~ ~ ~ ~ ~ ~ ~ 0.] . . . . . . . . . . . . . . ",
". . . . . . . . . . . . . . . } W ~ ~ ~ ~ ~ ~ ~ ~ ~ 3.4.. . . 6 ~ ~ ~ a.h b.~ ~ ~ ~ ~ ~ ~ ~ ~ c.} . . . . . . . . . . . . . . . ",
". . . . . . . . . . . . . . . ] { ~ ~ ~ ~ ~ ~ ~ ~ ~ ~ d.. . . ,.+ e.f.% ].~ ~ ~ ~ ~ ~ ~ ~ ~ ~ g.] . . . . . . . . . . . . . . . ",
". . . . . . . . . . . . . . . . } h.~ ~ ~ ~ ~ ~ ~ ~ ~  .H . . . . . ] | @.~ ~ ~ ~ ~ ~ ~ ~ ~ i., . . . . . . . . . . . . . . . . ",
". . . . . . . . . . . . . . . . . j.k.k.k.k.k.k.k.k.k.l.H m.n.P p . . U o.k.k.k.k.k.k.k.k.k.q . . . . . . . . . . . . . . . . . ",
". . . . . . . . . . . . . . . . . . . . . . . . . . . . p.@.~ q.r.s.. . . . $ J . . . . . . . . . . . . . . . . . . . . . . . . ",
". . . . . . . . . . . . . . . . . . . . . . t.] . . . . u.~ ~ ~ ~ v.. . . U w.x.. . . . . . . . . . . . . . . . . . . . . . . . ",
". . . . . . . . . . . . . . . . . . . ] + y.z.A.. . . . B.~ ~ ~ ~ C.. . D.E.~ ~ ].] . . . . . . . . . . . . . . . . . . . . . . ",
". . . . . . . . . . . . . . . . . . + F.G.~ ! H.7 . . ] I.~ ~ ~ J.` . K._.~ ~ ~ L.c . . . . . . . . . . . . . . . . . . . . . . ",
". . . . . . . . . . . . . . . . . s -.~ ~ ~ ~ ~ M.. . ` N.~ ~ ~ O.> . > P.~ ~ ~ ~ Q.R.. . . > *.S.^ . . . . . . . . . . . . . . ",
". . . . . . . . . . . . . . . . . . T.~ ~ ~ ~ ~ U.. . . S.V.W.X.Y.. . . S.Z.~ ~ `.! ] v  +.+++N.@+#+. . . . . . . . . . . . . . ",
". . . . . . . . . . . . . . . . . . $+%+`.~ &+*+@ . . . . . . 7 p . . . . $+=+~ -+S.] ;+~ ~ ~ ~ ~ >+. . . . . . . . . . . . . . ",
". . . . . . . . . . . . . . . . . . ] ,+'+)+Y . . . . . . . . . . . . . . ] |.!+c . . ~+{+~ ~ ~ ~ ]+$ . . . . . . . . . . . . . ",
". . . . . . . . . . . . . . . . . . . *.*.. . . . . . . S.` | *.. > > ] . . p ^ . . . Y ^+~ ~ ~ ~ /+6.. . . . . . . . . . . . . ",
". . . . . . . . . . . . . . . ^ (+C._+` > . . . . . . Y :+<+$.N.[+}+}+|+1+. . . . . . s 2+J.3+4+2 ;.. . . . . . . . . . . . . . ",
". . . . . . . . . . . . . . . % 5+~ 6+A 7+z 8+;+Y . . 9+~ ~ ~ ~ ~ ~ ~ ~ *+. . . . . . . % 0+a+)+. . . . . . . . . . . . . . . . ",
". . . . . . . . . . . . . . . ;+~ ~ ~ ~ ~ ~ ~ ~ b+> . c+~ ~ ~ ~ ~ ~ ~ ~ d+. . 4.u.e+S f+g+=.~ h+] . . . . . . . . . . . . . . . ",
". . . . . . . . . . . . . . . A.~ ~ ~ ~ ~ ~ ~ ~ i+. . j+~ ~ ~ ~ ~ ~ ~ ~ #+. Y k+~ ~ ~ ~ ~ ~ ~ l+U . . . . . . . . . . . . . . . ",
". . . . . . . . . . . . . . . m+~ ~ ~ ~ ~ ~ ~ ~ : . . e.~ ~ ~ ~ ~ ~ ~ ~ n+. 7 o+~ ~ ~ ~ ~ ~ ~ =+F . . . . . . . . . . . . . . . ",
". . . . . . . . . . . . . . > p+~ ~ ~ ~ ~ ~ ~ ~ ;+. . ..~ ~ ~ ~ ~ ~ ~ ~ H . ] q+~ ~ ~ ~ ~ ~ ~ ~ r+. . . . . . . . . . . . . . . ",
". . . . . . . . . . . . . . U g+~ ~ ~ ~ ~ ~ ~ s+% . . t+u+v+w+6+=+x+~ ~ y+. . y.~ ~ ~ ~ ~ ~ ~ ~ t+. . . . . . . . . . . . . . . ",
". . . . . . . . . . . . . . p z+A+B+C+[ ~ ~ ~ D+| . . v R.Y x _+F } u.E+F+. . G+~ ~ ~ ~ ~ ~ ~ ~ H+] . . . . . . . . . . . . . . ",
". . . . . . . . . . . . . . . . . ] ` * I+J+K+L+> . . . . . . . . . . . . . . + M+~ ~ ~ ' N+O+P+Q+. . . . . . . . . . . . . . . ",
". . . . . . . . . . . . . . . . . . . . . . . 6.. . . . . . . . . . . . . . . *.R+S+e+T+% | > . . . . . . . . . . . . . . . . . ",
". . . . . . . . . . . . . . I+U+U+U+U+U+U+U+U+U+V+> } U+U+U+U+U+U+U+U+U+U+U+U+U+W+U+U+U+U+U+U+U+U+} . . . . . . . . . . . . . . ",
". . . . . . . . . . . . . | X+~ ~ ~ ~ ~ ~ ~ ~ ~ Y+D.Z+~ ~ ~ ~ ~ ~ ~ ~ ~ ~ ~ ~ ~ ~ ~ ~ ~ ~ ~ ~ ~ ~ `+*.. . . . . . . . . . . . . ",
". . . . . . . . . . . . . J  @~ ~ ~ ~ ~ ~ ~ ~ ~ :+P .@~ ~ ~ ~ ~ ~ ~ ~ ~ ~ ~ ~ ~ ~ ~ ~ ~ ~ ~ ~ ~ ~ H.*.. . . . . . . . . . . . . ",
". . . . . . . . . . . . . J  @~ ~ ~ ~ ~ ~ ~ ~ ~ :+P .@~ ~ ~ ~ ~ ~ ~ ~ ~ ~ ~ ~ ~ ~ ~ ~ ~ ~ ~ ~ ~ ~ H.*.. . . . . . . . . . . . . ",
". . . . . . . . . . . . . J  @~ ~ ~ ~ ~ ~ ~ ~ ~ :+P .@~ ~ ~ ~ ~ ~ ~ ~ ~ ~ ~ ~ ~ ~ ~ ~ ~ ~ ~ ~ ~ ~ H.*.. . . . . . . . . . . . . ",
". . . . . . . . . . . . . J  @~ ~ ~ ~ ~ ~ ~ ~ ~ :+P .@~ ~ ~ ~ ~ ~ ~ ~ ~ ~ ~ ~ ~ ~ ~ ~ ~ ~ ~ ~ ~ ~ H.*.. . . . . . . . . . . . . ",
". . . . . . . . . . . . . J  @~ ~ ~ ~ ~ ~ ~ ~ ~ :+P .@~ ~ ~ ~ ~ ~ ~ ~ ~ ~ ~ ~ ~ ~ ~ ~ ~ ~ ~ ~ ~ ~ H.*.. . . . . . . . . . . . . ",
". . . . . . . . . . . . . J  @~ ~ ~ ~ ~ ~ ~ ~ ~ :+P .@~ ~ ~ ~ ~ ~ ~ ~ ~ ~ ~ ~ ~ ~ ~ ~ ~ ~ ~ ~ ~ ~ H.*.. . . . . . . . . . . . . ",
". . . . . . . . . . . . . | X+~ ~ ~ ~ ~ ~ ~ ~ ~ Y+D.Z+~ ~ ~ ~ ~ ~ ~ ~ ~ ~ ~ ~ ~ ~ ~ ~ ~ ~ ~ ~ ~ ~ `+*.. . . . . . . . . . . . . ",
". . . . . . . . . . . . . . + +@+@+@+@+@+@+@+@+@@@> #@+@+@+@+@+@+@+@+@+@+@+@+@+@+@+@+@+@+@+@+@+@+@+ . . . . . . . . . . . . . . ",
"  . . . . . . . . . . . . . . . . . . . . . . . . . . . . . . . . . . . . . . . . . . . . . . . . . . . . . . . . . . . . . .   ",
"  . . . . . . . . . . . . . . . . . . . . . . . . . . . . . . . . . . . . . . . . . . . . . . . . . . . . . . . . . . . . . .   ",
"    . . . . . . . . . . . . . . . . . . . . . . . . . . . . . . . . . . . . . . . . . . . . . . . . . . . . . . . . . . . .     ",
"      . . . . . . . . . . . . . . . . . . . . . . . . . . . . . . . . . . . . . . . . . . . . . . . . . . . . . . . . . .       ",
"        . . . . . . . . . . . . . . . . . . . . . . . . . . . . . . . . . . . . . . . . . . . . . . . . . . . . . . . .         ",
"          . . . . . . . . . . . . . . . . . . . . . . . . . . . . . . . . . . . . . . . . . . . . . . . . . . . . . .           ",
"              . . . . . . . . . . . . . . . . . . . . . . . . . . . . . . . . . . . . . . . . . . . . . . . . . .               "};
