/* XPM */
static const char * rdlogedit_32x32_xpm[] = {
"32 32 100 2",
"  	c None",
". 	c #0F8F34",
"+ 	c #109035",
"@ 	c #108F35",
"# 	c #75BE8A",
"$ 	c #72BD88",
"% 	c #77C08D",
"& 	c #028828",
"* 	c #73BD89",
"= 	c #6DBB84",
"- 	c #70BC86",
"; 	c #FFFFFF",
"> 	c #4FAC69",
", 	c #4DAC68",
"' 	c #CCE7D4",
") 	c #048A2B",
"! 	c #C9E6D1",
"~ 	c #2F9E4F",
"{ 	c #2E9D4E",
"] 	c #ACD8B9",
"^ 	c #0C8D31",
"/ 	c #0C8E31",
"( 	c #AAD8B7",
"_ 	c #66B77D",
": 	c #65B77D",
"< 	c #15923A",
"[ 	c #149238",
"} 	c #67B87F",
"| 	c #68B87F",
"1 	c #108F34",
"2 	c #098C2F",
"3 	c #B9DEC4",
"4 	c #97CFA7",
"5 	c #0E8F34",
"6 	c #96CEA6",
"7 	c #BBDFC5",
"8 	c #3EA55C",
"9 	c #088B2D",
"0 	c #078B2C",
"a 	c #41A65E",
"b 	c #008726",
"c 	c #DDEFE2",
"d 	c #7BC290",
"e 	c #79C18E",
"f 	c #DEEFE3",
"g 	c #0E8F33",
"h 	c #45A761",
"i 	c #9AD0AA",
"j 	c #99CFA9",
"k 	c #9CD1AB",
"l 	c #94CCA4",
"m 	c #03892A",
"n 	c #0D8E32",
"o 	c #93CCA4",
"p 	c #46A862",
"q 	c #85C699",
"r 	c #9BD0AB",
"s 	c #9FD2AE",
"t 	c #169137",
"u 	c #A4D5B3",
"v 	c #9CD1AC",
"w 	c #87C799",
"x 	c #058A2C",
"y 	c #D5EBDB",
"z 	c #1D933C",
"A 	c #D7ECDD",
"B 	c #058A2B",
"C 	c #1D943C",
"D 	c #1E943D",
"E 	c #D9EDDF",
"F 	c #0B8D31",
"G 	c #53AF6E",
"H 	c #60B579",
"I 	c #64B77C",
"J 	c #139036",
"K 	c #6BBA82",
"L 	c #54AF6E",
"M 	c #078B2D",
"N 	c #B4DCC0",
"O 	c #D6ECDC",
"P 	c #DEF0E3",
"Q 	c #1A933B",
"R 	c #E7F4EB",
"S 	c #B6DDC1",
"T 	c #DFF0E4",
"U 	c #1A933C",
"V 	c #1D953E",
"W 	c #1E953E",
"X 	c #219641",
"Y 	c #1A943C",
"Z 	c #E6F3E9",
"` 	c #21953F",
" .	c #E8F4EB",
"..	c #048A2A",
"+.	c #E5F3E9",
"@.	c #008521",
"#.	c #00831E",
"$.	c #00831D",
"%.	c #0D8E33",
"&.	c #00821C",
"      . . . . . . . . . . . . . . . . . . . . . . . . . .       ",
"    . . . . . . . . . . . . . . . . . . . . . . . . . . . .     ",
"  . . . . . . . . . . . . . . . . . . . . . . . . . . . . . .   ",
"+ @ @ @ @ @ @ @ @ @ . . . . . . . . . . . . @ @ @ @ @ @ @ @ @ + ",
"# $ $ $ $ $ $ $ $ % & . . . . . . . . . . & * = = = = = = = = - ",
"; ; ; ; ; ; ; ; ; ; > @ . . . . . . . . @ , ; ; ; ; ; ; ; ; ; ; ",
"; ; ; ; ; ; ; ; ; ; ' ) . . . . . . . . ) ! ; ; ; ; ; ; ; ; ; ; ",
"; ; ; ; ; ; ; ; ; ; ; ~ . . . . . . . . { ; ; ; ; ; ; ; ; ; ; ; ",
"; ; ; ; ; ; ; ; ; ; ; ] ^ . . . . . . / ( ; ; ; ; ; ; ; ; ; ; ; ",
"_ _ _ _ _ _ : ; ; ; ; ; < . . . . . . [ ; ; ; ; ; } | | | | | | ",
"1 1 1 1 1 1 2 3 ; ; ; ; 4 5 . . . . 5 6 ; ; ; ; 7 2 1 1 1 1 1 1 ",
". . . . . . . 8 ; ; ; ; ; 9 . . . . 0 ; ; ; ; ; a . . . . . . . ",
". . . . . . . b c ; ; ; ; d . . . . e ; ; ; ; f b . . . . . . . ",
". . . . . . . g h i j k j l m n n m o i i i i p g . . . . . . . ",
". . . . . . 2 q r j s t u j v v v v j i i i j r w 2 . . . . . . ",
". . . . . . x y ; ; ; z ; ; ; ; ; ; ; ; ; ; ; ; A B . . . . . . ",
". . . . . . x y ; ; ; C ; ; ; ; ; ; ; ; ; ; ; ; A B . . . . . . ",
". . . . . . B A ; ; ; D ; ; ; ; ; ; ; ; ; ; ; ; E B . . . . . . ",
". . . . . . F G H H I J K H H H H H H H H H H H L F . . . . . . ",
". . . . . . M N O O P Q R O O O O O O O O O O O S M . . . . . . ",
". . . . . . x y ; ; ; C ; ; ; ; ; ; ; ; ; ; ; ; A B . . . . . . ",
". . . . . . x y ; ; ; C ; ; ; ; ; ; ; ; ; ; ; ; A B . . . . . . ",
". . . . . . B c ; ; ; D ; ; ; ; ; ; ; ; ; ; ; ; T B . . . . . . ",
". . . . . . g U V V W 5 X V V V V V V V V V V V Y g . . . . . . ",
". . . . . . ) Z ; ; ; ` ; ; ; ; ; ; ; ; ; ; ; ;  .... . . . . . ",
". . . . . . x y ; ; ; C ; ; ; ; ; ; ; ; ; ; ; ; A B . . . . . . ",
". . . . . . x y ; ; ; C ; ; ; ; ; ; ; ; ; ; ; ; A B . . . . . . ",
". . . . . . ) +.; ; ; ` ; ; ; ; ; ; ; ; ; ; ; ; R ) . . . . . . ",
". . . . . . + @.#.#.$.%.&.#.#.#.#.#.#.#.#.#.#.#.@.+ . . . . . . ",
"  . . . . . . . . . . . . . . . . . . . . . . . . . . . . . .   ",
"    . . . . . . . . . . . . . . . . . . . . . . . . . . . .     ",
"      . . . . . . . . . . . . . . . . . . . . . . . . . .       "};
