/* XPM */
static const char * rdlogedit_16x16_xpm[] = {
"16 16 94 2",
"  	c None",
". 	c #0F8F34",
"+ 	c #02892A",
"@ 	c #088C2E",
"# 	c #088B2E",
"$ 	c #078B2E",
"% 	c #0E8E33",
"& 	c #078B2D",
"* 	c #028929",
"= 	c #C7E5CF",
"- 	c #C5E4CE",
"; 	c #D7EDDE",
"> 	c #0B8C2F",
", 	c #0A8C2F",
"' 	c #D5EBDB",
") 	c #C3E3CC",
"! 	c #FFFFFF",
"~ 	c #91CBA3",
"{ 	c #048A2B",
"] 	c #8FCBA1",
"^ 	c #9BD0AA",
"/ 	c #BADFC4",
"( 	c #ECF6EE",
"_ 	c #048A2A",
": 	c #EBF6EE",
"< 	c #BBDFC5",
"[ 	c #9DD1AC",
"} 	c #068B2D",
"| 	c #088B2D",
"1 	c #38A257",
"2 	c #F7FBF8",
"3 	c #FEFFFF",
"4 	c #7FC290",
"5 	c #7EC18F",
"6 	c #FEFFFE",
"7 	c #39A357",
"8 	c #1C953F",
"9 	c #AAD7B7",
"0 	c #CAE6D2",
"a 	c #A2D3B1",
"b 	c #19943D",
"c 	c #19933D",
"d 	c #A1D3B0",
"e 	c #CBE7D3",
"f 	c #108F35",
"g 	c #3FA65D",
"h 	c #E5F3EA",
"i 	c #8CC99C",
"j 	c #D8ECDE",
"k 	c #D6ECDD",
"l 	c #DDEFE3",
"m 	c #DDF0E3",
"n 	c #E0F0E5",
"o 	c #46A863",
"p 	c #FAFDFB",
"q 	c #94CCA3",
"r 	c #E8F4EB",
"s 	c #EEF7F0",
"t 	c #EDF7F0",
"u 	c #F4FAF6",
"v 	c #47A863",
"w 	c #37A155",
"x 	c #B9DFC3",
"y 	c #71BC86",
"z 	c #B3DBBE",
"A 	c #B0DBBC",
"B 	c #B4DDC0",
"C 	c #37A156",
"D 	c #4AAA66",
"E 	c #9DD1AB",
"F 	c #4AAA65",
"G 	c #40A75E",
"H 	c #E0F0E4",
"I 	c #83C594",
"J 	c #CDE8D5",
"K 	c #D4EADA",
"L 	c #D3EADA",
"M 	c #DAEDDF",
"N 	c #41A75E",
"O 	c #40A65E",
"P 	c #E4F2E7",
"Q 	c #86C596",
"R 	c #D1E9D8",
"S 	c #D9EDDE",
"T 	c #D8EDDE",
"U 	c #DEEFE3",
"V 	c #41A65E",
"W 	c #A0D2AD",
"X 	c #F6FBF7",
"Y 	c #0C8D30",
"Z 	c #038725",
"` 	c #088A2A",
" .	c #048725",
"..	c #048726",
"  . . . . . . . . . . . . . .   ",
"+ @ # # $ % . . . . % & @ @ @ * ",
"= - - - ; > . . . . , ' ) ) ) - ",
"! ! ! ! ! ~ { . . { ] ! ! ! ! ! ",
"^ ^ ^ / ! ( { . . _ : ! < [ [ [ ",
"& } | 1 2 3 4 , , 5 6 2 7 & } } ",
". . . 8 9 0 a b c d e 9 8 . . . ",
". . f g h i j k k l m n g f . . ",
". . f o p q r s t s s u v f . . ",
". . f w x y z A A A A B C f . . ",
". . f D ! E 2 3 6 6 6 ! F f . . ",
". . f G H I J K L L L M N f . . ",
". . f O P Q R S T T T U V f . . ",
". . f D ! W X 2 X X X 6 F f . . ",
". . . Y Z `  .........Z Y . . . ",
"  . . . . . . . . . . . . . .   "};
