/* XPM */
static const char * rdlogmanager_22x22_xpm[] = {
"22 22 149 2",
"  	c None",
". 	c #0F8F34",
"+ 	c #1A953E",
"@ 	c #18933C",
"# 	c #19933D",
"$ 	c #0D8E32",
"% 	c #0E8E33",
"& 	c #18933B",
"* 	c #1A943D",
"= 	c #CEE8D6",
"- 	c #CEE8D5",
"; 	c #D4EBDA",
"> 	c #139037",
", 	c #0B8D30",
"' 	c #078B2D",
") 	c #50AD6A",
"! 	c #41A65F",
"~ 	c #0C8E32",
"{ 	c #129036",
"] 	c #D1E9D8",
"^ 	c #CBE7D3",
"/ 	c #CCE7D3",
"( 	c #FFFFFF",
"_ 	c #7AC18E",
": 	c #3FA55D",
"< 	c #51AD6B",
"[ 	c #9BD0AA",
"} 	c #ADD8B9",
"| 	c #058A2C",
"1 	c #7CC290",
"2 	c #FEFFFE",
"3 	c #C5E4CE",
"4 	c #7AC18F",
"5 	c #7FC392",
"6 	c #0D8D31",
"7 	c #19943C",
"8 	c #70BC85",
"9 	c #219744",
"0 	c #6AB980",
"a 	c #6DBA82",
"b 	c #279A48",
"c 	c #64B67B",
"d 	c #35A155",
"e 	c #17933B",
"f 	c #D4EADB",
"g 	c #109035",
"h 	c #6CBB83",
"i 	c #098C2F",
"j 	c #088C2E",
"k 	c #CCE7D4",
"l 	c #D6ECDC",
"m 	c #4EAC69",
"n 	c #3EA55C",
"o 	c #80C493",
"p 	c #008625",
"q 	c #DAEEDF",
"r 	c #CDE8D5",
"s 	c #0A8C2F",
"t 	c #73BD89",
"u 	c #4BAB66",
"v 	c #008521",
"w 	c #A8D6B5",
"x 	c #61B679",
"y 	c #74BD88",
"z 	c #1B943D",
"A 	c #6DBB84",
"B 	c #68B980",
"C 	c #6EBB85",
"D 	c #5DB376",
"E 	c #41A45B",
"F 	c #4CAA66",
"G 	c #70BC86",
"H 	c #6EBB84",
"I 	c #1B953E",
"J 	c #008624",
"K 	c #7FC493",
"L 	c #129037",
"M 	c #329F52",
"N 	c #58B06F",
"O 	c #61B579",
"P 	c #C9E6D2",
"Q 	c #0A8D30",
"R 	c #018828",
"S 	c #BADFC5",
"T 	c #329F51",
"U 	c #A2D4B1",
"V 	c #0B8E31",
"W 	c #41A65E",
"X 	c #FDFEFD",
"Y 	c #52AD6B",
"Z 	c #4FAD6A",
"` 	c #69B980",
" .	c #018827",
"..	c #209743",
"+.	c #19943D",
"@.	c #2F9E4F",
"#.	c #239844",
"$.	c #36A155",
"%.	c #008019",
"&.	c #F2FAF4",
"*.	c #CAE6D2",
"=.	c #0D8E33",
"-.	c #0E8F33",
";.	c #87C494",
">.	c #BADEC3",
",.	c #5CB375",
"'.	c #108F34",
").	c #37A155",
"!.	c #6CB980",
"~.	c #38A257",
"{.	c #ACD8B9",
"].	c #20943C",
"^.	c #60B579",
"/.	c #48A75E",
"(.	c #58B273",
"_.	c #84C596",
":.	c #5EB476",
"<.	c #95CCA3",
"[.	c #15923A",
"}.	c #088B2E",
"|.	c #008520",
"1.	c #008018",
"2.	c #0D8C2F",
"3.	c #158D30",
"4.	c #E2F2E6",
"5.	c #0C8E31",
"6.	c #80C08C",
"7.	c #79BC86",
"8.	c #79BC85",
"9.	c #3AA256",
"0.	c #7CBE8A",
"a.	c #80BF8B",
"b.	c #80BF8C",
"c.	c #7FBF8B",
"d.	c #75B87E",
"e.	c #71B478",
"f.	c #7ABD87",
"g.	c #108F35",
"h.	c #098C2E",
"i.	c #FAFCFB",
"j.	c #67B87F",
"k.	c #ECF6EF",
"l.	c #F9FCFA",
"m.	c #FCFEFD",
"n.	c #178D30",
"o.	c #178C2F",
"p.	c #0F8E32",
"q.	c #168D30",
"r.	c #109036",
"    . . . . . . . . . . . . . . . . . .     ",
"  . . . . . . . . . . . . . . . . . . . .   ",
"+ @ @ @ @ @ # $ . . % % . . $ @ & & & & & * ",
"= - - - - - ; > , ' ) ! ~ . { ] ^ ^ ^ ^ ^ / ",
"( ( ( ( ( ( ( _ : < [ } | $ 1 ( ( ( ( ( ( ( ",
"( ( ( ( ( 2 ( 3 4 5 6 7 8 9 ^ ( 2 ( ( ( ( ( ",
"0 0 0 0 a ( ( ( b c d e f g ( ( ( 8 h h h h ",
"i i i i j k ( ( l m n o p q ( ( r j s i i i ",
". . . . . t ( ( ( u v w x ( ( ( y . . . . . ",
". . . . . z A B C D E e F G H A I . . . . . ",
". . . . . g J K L M ( N O P $ Q , . . . . . ",
". . . . . R S ( T I U V W X Y Z ` g . . . . ",
". . . . .  .v ..Q +.@.#.Q $.%.&.*.=.. . . . ",
". . . . -.;.( >.@.Z ( ( ,.'.).!.~.. . . . . ",
". . . . g {.( ( ].^.( ( /.(.( ( _.-.. . . . ",
". . . . . * :.<.[.}.|.1.2.3.( 4.0 '.. . . . ",
". . . . 5.6.7.8.9.0.a.b.c.a.d.e.f.~ . . . . ",
". . . g.h.i.( ( j.k.( ( ( ( ( ( l.i g.. . . ",
". . . g.h.( ( ( G m.( ( ( ( ( ( ( i g.. . . ",
". . . . . n.o.o.p.q.o.o.o.o.o.o.o.. . . . . ",
"  . . . . r.r.r.g.r.r.r.r.r.r.r.r.. . . .   ",
"    . . . . . . . . . . . . . . . . . .     "};
