/* XPM */
static const char * rdpanel_22x22_xpm[] = {
"22 22 120 2",
"  	c None",
". 	c #0F8F34",
"+ 	c #1A943E",
"@ 	c #18933C",
"# 	c #19933C",
"$ 	c #0D8E32",
"% 	c #18933B",
"& 	c #1A943D",
"* 	c #CEE8D5",
"= 	c #CCE8D5",
"- 	c #CCE8D4",
"; 	c #D3EBDA",
"> 	c #139036",
", 	c #129036",
"' 	c #D1E9D8",
") 	c #CBE7D3",
"! 	c #CCE7D3",
"~ 	c #FFFFFF",
"{ 	c #7DC292",
"] 	c #0C8E32",
"^ 	c #7BC290",
"/ 	c #FEFFFE",
"( 	c #CDE7D4",
"_ 	c #149138",
": 	c #149238",
"< 	c #CCE7D4",
"[ 	c #FEFFFF",
"} 	c #6CBA82",
"| 	c #6FBC85",
"1 	c #299B4A",
"2 	c #279B48",
"3 	c #72BE88",
"4 	c #6FBB85",
"5 	c #098C2F",
"6 	c #0A8C2F",
"7 	c #088C2E",
"8 	c #D8EDDE",
"9 	c #008522",
"0 	c #D7ECDD",
"a 	c #CDE8D5",
"b 	c #088B2E",
"c 	c #74BD88",
"d 	c #49AA65",
"e 	c #0D8E33",
"f 	c #48AA64",
"g 	c #74BE89",
"h 	c #0E8F33",
"i 	c #3CA45A",
"j 	c #8ECAA0",
"k 	c #91CCA2",
"l 	c #7BC18F",
"m 	c #74BE8A",
"n 	c #2E9D4E",
"o 	c #7BC28F",
"p 	c #3DA45A",
"q 	c #108F35",
"r 	c #0A8D30",
"s 	c #E9F5ED",
"t 	c #EDF7F0",
"u 	c #F4FAF6",
"v 	c #60B478",
"w 	c #DBEEE0",
"x 	c #F1F8F3",
"y 	c #DBEEE1",
"z 	c #61B57A",
"A 	c #E9F5EC",
"B 	c #0A8D31",
"C 	c #FBFDFC",
"D 	c #69B981",
"E 	c #EEF7F1",
"F 	c #FBFDFB",
"G 	c #0A8C30",
"H 	c #0C8D32",
"I 	c #81C495",
"J 	c #84C698",
"K 	c #88C89B",
"L 	c #3BA459",
"M 	c #7BC190",
"N 	c #85C698",
"O 	c #0B8D30",
"P 	c #E2F1E6",
"Q 	c #5EB477",
"R 	c #D0E9D7",
"S 	c #E2F1E7",
"T 	c #5FB478",
"U 	c #E9F4EC",
"V 	c #0B8D31",
"W 	c #F9FCFA",
"X 	c #68B880",
"Y 	c #ECF6EE",
"Z 	c #ECF6F0",
"` 	c #6BB982",
" .	c #F6FBF8",
"..	c #69B980",
"+.	c #EBF5EE",
"@.	c #FAFCFA",
"#.	c #EBF6EE",
"$.	c #6BBA82",
"%.	c #F6FBF7",
"&.	c #81C393",
"*.	c #80C291",
"=.	c #84C494",
"-.	c #7CC18F",
";.	c #7DC18F",
">.	c #3EA45B",
",.	c #81C392",
"'.	c #F8FCFA",
").	c #EBF6EF",
"!.	c #F8FCF9",
"~.	c #71BC87",
"{.	c #FBFEFC",
"].	c #FCFEFE",
"^.	c #73BD89",
"/.	c #168D30",
"(.	c #178D30",
"_.	c #178D2F",
":.	c #0F8E32",
"<.	c #168E31",
"[.	c #108E32",
"}.	c #109036",
"    . . . . . . . . . . . . . . . . . .     ",
"  . . . . . . . . . . . . . . . . . . . .   ",
"+ @ @ @ @ @ # $ . . . . . . $ @ % % % % % & ",
"* = = = = - ; > . . . . . . , ' ) ) ) ) ) ! ",
"~ ~ ~ ~ ~ ~ ~ { ] . . . . ] ^ ~ ~ ~ ~ ~ ~ ~ ",
"~ ~ ~ ~ ~ / ~ ( _ . . . . : < ~ [ ~ ~ ~ ~ ~ ",
"} } } } | ~ ~ ~ 1 . . . . 2 ~ ~ ~ 3 4 4 4 4 ",
"5 5 5 6 7 < ~ ~ 8 9 . . 9 0 ~ ~ a b 6 5 5 5 ",
". . . . . c ~ ~ ~ d e e f ~ ~ ~ g . . . . . ",
". . . . h i j k l m n n m o k j p h . . . . ",
". . . q r s t u v w x x y z u t A B q . . . ",
". . . q 6 C ~ ~ D t ~ ~ E } ~ ~ F G q . . . ",
". . . . H I J K L M N N M i K J I H . . . . ",
". . . q O y P A Q R S S R T U P y V q . . . ",
". . . q 6 W ~ ~ X Y ~ ~ Z ` ~ ~ W G q . . . ",
". . . q r  .W ~ ..+.@.@.#.$.~ W %.r q . . . ",
". . . . ] &.*.=.p -.*.*.;.>.=.*.,.] . . . . ",
". . . q 6 '.~ ~ X #.~ ~ ).` ~ ~ !.G q . . . ",
". . . q 6 ~ ~ ~ ~.{.~ ~ ].^.~ ~ ~ G q . . . ",
". . . . . /.(._.:.<.(.(.<.[._.(./.. . . . . ",
"  . . . . }.}.}.q }.}.}.}.q }.}.}.. . . .   ",
"    . . . . . . . . . . . . . . . . . .     "};
