/* XPM */
static const char * rdpanel_32x32_xpm[] = {
"32 32 112 2",
"  	c None",
". 	c #0F8F34",
"+ 	c #109035",
"@ 	c #108F35",
"# 	c #75BE8A",
"$ 	c #70BD87",
"% 	c #77C08C",
"& 	c #028828",
"* 	c #73BD89",
"= 	c #6DBB84",
"- 	c #70BC86",
"; 	c #FFFFFF",
"> 	c #4FAC69",
", 	c #4DAC68",
"' 	c #CBE7D4",
") 	c #048A2B",
"! 	c #C9E6D1",
"~ 	c #2F9E4F",
"{ 	c #2E9D4E",
"] 	c #ACD8B9",
"^ 	c #0B8D31",
"/ 	c #0C8E31",
"( 	c #ABD8B7",
"_ 	c #66B77D",
": 	c #65B77D",
"< 	c #16923A",
"[ 	c #149238",
"} 	c #68B980",
"| 	c #69B880",
"1 	c #108F34",
"2 	c #098C2F",
"3 	c #B9DEC4",
"4 	c #98CFA7",
"5 	c #0E8F34",
"6 	c #96CEA6",
"7 	c #BADFC5",
"8 	c #3EA55C",
"9 	c #088B2D",
"0 	c #078B2D",
"a 	c #41A65E",
"b 	c #008726",
"c 	c #DDEFE2",
"d 	c #7BC18F",
"e 	c #7AC18E",
"f 	c #DEF0E4",
"g 	c #008725",
"h 	c #0E8F33",
"i 	c #45A861",
"j 	c #9BD0AB",
"k 	c #9BD0AA",
"l 	c #9CD1AB",
"m 	c #95CDA5",
"n 	c #03892A",
"o 	c #0D8E32",
"p 	c #94CDA5",
"q 	c #46A861",
"r 	c #0E8E33",
"s 	c #87C799",
"t 	c #9CD1AC",
"u 	c #9AD0AA",
"v 	c #9BD1AB",
"w 	c #3FA55C",
"x 	c #84C597",
"y 	c #9DD1AC",
"z 	c #84C698",
"A 	c #40A65D",
"B 	c #86C799",
"C 	c #058A2B",
"D 	c #D6ECDD",
"E 	c #5FB478",
"F 	c #D6ECDC",
"G 	c #D7ECDE",
"H 	c #61B57A",
"I 	c #058A2C",
"J 	c #62B57A",
"K 	c #D8EDDF",
"L 	c #60B579",
"M 	c #D8EDDE",
"N 	c #D9EDDF",
"O 	c #62B67A",
"P 	c #54AF6E",
"Q 	c #62B67B",
"R 	c #2B9C4B",
"S 	c #53AF6F",
"T 	c #2B9C4C",
"U 	c #53AF6E",
"V 	c #B6DDC1",
"W 	c #D8ECDE",
"X 	c #DAEEDF",
"Y 	c #B7DDC2",
"Z 	c #54AF6F",
"` 	c #DAEDDF",
" .	c #63B67B",
"..	c #DEEFE3",
"+.	c #DFF0E4",
"@.	c #DDF0E3",
"#.	c #1A923A",
"$.	c #1D933B",
"%.	c #1E933B",
"&.	c #139036",
"*.	c #048A2A",
"=.	c #E7F4EC",
"-.	c #69B980",
";.	c #E6F4EB",
">.	c #E8F5EC",
",.	c #6BBA82",
"'.	c #E6F4EA",
").	c #E7F4EB",
"!.	c #00841F",
"~.	c #00821C",
"{.	c #00821B",
"].	c #068A2B",
"      . . . . . . . . . . . . . . . . . . . . . . . . . .       ",
"    . . . . . . . . . . . . . . . . . . . . . . . . . . . .     ",
"  . . . . . . . . . . . . . . . . . . . . . . . . . . . . . .   ",
"+ @ @ @ @ @ @ @ @ @ . . . . . . . . . . . . @ @ @ @ @ @ @ @ @ + ",
"# $ $ $ $ $ $ $ $ % & . . . . . . . . . . & * = = = = = = = = - ",
"; ; ; ; ; ; ; ; ; ; > @ . . . . . . . . @ , ; ; ; ; ; ; ; ; ; ; ",
"; ; ; ; ; ; ; ; ; ; ' ) . . . . . . . . ) ! ; ; ; ; ; ; ; ; ; ; ",
"; ; ; ; ; ; ; ; ; ; ; ~ . . . . . . . . { ; ; ; ; ; ; ; ; ; ; ; ",
"; ; ; ; ; ; ; ; ; ; ; ] ^ . . . . . . / ( ; ; ; ; ; ; ; ; ; ; ; ",
"_ _ _ _ _ _ : ; ; ; ; ; < . . . . . . [ ; ; ; ; ; } | | | | | | ",
"1 1 1 1 1 1 2 3 ; ; ; ; 4 5 . . . . 5 6 ; ; ; ; 7 2 1 1 1 1 1 1 ",
". . . . . . . 8 ; ; ; ; ; 9 . . . . 0 ; ; ; ; ; a . . . . . . . ",
". . . . . . . b c ; ; ; ; d . . . . e ; ; ; ; f g . . . . . . . ",
". . . . . . . h i j k k l m n o o n p l k k j q r . . . . . . . ",
". . . . . . 2 s t u u v w x y t t y z A v u u t B 2 . . . . . . ",
". . . . . . C D ; ; ; ; E F ; ; ; ; G H ; ; ; ; F I . . . . . . ",
". . . . . . C D ; ; ; ; E F ; ; ; ; G J ; ; ; ; F I . . . . . . ",
". . . . . . C K ; ; ; ; L M ; ; ; ; N O ; ; ; ; M C . . . . . . ",
". . . . . . ^ P H H H Q R S H H H H P T O H H H U ^ . . . . . . ",
". . . . . . 0 V W W W X U V W W W W Y Z ` W W W V 0 . . . . . . ",
". . . . . . C D ; ; ; ; E F ; ; ; ; G J ; ; ; ; F I . . . . . . ",
". . . . . . C D ; ; ; ; E F ; ; ; ; G J ; ; ; ; F I . . . . . . ",
". . . . . . C f ; ; ; ;  ...; ; ; ; +.: ; ; ; ; @.C . . . . . . ",
". . . . . . 5 #.$.$.$.%.&.#.$.$.$.$.#.&.%.$.$.$.#.5 . . . . . . ",
". . . . . . *.=.; ; ; ; -.;.; ; ; ; >.,.; ; ; ; '.) . . . . . . ",
". . . . . . C D ; ; ; ; E F ; ; ; ; G J ; ; ; ; F I . . . . . . ",
". . . . . . C D ; ; ; ; E F ; ; ; ; G J ; ; ; ; F I . . . . . . ",
". . . . . . ) ).; ; ; ; -.).; ; ; ; >.,.; ; ; ; '.) . . . . . . ",
". . . . . . + !.~.~.~.{.].!.~.~.~.~.!.].{.~.~.~.!.+ . . . . . . ",
"  . . . . . . . . . . . . . . . . . . . . . . . . . . . . . .   ",
"    . . . . . . . . . . . . . . . . . . . . . . . . . . . .     ",
"      . . . . . . . . . . . . . . . . . . . . . . . . . .       "};
