/* XPM */
static const char * rdpanel_64x64_xpm[] = {
"64 64 130 2",
"  	c None",
". 	c #0F8F34",
"+ 	c #008726",
"@ 	c #008828",
"# 	c #03892A",
"$ 	c #108F35",
"% 	c #108F34",
"& 	c #058A2C",
"* 	c #04892A",
"= 	c #028929",
"- 	c #E6F3EA",
"; 	c #E6F4EA",
"> 	c #E2F1E6",
", 	c #008725",
"' 	c #D8EDDE",
") 	c #DCEFE2",
"! 	c #FEFFFE",
"~ 	c #FFFFFF",
"{ 	c #61B579",
"] 	c #5EB477",
"^ 	c #E4F3E8",
"/ 	c #008625",
"( 	c #48AA64",
"_ 	c #43A860",
": 	c #C3E3CD",
"< 	c #068B2C",
"[ 	c #C0E2CA",
"} 	c #2A9B4B",
"| 	c #279A48",
"1 	c #A7D6B4",
"2 	c #0C8E32",
"3 	c #0D8E32",
"4 	c #A4D5B3",
"5 	c #129137",
"6 	c #109035",
"7 	c #91CCA2",
"8 	c #0E8F33",
"9 	c #8FCA9F",
"0 	c #CCE7D4",
"a 	c #E2F2E6",
"b 	c #058A2B",
"c 	c #038A2A",
"d 	c #E7F4EB",
"e 	c #D3EBDA",
"f 	c #D3EADA",
"g 	c #078B2D",
"h 	c #0D8E33",
"i 	c #77C08C",
"j 	c #73BE88",
"k 	c #A6D5B4",
"l 	c #F8FCF9",
"m 	c #F8FBF9",
"n 	c #A8D6B5",
"o 	c #299B4A",
"p 	c #63B67B",
"q 	c #2B9C4C",
"r 	c #C3E3CC",
"s 	c #E5F3E9",
"t 	c #008624",
"u 	c #E3F2E7",
"v 	c #C5E4CE",
"w 	c #44A861",
"x 	c #49AA66",
"y 	c #4AAA66",
"z 	c #E4F2E8",
"A 	c #C4E3CD",
"B 	c #5FB478",
"C 	c #289B49",
"D 	c #FCFEFD",
"E 	c #B2DBBE",
"F 	c #0B8D31",
"G 	c #0C8D31",
"H 	c #B0DABC",
"I 	c #FDFEFD",
"J 	c #249945",
"K 	c #36A155",
"L 	c #37A155",
"M 	c #3CA459",
"N 	c #0A8D30",
"O 	c #3BA459",
"P 	c #259946",
"Q 	c #35A155",
"R 	c #309D50",
"S 	c #309E50",
"T 	c #A2D4B0",
"U 	c #DCEFE1",
"V 	c #038929",
"W 	c #9FD2AF",
"X 	c #A2D4B1",
"Y 	c #E1F1E6",
"Z 	c #A0D3AF",
"` 	c #9CD1AC",
" .	c #D4EBDB",
"..	c #9AD0AA",
"+.	c #D9EDDF",
"@.	c #9BD1AA",
"#.	c #88C79A",
"$.	c #D8EDDF",
"%.	c #B5DDC1",
"&.	c #86C799",
"*.	c #048A2B",
"=.	c #B9DEC4",
"-.	c #078B2E",
";.	c #0E8E33",
">.	c #64B67C",
",.	c #9DD1AC",
"'.	c #86C699",
").	c #088C2E",
"!.	c #88C89B",
"~.	c #9CD1AB",
"{.	c #9DD2AC",
"].	c #D6ECDC",
"^.	c #9BD0AB",
"/.	c #9DD2AD",
"(.	c #DAEEE0",
"_.	c #9BD1AB",
":.	c #49AA65",
"<.	c #6CBA83",
"[.	c #6DBB84",
"}.	c #5DB375",
"|.	c #018827",
"1.	c #00831E",
"2.	c #008522",
"3.	c #028828",
"4.	c #A7D6B5",
"5.	c #018828",
"6.	c #E9F5ED",
"7.	c #A5D5B3",
"8.	c #00841F",
"9.	c #008523",
"              . . . . . . . . . . . . . . . . . . . . . . . . . . . . . . . . . . . . . . . . . . . . . . . . . .               ",
"          . . . . . . . . . . . . . . . . . . . . . . . . . . . . . . . . . . . . . . . . . . . . . . . . . . . . . .           ",
"        . . . . . . . . . . . . . . . . . . . . . . . . . . . . . . . . . . . . . . . . . . . . . . . . . . . . . . . .         ",
"      . . . . . . . . . . . . . . . . . . . . . . . . . . . . . . . . . . . . . . . . . . . . . . . . . . . . . . . . . .       ",
"    . . . . . . . . . . . . . . . . . . . . . . . . . . . . . . . . . . . . . . . . . . . . . . . . . . . . . . . . . . . .     ",
"  . . . . . . . . . . . . . . . . . . . . . . . . . . . . . . . . . . . . . . . . . . . . . . . . . . . . . . . . . . . . . .   ",
"  . . . . . . . . . . . . . . . . . . . . . . . . . . . . . . . . . . . . . . . . . . . . . . . . . . . . . . . . . . . . . .   ",
". . . . . . . . . . . . . . . . . . . . . . . . . . . . . . . . . . . . . . . . . . . . . . . . . . . . . . . . . . . . . . . . ",
"+ @ @ @ @ @ @ @ @ @ @ @ @ @ @ @ @ @ @ # $ . . . . . . . . . . . . . . . . . . . . . . % & * * * * * * * * * * * * * * * * * * = ",
"- ; ; ; ; ; ; ; ; ; ; ; ; ; ; ; ; ; ; > , . . . . . . . . . . . . . . . . . . . . . . + ' ) ) ) ) ) ) ) ) ) ) ) ) ) ) ) ) ) ) ) ",
"! ~ ~ ~ ~ ~ ~ ~ ~ ~ ~ ~ ~ ~ ~ ~ ~ ~ ~ ~ { $ . . . . . . . . . . . . . . . . . . . . $ ] ~ ~ ~ ~ ~ ~ ~ ~ ~ ~ ~ ~ ~ ~ ~ ~ ~ ~ ~ ! ",
"~ ~ ~ ~ ~ ~ ~ ~ ~ ~ ~ ~ ~ ~ ~ ~ ~ ~ ~ ~ ^ / . . . . . . . . . . . . . . . . . . . . + > ~ ~ ~ ~ ~ ~ ~ ~ ~ ~ ~ ~ ~ ~ ~ ~ ~ ~ ~ ~ ",
"~ ~ ~ ~ ~ ~ ~ ~ ~ ~ ~ ~ ~ ~ ~ ~ ~ ~ ~ ~ ~ ( $ . . . . . . . . . . . . . . . . . . % _ ~ ~ ~ ~ ~ ~ ~ ~ ~ ~ ~ ~ ~ ~ ~ ~ ~ ~ ~ ~ ~ ",
"~ ~ ~ ~ ~ ~ ~ ~ ~ ~ ~ ~ ~ ~ ~ ~ ~ ~ ~ ~ ~ : < . . . . . . . . . . . . . . . . . . < [ ~ ~ ~ ~ ~ ~ ~ ~ ~ ~ ~ ~ ~ ~ ~ ~ ~ ~ ~ ~ ~ ",
"~ ~ ~ ~ ~ ~ ~ ~ ~ ~ ~ ~ ~ ~ ~ ~ ~ ~ ~ ~ ~ ~ } . . . . . . . . . . . . . . . . . . | ~ ~ ~ ~ ~ ~ ~ ~ ~ ~ ~ ~ ~ ~ ~ ~ ~ ~ ~ ~ ~ ~ ",
"~ ~ ~ ~ ~ ~ ~ ~ ~ ~ ~ ~ ~ ~ ~ ~ ~ ~ ~ ~ ~ ~ 1 2 . . . . . . . . . . . . . . . . 3 4 ~ ~ ~ ~ ~ ~ ~ ~ ~ ~ ~ ~ ~ ~ ~ ~ ~ ~ ~ ~ ~ ~ ",
"~ ~ ~ ~ ~ ~ ~ ~ ~ ~ ~ ~ ~ ~ ~ ~ ~ ~ ~ ~ ~ ~ ~ 5 . . . . . . . . . . . . . . . . 6 ~ ~ ~ ~ ~ ~ ~ ~ ~ ~ ~ ~ ~ ~ ~ ~ ~ ~ ~ ~ ~ ~ ~ ",
"~ ~ ~ ~ ~ ~ ~ ~ ~ ~ ~ ~ ~ ~ ~ ~ ~ ~ ~ ~ ~ ~ ~ 7 8 . . . . . . . . . . . . . . . 9 ~ ~ ~ ~ ~ ~ ~ ~ ~ ~ ~ ~ ~ ~ ~ ~ ~ ~ ~ ~ ~ ~ ~ ",
"0 0 0 0 0 0 0 0 0 0 0 0 0 a ~ ~ ~ ~ ~ ~ ~ ~ ~ ~ b . . . . . . . . . . . . . . c ~ ~ ~ ~ ~ ~ ~ ~ ~ ~ d e f f f f f f f f f f f f ",
"g g g g g g g g g g g g g h ~ ~ ~ ~ ~ ~ ~ ~ ~ ~ i . . . . . . . . . . . . . . j ~ ~ ~ ~ ~ ~ ~ ~ ~ ~ . & & & & & & & & & & & & & ",
". . . . . . . . . . . . . 2 k ~ ~ ~ ~ ~ ~ ~ ~ ~ l , . . . . . . . . . . . . , m ~ ~ ~ ~ ~ ~ ~ ~ ~ n 2 . . . . . . . . . . . . . ",
". . . . . . . . . . . . . . o ~ ~ ~ ~ ~ ~ ~ ~ ~ ~ p $ . . . . . . . . . . $ ] ~ ~ ~ ~ ~ ~ ~ ~ ~ ~ q . . . . . . . . . . . . . . ",
". . . . . . . . . . . . . . & r ~ ~ ~ ~ ~ ~ ~ ~ ~ s t . . . . . . . . . . + u ~ ~ ~ ~ ~ ~ ~ ~ ~ v < . . . . . . . . . . . . . . ",
". . . . . . . . . . . . . . % w ~ ~ ~ ~ ~ ~ ~ ~ ~ ~ x % . . . . . . . . $ w ~ ~ ~ ~ ~ ~ ~ ~ ~ ~ y $ . . . . . . . . . . . . . . ",
". . . . . . . . . . . . . . . , z ~ ~ ~ ~ ~ ~ ~ ~ ~ A < . . . . . . . . & r ~ ~ ~ ~ ~ ~ ~ ~ ~ - t . . . . . . . . . . . . . . . ",
". . . . . . . . . . . . . . . $ B ~ ~ ~ ~ ~ ~ ~ ~ ~ ~ q . . . . . . . . C ~ ~ ~ ~ ~ ~ ~ ~ ~ ~ p $ . . . . . . . . . . . . . . . ",
". . . . . . . . . . . . . . . . / D ~ ~ ~ ~ ~ ~ ~ ~ ~ E F . . . . . . G H ~ ~ ~ ~ ~ ~ ~ ~ ~ I , . . . . . . . . . . . . . . . . ",
". . . . . . . . . . . . . . . . . J K K K K K K K L L M N . . . . . . N O L L K K K K K K K P . . . . . . . . . . . . . . . . . ",
". . . . . . . . . . . . . . | Q Q Q Q Q Q Q Q Q R 3 | Q Q Q Q Q Q Q Q Q Q | 3 S Q Q Q Q Q Q Q Q Q | . . . . . . . . . . . . . . ",
". . . . . . . . . . . . . 3 T ~ ~ ~ ~ ~ ~ ~ ~ ~ U V W ~ ~ ~ ~ ~ ~ ~ ~ ~ ~ X = Y ~ ~ ~ ~ ~ ~ ~ ~ ~ Z 3 . . . . . . . . . . . . . ",
". . . . . . . . . . . . . 3 ` ~ ~ ~ ~ ~ ~ ~ ~ ~  .# ..~ ~ ~ ~ ~ ~ ~ ~ ~ ~ ` = +.~ ~ ~ ~ ~ ~ ~ ~ ~ @.3 . . . . . . . . . . . . . ",
". . . . . . . . . . . . . 3 ` ~ ~ ~ ~ ~ ~ ~ ~ ~  .# ..~ ~ ~ ~ ~ ~ ~ ~ ~ ~ ` = +.~ ~ ~ ~ ~ ~ ~ ~ ~ @.3 . . . . . . . . . . . . . ",
". . . . . . . . . . . . . 3 ` ~ ~ ~ ~ ~ ~ ~ ~ ~  .# ..~ ~ ~ ~ ~ ~ ~ ~ ~ ~ ` = +.~ ~ ~ ~ ~ ~ ~ ~ ~ @.3 . . . . . . . . . . . . . ",
". . . . . . . . . . . . . 3 ` ~ ~ ~ ~ ~ ~ ~ ~ ~  .# ..~ ~ ~ ~ ~ ~ ~ ~ ~ ~ ` = +.~ ~ ~ ~ ~ ~ ~ ~ ~ @.3 . . . . . . . . . . . . . ",
". . . . . . . . . . . . . 3 ` ~ ~ ~ ~ ~ ~ ~ ~ ~  .# ..~ ~ ~ ~ ~ ~ ~ ~ ~ ~ ` = +.~ ~ ~ ~ ~ ~ ~ ~ ~ @.3 . . . . . . . . . . . . . ",
". . . . . . . . . . . . . 3 ` ~ ~ ~ ~ ~ ~ ~ ~ ~  .# ..~ ~ ~ ~ ~ ~ ~ ~ ~ ~ ` = +.~ ~ ~ ~ ~ ~ ~ ~ ~ @.3 . . . . . . . . . . . . . ",
". . . . . . . . . . . . . 3 #.$.+.+.+.+.+.+.+.+.%.b &.$.+.+.+.+.+.+.+.+.$.#.*.=.+.+.+.+.+.+.+.+.$.&.3 . . . . . . . . . . . . . ",
". . . . . . . . . . . . . . g = = = = = = = = = b $ -.= = = = = = = = = = g $ *.= = = = = = = = = -.. . . . . . . . . . . . . . ",
". . . . . . . . . . . . . ;.>.,.,.,.,.,.,.,.,.,.'.).p ,.,.,.,.,.,.,.,.,.,.>.g !.,.,.,.,.,.,.,.,.,.p ;.. . . . . . . . . . . . . ",
". . . . . . . . . . . . . 3 ~.~ ~ ~ ~ ~ ~ ~ ~ ~  .# ..~ ~ ~ ~ ~ ~ ~ ~ ~ ~ ` = $.~ ~ ~ ~ ~ ~ ~ ~ ~ @.3 . . . . . . . . . . . . . ",
". . . . . . . . . . . . . 3 ` ~ ~ ~ ~ ~ ~ ~ ~ ~  .# ..~ ~ ~ ~ ~ ~ ~ ~ ~ ~ ` = +.~ ~ ~ ~ ~ ~ ~ ~ ~ @.3 . . . . . . . . . . . . . ",
". . . . . . . . . . . . . 3 ` ~ ~ ~ ~ ~ ~ ~ ~ ~  .# ..~ ~ ~ ~ ~ ~ ~ ~ ~ ~ ` = +.~ ~ ~ ~ ~ ~ ~ ~ ~ @.3 . . . . . . . . . . . . . ",
". . . . . . . . . . . . . 3 ` ~ ~ ~ ~ ~ ~ ~ ~ ~  .# ..~ ~ ~ ~ ~ ~ ~ ~ ~ ~ ` = +.~ ~ ~ ~ ~ ~ ~ ~ ~ @.3 . . . . . . . . . . . . . ",
". . . . . . . . . . . . . 3 ` ~ ~ ~ ~ ~ ~ ~ ~ ~  .# ..~ ~ ~ ~ ~ ~ ~ ~ ~ ~ ` = +.~ ~ ~ ~ ~ ~ ~ ~ ~ @.3 . . . . . . . . . . . . . ",
". . . . . . . . . . . . . 3 ` ~ ~ ~ ~ ~ ~ ~ ~ ~  .# ..~ ~ ~ ~ ~ ~ ~ ~ ~ ~ ` = +.~ ~ ~ ~ ~ ~ ~ ~ ~ @.3 . . . . . . . . . . . . . ",
". . . . . . . . . . . . . 3 {.~ ~ ~ ~ ~ ~ ~ ~ ~ ].# ^.~ ~ ~ ~ ~ ~ ~ ~ ~ ~ /.= (.~ ~ ~ ~ ~ ~ ~ ~ ~ _.3 . . . . . . . . . . . . . ",
". . . . . . . . . . . . . 8 :.<.[.[.[.[.[.[.[.[.}.N ( <.[.[.[.[.[.[.[.[.<.:.N ] [.[.[.[.[.[.[.[.<.( 8 . . . . . . . . . . . . . ",
". . . . . . . . . . . . . . |.1.1.1.1.1.1.1.1.1.2.6 3.1.1.1.1.1.1.1.1.1.1.|.6 2.1.1.1.1.1.1.1.1.1.3.. . . . . . . . . . . . . . ",
". . . . . . . . . . . . . 2 4.~ ~ ~ ~ ~ ~ ~ ~ ~ ^ = 4 ~ ~ ~ ~ ~ ~ ~ ~ ~ ~ 4.5.6.~ ~ ~ ~ ~ ~ ~ ~ ~ 7.3 . . . . . . . . . . . . . ",
". . . . . . . . . . . . . 3 ` ~ ~ ~ ~ ~ ~ ~ ~ ~  .# ..~ ~ ~ ~ ~ ~ ~ ~ ~ ~ ` = +.~ ~ ~ ~ ~ ~ ~ ~ ~ @.3 . . . . . . . . . . . . . ",
". . . . . . . . . . . . . 3 ` ~ ~ ~ ~ ~ ~ ~ ~ ~  .# ..~ ~ ~ ~ ~ ~ ~ ~ ~ ~ ` = +.~ ~ ~ ~ ~ ~ ~ ~ ~ @.3 . . . . . . . . . . . . . ",
". . . . . . . . . . . . . 3 ` ~ ~ ~ ~ ~ ~ ~ ~ ~  .# ..~ ~ ~ ~ ~ ~ ~ ~ ~ ~ ` = +.~ ~ ~ ~ ~ ~ ~ ~ ~ @.3 . . . . . . . . . . . . . ",
". . . . . . . . . . . . . 3 ` ~ ~ ~ ~ ~ ~ ~ ~ ~  .# ..~ ~ ~ ~ ~ ~ ~ ~ ~ ~ ` = +.~ ~ ~ ~ ~ ~ ~ ~ ~ @.3 . . . . . . . . . . . . . ",
". . . . . . . . . . . . . 3 ` ~ ~ ~ ~ ~ ~ ~ ~ ~  .# ..~ ~ ~ ~ ~ ~ ~ ~ ~ ~ ` = +.~ ~ ~ ~ ~ ~ ~ ~ ~ @.3 . . . . . . . . . . . . . ",
". . . . . . . . . . . . . 3 ` ~ ~ ~ ~ ~ ~ ~ ~ ~  .# ..~ ~ ~ ~ ~ ~ ~ ~ ~ ~ ` = +.~ ~ ~ ~ ~ ~ ~ ~ ~ @.3 . . . . . . . . . . . . . ",
". . . . . . . . . . . . . 2 1 ~ ~ ~ ~ ~ ~ ~ ~ ~ ^ = 4 ~ ~ ~ ~ ~ ~ ~ ~ ~ ~ 4.5.6.~ ~ ~ ~ ~ ~ ~ ~ ~ 7.3 . . . . . . . . . . . . . ",
". . . . . . . . . . . . . . 5.8.8.8.8.8.8.8.8.8.9.6 5.8.8.8.8.8.8.8.8.8.8.5.6 2.8.8.8.8.8.8.8.8.8.5.. . . . . . . . . . . . . . ",
"  . . . . . . . . . . . . . . . . . . . . . . . . . . . . . . . . . . . . . . . . . . . . . . . . . . . . . . . . . . . . . .   ",
"  . . . . . . . . . . . . . . . . . . . . . . . . . . . . . . . . . . . . . . . . . . . . . . . . . . . . . . . . . . . . . .   ",
"    . . . . . . . . . . . . . . . . . . . . . . . . . . . . . . . . . . . . . . . . . . . . . . . . . . . . . . . . . . . .     ",
"      . . . . . . . . . . . . . . . . . . . . . . . . . . . . . . . . . . . . . . . . . . . . . . . . . . . . . . . . . .       ",
"        . . . . . . . . . . . . . . . . . . . . . . . . . . . . . . . . . . . . . . . . . . . . . . . . . . . . . . . .         ",
"          . . . . . . . . . . . . . . . . . . . . . . . . . . . . . . . . . . . . . . . . . . . . . . . . . . . . . .           ",
"              . . . . . . . . . . . . . . . . . . . . . . . . . . . . . . . . . . . . . . . . . . . . . . . . . .               "};
