/* XPM */
static const char * rdpanel_16x16_xpm[] = {
"16 16 92 2",
"  	c None",
". 	c #0F8F34",
"+ 	c #02892A",
"@ 	c #088C2E",
"# 	c #088B2E",
"$ 	c #078B2D",
"% 	c #0E8E33",
"& 	c #028929",
"* 	c #C7E5CF",
"= 	c #C4E4CE",
"- 	c #D7EDDD",
"; 	c #0B8C2F",
"> 	c #0A8C2F",
", 	c #D5EBDB",
"' 	c #C3E3CC",
") 	c #C5E4CD",
"! 	c #FFFFFF",
"~ 	c #91CBA3",
"{ 	c #048A2B",
"] 	c #8FCBA1",
"^ 	c #9BD0AA",
"/ 	c #BADFC4",
"( 	c #ECF6EE",
"_ 	c #058A2B",
": 	c #048A2A",
"< 	c #EBF6EE",
"[ 	c #BBE0C6",
"} 	c #9ED1AC",
"| 	c #9ED1AD",
"1 	c #068B2D",
"2 	c #088B2D",
"3 	c #38A257",
"4 	c #F7FBF8",
"5 	c #FEFFFF",
"6 	c #7FC290",
"7 	c #7EC18F",
"8 	c #FEFFFE",
"9 	c #1C953E",
"0 	c #AAD7B7",
"a 	c #CBE7D3",
"b 	c #A0D3AF",
"c 	c #19943D",
"d 	c #A0D3AE",
"e 	c #1C953F",
"f 	c #108F35",
"g 	c #3FA65D",
"h 	c #DFF0E4",
"i 	c #85C597",
"j 	c #D6EBDC",
"k 	c #85C699",
"l 	c #47A863",
"m 	c #F4FAF6",
"n 	c #E8F4EC",
"o 	c #8CC99E",
"p 	c #EDF7F0",
"q 	c #8ECA9F",
"r 	c #E8F5EC",
"s 	c #37A156",
"t 	c #B5DCC1",
"u 	c #B4DDC0",
"v 	c #69B980",
"w 	c #B1DABE",
"x 	c #69B981",
"y 	c #B4DCC0",
"z 	c #4AAA65",
"A 	c #F9FCFA",
"B 	c #94CDA4",
"C 	c #FDFEFE",
"D 	c #96CDA6",
"E 	c #4AAA66",
"F 	c #40A65E",
"G 	c #D9EDDF",
"H 	c #D5EBDA",
"I 	c #80C494",
"J 	c #D4EADA",
"K 	c #D4EAD9",
"L 	c #82C495",
"M 	c #D9EDDE",
"N 	c #41A65E",
"O 	c #DEEFE2",
"P 	c #7FC393",
"Q 	c #D8ECDD",
"R 	c #81C394",
"S 	c #F1F8F3",
"T 	c #9CD1AC",
"U 	c #F8FCF9",
"V 	c #9ED1AE",
"W 	c #0C8D30",
"X 	c #038624",
"Y 	c #048724",
"Z 	c #078A2B",
"` 	c #048624",
"  . . . . . . . . . . . . . .   ",
"+ @ # # $ % . . . . % $ @ @ @ & ",
"* = = = - ; . . . . > , ' ' ' ) ",
"! ! ! ! ! ~ { . . { ] ! ! ! ! ! ",
"^ ^ ^ / ! ( _ . . : < ! [ } | | ",
"$ 1 2 3 4 5 6 > > 7 8 4 3 $ 1 1 ",
". . . 9 0 a b c c d a 0 e . . . ",
". . f g h h i j j k h h g f . . ",
". . f l m n o p p q r m l f . . ",
". . f s t u v w w x y t s f . . ",
". . f z ! A B C C D A ! E f . . ",
". . f F G H I J K L H M F f . . ",
". . f N O H P Q Q R H O N f . . ",
". . f z 8 S T U U V S 8 E f . . ",
". . . W X Y Z ` ` Z Y X W . . . ",
"  . . . . . . . . . . . . . .   "};
