/* XPM */
const static char *record3[]={
"16 16 7 1",
". c None",
"# c #000000",
"e c #404000",
"b c #585858",
"d c #808080",
"a c #ff0000",
"c c #ffc0c0",
".....#####......",
"...##aaaaa##....",
"..#aaabbbaaa#...",
".#aaaabbbaaaa#..",
".#aaaacbcaaaa#..",
"#aaaaaabaaaaaa#.",
"#abbcad#dacbba#.",
"#abbbb###bbbba#.",
"#abbcad#dacbba#.",
"#aaaaaabaaaaaa#.",
".#aaaacbcaaaa#..",
".#aaaabbbaaaa#..",
"..#aaabbbaaa#...",
"...##aaaaa##....",
".....#####eeeee.",
"..............ee"};
