/* XPM */
const static char *record_xpm[]={
"16 16 10 1",
". c None",
"# c #000000",
"f c #00ff00",
"c c #800000",
"e c #808000",
"b c #808080",
"g c #c3c3c3",
"d c #dcdcdc",
"h c #ff0000",
"a c #ffffff",
"..###......###..",
".#aba#....#aba#.",
"#aabaa#cc#aabaa#",
"#bbabb#dd#bbabb#",
"#aabaa#dd#aabaa#",
"e#aba#dddd#aba#e",
".e###dddddd###e.",
".ceddddddddddec.",
".cdebbbbbbbbedc.",
".cddeeeeeeeeddc.",
".cddddddddddddc.",
".cddddddddddddc.",
".cddffdggdhhddc.",
".cddffdggdhhddc.",
".cddddddddddddc.",
"..cccccccccccc.."};
