/* XPM */
static const char * redcheckmark_xpm[] = {
"16 15 45 1",
" 	c None",
".	c #990000",
"+	c #AC3030",
"@	c #C64A40",
"#	c #9F0300",
"$	c #F97252",
"%	c #FF3301",
"&	c #DF2200",
"*	c #F97152",
"=	c #FF3300",
"-	c #FF3200",
";	c #CC1900",
">	c #BF5854",
",	c #F99F76",
"'	c #D2431F",
")	c #B34040",
"!	c #F97151",
"~	c #D91F00",
"{	c #DF775A",
"]	c #FF7838",
"^	c #FF6F30",
"/	c #D93F19",
"(	c #BF6060",
"_	c #FF8161",
":	c #D21C00",
"<	c #AC160A",
"[	c #F9672D",
"}	c #FF6528",
"|	c #FF5C21",
"1	c #D93310",
"2	c #FF8061",
"3	c #BF1300",
"4	c #AC1308",
"5	c #F9551E",
"6	c #FF5219",
"7	c #FF4812",
"8	c #EC3308",
"9	c #FF4F22",
"0	c #AC0F05",
"a	c #EC3A0E",
"b	c #FF3E0A",
"c	c #FF3503",
"d	c #9F0401",
"e	c #EC2B02",
"f	c #B30D00",
"                ",
"             .  ",
"           .+@# ",
"          .+$%&.",
" ...     .+*=-;.",
".>,'.   .)!--~. ",
".{]^/. .(_--:.  ",
" <[}|1.(2--3.   ",
" .456789--3.    ",
"  .0abc--3.     ",
"    de--3.      ",
"     #;f.       ",
"      .         ",
"                ",
"                "};
