/* XPM */
static const char * rivendell_16x16_xpm[] = {
"16 16 85 1",
" 	c None",
".	c #0F8F34",
"+	c #028929",
"@	c #088C2E",
"#	c #088B2E",
"$	c #078B2E",
"%	c #0E8E33",
"&	c #088B2D",
"*	c #C7E5D0",
"=	c #C6E4CE",
"-	c #D7EDDE",
";	c #0B8C30",
">	c #0A8C2F",
",	c #D6ECDC",
"'	c #C3E3CC",
")	c #C4E3CC",
"!	c #C5E4CE",
"~	c #FFFFFF",
"{	c #91CBA1",
"]	c #048A2B",
"^	c #90CBA1",
"/	c #9AD0A9",
"(	c #B9DEC3",
"_	c #ECF6EF",
":	c #048A2A",
"<	c #EBF6EE",
"[	c #BBDFC5",
"}	c #9DD1AD",
"|	c #078B2D",
"1	c #38A357",
"2	c #F6FBF8",
"3	c #FEFFFE",
"4	c #7FC290",
"5	c #7FC18F",
"6	c #F7FBF8",
"7	c #39A357",
"8	c #068B2D",
"9	c #19933D",
"0	c #C1E2CA",
"a	c #DDEFE2",
"b	c #A6D6B3",
"c	c #1C953F",
"d	c #A5D5B3",
"e	c #19943D",
"f	c #86C799",
"g	c #CDE8D4",
"h	c #DCEFE1",
"i	c #DCEFE3",
"j	c #DCEFE2",
"k	c #CDE7D5",
"l	c #87C798",
"m	c #48AA65",
"n	c #209743",
"o	c #63B67A",
"p	c #9FD2AE",
"q	c #E0F0E4",
"r	c #E0F0E5",
"s	c #A0D3AE",
"t	c #63B67B",
"u	c #219743",
"v	c #4EAD68",
"w	c #FEFEFE",
"x	c #BADFC5",
"y	c #A3D4B1",
"z	c #EAF6EE",
"A	c #4DAC68",
"B	c #17933B",
"C	c #A6D5B4",
"D	c #DFF0E4",
"E	c #E3F1E7",
"F	c #E3F2E7",
"G	c #A7D6B5",
"H	c #43A760",
"I	c #EBF5ED",
"J	c #DEEFE2",
"K	c #EBF6ED",
"L	c #098C2F",
"M	c #42A75F",
"N	c #A2D3AF",
"O	c #D5ECDB",
"P	c #42A760",
"Q	c #0A8D30",
"R	c #038A2A",
"S	c #078C2E",
"T	c #078C2D",
" .............. ",
"+@##$%....%&@@@+",
"*===-;....>,')'!",
"~~~~~{]..]^~~~~~",
"///(~_]..:<~[}}}",
"|||1234>>5367|88",
"...90abccda0e...",
"...|fghijjkl|...",
"...m~~~~~~~~m...",
"...nopq66rstu...",
"...vw<xyyxz3A...",
"...BC,DEFD,GB...",
"...HIDJjjJDKH...",
"...LMN!OO!NPL...",
"....QRSTT@RQ....",
" .............. "};
