/* XPM */
static char *rivendell[]={
"32 32 7 1",
". c None",
"e c #008080",
"c c #808000",
"b c #c0c0c0",
"# c #ff0000",
"a c #ffff00",
"d c #ffffff",
"................................",
"................................",
".....#.........a................",
".....#.........a................",
".....#.........a................",
".....#.........a................",
"....###.......aaa...............",
"....#.a....b..aca..b....a.......",
"....d.da...b..aca..b...a........",
"....d.d.aa..b.aca.b..aa.........",
"....ddd.aaa.b.aca.b.aaa.........",
"....ddd..aaaabacabaaaa..........",
"....d.bb..aaabacabaaa..bb.......",
"....d.d.bbaaaabcbaaaabb.........",
"...##.##.ebbaabcbaabb...........",
"...##aaaaaaabbcbcbbaaaaaaa......",
".aaaacccccccccbbbcccccccccaaaa..",
"...#.aaaaaaabbcbcbbaaaaaaa......",
"...##.##..bbaabcbaabb...........",
"...##.##bbaaaabcbaaaabb.........",
"..dd..bbdaaaabacabaaa..bb.......",
"..d.d.d.daaaabacabaaaa..........",
"..d..d..aaaab.aca.b.aaa.........",
"..d..d..aa..b.aca.b..aa.........",
"..d.d.dad..b..aca..b...a........",
"..dd..add..b..aca..b....a.......",
".##.....##....aca...............",
".#.##.##.#.....a................",
".#...#...#.....a................",
"#....#....#....a................",
"#..##.##..#....a................",
"###.....###....................."};
