/* XPM */
const static char *rivendell_xpm[]={
"22 22 94 2",
".a c None",
"Qt c None",
".K c #90b39e",
".N c #94943c",
".0 c #98982d",
".1 c #9d9d57",
".W c #a4a46d",
".3 c #a5a504",
".D c #a6a604",
".o c #a7a700",
".X c #a7a752",
".4 c #afaf00",
".2 c #b9b9ad",
".V c #bbbb69",
".j c #c0c0c0",
".g c #c1c1c1",
".h c #c2c2c2",
".S c #c2df25",
".Z c #c5c500",
"#o c #c6c6a9",
".t c #c9c9a4",
"## c #cfcf5a",
".z c #d1d1d1",
"#n c #d3d382",
".O c #d3d384",
".x c #d5d57d",
"#e c #d5d588",
".J c #d77878",
".9 c #d7d778",
".C c #d8d875",
".U c #d9d972",
"#k c #dddd69",
".s c #dddd6a",
".u c #dede60",
"#g c #dfdf60",
"#h c #dfdfdf",
"#d c #e07d7d",
"#. c #e3e354",
".v c #e4e451",
".L c #e7e748",
".F c #e8e843",
".E c #e9e940",
".T c #ebeb3c",
"#i c #ebebeb",
".i c #eded00",
"#c c #ef3030",
".w c #f4f420",
".8 c #f4f422",
".A c #f5f51f",
".M c #f9f912",
".B c #fbfb0b",
".y c #fbfb0c",
"#f c #fdfd06",
".c c #ff0000",
".# c #ff0101",
".e c #ff0202",
"#z c #ff0303",
"#A c #ff0404",
"#s c #ff0e0e",
"#B c #ff1414",
".f c #ff2f00",
"#b c #ff3636",
".G c #ff4f4f",
".6 c #ff6700",
".5 c #ff7001",
".P c #ff7700",
".m c #ff7f7f",
".7 c #ff8b00",
".I c #ff9090",
"#x c #ff9a9a",
".H c #ff9f9f",
".Q c #ffb600",
".Y c #ffc200",
".R c #ffcf00",
"#t c #ffcfcf",
"#w c #ffedd4",
"#u c #fffbfb",
".d c #ffff00",
".b c #ffff01",
"#a c #ffff02",
"#y c #ffff03",
".p c #ffff05",
"#m c #ffff06",
".k c #ffff07",
".l c #ffff0f",
"#l c #ffff20",
"#r c #ffff2d",
"#j c #ffff30",
"#q c #ffff55",
"#v c #ffff56",
".n c #ffff70",
"#p c #ffffcf",
".r c #fffff2",
".q c #ffffff",
"QtQtQtQtQtQtQtQtQtQtQtQtQtQtQtQtQtQtQtQtQtQt",
"QtQtQt.#.aQtQtQtQtQt.bQtQtQtQtQtQtQtQtQtQtQt",
"QtQtQt.c.aQtQtQtQtQt.dQtQtQtQtQtQtQtQtQtQtQt",
"QtQtQt.c.aQtQtQtQtQt.dQtQtQtQtQtQtQtQtQtQtQt",
"QtQt.e.c.fQtQt.g.h.b.i.dQt.jQtQt.k.lQtQtQtQt",
"QtQt.m.m.n.bQt.j.j.b.o.dQt.jQt.p.d.pQtQtQtQt",
"QtQt.q.q.r.b.d.s.j.b.o.d.j.t.b.d.kQtQtQtQtQt",
"QtQt.q.q.q.b.d.d.u.v.o.w.x.y.d.dQtQtQtQtQtQt",
"QtQt.q.q.z.j.A.d.B.C.D.E.F.d.B.t.j.jQtQtQtQt",
"QtQt.G.H.I.J.K.L.M.L.N.O.d.F.x.jQtQtQtQtQtQt",
"QtQt.c.P.Q.R.S.T.U.V.W.X.O.E.w.d.d.dQtQtQtQt",
".a.d.Y.Z.o.o.o.o.0.1.2.W.N.3.o.o.o.4.d.d.bQt",
"QtQt.c.5.6.7.8.9#.##.1.V.L.C.v#a#a#aQtQtQtQt",
"Qt.q#b.##c#d#e.y#f#..0.U.M.B#g.j.j.hQtQtQtQt",
"Qt.q.q.q#h#i#j.d.y.9.o.T.L.d.d#k.j.gQtQtQtQt",
"Qt.q.q.a.q#l#m.d#n.8.o.B#o.A.d.dQtQtQtQtQtQt",
"Qt.q.q.a#p#q#r.j.j.b.o.d.j.j.b.d.bQtQtQtQtQt",
"#s#t#u.q#v#w#x.j.j.b.o.dQt.jQt.l.b#yQtQtQtQt",
".#.c.e#z.e.#.cQtQt#a.Z.bQtQtQtQtQtQtQtQtQtQt",
".e.##z.#.e#A.c#BQtQt.dQtQtQtQtQtQtQtQtQtQtQt",
".c.e.a.a.a.e#z.cQtQt.dQtQtQtQtQtQtQtQtQtQtQt",
".c.e.a.a.a.e.c.cQtQt.aQtQtQtQtQtQtQtQtQtQtQt"};
