/* XPM */
static const char * rivendell_32x32_xpm[] = {
"32 32 152 2",
"  	c None",
". 	c #0F8F34",
"+ 	c #109035",
"@ 	c #108F35",
"# 	c #76BF8B",
"$ 	c #73BD88",
"% 	c #78C08D",
"& 	c #028828",
"* 	c #74BE8A",
"= 	c #6EBB84",
"- 	c #71BD87",
"; 	c #FFFFFF",
"> 	c #4FAC6A",
", 	c #4DAC68",
"' 	c #CBE7D3",
") 	c #048A2A",
"! 	c #048A2B",
"~ 	c #CAE7D2",
"{ 	c #2F9E50",
"] 	c #2E9D4E",
"^ 	c #ACD8B9",
"/ 	c #0B8D31",
"( 	c #0C8E31",
"_ 	c #ABD8B8",
": 	c #64B77C",
"< 	c #64B67B",
"[ 	c #159239",
"} 	c #149238",
"| 	c #68B87F",
"1 	c #68B880",
"2 	c #098C2F",
"3 	c #B9DFC4",
"4 	c #98CFA7",
"5 	c #0E8F34",
"6 	c #97CEA6",
"7 	c #BBDFC5",
"8 	c #108F34",
"9 	c #3EA55B",
"0 	c #088B2D",
"a 	c #078B2C",
"b 	c #40A65E",
"c 	c #008726",
"d 	c #DDEFE2",
"e 	c #7BC290",
"f 	c #7AC18E",
"g 	c #DFF0E4",
"h 	c #5AB173",
"i 	c #EBF6EE",
"j 	c #BADFC5",
"k 	c #8ECA9F",
"l 	c #028929",
"m 	c #8CC99E",
"n 	c #EBF5EE",
"o 	c #5BB273",
"p 	c #60B478",
"q 	c #47A963",
"r 	c #7BC18E",
"s 	c #9DD1AC",
"t 	c #B6DDC1",
"u 	c #C1E2CB",
"v 	c #B6DDC2",
"w 	c #48AA64",
"x 	c #0C8D31",
"y 	c #5FB477",
"z 	c #038929",
"A 	c #028928",
"B 	c #5DB476",
"C 	c #DAEEE0",
"D 	c #DBEEE0",
"E 	c #5EB477",
"F 	c #018928",
"G 	c #0C8E32",
"H 	c #97CEA7",
"I 	c #99CFA9",
"J 	c #0A8D30",
"K 	c #BCE0C6",
"L 	c #0A8C2F",
"M 	c #0B8D30",
"N 	c #9FD2AE",
"O 	c #A0D2AE",
"P 	c #058B2C",
"Q 	c #0E8E32",
"R 	c #49AA65",
"S 	c #8AC79B",
"T 	c #E5F3E9",
"U 	c #E5F3EA",
"V 	c #C2E2CB",
"W 	c #8AC89B",
"X 	c #4AAB66",
"Y 	c #0D8E32",
"Z 	c #76BF8C",
"` 	c #068B2C",
" .	c #E8F4EB",
"..	c #A6D6B3",
"+.	c #74BD88",
"@.	c #52AE6C",
"#.	c #33A053",
"$.	c #279945",
"%.	c #33A052",
"&.	c #51AE6C",
"*.	c #A5D5B3",
"=.	c #E7F4EB",
"-.	c #B7DEC2",
";.	c #A3D4B1",
">.	c #A4D5B2",
",.	c #6BBA82",
"'.	c #F1F8F3",
").	c #F2F9F4",
"!.	c #6CBA83",
"~.	c #17923A",
"{.	c #9ED2AD",
"].	c #3DA45A",
"^.	c #149037",
"/.	c #5EB478",
"(.	c #87C799",
"_.	c #B2DBBE",
":.	c #C9E5D1",
"<.	c #D0E9D7",
"[.	c #C9E6D1",
"}.	c #B3DBBE",
"|.	c #5FB478",
"1.	c #149137",
"2.	c #3DA359",
"3.	c #17933B",
"4.	c #088C2E",
"5.	c #C8E5D0",
"6.	c #FEFFFE",
"7.	c #D8EDDE",
"8.	c #A8D7B6",
"9.	c #7FC291",
"0.	c #75BE88",
"a.	c #67B87E",
"b.	c #75BE89",
"c.	c #7EC290",
"d.	c #A8D6B5",
"e.	c #D8EDDD",
"f.	c #0E8E33",
"g.	c #72BD87",
"h.	c #74BE89",
"i.	c #38A256",
"j.	c #AFDABB",
"k.	c #B0DABC",
"l.	c #39A358",
"m.	c #008522",
"n.	c #35A054",
"o.	c #62B67B",
"p.	c #7FC290",
"q.	c #9BD0AA",
"r.	c #7FC190",
"s.	c #63B67B",
"t.	c #35A154",
"u.	c #0E8F33",
"      . . . . . . . . . . . . . . . . . . . . . . . . . .       ",
"    . . . . . . . . . . . . . . . . . . . . . . . . . . . .     ",
"  . . . . . . . . . . . . . . . . . . . . . . . . . . . . . .   ",
"+ @ @ @ @ @ @ @ @ @ . . . . . . . . . . . . @ @ @ @ @ @ @ @ @ + ",
"# $ $ $ $ $ $ $ $ % & . . . . . . . . . . & * = = = = = = = = - ",
"; ; ; ; ; ; ; ; ; ; > @ . . . . . . . . @ , ; ; ; ; ; ; ; ; ; ; ",
"; ; ; ; ; ; ; ; ; ; ' ) . . . . . . . . ! ~ ; ; ; ; ; ; ; ; ; ; ",
"; ; ; ; ; ; ; ; ; ; ; { . . . . . . . . ] ; ; ; ; ; ; ; ; ; ; ; ",
"; ; ; ; ; ; ; ; ; ; ; ^ / . . . . . . ( _ ; ; ; ; ; ; ; ; ; ; ; ",
": : : : : : < ; ; ; ; ; [ . . . . . . } ; ; ; ; ; | 1 1 1 1 1 1 ",
". . . . . . 2 3 ; ; ; ; 4 5 . . . . 5 6 ; ; ; ; 7 2 8 8 8 8 8 8 ",
". . . . . . . 9 ; ; ; ; ; 0 . . . . a ; ; ; ; ; b . . . . . . . ",
". . . . . . . c d ; ; ; ; e . . . . f ; ; ; ; g c . . . . . . . ",
". . . . . . . @ h ; ; i j k l 2 2 l m j n ; ; o @ . . . . . . . ",
". . . . . . . . l p ( q r s t u u v s r w x y z . . . . . . . . ",
". . . . . . . A B C ; ; ; ; ; ; ; ; ; ; ; ; D E F . . . . . . . ",
". . . . . . G H ; ; ; ; ; ; ; ; ; ; ; ; ; ; ; ; I G . . . . . . ",
". . . . . . J 7 ; ; ; ; ; ; ; ; ; ; ; ; ; ; ; ; K L . . . . . . ",
". . . . . . . M N ; ; ; ; ; ; ; ; ; ; ; ; ; ; O / . . . . . . . ",
". . . . . . . P # Q R S u T ; ; ; ; U V W X Y Z ` . . . . . . . ",
". . . . . . M t ; ;  ...+.@.#.$.$.%.&.+.*.=.; ; -.J . . . . . . ",
". . . . . . ( ;.; ; ; ; ; ; ; ; ; ; ; ; ; ; ; ; >.x . . . . . . ",
". . . . . . . F ,.'.; ; ; ; ; ; ; ; ; ; ; ; ).!.F . . . . . . . ",
". . . . . . . ~.{.].^./.(._.:.<.<.[.}.(.|.1.2.{.3.. . . . . . . ",
". . . . . . 4.5.6.; ; 7.8.9.0.a.a.b.c.d.e.; ; 6.[.4.. . . . . . ",
". . . . . . f.g.; ; ; ; ; ; ; ; ; ; ; ; ; ; ; ; h.f.. . . . . . ",
". . . . . . . J i.j.; ; ; ; ; ; ; ; ; ; ; ; k.l.J . . . . . . . ",
". . . . . . . . . / m.n.o.p.k q.q.k r.s.t.m./ . . . . . . . . . ",
". . . . . . . . . . . . . + u.Y Y u.+ . . . . . . . . . . . . . ",
"  . . . . . . . . . . . . . . . . . . . . . . . . . . . . . .   ",
"    . . . . . . . . . . . . . . . . . . . . . . . . . . . .     ",
"      . . . . . . . . . . . . . . . . . . . . . . . . . .       "};
