/* XPM */
static const char * rivendell_64x64_xpm[] = {
"64 64 253 2",
"  	c None",
". 	c #0F8F34",
"+ 	c #008727",
"@ 	c #028829",
"# 	c #038A2A",
"$ 	c #108F35",
"% 	c #108F34",
"& 	c #058A2C",
"* 	c #04892A",
"= 	c #018928",
"- 	c #E7F4EA",
"; 	c #E8F4EB",
"> 	c #E2F2E6",
", 	c #008726",
"' 	c #DAEEE0",
") 	c #DEF0E3",
"! 	c #FEFFFE",
"~ 	c #FFFFFF",
"{ 	c #60B579",
"] 	c #5EB477",
"^ 	c #E5F3E9",
"/ 	c #008625",
"( 	c #008725",
"_ 	c #E1F1E6",
": 	c #48A964",
"< 	c #45A862",
"[ 	c #C3E3CC",
"} 	c #068B2C",
"| 	c #C2E3CB",
"1 	c #2A9B4B",
"2 	c #279A48",
"3 	c #A7D6B5",
"4 	c #0C8E32",
"5 	c #0D8E32",
"6 	c #A4D5B2",
"7 	c #139038",
"8 	c #119036",
"9 	c #91CBA1",
"0 	c #0E8F33",
"a 	c #8FCAA0",
"b 	c #C8E5D0",
"c 	c #E0F0E4",
"d 	c #058A2B",
"e 	c #E6F3EA",
"f 	c #D1E9D9",
"g 	c #088C2E",
"h 	c #0E8E33",
"i 	c #76BF8B",
"j 	c #73BE89",
"k 	c #A6D6B4",
"l 	c #F9FCFA",
"m 	c #F7FBF8",
"n 	c #A8D7B6",
"o 	c #0C8E31",
"p 	c #299B4A",
"q 	c #62B67A",
"r 	c #61B579",
"s 	c #2C9C4D",
"t 	c #068B2D",
"u 	c #C1E2CA",
"v 	c #C7E5D0",
"w 	c #048A2B",
"x 	c #45A861",
"y 	c #49AA65",
"z 	c #44A861",
"A 	c #E3F2E7",
"B 	c #60B578",
"C 	c #63B67B",
"D 	c #B8DEC3",
"E 	c #0A8D30",
"F 	c #0B8D30",
"G 	c #B5DDC1",
"H 	c #75BE8A",
"I 	c #DBEFE1",
"J 	c #A3D4B1",
"K 	c #7AC18E",
"L 	c #57B171",
"M 	c #3AA358",
"N 	c #219743",
"O 	c #209742",
"P 	c #39A258",
"Q 	c #57B071",
"R 	c #79C18E",
"S 	c #A2D4B1",
"T 	c #DBEEE0",
"U 	c #F6FBF7",
"V 	c #92CCA2",
"W 	c #018827",
"X 	c #008522",
"Y 	c #2B9C4B",
"Z 	c #59B273",
"` 	c #6ABA81",
" .	c #79C18D",
"..	c #6BBA82",
"+.	c #5AB273",
"@.	c #46A963",
"#.	c #2B9C4C",
"$.	c #008521",
"%.	c #048A2A",
"&.	c #48AA65",
"*.	c #F5FAF7",
"=.	c #119035",
"-.	c #008827",
";.	c #068A2C",
">.	c #8ECA9F",
",.	c #C9E6D1",
"'.	c #CAE6D2",
").	c #8FCBA0",
"!.	c #6CBB83",
"~.	c #CEE9D6",
"{.	c #D0E9D7",
"].	c #6DBB84",
"^.	c #79C08D",
"/.	c #018828",
"(.	c #03892A",
"_.	c #CCE7D4",
":.	c #CFE9D7",
"<.	c #73BD89",
"[.	c #77C08C",
"}.	c #91CCA2",
"|.	c #94CDA4",
"1.	c #259946",
"2.	c #269A47",
"3.	c #319F51",
"4.	c #F3F9F5",
"5.	c #F4FAF6",
"6.	c #33A052",
"7.	c #109035",
"8.	c #028929",
"9.	c #008624",
"0.	c #8AC89C",
"a.	c #D4EBDB",
"b.	c #D6ECDC",
"c.	c #8BC99D",
"d.	c #3BA45A",
"e.	c #1D9640",
"f.	c #DCEFE1",
"g.	c #6DBB83",
"h.	c #129137",
"i.	c #35A054",
"j.	c #64B77C",
"k.	c #84C595",
"l.	c #A6D5B3",
"m.	c #D9EDDF",
"n.	c #EBF5EE",
"o.	c #EBF6EE",
"p.	c #C4E3CD",
"q.	c #A6D5B4",
"r.	c #85C595",
"s.	c #65B77D",
"t.	c #36A155",
"u.	c #018929",
"v.	c #6CBB82",
"w.	c #E0F1E5",
"x.	c #DEF0E4",
"y.	c #1E9741",
"z.	c #17933A",
"A.	c #DFF0E4",
"B.	c #92CCA3",
"C.	c #61B578",
"D.	c #2C9D4C",
"E.	c #008623",
"F.	c #038929",
"G.	c #008826",
"H.	c #2B9D4C",
"I.	c #91CCA3",
"J.	c #DEEFE3",
"K.	c #19943D",
"L.	c #FEFFFF",
"M.	c #F2F9F4",
"N.	c #CBE7D3",
"O.	c #B1DABD",
"P.	c #9AD0A9",
"Q.	c #86C799",
"R.	c #7EC392",
"S.	c #7FC392",
"T.	c #F1F9F4",
"U.	c #7FC393",
"V.	c #82C595",
"W.	c #088B2E",
"X.	c #098C2F",
"Y.	c #99CFA8",
"Z.	c #9BD0AA",
"`.	c #0D8E33",
" +	c #16923A",
".+	c #8DC99E",
"++	c #17933B",
"@+	c #2C9C4C",
"#+	c #229844",
"$+	c #2D9D4D",
"%+	c #B1DBBE",
"&+	c #EFF8F2",
"*+	c #F0F8F2",
"=+	c #B2DBBE",
"-+	c #74BE89",
";+	c #2E9E4E",
">+	c #0A8C2F",
",+	c #69B980",
"'+	c #CEE8D6",
")+	c #72BD88",
"!+	c #259947",
"~+	c #4DAC69",
"{+	c #67B87E",
"]+	c #7DC18F",
"^+	c #85C698",
"/+	c #8CC99E",
"(+	c #90CCA1",
"_+	c #91CBA2",
":+	c #86C698",
"<+	c #7EC28F",
"[+	c #68B87F",
"}+	c #4EAC69",
"|+	c #018826",
"1+	c #249946",
"2+	c #71BC86",
"3+	c #CDE8D5",
"4+	c #6EBB84",
"5+	c #4AAA65",
"6+	c #BADFC5",
"7+	c #85C596",
"8+	c #5DB477",
"9+	c #38A256",
"0+	c #159239",
"a+	c #008828",
"b+	c #018829",
"c+	c #149239",
"d+	c #37A156",
"e+	c #5DB476",
"f+	c #BADFC4",
"g+	c #96CEA6",
"h+	c #E7F3EA",
"i+	c #E0F1E4",
"j+	c #E6F4EA",
"k+	c #97CFA7",
"l+	c #52AE6C",
"m+	c #56B06F",
"n+	c #078B2D",
"o+	c #7DC291",
"p+	c #2F9E4F",
"q+	c #87C79A",
"r+	c #E1F1E5",
"s+	c #89C89B",
"t+	c #0B8D31",
"u+	c #51AE6D",
"v+	c #85C495",
"w+	c #B0DABC",
"x+	c #B1DBBD",
"y+	c #52AF6D",
"z+	c #00841F",
"A+	c #249846",
"B+	c #34A053",
"C+	c #00831F",
"D+	c #0F8F35",
"              . . . . . . . . . . . . . . . . . . . . . . . . . . . . . . . . . . . . . . . . . . . . . . . . . .               ",
"          . . . . . . . . . . . . . . . . . . . . . . . . . . . . . . . . . . . . . . . . . . . . . . . . . . . . . .           ",
"        . . . . . . . . . . . . . . . . . . . . . . . . . . . . . . . . . . . . . . . . . . . . . . . . . . . . . . . .         ",
"      . . . . . . . . . . . . . . . . . . . . . . . . . . . . . . . . . . . . . . . . . . . . . . . . . . . . . . . . . .       ",
"    . . . . . . . . . . . . . . . . . . . . . . . . . . . . . . . . . . . . . . . . . . . . . . . . . . . . . . . . . . . .     ",
"  . . . . . . . . . . . . . . . . . . . . . . . . . . . . . . . . . . . . . . . . . . . . . . . . . . . . . . . . . . . . . .   ",
"  . . . . . . . . . . . . . . . . . . . . . . . . . . . . . . . . . . . . . . . . . . . . . . . . . . . . . . . . . . . . . .   ",
". . . . . . . . . . . . . . . . . . . . . . . . . . . . . . . . . . . . . . . . . . . . . . . . . . . . . . . . . . . . . . . . ",
"+ @ @ @ @ @ @ @ @ @ @ @ @ @ @ @ @ @ @ # $ . . . . . . . . . . . . . . . . . . . . . . % & * * * * * * * * * * * * * * * * * * = ",
"- ; ; ; ; ; ; ; ; ; ; ; ; ; ; ; ; ; ; > , . . . . . . . . . . . . . . . . . . . . . . , ' ) ) ) ) ) ) ) ) ) ) ) ) ) ) ) ) ) ) ) ",
"! ~ ~ ~ ~ ~ ~ ~ ~ ~ ~ ~ ~ ~ ~ ~ ~ ~ ~ ~ { $ . . . . . . . . . . . . . . . . . . . . $ ] ~ ~ ~ ~ ~ ~ ~ ~ ~ ~ ~ ~ ~ ~ ~ ~ ~ ~ ~ ! ",
"~ ~ ~ ~ ~ ~ ~ ~ ~ ~ ~ ~ ~ ~ ~ ~ ~ ~ ~ ~ ^ / . . . . . . . . . . . . . . . . . . . . ( _ ~ ~ ~ ~ ~ ~ ~ ~ ~ ~ ~ ~ ~ ~ ~ ~ ~ ~ ~ ~ ",
"~ ~ ~ ~ ~ ~ ~ ~ ~ ~ ~ ~ ~ ~ ~ ~ ~ ~ ~ ~ ~ : % . . . . . . . . . . . . . . . . . . $ < ~ ~ ~ ~ ~ ~ ~ ~ ~ ~ ~ ~ ~ ~ ~ ~ ~ ~ ~ ~ ~ ",
"~ ~ ~ ~ ~ ~ ~ ~ ~ ~ ~ ~ ~ ~ ~ ~ ~ ~ ~ ~ ~ [ } . . . . . . . . . . . . . . . . . . } | ~ ~ ~ ~ ~ ~ ~ ~ ~ ~ ~ ~ ~ ~ ~ ~ ~ ~ ~ ~ ~ ",
"~ ~ ~ ~ ~ ~ ~ ~ ~ ~ ~ ~ ~ ~ ~ ~ ~ ~ ~ ~ ~ ~ 1 . . . . . . . . . . . . . . . . . . 2 ~ ~ ~ ~ ~ ~ ~ ~ ~ ~ ~ ~ ~ ~ ~ ~ ~ ~ ~ ~ ~ ~ ",
"~ ~ ~ ~ ~ ~ ~ ~ ~ ~ ~ ~ ~ ~ ~ ~ ~ ~ ~ ~ ~ ~ 3 4 . . . . . . . . . . . . . . . . 5 6 ~ ~ ~ ~ ~ ~ ~ ~ ~ ~ ~ ~ ~ ~ ~ ~ ~ ~ ~ ~ ~ ~ ",
"~ ~ ~ ~ ~ ~ ~ ~ ~ ~ ~ ~ ~ ~ ~ ~ ~ ~ ~ ~ ~ ~ ~ 7 . . . . . . . . . . . . . . . . 8 ~ ~ ~ ~ ~ ~ ~ ~ ~ ~ ~ ~ ~ ~ ~ ~ ~ ~ ~ ~ ~ ~ ~ ",
"~ ~ ~ ~ ~ ~ ~ ~ ~ ~ ~ ~ ~ ~ ~ ~ ~ ~ ~ ~ ~ ~ ~ 9 0 . . . . . . . . . . . . . . . a ~ ~ ~ ~ ~ ~ ~ ~ ~ ~ ~ ~ ~ ~ ~ ~ ~ ~ ~ ~ ~ ~ ~ ",
"b b b b b b b b b b b b b c ~ ~ ~ ~ ~ ~ ~ ~ ~ ~ d . . . . . . . . . . . . . . # ~ ~ ~ ~ ~ ~ ~ ~ ~ ~ e f f f f f f f f f f f f f ",
"g g g g g g g g g g g g g h ~ ~ ~ ~ ~ ~ ~ ~ ~ ~ i . . . . . . . . . . . . . . j ~ ~ ~ ~ ~ ~ ~ ~ ~ ~ 0 } } } } } } } } } } } } } ",
". . . . . . . . . . . . . 4 k ~ ~ ~ ~ ~ ~ ~ ~ ~ l ( . . . . . . . . . . . . / m ~ ~ ~ ~ ~ ~ ~ ~ ~ n o . . . . . . . . . . . . . ",
". . . . . . . . . . . . . . p ~ ~ ~ ~ ~ ~ ~ ~ ~ ~ q $ . . . . . . . . . . $ r ~ ~ ~ ~ ~ ~ ~ ~ ~ ~ s . . . . . . . . . . . . . . ",
". . . . . . . . . . . . . . t u ~ ~ ~ ~ ~ ~ ~ ~ ~ ^ / . . . . . . . . . . , _ ~ ~ ~ ~ ~ ~ ~ ~ ~ v w . . . . . . . . . . . . . . ",
". . . . . . . . . . . . . . % x ~ ~ ~ ~ ~ ~ ~ ~ ~ ~ y $ . . . . . . . . % z ~ ~ ~ ~ ~ ~ ~ ~ ~ ~ : $ . . . . . . . . . . . . . . ",
". . . . . . . . . . . . . . . , A ~ ~ ~ ~ ~ ~ ~ ~ ~ v w . . . . . . . . } | ~ ~ ~ ~ ~ ~ ~ ~ ~ e ( . . . . . . . . . . . . . . . ",
". . . . . . . . . . . . . . . $ B ~ ~ ~ ~ ~ ~ ~ ~ ~ ~ s . . . . . . . . p ~ ~ ~ ~ ~ ~ ~ ~ ~ ~ C $ . . . . . . . . . . . . . . . ",
". . . . . . . . . . . . . . . . / m ~ ~ ~ ~ ~ ~ ~ ~ ~ D E . . . . . . F G ~ ~ ~ ~ ~ ~ ~ ~ ~ l ( . . . . . . . . . . . . . . . . ",
". . . . . . . . . . . . . . . . . H ~ ~ ~ ~ I J K L M N 0 $ $ $ $ $ $ h O P Q R S T ~ ~ ~ ~ i . . . . . . . . . . . . . . . . . ",
". . . . . . . . . . . . . . . . . # U V y W # d X } Y < Z ` j  . .j ..+.@.#.t $.d %., &.9 *.d . . . . . . . . . . . . . . . . . ",
". . . . . . . . . . . . . . . . . =.-.;.E +.>.,.~ ~ ~ ~ ~ ~ ~ ~ ~ ~ ~ ~ ~ ~ ~ ~ '.).+.F d -.=.. . . . . . . . . . . . . . . . . ",
". . . . . . . . . . . . . . . . . # !.~.~ ~ ~ ~ ~ ~ ~ ~ ~ ~ ~ ~ ~ ~ ~ ~ ~ ~ ~ ~ ~ ~ ~ ~ {.].w . . . . . . . . . . . . . . . . . ",
". . . . . . . . . . . . . . . W i ~ ~ ~ ~ ~ ~ ~ ~ ~ ~ ~ ~ ~ ~ ~ ~ ~ ~ ~ ~ ~ ~ ~ ~ ~ ~ ~ ~ ~ ~ ^./.. . . . . . . . . . . . . . . ",
". . . . . . . . . . . . . . (._.~ ~ ~ ~ ~ ~ ~ ~ ~ ~ ~ ~ ~ ~ ~ ~ ~ ~ ~ ~ ~ ~ ~ ~ ~ ~ ~ ~ ~ ~ ~ ~ :.(.. . . . . . . . . . . . . . ",
". . . . . . . . . . . . . . <.~ ~ ~ ~ ~ ~ ~ ~ ~ ~ ~ ~ ~ ~ ~ ~ ~ ~ ~ ~ ~ ~ ~ ~ ~ ~ ~ ~ ~ ~ ~ ~ ~ ~ [.. . . . . . . . . . . . . . ",
". . . . . . . . . . . . . 0 }.~ ~ ~ ~ ~ ~ ~ ~ ~ ~ ~ ~ ~ ~ ~ ~ ~ ~ ~ ~ ~ ~ ~ ~ ~ ~ ~ ~ ~ ~ ~ ~ ~ ~ |.h . . . . . . . . . . . . . ",
". . . . . . . . . . . . . . 1.~ ~ ~ ~ ~ ~ ~ ~ ~ ~ ~ ~ ~ ~ ~ ~ ~ ~ ~ ~ ~ ~ ~ ~ ~ ~ ~ ~ ~ ~ ~ ~ ~ ~ 2.. . . . . . . . . . . . . . ",
". . . . . . . . . . . . . . $ 3.4.~ ~ ~ ~ ~ ~ ~ ~ ~ ~ ~ ~ ~ ~ ~ ~ ~ ~ ~ ~ ~ ~ ~ ~ ~ ~ ~ ~ ~ ~ 5.6.7.. . . . . . . . . . . . . . ",
". . . . . . . . . . . . . . . $ 8.j 5.~ ~ ~ ~ ~ ~ ~ ~ ~ ~ ~ ~ ~ ~ ~ ~ ~ ~ ~ ~ ~ ~ ~ ~ ~ ~ *.H 8.$ . . . . . . . . . . . . . . . ",
". . . . . . . . . . . . . . . . w /.9.M 0.a.~ ~ ~ ~ ~ ~ ~ ~ ~ ~ ~ ~ ~ ~ ~ ~ ~ ~ ~ ~ b.c.d.9./.(.. . . . . . . . . . . . . . . . ",
". . . . . . . . . . . . . . =.e.f.> g.h.= w / i.j.k.l.[ m.n.l ~ ~ l o.m.p.q.r.s.t./ w u.8 v.w.x.y.=.. . . . . . . . . . . . . . ",
". . . . . . . . . . . . . . z.~ ~ ~ ~ ~ A.B.C.D.X , d w (.-.E.X X E.-.F.w d G.X H.B I.J.~ ~ ~ ~ ~ K.. . . . . . . . . . . . . . ",
". . . . . . . . . . . . . . ).L.~ ~ ~ ~ ~ ~ ~ ~ ~ M.N.O.P.Q.R.S.S.R.Q.P.O.'.T.~ ~ ~ ~ ~ ~ ~ ~ ~ ~ }.0 . . . . . . . . . . . . . ",
". . . . . . . . . . . . . . U.~ ~ ~ ~ ~ ~ ~ ~ ~ ~ ~ ~ ~ ~ ~ ~ ~ ~ ~ ~ ~ ~ ~ ~ ~ ~ ~ ~ ~ ~ ~ ~ ~ ~ V.. . . . . . . . . . . . . . ",
". . . . . . . . . . . . . . W._ ~ ~ ~ ~ ~ ~ ~ ~ ~ ~ ~ ~ ~ ~ ~ ~ ~ ~ ~ ~ ~ ~ ~ ~ ~ ~ ~ ~ ~ ~ ~ ~ A X.. . . . . . . . . . . . . . ",
". . . . . . . . . . . . . . . } Y.~ ~ ~ ~ ~ ~ ~ ~ ~ ~ ~ ~ ~ ~ ~ ~ ~ ~ ~ ~ ~ ~ ~ ~ ~ ~ ~ ~ ~ ~ Z.t . . . . . . . . . . . . . . . ",
". . . . . . . . . . . . . . . . `. +.+m ~ ~ ~ ~ ~ ~ ~ ~ ~ ~ ~ ~ ~ ~ ~ ~ ~ ~ ~ ~ ~ ~ ~ ~ l >.++h . . . . . . . . . . . . . . . . ",
". . . . . . . . . . . . . . . 0 @+#+d 9.$+j %+&+~ ~ ~ ~ ~ ~ ~ ~ ~ ~ ~ ~ ~ ~ ~ ~ *+=+-+;+9.d O ;+h . . . . . . . . . . . . . . . ",
". . . . . . . . . . . . . . >+,+~ ~ '+)+!+X & + W D.~+{+]+^+/+(+_+/+:+<+[+}+$+|++ & X 1+2+3+~ ~ 4+g . . . . . . . . . . . . . . ",
". . . . . . . . . . . . . $ 5+~ ~ ~ ~ ~ ~ ~ 6+7+8+9+0+X E.( a+b+u.-.( 9.$.c+d+e+r.f+L.~ ~ ~ ~ ~ ~ ~+% . . . . . . . . . . . . . ",
". . . . . . . . . . . . . `.g+~ ~ ~ ~ ~ ~ ~ ~ ~ ~ ~ ~ ~ ~ 5.h+i+c j+5.~ ~ ~ ~ ~ ~ ~ ~ ~ ~ ~ ~ ~ ~ k+`.. . . . . . . . . . . . . ",
". . . . . . . . . . . . . $ l+~ ~ ~ ~ ~ ~ ~ ~ ~ ~ ~ ~ ~ ~ ~ ~ ~ ~ ~ ~ ~ ~ ~ ~ ~ ~ ~ ~ ~ ~ ~ ~ ~ ~ m+% . . . . . . . . . . . . . ",
". . . . . . . . . . . . . . n+^.~ ~ ~ ~ ~ ~ ~ ~ ~ ~ ~ ~ ~ ~ ~ ~ ~ ~ ~ ~ ~ ~ ~ ~ ~ ~ ~ ~ ~ ~ ~ ~ o+} . . . . . . . . . . . . . . ",
". . . . . . . . . . . . . . . 4 p+b ~ ~ ~ ~ ~ ~ ~ ~ ~ ~ ~ ~ ~ ~ ~ ~ ~ ~ ~ ~ ~ ~ ~ ~ ~ ~ ~ ~ N.3.4 . . . . . . . . . . . . . . . ",
". . . . . . . . . . . . . . . . % w 1.q+A.~ ~ ~ ~ ~ ~ ~ ~ ~ ~ ~ ~ ~ ~ ~ ~ ~ ~ ~ ~ ~ ~ r+s+2.w $ . . . . . . . . . . . . . . . . ",
". . . . . . . . . . . . . . . . . . . . (.t+u+v+w+' ~ ~ ~ ~ ~ ~ ~ ~ ~ ~ ~ ~ ' x+7+y+5 8.. . . . . . . . . . . . . . . . . . . . ",
". . . . . . . . . . . . . . . . . . . . . . . $ F w z+, 8 A+p+B+B+p+1.8 , C+w F D+. . . . . . . . . . . . . . . . . . . . . . . ",
". . . . . . . . . . . . . . . . . . . . . . . . . . . . . . . . . . . . . . . . . . . . . . . . . . . . . . . . . . . . . . . . ",
"  . . . . . . . . . . . . . . . . . . . . . . . . . . . . . . . . . . . . . . . . . . . . . . . . . . . . . . . . . . . . . .   ",
"  . . . . . . . . . . . . . . . . . . . . . . . . . . . . . . . . . . . . . . . . . . . . . . . . . . . . . . . . . . . . . .   ",
"    . . . . . . . . . . . . . . . . . . . . . . . . . . . . . . . . . . . . . . . . . . . . . . . . . . . . . . . . . . . .     ",
"      . . . . . . . . . . . . . . . . . . . . . . . . . . . . . . . . . . . . . . . . . . . . . . . . . . . . . . . . . .       ",
"        . . . . . . . . . . . . . . . . . . . . . . . . . . . . . . . . . . . . . . . . . . . . . . . . . . . . . . . .         ",
"          . . . . . . . . . . . . . . . . . . . . . . . . . . . . . . . . . . . . . . . . . . . . . . . . . . . . . .           ",
"              . . . . . . . . . . . . . . . . . . . . . . . . . . . . . . . . . . . . . . . . . . . . . . . . . .               "};
