/* XPM */
static char *rivendell[]={
"48 48 26 1",
"d c None",
". c None",
"i c #808000",
"s c #a0a060",
"r c #afaf30",
"c c #bfbf00",
"u c #bfbf60",
"f c #c0c0c0",
"n c #c3c3c3",
"v c #d4d400",
"l c #d4d480",
"p c #d4d4d4",
"g c #dfdf00",
"a c #dfdf60",
"o c #dfdfdf",
"m c #e9e940",
"q c #efef30",
"# c #ff0000",
"x c #ff0101",
"t c #ff5500",
"e c #ff7f00",
"b c #ffff00",
"h c #ffff01",
"w c #ffff7f",
"k c #ffffaa",
"j c #ffffff",
"................................................",
"................................................",
"................................................",
".......##.............ab........................",
".......##.............cb........................",
".......##.............bb........................",
".......##.............bb........................",
".......##.............bb........................",
".......##.............bb........................",
"......####d..........bbbbd......................",
"......###ee.....fd...bgcbd..df......bh..........",
"......##.bbb....ff...bcibd..ff.....bbb.....d....",
"......jj.jbbb...ff...bcibd..ff....bbb...........",
"......jj.jkbbbb.dffd.bcibb.dfd.dbbbb............",
"......jj.jjbbbb...ff.bcibb.ff..bbbb.............",
"......jjjjj.bbbbb.ff.bcibb.ff.bbbbb.............",
"......jjjjj.dbbbbbalfbcibmfambbbbbd.............",
"......jjjjj..dbbbbbafbcibafbbbbbb...............",
"......jj.fff...bbbbafbcibafbbbbb..dffn..........",
"......jj.opffffbbbbqaariaaabbbbmfffffd..........",
"......jj.jj.fffbbbbbbfsifabbbbbaffd.............",
"....d###.##ddddfffbbbfsifabbafff................",
"....###tdeeeddbaaaaaassssuaaaaambbddddd.........",
"....###ebbbbbbbbbbfffisiisffabbbbbbbbbb.........",
".bbbbbbciiiiiiiiiiiiiiffisiiiiiiiiiiiiibbbbca...",
".acbbbbvccccccccccssssffssssrccccccccccbbbbbb...",
"....##.bbbbbbbbbbbfffissisffabbbbbbbbbb.........",
"....####.###...fffbbbfsifabbafff................",
"....####.###fffaaabbbfsifabbqaalffd.............",
"....####.###fffdbbbbbfsifabbbbbafff.............",
"...jjj...fffjddbbbbafbcibafbbbbb..fffd..........",
"...jjjjj.opfjdbbbbbafbcibafbbbbbb.dfff..........",
"...jj.jj.jj.jwbbbbbafbcibafbbbbbb...............",
"...jj..jj...bbbbbdff.bcibb.ff.bbbbd.............",
"...jj..jj...bbbbbdff.bcibb.ff.dbbbb.............",
"...jj..jj..bbbb...fd.bcibb.df..dbbb.............",
"...jj.jd.jwbbj..df...bcibb..fd....bb............",
"...jjjjd.dwwjj..ff...bcibd..ff....hbbd..........",
"...jjj...bwjjj..fd...bcibd..df......bb..........",
".d###.......##d......bcibd......................",
".d#####x.#####d......bvcbd......................",
".##.####.###.##.......bb........................",
".##....##....##.......bb........................",
"###....##....d##d.....bb........................",
"##.....##......##.....bb........................",
"##..####.###...##.....bc........................",
"#######x.########.....ha........................",
"#####.......#####..............................."};
