/* XPM */
static char *rivendell[]={
"64 64 7 1",
". c None",
"e c #008080",
"c c #808000",
"b c #c0c0c0",
"# c #ff0000",
"a c #ffff00",
"d c #ffffff",
"................................................................",
"................................................................",
"................................................................",
"................................................................",
"..........##..................aa................................",
"..........##..................aa................................",
"..........##..................aa................................",
"..........##..................aa................................",
"..........##..................aa................................",
"..........##..................aa................................",
"..........##..................aa................................",
"..........##..................aa................................",
"........######..............aaaaaa..............................",
"........######..............aaaaaa..............................",
"........##..aa........bb....aaccaa....bb........aa..............",
"........##..aa........bb....aaccaa....bb........aa..............",
"........dd..ddaa......bb....aaccaa....bb......aa................",
"........dd..ddaa......bb....aaccaa....bb......aa................",
"........dd..dd..aaaa....bb..aaccaa..bb....aaaa..................",
"........dd..dd..aaaa....bb..aaccaa..bb....aaaa..................",
"........dddddd..aaaaaa..bb..aaccaa..bb..aaaaaa..................",
"........dddddd..aaaaaa..bb..aaccaa..bb..aaaaaa..................",
"........dddddd....aaaaaaaabbaaccaabbaaaaaaaa....................",
"........dddddd....aaaaaaaabbaaccaabbaaaaaaaa....................",
"........dd..bbbb....aaaaaabbaaccaabbaaaaaa....bbbb..............",
"........dd..bbbb....aaaaaabbaaccaabbaaaaaa....bbbb..............",
"........dd..dd..bbbbaaaaaaaabbccbbaaaaaaaabbbb..................",
"........dd..dd..bbbbaaaaaaaabbccbbaaaaaaaabbbb..................",
"......####..####..eebbbbaaaabbccbbaaaabbbb......................",
"......####..####..eebbbbaaaabbccbbaaaabbbb......................",
"......####aaaaaaaaaaaaaabbbbccbbccbbbbaaaaaaaaaaaaaa............",
"......####aaaaaaaaaaaaaabbbbccbbccbbbbaaaaaaaaaaaaaa............",
"..aaaaaaaaccccccccccccccccccbbbbbbccccccccccccccccccaaaaaaaa....",
"..aaaaaaaaccccccccccccccccccbbbbbbccccccccccccccccccaaaaaaaa....",
"......##..aaaaaaaaaaaaaabbbbccbbccbbbbaaaaaaaaaaaaaa............",
"......##..aaaaaaaaaaaaaabbbbccbbccbbbbaaaaaaaaaaaaaa............",
"......####..####....bbbbaaaabbccbbaaaabbbb......................",
"......####..####....bbbbaaaabbccbbaaaabbbb......................",
"......####..####bbbbaaaaaaaabbccbbaaaaaaaabbbb..................",
"......####..####bbbbaaaaaaaabbccbbaaaaaaaabbbb..................",
"....dddd....bbbbddaaaaaaaabbaaccaabbaaaaaa....bbbb..............",
"....dddd....bbbbddaaaaaaaabbaaccaabbaaaaaa....bbbb..............",
"....dd..dd..dd..ddaaaaaaaabbaaccaabbaaaaaaaa....................",
"....dd..dd..dd..ddaaaaaaaabbaaccaabbaaaaaaaa....................",
"....dd....dd....aaaaaaaabb..aaccaa..bb..aaaaaa..................",
"....dd....dd....aaaaaaaabb..aaccaa..bb..aaaaaa..................",
"....dd....dd....aaaa....bb..aaccaa..bb....aaaa..................",
"....dd....dd....aaaa....bb..aaccaa..bb....aaaa..................",
"....dd..dd..ddaadd....bb....aaccaa....bb......aa................",
"....dd..dd..ddaadd....bb....aaccaa....bb......aa................",
"....dddd....aadddd....bb....aaccaa....bb........aa..............",
"....dddd....aadddd....bb....aaccaa....bb........aa..............",
"..####..........####........aaccaa..............................",
"..####..........####........aaccaa..............................",
"..##..####..####..##..........aa................................",
"..##..####..####..##..........aa................................",
"..##......##......##..........aa................................",
"..##......##......##..........aa................................",
"##........##........##........aa................................",
"##........##........##........aa................................",
"##....####..####....##........aa................................",
"##....####..####....##........aa................................",
"######..........######..........................................",
"######..........######.........................................."};
