/* XPM */
static char *rivendell[]={
"16 16 34 1",
". c None",
"d c #c0c0c0",
"F c #ff0101",
"f c #ffff01",
"D c #ffffff",
"j c #c0c0c0",
"# c #ff0000",
"c c #ff7f00",
"a c #ffff00",
"g c #ffffff",
"v c #aad42b",
"z c #d4d400",
"m c #d4d480",
"p c #d4d4d4",
"n c #e9e940",
"b c #ff0000",
"t c #ff5500",
"y c #ffaa00",
"l c #ffff00",
"h c #ffffaa",
"C c #ffffff",
"w c #a0a060",
"r c #afaf30",
"A c #b0b090",
"i c #bfbf00",
"x c #bfbf60",
"e c #dfdf00",
"s c #dfdf60",
"q c #efef30",
"B c #ff0000",
"u c #ff7f00",
"o c #ffff00",
"E c #ffff7f",
"k c #ffffff",
"................",
"..#....a........",
"..#....a........",
"..bc.d.ead..f...",
"..ghaddiajfa....",
"..kgllminnof....",
"..gpjoqrsonjd...",
".#tuvsswxsnaa...",
"fyziiiwAwriiiaa.",
".##Bjsowsqmd....",
".CDpEosisoldd...",
".gg.oajiajla....",
".CDEgj.iaj.ff...",
"##F#b..zf.......",
"#.#.FF.a........",
"b#F###.f........"};
