/* XPM */
static const char *rivendell_128x128_xpm[]={
"128 128 7 1",
". c None",
"e c #008080",
"c c #808000",
"b c #c0c0c0",
"# c #ff0000",
"a c #ffff00",
"d c #ffffff",
"................................................................................................................................",
"................................................................................................................................",
"................................................................................................................................",
"................................................................................................................................",
"................................................................................................................................",
"................................................................................................................................",
"................................................................................................................................",
"................................................................................................................................",
"....................####....................................aaaa................................................................",
"....................####....................................aaaa................................................................",
"....................####....................................aaaa................................................................",
"....................####....................................aaaa................................................................",
"....................####....................................aaaa................................................................",
"....................####....................................aaaa................................................................",
"....................####....................................aaaa................................................................",
"....................####....................................aaaa................................................................",
"....................####....................................aaaa................................................................",
"....................####....................................aaaa................................................................",
"....................####....................................aaaa................................................................",
"....................####....................................aaaa................................................................",
"....................####....................................aaaa................................................................",
"....................####....................................aaaa................................................................",
"....................####....................................aaaa................................................................",
"....................####....................................aaaa................................................................",
"................############............................aaaaaaaaaaaa............................................................",
"................############............................aaaaaaaaaaaa............................................................",
"................############............................aaaaaaaaaaaa............................................................",
"................############............................aaaaaaaaaaaa............................................................",
"................####....aaaa................bbbb........aaaaccccaaaa........bbbb................aaaa............................",
"................####....aaaa................bbbb........aaaaccccaaaa........bbbb................aaaa............................",
"................####....aaaa................bbbb........aaaaccccaaaa........bbbb................aaaa............................",
"................####....aaaa................bbbb........aaaaccccaaaa........bbbb................aaaa............................",
"................dddd....ddddaaaa............bbbb........aaaaccccaaaa........bbbb............aaaa................................",
"................dddd....ddddaaaa............bbbb........aaaaccccaaaa........bbbb............aaaa................................",
"................dddd....ddddaaaa............bbbb........aaaaccccaaaa........bbbb............aaaa................................",
"................dddd....ddddaaaa............bbbb........aaaaccccaaaa........bbbb............aaaa................................",
"................dddd....dddd....aaaaaaaa........bbbb....aaaaccccaaaa....bbbb........aaaaaaaa....................................",
"................dddd....dddd....aaaaaaaa........bbbb....aaaaccccaaaa....bbbb........aaaaaaaa....................................",
"................dddd....dddd....aaaaaaaa........bbbb....aaaaccccaaaa....bbbb........aaaaaaaa....................................",
"................dddd....dddd....aaaaaaaa........bbbb....aaaaccccaaaa....bbbb........aaaaaaaa....................................",
"................dddddddddddd....aaaaaaaaaaaa....bbbb....aaaaccccaaaa....bbbb....aaaaaaaaaaaa....................................",
"................dddddddddddd....aaaaaaaaaaaa....bbbb....aaaaccccaaaa....bbbb....aaaaaaaaaaaa....................................",
"................dddddddddddd....aaaaaaaaaaaa....bbbb....aaaaccccaaaa....bbbb....aaaaaaaaaaaa....................................",
"................dddddddddddd....aaaaaaaaaaaa....bbbb....aaaaccccaaaa....bbbb....aaaaaaaaaaaa....................................",
"................dddddddddddd........aaaaaaaaaaaaaaaabbbbaaaaccccaaaabbbbaaaaaaaaaaaaaaaa........................................",
"................dddddddddddd........aaaaaaaaaaaaaaaabbbbaaaaccccaaaabbbbaaaaaaaaaaaaaaaa........................................",
"................dddddddddddd........aaaaaaaaaaaaaaaabbbbaaaaccccaaaabbbbaaaaaaaaaaaaaaaa........................................",
"................dddddddddddd........aaaaaaaaaaaaaaaabbbbaaaaccccaaaabbbbaaaaaaaaaaaaaaaa........................................",
"................dddd....bbbbbbbb........aaaaaaaaaaaabbbbaaaaccccaaaabbbbaaaaaaaaaaaa........bbbbbbbb............................",
"................dddd....bbbbbbbb........aaaaaaaaaaaabbbbaaaaccccaaaabbbbaaaaaaaaaaaa........bbbbbbbb............................",
"................dddd....bbbbbbbb........aaaaaaaaaaaabbbbaaaaccccaaaabbbbaaaaaaaaaaaa........bbbbbbbb............................",
"................dddd....bbbbbbbb........aaaaaaaaaaaabbbbaaaaccccaaaabbbbaaaaaaaaaaaa........bbbbbbbb............................",
"................dddd....dddd....bbbbbbbbaaaaaaaaaaaaaaaabbbbccccbbbbaaaaaaaaaaaaaaaabbbbbbbb....................................",
"................dddd....dddd....bbbbbbbbaaaaaaaaaaaaaaaabbbbccccbbbbaaaaaaaaaaaaaaaabbbbbbbb....................................",
"................dddd....dddd....bbbbbbbbaaaaaaaaaaaaaaaabbbbccccbbbbaaaaaaaaaaaaaaaabbbbbbbb....................................",
"................dddd....dddd....bbbbbbbbaaaaaaaaaaaaaaaabbbbccccbbbbaaaaaaaaaaaaaaaabbbbbbbb....................................",
"............########....########....eeeebbbbbbbbaaaaaaaabbbbccccbbbbaaaaaaaabbbbbbbb............................................",
"............########....########....eeeebbbbbbbbaaaaaaaabbbbccccbbbbaaaaaaaabbbbbbbb............................................",
"............########....########....eeeebbbbbbbbaaaaaaaabbbbccccbbbbaaaaaaaabbbbbbbb............................................",
"............########....########....eeeebbbbbbbbaaaaaaaabbbbccccbbbbaaaaaaaabbbbbbbb............................................",
"............########aaaaaaaaaaaaaaaaaaaaaaaaaaaabbbbbbbbccccbbbbccccbbbbbbbbaaaaaaaaaaaaaaaaaaaaaaaaaaaa........................",
"............########aaaaaaaaaaaaaaaaaaaaaaaaaaaabbbbbbbbccccbbbbccccbbbbbbbbaaaaaaaaaaaaaaaaaaaaaaaaaaaa........................",
"............########aaaaaaaaaaaaaaaaaaaaaaaaaaaabbbbbbbbccccbbbbccccbbbbbbbbaaaaaaaaaaaaaaaaaaaaaaaaaaaa........................",
"............########aaaaaaaaaaaaaaaaaaaaaaaaaaaabbbbbbbbccccbbbbccccbbbbbbbbaaaaaaaaaaaaaaaaaaaaaaaaaaaa........................",
"....aaaaaaaaaaaaaaaaccccccccccccccccccccccccccccccccccccbbbbbbbbbbbbccccccccccccccccccccccccccccccccccccaaaaaaaaaaaaaaaa........",
"....aaaaaaaaaaaaaaaaccccccccccccccccccccccccccccccccccccbbbbbbbbbbbbccccccccccccccccccccccccccccccccccccaaaaaaaaaaaaaaaa........",
"....aaaaaaaaaaaaaaaaccccccccccccccccccccccccccccccccccccbbbbbbbbbbbbccccccccccccccccccccccccccccccccccccaaaaaaaaaaaaaaaa........",
"....aaaaaaaaaaaaaaaaccccccccccccccccccccccccccccccccccccbbbbbbbbbbbbccccccccccccccccccccccccccccccccccccaaaaaaaaaaaaaaaa........",
"............####....aaaaaaaaaaaaaaaaaaaaaaaaaaaabbbbbbbbccccbbbbccccbbbbbbbbaaaaaaaaaaaaaaaaaaaaaaaaaaaa........................",
"............####....aaaaaaaaaaaaaaaaaaaaaaaaaaaabbbbbbbbccccbbbbccccbbbbbbbbaaaaaaaaaaaaaaaaaaaaaaaaaaaa........................",
"............####....aaaaaaaaaaaaaaaaaaaaaaaaaaaabbbbbbbbccccbbbbccccbbbbbbbbaaaaaaaaaaaaaaaaaaaaaaaaaaaa........................",
"............####....aaaaaaaaaaaaaaaaaaaaaaaaaaaabbbbbbbbccccbbbbccccbbbbbbbbaaaaaaaaaaaaaaaaaaaaaaaaaaaa........................",
"............########....########........bbbbbbbbaaaaaaaabbbbccccbbbbaaaaaaaabbbbbbbb............................................",
"............########....########........bbbbbbbbaaaaaaaabbbbccccbbbbaaaaaaaabbbbbbbb............................................",
"............########....########........bbbbbbbbaaaaaaaabbbbccccbbbbaaaaaaaabbbbbbbb............................................",
"............########....########........bbbbbbbbaaaaaaaabbbbccccbbbbaaaaaaaabbbbbbbb............................................",
"............########....########bbbbbbbbaaaaaaaaaaaaaaaabbbbccccbbbbaaaaaaaaaaaaaaaabbbbbbbb....................................",
"............########....########bbbbbbbbaaaaaaaaaaaaaaaabbbbccccbbbbaaaaaaaaaaaaaaaabbbbbbbb....................................",
"............########....########bbbbbbbbaaaaaaaaaaaaaaaabbbbccccbbbbaaaaaaaaaaaaaaaabbbbbbbb....................................",
"............########....########bbbbbbbbaaaaaaaaaaaaaaaabbbbccccbbbbaaaaaaaaaaaaaaaabbbbbbbb....................................",
"........dddddddd........bbbbbbbbddddaaaaaaaaaaaaaaaabbbbaaaaccccaaaabbbbaaaaaaaaaaaa........bbbbbbbb............................",
"........dddddddd........bbbbbbbbddddaaaaaaaaaaaaaaaabbbbaaaaccccaaaabbbbaaaaaaaaaaaa........bbbbbbbb............................",
"........dddddddd........bbbbbbbbddddaaaaaaaaaaaaaaaabbbbaaaaccccaaaabbbbaaaaaaaaaaaa........bbbbbbbb............................",
"........dddddddd........bbbbbbbbddddaaaaaaaaaaaaaaaabbbbaaaaccccaaaabbbbaaaaaaaaaaaa........bbbbbbbb............................",
"........dddd....dddd....dddd....ddddaaaaaaaaaaaaaaaabbbbaaaaccccaaaabbbbaaaaaaaaaaaaaaaa........................................",
"........dddd....dddd....dddd....ddddaaaaaaaaaaaaaaaabbbbaaaaccccaaaabbbbaaaaaaaaaaaaaaaa........................................",
"........dddd....dddd....dddd....ddddaaaaaaaaaaaaaaaabbbbaaaaccccaaaabbbbaaaaaaaaaaaaaaaa........................................",
"........dddd....dddd....dddd....ddddaaaaaaaaaaaaaaaabbbbaaaaccccaaaabbbbaaaaaaaaaaaaaaaa........................................",
"........dddd........dddd........aaaaaaaaaaaaaaaabbbb....aaaaccccaaaa....bbbb....aaaaaaaaaaaa....................................",
"........dddd........dddd........aaaaaaaaaaaaaaaabbbb....aaaaccccaaaa....bbbb....aaaaaaaaaaaa....................................",
"........dddd........dddd........aaaaaaaaaaaaaaaabbbb....aaaaccccaaaa....bbbb....aaaaaaaaaaaa....................................",
"........dddd........dddd........aaaaaaaaaaaaaaaabbbb....aaaaccccaaaa....bbbb....aaaaaaaaaaaa....................................",
"........dddd........dddd........aaaaaaaa........bbbb....aaaaccccaaaa....bbbb........aaaaaaaa....................................",
"........dddd........dddd........aaaaaaaa........bbbb....aaaaccccaaaa....bbbb........aaaaaaaa....................................",
"........dddd........dddd........aaaaaaaa........bbbb....aaaaccccaaaa....bbbb........aaaaaaaa....................................",
"........dddd........dddd........aaaaaaaa........bbbb....aaaaccccaaaa....bbbb........aaaaaaaa....................................",
"........dddd....dddd....ddddaaaadddd........bbbb........aaaaccccaaaa........bbbb............aaaa................................",
"........dddd....dddd....ddddaaaadddd........bbbb........aaaaccccaaaa........bbbb............aaaa................................",
"........dddd....dddd....ddddaaaadddd........bbbb........aaaaccccaaaa........bbbb............aaaa................................",
"........dddd....dddd....ddddaaaadddd........bbbb........aaaaccccaaaa........bbbb............aaaa................................",
"........dddddddd........aaaadddddddd........bbbb........aaaaccccaaaa........bbbb................aaaa............................",
"........dddddddd........aaaadddddddd........bbbb........aaaaccccaaaa........bbbb................aaaa............................",
"........dddddddd........aaaadddddddd........bbbb........aaaaccccaaaa........bbbb................aaaa............................",
"........dddddddd........aaaadddddddd........bbbb........aaaaccccaaaa........bbbb................aaaa............................",
"....########....................########................aaaaccccaaaa............................................................",
"....########....................########................aaaaccccaaaa............................................................",
"....########....................########................aaaaccccaaaa............................................................",
"....########....................########................aaaaccccaaaa............................................................",
"....####....########....########....####....................aaaa................................................................",
"....####....########....########....####....................aaaa................................................................",
"....####....########....########....####....................aaaa................................................................",
"....####....########....########....####....................aaaa................................................................",
"....####............####............####....................aaaa................................................................",
"....####............####............####....................aaaa................................................................",
"....####............####............####....................aaaa................................................................",
"....####............####............####....................aaaa................................................................",
"####................####................####................aaaa................................................................",
"####................####................####................aaaa................................................................",
"####................####................####................aaaa................................................................",
"####................####................####................aaaa................................................................",
"####........########....########........####................aaaa................................................................",
"####........########....########........####................aaaa................................................................",
"####........########....########........####................aaaa................................................................",
"####........########....########........####................aaaa................................................................",
"############....................############....................................................................................",
"############....................############....................................................................................",
"############....................############....................................................................................",
"############....................############...................................................................................."};
