/* XPM */
static const char * rivendell_22x22_xpm[] = {
"22 22 118 2",
"  	c None",
". 	c #0F8F34",
"+ 	c #1A953E",
"@ 	c #18933C",
"# 	c #19933D",
"$ 	c #0D8E32",
"% 	c #19933C",
"& 	c #18933B",
"* 	c #1A943D",
"= 	c #CEE8D6",
"- 	c #CEE8D5",
"; 	c #D3EBDA",
"> 	c #139037",
", 	c #129036",
"' 	c #D2EAD9",
") 	c #CBE7D3",
"! 	c #CCE7D3",
"~ 	c #CCE7D4",
"{ 	c #FFFFFF",
"] 	c #7DC290",
"^ 	c #0C8E32",
"/ 	c #7CC290",
"( 	c #FEFFFE",
"_ 	c #CDE7D5",
": 	c #149138",
"< 	c #149238",
"[ 	c #6ABA81",
"} 	c #6EBB83",
"| 	c #289B49",
"1 	c #279B48",
"2 	c #72BD87",
"3 	c #6EBB85",
"4 	c #098C2F",
"5 	c #088C2E",
"6 	c #CCE8D4",
"7 	c #D8EDDE",
"8 	c #008522",
"9 	c #D8ECDD",
"0 	c #0A8C2F",
"a 	c #73BD88",
"b 	c #4AAB66",
"c 	c #0D8E33",
"d 	c #49AA64",
"e 	c #74BE89",
"f 	c #1A933D",
"g 	c #B3DCBF",
"h 	c #A2D4B0",
"i 	c #36A155",
"j 	c #73BD89",
"k 	c #B3DBBF",
"l 	c #BBDFC6",
"m 	c #D4EBDA",
"n 	c #E5F3E8",
"o 	c #F0F8F3",
"p 	c #F7FBF9",
"q 	c #E5F3E9",
"r 	c #D4EBDB",
"s 	c #BCDFC5",
"t 	c #0F9035",
"u 	c #E6F3EA",
"v 	c #E7F4EB",
"w 	c #0F8F35",
"x 	c #7BC18F",
"y 	c #7CC190",
"z 	c #0F8F33",
"A 	c #52AF6D",
"B 	c #1A943C",
"C 	c #65B77D",
"D 	c #B0DABC",
"E 	c #DDEFE2",
"F 	c #EAF5ED",
"G 	c #DDEFE3",
"H 	c #B1DABC",
"I 	c #66B87D",
"J 	c #19943C",
"K 	c #53AF6E",
"L 	c #109034",
"M 	c #F3F9F5",
"N 	c #F2F9F4",
"O 	c #C8E5D0",
"P 	c #A1D3AF",
"Q 	c #AFDABC",
"R 	c #F1F9F4",
"S 	c #F4FAF5",
"T 	c #2A9C4B",
"U 	c #E8F4EC",
"V 	c #FAFDFB",
"W 	c #FCFDFC",
"X 	c #FDFEFE",
"Y 	c #FEFEFE",
"Z 	c #E9F5ED",
"` 	c #2B9C4C",
" .	c #0E8F33",
"..	c #AED9BA",
"+.	c #95CDA5",
"@.	c #81C494",
"#.	c #8BC99D",
"$.	c #8EC99E",
"%.	c #90CBA0",
"&.	c #90CBA1",
"*.	c #8ECA9E",
"=.	c #95CDA4",
"-.	c #AEDABB",
";.	c #108F35",
">.	c #C4E3CC",
",.	c #FDFEFD",
"'.	c #FBFDFC",
").	c #C5E4CD",
"!.	c #0A8D2F",
"~.	c #67B87E",
"{.	c #A7D5B3",
"].	c #C4E4CE",
"^.	c #D6EBDB",
"/.	c #DEF0E3",
"(.	c #D5EBDB",
"_.	c #67B87F",
":.	c #0A8D30",
"<.	c #159239",
"    . . . . . . . . . . . . . . . . . .     ",
"  . . . . . . . . . . . . . . . . . . . .   ",
"+ @ @ @ @ @ # $ . . . . . . $ % & & & & & * ",
"= - - - - - ; > . . . . . . , ' ) ! ! ! ) ~ ",
"{ { { { { { { ] ^ . . . . ^ / { { { { { { { ",
"{ { { { { ( { _ : . . . . < ~ { ( { { { { { ",
"[ [ [ [ } { { { | . . . . 1 { { { 2 3 3 3 3 ",
"4 4 4 4 5 6 { { 7 8 . . 8 9 { { - 5 0 4 4 4 ",
". . . . . a { { { b c c d { { { e . . . . . ",
". . . . . f ) g h e i i j h k ) * . . . . . ",
". . . . . < l m n o p p o q r s < . . . . . ",
". . . . t u { { { { { { { { { { v w . . . . ",
". . . . . x { { { { { { { { { { y z . . . . ",
". . . . . A B C D E F F G H I J K . . . . . ",
". . . . L M { N O D P P Q O R { S . . . . . ",
". . . . . T U V W X Y Y X W V Z ` . . . . . ",
". . . .  ...+.@.#.$.%.&.*.#.@.=.-. .. . . . ",
". . . . ;.>.{ { ,.W '.'.'.,.{ { ).;.. . . . ",
". . . . . !.~.{.].^././.(.].{._.:.. . . . . ",
". . . . . . c $ <.* J J * <.$ c . . . . . . ",
"  . . . . . . . . . . . . . . . . . . . .   ",
"    . . . . . . . . . . . . . . . . . .     "};
