/* XPM */
static const char *rml5_xpm[]={
"16 16 156 2",
"Qt c None",
".f c None",
"#z c #000001",
".1 c #000007",
".T c #04040f",
"#J c #070714",
"#q c #0a0a1d",
"#c c #0c0c1e",
"#0 c #111125",
"ax c #16162e",
".8 c #1a1a36",
".U c #202045",
"at c #262636",
"am c #28285b",
".H c #28285d",
".0 c #29295a",
"as c #2a2a5d",
"#e c #2e2e4d",
".w c #2e2e62",
".n c #2f2f68",
"an c #313160",
"ar c #333364",
"#Q c #353570",
"ap c #363672",
"#K c #373758",
".2 c #38385a",
".m c #39396b",
"aw c #393975",
".v c #3a3a76",
".x c #3f3f84",
"ab c #40406e",
"az c #41417d",
".o c #414184",
"#w c #42427d",
"aq c #454576",
"#y c #454582",
".Z c #464681",
"#b c #474785",
".# c #4a4a8c",
".V c #4b4b8a",
".a c #50508b",
"#k c #52528e",
"ay c #52528f",
".I c #555591",
".9 c #555596",
"#l c #555597",
"#p c #565692",
"#I c #57578f",
".g c #595995",
"ac c #5b5b7f",
"#F c #5b5b99",
".h c #5d5d9b",
".l c #5e5e81",
".p c #63639a",
"al c #6666a5",
".M c #6868a4",
".i c #6969a6",
".e c #6a6a91",
"#m c #6a6aa3",
".G c #6c6c99",
"av c #7070a9",
"#v c #7171aa",
"#G c #7171ac",
".d c #7272a6",
"#. c #7272a7",
".S c #7676a1",
"#T c #7878a2",
".Y c #7878b1",
"#P c #7c7cb1",
".q c #7e7eb1",
".j c #7e7eb3",
".b c #8181b6",
"#Z c #8383b2",
"#a c #8383b8",
"#r c #8787af",
".r c #8787b9",
".L c #8989bb",
"#L c #8a8ab1",
"#E c #8a8abb",
".N c #8b8bb6",
"#u c #8b8bbb",
".s c #8c8cbc",
"#A c #8e8eb9",
"#x c #8e8ebc",
"#n c #9191be",
".C c #9595c2",
"ak c #9797c7",
".c c #9898c5",
"aa c #9898c7",
".k c #9898c8",
"au c #9999c4",
".D c #9a9ac6",
".y c #9e9ec5",
"#R c #9f9fc9",
"#H c #a0a0ca",
"#1 c #a1a1cf",
"#S c #a6a6cb",
".E c #a6a6cd",
".W c #a8a8cc",
".7 c #a8a8d3",
".B c #a9a9cf",
".F c #aaaad2",
"#j c #ababd1",
"aj c #ababd3",
".u c #acacd7",
".P c #adadd1",
".3 c #adadd7",
".O c #aeaed2",
"ad c #aeaed9",
".t c #afafd2",
"a# c #b1b1d4",
"ai c #b2b2d4",
"#f c #b2b2dc",
"#t c #b4b4d6",
"#3 c #b5b5d6",
"#o c #b5b5d7",
"ae c #b5b5d8",
"#2 c #b7b7d8",
".J c #b8b8d5",
".X c #bbbbda",
"#U c #bbbbe1",
"#4 c #bcbcda",
".4 c #bcbcdb",
".Q c #bdbddb",
".K c #bebedb",
".A c #c0c0dc",
"#i c #c3c3de",
".z c #c4c4df",
".5 c #c5c5df",
"## c #c6c6e0",
"#5 c #c8c8e5",
"#s c #cacae5",
"#g c #cccce4",
"#D c #cdcde4",
"af c #cfcfe8",
"#h c #d1d1e7",
"#V c #d1d1e9",
"#8 c #d2d2e7",
"#B c #d2d2ec",
"#d c #d3d3e7",
"#M c #d3d3ed",
"ag c #d4d4e8",
"#6 c #d5d5e9",
"#7 c #d7d7ea",
".R c #d7d7f0",
"ah c #d8d8ea",
"#C c #dadaeb",
".6 c #ddddee",
"#W c #dedeee",
"#N c #e6e6f2",
"#O c #e7e7f3",
"a. c #eeeef7",
"ao c #eeeefb",
"#9 c #efeff7",
"#Y c #f3f3fa",
"#X c #f6f6fb",
"QtQtQtQtQtQt.#.a.b.c.d.e.bQtQtQt",
"Qt.fQtQtQt.#.#.g.h.i.j.k.l.lQtQt",
"QtQt.k.m.n.o.p.d.q.r.s.t.u.vQtQt",
"QtQt.w.x.a.y.z.A.B.C.D.E.F.G.vQt",
"QtQt.H.I.J.K.L.M.a.N.O.P.Q.R.S.T",
"Qt.U.V.W.X.Y.Z.0.1.2.3.4.5.6.7.8",
".b.9#.###a#b#c#dQt#e#f#g#h#i#j#k",
"#l#m#n#o#p#q#dQt#d#r#s#h#t#u#v#w",
".b#v#x.E#y#z.f#d#A#B#C#D#E#F.v.v",
"Qt#G.c#H#I#J#K#L#M#d#N#O#P#Q.vQt",
".F.b#R.B#S#T#U#V#W#N#X#Y#Z#0QtQt",
".B#1#2#3#4#5#6#7#8#9a.a#aaabQtQt",
"Qtacadaeafagahai#u.sajakalamQtQt",
"QtQtan#I#Iao#i#E#FapaqarasQtQtQt",
"QtQtQtQtatau.FavawQtQtQtQtQtQtQt",
"QtQtQtQtQtaxayazQtQtQtQtQtQtQtQt"};
