/* XPM */
const static char *switch2_xpm[]={
"16 16 10 1",
"# c None",
". c None",
"b c #000000",
"a c #800000",
"e c #808080",
"f c #a0a0a0",
"c c #c00000",
"g c #c3c3c3",
"d c #ffff00",
"h c #ffffc0",
"...........#aaaa",
"...bbbbbbbacadda",
"...befghhahdadha",
"...befghahddaaaa",
"...befgahddadda.",
"...befgaddadha..",
"...befgadadhab..",
"...befgacdhaeb..",
"...befgcaaafeb..",
"...befgccccfeb..",
"...befghhhgfeb..",
"...befghhhgfeb..",
"...befghhhgfeb..",
"...befghhhgfeb..",
"...beffggggeeb..",
"...bbbbbbbbbbb.."};
