/* XPM */
static const char *switch3_xpm[]={
"16 16 81 2",
".# c None",
"Qt c None",
".a c #000000",
".c c #010101",
".i c #020202",
".q c #040404",
"#j c #061528",
"#m c #07172d",
".8 c #072136",
"#o c #080c15",
"#k c #092843",
"#e c #092a46",
".V c #0a2f4f",
"#d c #0a3052",
".N c #0b3a5a",
".K c #0c2e51",
"#h c #0c3559",
"#i c #0e3758",
".M c #0e3f61",
".R c #0e4870",
".O c #0e74a6",
".G c #0f4f74",
"#n c #10365c",
".Q c #105074",
"#l c #105686",
".4 c #108ac1",
".L c #114366",
"## c #118dc7",
".w c #1191c9",
".E c #1198ca",
".A c #133354",
".b c #133755",
".9 c #168aba",
"#c c #1695c4",
".S c #1a5a84",
".W c #1c1c1c",
"#g c #1c95be",
"#. c #1ca8d6",
".C c #1f99c2",
".D c #229ec7",
"#a c #239ec9",
"#f c #2495bf",
".7 c #26445e",
".H c #292929",
".1 c #294a6b",
".v c #2a97c8",
"#b c #2aa0c6",
".I c #2b333e",
".P c #30b6da",
".r c #314d6b",
".z c #343434",
".2 c #38577a",
".T c #3b3a3b",
".F c #40b7da",
".0 c #425061",
".5 c #42a4d0",
".j c #4c637b",
".g c #4c7497",
".X c #4d9dc5",
".y c #50748c",
".h c #51758d",
".p c #59798e",
".u c #60b6da",
".k c #6a86a0",
".6 c #70afd2",
".f c #767676",
".3 c #77c4e0",
".J c #818181",
".n c #82a6c1",
".l c #8494a7",
".t c #89c7e1",
".Z c #8a959f",
".U c #979797",
".d c #a1a1a1",
".Y c #a5aeb8",
".s c #aecee2",
".B c #afd2e8",
".e c #b4b4b4",
".m c #b4bcc9",
".o c #b6d8e9",
".x c #badcec",
"QtQtQtQtQtQt.#.#.#.#.aQtQt.#.#Qt",
"QtQtQtQtQtQt.#.#.#Qt.b.cQtQtQt.#",
"QtQtQtQtQtQt.d.e.f.a.g.h.iQtQtQt",
"QtQtQtQtQtQt.j.k.l.m.n.o.p.qQtQt",
"QtQtQtQtQtQt.r.s.t.u.v.w.x.y.cQt",
"QtQt.#.#Qt.z.A.B.C.D.E.w.F.G.HQt",
"QtQtQtQt.I.J.K.L.M.N.O.P.Q.HQt.#",
".#QtQt.q.k.R.#.#Qt.#.S.G.T.#QtQt",
".#Qt.z.I.G.R.T.J.U.#.V.W.#.#QtQt",
".#.q.y.s.X.w.Y.Z.0Qt.1.#.#.#.#.#",
".H.2.s.3.4.5.u.6.7.#.#.#.#.#.#.#",
"Qt.8.9#.###a#b#c#d.#.#.#.#.#QtQt",
".#Qt#e#f#g.R#h#i#j.#.#.#.#.#QtQt",
"QtQtQt#k#l.R.#.#.#.#.#.#.#.#.#Qt",
"QtQtQt.##m#n.#.#.#QtQtQtQtQtQtQt",
"QtQtQtQtQt#oQtQt.#QtQtQtQtQtQtQt"};
