/* XPM */
const static char *switch_xpm[]={
"16 16 5 1",
". c None",
"# c #000000",
"c c #800000",
"b c #a0a0a0",
"a c #c0ffc0",
"..############..",
"..#aaaaaaaaaa#..",
"..#aa##a#baaa#..",
"..#aa##a##aaa#..",
"..#aa##ab#aaa#..",
"..#aaaaaaaaaa#..",
"..#aaaa#ccaaa#..",
"..#aaaa#ccaaa#..",
"..#aaaa#caaaa#..",
"..#aaaa##aaaa#..",
"..#aaaaaaaaaa#..",
"..#a##a##a##a#..",
"..#a##a#ba#ba#..",
"..#a##a#aa#aa#..",
"..#aaaaaaaaaa#..",
"..############.."};
