/* XPM */
const static char * track_xpm[] = {
"16 16 4 1",
" 	c None",
".	c #000000",
"+	c #2CD928",
"@	c #D94128",
"     .....      ",
"   ..+++++..    ",
"  .+++++++++.   ",
" .+@@@@@@@@@+.  ",
" .+@@@@@@@@@+.  ",
".+++++@@@+++++. ",
".+++++@@@+++++. ",
".+++++@@@+++++. ",
".+++++@@@+++++. ",
".+++++@@@+++++. ",
" .++++@@@++++.  ",
" .++++@@@++++.  ",
"  .+++++++++.   ",
"   ..+++++..    ",
"     .....      ",
"                "};
