/* XPM */
static const char * traffic_xpm[] = {
"16 16 148 2",
"  	c None",
". 	c #A42729",
"+ 	c #A22628",
"@ 	c #9D2526",
"# 	c #902223",
"$ 	c #7E1D1F",
"% 	c #681819",
"& 	c #AC292A",
"* 	c #B92B2D",
"= 	c #BC2D2F",
"- 	c #BA2B2D",
"; 	c #B5292B",
"> 	c #AB2628",
", 	c #9B2325",
"' 	c #861E1F",
") 	c #661617",
"! 	c #AF2A2C",
"~ 	c #C12D2F",
"{ 	c #CE6B6D",
"] 	c #C12E2F",
"^ 	c #C02D2E",
"/ 	c #BC2B2C",
"( 	c #B32729",
"_ 	c #A52426",
": 	c #9D3638",
"< 	c #73282C",
"[ 	c #571213",
"} 	c #BE2D2F",
"| 	c #D97476",
"1 	c #C3C375",
"2 	c #85856F",
"3 	c #511010",
"4 	c #3D0B0C",
"5 	c #AD292A",
"6 	c #C32E30",
"7 	c #B44F57",
"8 	c #BFBF7B",
"9 	c #C2C273",
"0 	c #B5B565",
"a 	c #F3F332",
"b 	c #DFDF50",
"c 	c #C2C27E",
"d 	c #9C9C7B",
"e 	c #300909",
"f 	c #3F0B0B",
"g 	c #B1292B",
"h 	c #C22E2F",
"i 	c #B73335",
"j 	c #6D4851",
"k 	c #654951",
"l 	c #4E496C",
"m 	c #F7F735",
"n 	c #BABA68",
"o 	c #55525F",
"p 	c #4B424C",
"q 	c #3B3035",
"r 	c #2A0708",
"s 	c #400B0B",
"t 	c #330809",
"u 	c #AD282A",
"v 	c #BF2C2E",
"w 	c #C22C2E",
"x 	c #A12426",
"y 	c #751A1B",
"z 	c #614762",
"A 	c #F5F54D",
"B 	c #B6B662",
"C 	c #332830",
"D 	c #34090A",
"E 	c #440D0D",
"F 	c #470C0D",
"G 	c #470B0C",
"H 	c #3A0A0A",
"I 	c #A32628",
"J 	c #B72A2C",
"K 	c #C02B2D",
"L 	c #BC292B",
"M 	c #B12628",
"N 	c #7E536D",
"O 	c #F4F44C",
"P 	c #B5B55D",
"Q 	c #34232B",
"R 	c #500F10",
"S 	c #6D1415",
"T 	c #611011",
"U 	c #4E0C0D",
"V 	c #3B0A0A",
"W 	c #932224",
"X 	c #AA2728",
"Y 	c #B6282A",
"Z 	c #BA292B",
"` 	c #B82729",
" .	c #82556F",
"..	c #F4F44A",
"+.	c #B5B55C",
"@.	c #36252C",
"#.	c #520F10",
"$.	c #6E1314",
"%.	c #5E0F0F",
"&.	c #330808",
"*.	c #982224",
"=.	c #A62526",
"-.	c #AB2527",
";.	c #AB2425",
">.	c #A0768C",
",.	c #F3F368",
"'.	c #BDBD78",
").	c #392A32",
"!.	c #470D0D",
"~.	c #601011",
"{.	c #540C0D",
"].	c #4D0C0D",
"^.	c #1D0505",
"/.	c #7D1C1D",
"(.	c #911F20",
"_.	c #992022",
":.	c #991F21",
"<.	c #80807E",
"[.	c #C5C576",
"}.	c #B3B370",
"|.	c #433C44",
"1.	c #3A090A",
"2.	c #4F0C0D",
"3.	c #3F090A",
"4.	c #551314",
"5.	c #721819",
"6.	c #7F1A1B",
"7.	c #80191A",
"8.	c #662327",
"9.	c #4A2C34",
"0.	c #33242B",
"a.	c #210E0E",
"b.	c #300708",
"c.	c #480B0C",
"d.	c #100303",
"e.	c #3C0D0D",
"f.	c #571112",
"g.	c #611313",
"h.	c #5A1011",
"i.	c #430B0C",
"j.	c #310708",
"k.	c #3D0909",
"l.	c #3E0A0A",
"m.	c #120303",
"n.	c #3B0A0B",
"o.	c #3D0B0B",
"p.	c #350909",
"q.	c #230606",
"                                ",
"          . + @ # $ %           ",
"      & * = - ; > , ' )         ",
"    ! ~ { ] ^ / ( _ : < [       ",
"    } | 1 1 1 1 1 1 1 2 3 4     ",
"  5 6 7 8 9 0 a b c 1 d e f     ",
"  g h i j k l m n o p q r s t   ",
"  u v w x y z A B C D E F G H   ",
"  I J K L M N O P Q R S T U V   ",
"  W X Y Z `  ...+.@.#.$.%.U &.  ",
"  $ *.=.-.;.>.,.'.).!.~.{.].^.  ",
"    /.(._.:.<.[.}.|.1.2.2.3.    ",
"    4.5.6.7.8.9.0.a.b.c.c.d.    ",
"      e.f.g.h.i.&.j.k.l.m.      ",
"          e n.f o.p.q.          ",
"                                "};
