/* XPM */
static const char * trashcan_xpm[] = {
"32 32 246 2",
"  	c None",
". 	c #5A5B5B",
"+ 	c #595959",
"@ 	c #565656",
"# 	c #555555",
"$ 	c #5D5E5E",
"% 	c #626262",
"& 	c #7F92AA",
"* 	c #758FB1",
"= 	c #748EB1",
"- 	c #738EB1",
"; 	c #738DB0",
"> 	c #738CB0",
", 	c #728CB0",
"' 	c #718BB0",
") 	c #708BAF",
"! 	c #6F8AAF",
"~ 	c #6E8AAF",
"{ 	c #6D89AE",
"] 	c #6E89AF",
"^ 	c #6D88AE",
"/ 	c #6C87AD",
"( 	c #6E8CB3",
"_ 	c #93A1B0",
": 	c #5C5D5D",
"< 	c #A1A4A5",
"[ 	c #1C3864",
"} 	c #204A87",
"| 	c #346099",
"1 	c #6C95C3",
"2 	c #6E6E6F",
"3 	c #8898AD",
"4 	c #14305A",
"5 	c #37629B",
"6 	c #719ECE",
"7 	c #9EAAB7",
"8 	c #5E5E5E",
"9 	c #777878",
"0 	c #3E587C",
"a 	c #142F58",
"b 	c #3A659E",
"c 	c #729FCF",
"d 	c #759AC4",
"e 	c #606060",
"f 	c #B4B7B8",
"g 	c #163159",
"h 	c #142E56",
"i 	c #3D68A0",
"j 	c #6E9ACB",
"k 	c #9EA4A9",
"l 	c #5D5D5D",
"m 	c #575757",
"n 	c #B3BEC9",
"o 	c #132C53",
"p 	c #132D54",
"q 	c #3F6BA2",
"r 	c #709ECE",
"s 	c #9AB2CD",
"t 	c #ECF0F1",
"u 	c #EFF3F4",
"v 	c #EEF2F3",
"w 	c #EEF1F2",
"x 	c #EDF1F2",
"y 	c #5F5F5F",
"z 	c #A9ABAC",
"A 	c #C1C4C5",
"B 	c #C0C3C4",
"C 	c #BFC2C3",
"D 	c #BEC1C2",
"E 	c #BDC0C1",
"F 	c #BCBFC0",
"G 	c #BBBEBF",
"H 	c #BABDBE",
"I 	c #B5B8B9",
"J 	c #5A5A5A",
"K 	c #53565B",
"L 	c #545454",
"M 	c #585858",
"N 	c #214D8B",
"O 	c #769CCD",
"P 	c #457CC2",
"Q 	c #3E76BE",
"R 	c #3D74BB",
"S 	c #3D73BA",
"T 	c #3C72B6",
"U 	c #3B70B4",
"V 	c #3A6EB1",
"W 	c #396DB0",
"X 	c #386CAD",
"Y 	c #376AAB",
"Z 	c #3768A8",
"` 	c #3567A7",
" .	c #3565A3",
"..	c #33639F",
"+.	c #32609B",
"@.	c #305E98",
"#.	c #305D96",
"$.	c #2F5C95",
"%.	c #2F5B95",
"&.	c #2E5B93",
"*.	c #2E5A92",
"=.	c #2D5A91",
"-.	c #2D5990",
";.	c #3E6496",
">.	c #5576A0",
",.	c #214C89",
"'.	c #234D8B",
").	c #7096C9",
"!.	c #497FC3",
"~.	c #3F77BF",
"{.	c #3E75BD",
"].	c #3E75BB",
"^.	c #3D74BA",
"/.	c #3D73B9",
"(.	c #3C72B8",
"_.	c #3C72B7",
":.	c #3B71B6",
"<.	c #3B70B5",
"[.	c #3A6FB4",
"}.	c #3A6FB2",
"|.	c #396EB1",
"1.	c #386CAF",
"2.	c #376BAC",
"3.	c #3669AA",
"4.	c #3364A3",
"5.	c #33629F",
"6.	c #31619C",
"7.	c #305E99",
"8.	c #456DA0",
"9.	c #5476A3",
"0.	c #234E8D",
"a.	c #6A91C4",
"b.	c #4E82C4",
"c.	c #386CAE",
"d.	c #376BAD",
"e.	c #376AAC",
"f.	c #3668A9",
"g.	c #3568A8",
"h.	c #507AB1",
"i.	c #5377AA",
"j.	c #1F4C89",
"k.	c #224D8A",
"l.	c #658CBF",
"m.	c #5285C6",
"n.	c #567FB4",
"o.	c #4E73A7",
"p.	c #204986",
"q.	c #224B8A",
"r.	c #5E85BA",
"s.	c #5788C7",
"t.	c #5B82B6",
"u.	c #486FA2",
"v.	c #577EB4",
"w.	c #5B8CC9",
"x.	c #5F86B8",
"y.	c #41689E",
"z.	c #5079AF",
"A.	c #5F8ECA",
"B.	c #648ABA",
"C.	c #3B6299",
"D.	c #4B72A9",
"E.	c #6391CC",
"F.	c #698DBD",
"G.	c #345A94",
"H.	c #426AA2",
"I.	c #6694CD",
"J.	c #6E91BF",
"K.	c #2D568F",
"L.	c #3A639B",
"M.	c #6895CD",
"N.	c #7294C1",
"O.	c #274F8B",
"P.	c #335B94",
"Q.	c #6995CD",
"R.	c #7495C1",
"S.	c #204988",
"T.	c #2B548E",
"U.	c #6996CE",
"V.	c #3869A8",
"W.	c #6D90BD",
"X.	c #204B87",
"Y.	c #264E8A",
"Z.	c #6996CD",
"`.	c #3C6CAA",
" +	c #6488B8",
".+	c #204C89",
"++	c #224C89",
"@+	c #6793CA",
"#+	c #406FAB",
"$+	c #5B80B2",
"%+	c #214C88",
"&+	c #214C8A",
"*+	c #608DC5",
"=+	c #4279C0",
"-+	c #4371AD",
";+	c #5278AD",
">+	c #214A86",
",+	c #204A86",
"'+	c #4E7CB7",
")+	c #4E81C4",
"!+	c #3F77BE",
"~+	c #3F76BD",
"{+	c #3F76BB",
"]+	c #3E75BA",
"^+	c #3E74B9",
"/+	c #3D73B8",
"(+	c #3D73B7",
"_+	c #3C71B5",
":+	c #3B70B2",
"<+	c #3A6FB1",
"[+	c #3A6EB0",
"}+	c #396DAF",
"|+	c #396DAE",
"1+	c #386BAC",
"2+	c #376AAA",
"3+	c #3769A9",
"4+	c #396BAA",
"5+	c #537DB4",
"6+	c #446BA3",
"7+	c #1D427B",
"8+	c #2E5893",
"9+	c #5382BF",
"0+	c #5C8AC7",
"a+	c #5C8AC6",
"b+	c #5D8AC4",
"c+	c #5C89C3",
"d+	c #5C88C3",
"e+	c #5C88C2",
"f+	c #5C88C1",
"g+	c #5C87C0",
"h+	c #5C88BF",
"i+	c #5C88BE",
"j+	c #5C87BD",
"k+	c #5C87BC",
"l+	c #5C86BD",
"m+	c #5C86BC",
"n+	c #5C86BB",
"o+	c #5C85BB",
"p+	c #5C85B9",
"q+	c #5C84B9",
"r+	c #5B84B7",
"s+	c #4972A9",
"t+	c #26518B",
"u+	c #1C4278",
"v+	c #1F4680",
"w+	c #16335D",
"                                                                ",
"                                                                ",
"      . + @ @ @ @ @ @ @ @ @ @ @ # # # # # # # # # # # $         ",
"      % & * = = = - - ; > , , ' ) ! ! ~ { ] ] { ^ / ( _ :       ",
"    : < [ } } } } } } } } } } } } } } } } } } } } } | 1 2       ",
"    + 3 4 } } } } } } } } } } } } } } } } } } } } } 5 6 7 8     ",
"    9 0 a } } } } } } } } } } } } } } } } } } } } } b c d e     ",
"  8 f g h } } } } } } } } } } } } } } } } } } } } } i c j k l   ",
"  m n o p } } } } } } } } } } } } } } } } } } } } } q c r s m   ",
"  # t u u u u u u u u u u u u u u u u u u u u u u v v v w x y   ",
"  m z A A A A B B B C C C C D D D E E E E F F F F G G G H I J   ",
"    K # # # # # # # # # # # L L L L L L L L L L L L L L L # M   ",
"    N O P Q R S T U V W X Y Z `  ...+.@.#.$.%.&.*.=.-.;.>.,.    ",
"    '.).!.~.Q {.].^./.(._.:.<.[.}.|.W 1.2.3.` 4.5.6.7.8.9.,.    ",
"    0.a.b.~.Q {.].^./.(._.:.<.[.}.|.W 1.c.d.e.3.f.g.` h.i.j.    ",
"    k.l.m.~.Q {.].^./.(._.:.<.[.}.|.W 1.c.d.e.3.f.g.` n.o.p.    ",
"    q.r.s.~.Q {.].^./.(._.:.<.[.}.|.W 1.c.d.e.3.f.g.` t.u.      ",
"    } v.w.~.Q {.].^./.(._.:.<.[.}.|.W 1.c.d.e.3.f.g.` x.y.      ",
"      z.A.~.Q {.].^./.(._.:.<.[.}.|.W 1.c.d.e.3.f.g.` B.C.      ",
"      D.E.~.Q {.].^./.(._.:.<.[.}.|.W 1.c.d.e.3.f.g.` F.G.      ",
"      H.I.~.Q {.].^./.(._.:.<.[.}.|.W 1.c.d.e.3.f.g.` J.K.      ",
"      L.M.~.Q {.].^./.(._.:.<.[.}.|.W 1.c.d.e.3.f.g.` N.O.      ",
"      P.Q.~.Q {.].^./.(._.:.<.[.}.|.W 1.c.d.e.3.f.g.` R.S.      ",
"      T.U.~.Q {.].^./.(._.:.<.[.}.|.W 1.c.d.e.3.f.g.V.W.X.      ",
"      Y.Z.~.Q {.].^./.(._.:.<.[.}.|.W 1.c.d.e.3.f.g.`. +.+      ",
"      ++@+~.Q {.].^./.(._.:.<.[.}.|.W 1.c.d.e.3.f.g.#+$+%+      ",
"      &+*+=+Q {.].^./.(._.:.<.[.}.|.W 1.c.d.e.3.f.g.-+;+>+      ",
"      ,+'+)+!+~+{+]+^+/+(+T _+U :+<+[+}+|+X 1+2+3+4+5+6+7+      ",
"        8+9+0+a+b+c+d+e+f+f+g+h+i+j+k+l+m+n+o+p+q+r+s+t+        ",
"        u+,+} } } } } } } } } } } } } } } } } } } } v+w+        ",
"                                                                ",
"                                                                "};
