/* XPM */
static const char * trashcan_xpm[] = {
"16 16 53 1",
" 	c None",
".	c #204A87",
"+	c #81A7D7",
"@	c #82A7D7",
"#	c #98B6DD",
"$	c #22426A",
"%	c #244670",
"&	c #264A76",
"*	c #2B5487",
"=	c #2D588D",
"-	c #32619C",
";	c #3466A4",
">	c #366AAA",
",	c #386FB2",
"'	c #22436C",
")	c #294F7F",
"!	c #305E96",
"~	c #376BAB",
"{	c #284E7E",
"]	c #2B5589",
"^	c #305F98",
"/	c #3567A5",
"(	c #8DAFDA",
"_	c #5981B2",
":	c #79A2D4",
"<	c #376CAD",
"[	c #3465A2",
"}	c #3364A1",
"|	c #33639F",
"1	c #496F9F",
"2	c #4D84C7",
"3	c #4980C5",
"4	c #467EC4",
"5	c #376DAF",
"6	c #567BA9",
"7	c #3D77BF",
"8	c #3D78C1",
"9	c #3970B3",
"0	c #7CA3D5",
"a	c #5488C8",
"b	c #477FC5",
"c	c #3E79C2",
"d	c #5B86BA",
"e	c #5287C8",
"f	c #3C76BE",
"g	c #4E7DB7",
"h	c #78A1D3",
"i	c #799ECC",
"j	c #779AC6",
"k	c #779BC7",
"l	c #7197C4",
"m	c #6A90BF",
"n	c #577CAC",
"                ",
"                ",
"   ...........  ",
"  ..+@@@@@@@@.. ",
"  .#$%&*=-;>,@. ",
"  .#''%)*!-;~@. ",
"  .#{'%)]^-/~@. ",
"  .,(((((((((_. ",
"  .:<~/[}}[|}1. ",
"  .:2345555556. ",
"  .:2347887956. ",
"  .0a3b7cc7c7d. ",
"  .:eb4f88f8fd. ",
"  .ghiijkkjlmn. ",
"  ............. ",
"                "};
