/* XPM */
static const char *upload_xpm[]={
"16 16 3 1",
"# c None",
". c None",
"a c #0000c0",
"..#####aa#####..",
"..####aaaa####..",
"..###aaaaaa###..",
"..##aaaaaaaa##..",
"..#aaaaaaaaaa#..",
"..aaaaaaaaaaaa..",
".aaaaaaaaaaaaaa.",
"aaaaaaaaaaaaaaaa",
"#####aaaaaa#####",
".####aaaaaa#####",
".####aaaaaa####.",
"..###aaaaaa###..",
"..###aaaaaa###..",
"..###aaaaaa###..",
"..###aaaaaa###..",
"..###aaaaaa####."};
