/* XPM */
static const char * user_xpm[] = {
"16 16 57 1",
" 	c None",
".	c #888A85",
"+	c #AFB0AD",
"@	c #F3F3F2",
"#	c #FEFEFE",
"$	c #F8F8F7",
"%	c #F9F9F9",
"&	c #FBFBFB",
"*	c #F3F4F3",
"=	c #F9FAF9",
"-	c #FBFCFB",
";	c #F6F7F6",
">	c #F5F6F5",
",	c #EBECEA",
"'	c #F0F1EF",
")	c #F5F4F3",
"!	c #F2F3F2",
"~	c #EEEFEE",
"{	c #E8E9E6",
"]	c #EEEFED",
"^	c #EFEFEE",
"/	c #EDEDEB",
"(	c #E9EBE9",
"_	c #EEEEED",
":	c #E5E7E4",
"<	c #E7E9E6",
"[	c #E8E9E7",
"}	c #E7E8E5",
"|	c #898B86",
"1	c #ECEDEB",
"2	c #E3E4E1",
"3	c #E3E5E1",
"4	c #EDEDEC",
"5	c #92948F",
"6	c #BABBB8",
"7	c #8C8E89",
"8	c #EDEEED",
"9	c #E0E2DE",
"0	c #BABCB7",
"a	c #9B9D98",
"b	c #8B8D88",
"c	c #9B9C98",
"d	c #B8BAB6",
"e	c #DFE0DD",
"f	c #DCDDDA",
"g	c #DDDEDA",
"h	c #DBDDD9",
"i	c #DBDCD9",
"j	c #DADCD8",
"k	c #DADBD7",
"l	c #E9EAE7",
"m	c #E9E9E7",
"n	c #E3E4E0",
"o	c #E3E3E0",
"p	c #E2E3E0",
"q	c #EFF0EE",
"r	c #91938E",
"      ....      ",
"    .+@##@+.    ",
"    +#$%&%#+    ",
"   .@*@=-;>@.   ",
"   .#,')>!~#.   ",
"   .#{,]^/(#.   ",
"   .@_:<[}~@.   ",
"   |+#1234#+|   ",
"   56+@##@+65   ",
"  7890abbcde87  ",
"  7#fgfhijjk#7  ",
"  7#llllmmmm#7  ",
"  7#222noppp#7  ",
"  7#fgfhijjk#7  ",
"  7q########q7  ",
"  rrrrrrrrrrrr  "};
