/* XPM */
static const char * whiteball_xpm[] = {
"14 14 20 1",
" 	g None",
".	g #C6C6C6",
"+	g #CECECE",
"@	g #D6D6D6",
"#	g #FFFFFF",
"$	g #EFEFEF",
"%	g #E7E7E7",
"&	g #9C9C9C",
"*	g #BDBDBD",
"=	g #949494",
"-	g #848484",
";	g #5A5A5A",
">	g #DEDEDE",
",	g #B5B5B5",
"'	g #636363",
")	g #ADADAD",
"!	g #4A4A4A",
"~	g #737373",
"{	g #6B6B6B",
"]	g #8C8C8C",
"              ",
"              ",
"    .++++.    ",
"   +@###$.+   ",
"  .+####%.&.  ",
"  +#####@*=-  ",
"  +####@*&-;  ",
"  +>%>+,&-';  ",
"  +***)&-;!~  ",
"  .=&=-~'!!&  ",
"   +{{;!!!]   ",
"    .~;;~&    ",
"              ",
"              "};
