/* XPM */
static char * rdadmin_xpm[] = {
"32 32 733 2",
"  	c None",
". 	c #3D485E",
"+ 	c #3D485F",
"@ 	c #364156",
"# 	c #3B475D",
"$ 	c #414F69",
"% 	c #37435A",
"& 	c #36425B",
"* 	c #3B4A68",
"= 	c #2F3645",
"- 	c #4B5871",
"; 	c #505D74",
"> 	c #4D586E",
", 	c #454F62",
"' 	c #606E88",
") 	c #5B6985",
"! 	c #414D64",
"~ 	c #536280",
"{ 	c #4E5F81",
"] 	c #3F4E69",
"^ 	c #435478",
"/ 	c #384868",
"( 	c #2E384D",
"_ 	c #424D5E",
": 	c #576375",
"< 	c #57606E",
"[ 	c #525B6A",
"} 	c #778192",
"| 	c #3B414B",
"1 	c #8A98A8",
"2 	c #404753",
"3 	c #758398",
"4 	c #4B5669",
"5 	c #58667F",
"6 	c #51607E",
"7 	c #404D68",
"8 	c #47587A",
"9 	c #394868",
"0 	c #364566",
"a 	c #30353E",
"b 	c #485468",
"c 	c #677281",
"d 	c #484F5D",
"e 	c #8F96A5",
"f 	c #3D414E",
"g 	c #A1A6B3",
"h 	c #4D5363",
"i 	c #8992A1",
"j 	c #686E79",
"k 	c #E11313",
"l 	c #3C4454",
"m 	c #586581",
"n 	c #6478A1",
"o 	c #3D4964",
"p 	c #46587D",
"q 	c #4A5D87",
"r 	c #323E5C",
"s 	c #354464",
"t 	c #23262D",
"u 	c #636F7E",
"v 	c #404551",
"w 	c #9BA1A7",
"x 	c #222531",
"y 	c #C7C8CD",
"z 	c #393C48",
"A 	c #A3A6B3",
"B 	c #7A7D86",
"C 	c #404557",
"D 	c #535768",
"E 	c #8FA0B8",
"F 	c #5E6983",
"G 	c #3D465C",
"H 	c #6A7EA7",
"I 	c #506285",
"J 	c #45567B",
"K 	c #445983",
"L 	c #3A4A70",
"M 	c #293246",
"N 	c #404B5C",
"O 	c #48505C",
"P 	c #6F7A88",
"Q 	c #636570",
"R 	c #888A94",
"S 	c #20222B",
"T 	c #DBDDE2",
"U 	c #50535F",
"V 	c #6C6E76",
"W 	c #D1D3DC",
"X 	c #2A2E3F",
"Y 	c #C4C9D3",
"Z 	c #353A44",
"` 	c #8092AC",
" .	c #7283A0",
"..	c #3B4359",
"+.	c #3F4C67",
"@.	c #5B72A2",
"#.	c #425379",
"$.	c #3E4C6F",
"%.	c #3C4F7A",
"&.	c #374668",
"*.	c #2A2E35",
"=.	c #54627A",
"-.	c #9299A1",
";.	c #3C404D",
">.	c #878996",
",.	c #878A99",
"'.	c #373E55",
").	c #CCCDD6",
"!.	c #767989",
"~.	c #3C435E",
"{.	c #A8AAB4",
"].	c #565A68",
"^.	c #353E56",
"/.	c #54617C",
"(.	c #86A2D2",
"_.	c #5E6F96",
":.	c #4A557A",
"<.	c #45567D",
"[.	c #5975B2",
"}.	c #3E4E75",
"|.	c #3A4362",
"1.	c #202023",
"2.	c #627183",
"3.	c #394152",
"4.	c #B8BBC3",
"5.	c #2A2D39",
"6.	c #848591",
"7.	c #A0A3B3",
"8.	c #1C202C",
"9.	c #A2A8BE",
"0.	c #C9CAD3",
"a.	c #212431",
"b.	c #4D5164",
"c.	c #8B8C95",
"d.	c #36384A",
"e.	c #4D5160",
"f.	c #8495AC",
"g.	c #424C72",
"h.	c #3B4560",
"i.	c #5F749D",
"j.	c #6A86B9",
"k.	c #526288",
"l.	c #5F6D9F",
"m.	c #415582",
"n.	c #5572B5",
"o.	c #2F3D5B",
"p.	c #47566D",
"q.	c #7D8C9E",
"r.	c #33343A",
"s.	c #C6C7CF",
"t.	c #242A3A",
"u.	c #6E7792",
"v.	c #CFD1D8",
"w.	c #424A62",
"x.	c #494C57",
"y.	c #DFE0E3",
"z.	c #8C8E9C",
"A.	c #DDDEE2",
"B.	c #838692",
"C.	c #404357",
"D.	c #8293AB",
"E.	c #97AFD1",
"F.	c #444C73",
"G.	c #4A5579",
"H.	c #607DB6",
"I.	c #5977B2",
"J.	c #333E59",
"K.	c #464E6C",
"L.	c #4D6399",
"M.	c #363F4B",
"N.	c #4B596D",
"O.	c #8492A4",
"P.	c #363A46",
"Q.	c #CFD0D4",
"R.	c #3F4C6D",
"S.	c #3C4256",
"T.	c #ECEEF5",
"U.	c #5F6169",
"V.	c #555B77",
"W.	c #8E909D",
"X.	c #DCDCE3",
"Y.	c #24252D",
"Z.	c #616472",
"`.	c #E8EBF3",
" +	c #A0A9BC",
".+	c #424C70",
"++	c #8BA3C8",
"@+	c #96B6E9",
"#+	c #647AA9",
"$+	c #293044",
"%+	c #46506E",
"&+	c #667BB3",
"*+	c #6A8CD6",
"=+	c #7090DC",
"-+	c #313A54",
";+	c #1F242E",
">+	c #222326",
",+	c #657B92",
"'+	c #3C4558",
")+	c #919FB2",
"!+	c #262C3C",
"~+	c #BEC1CA",
"{+	c #676C7D",
"]+	c #384467",
"^+	c #ADADB5",
"/+	c #C9CDDC",
"(+	c #2A2D3A",
"_+	c #3D4253",
":+	c #C5C6CD",
"<+	c #53586E",
"[+	c #34384B",
"}+	c #4E5365",
"|+	c #C1D2E5",
"1+	c #212331",
"2+	c #3F486A",
"3+	c #7E9BD4",
"4+	c #84AAEF",
"5+	c #5A70A8",
"6+	c #252C3C",
"7+	c #242938",
"8+	c #4B5F90",
"9+	c #5D82D2",
"0+	c #48649F",
"a+	c #273147",
"b+	c #6F8398",
"c+	c #333841",
"d+	c #A0ABB5",
"e+	c #283454",
"f+	c #99A1B7",
"g+	c #A8AFBF",
"h+	c #21283B",
"i+	c #878EA8",
"j+	c #EBECF2",
"k+	c #71778C",
"l+	c #2D344D",
"m+	c #D4D8E4",
"n+	c #BDC0CB",
"o+	c #41465B",
"p+	c #454E73",
"q+	c #464C60",
"r+	c #9AAEC8",
"s+	c #6876A0",
"t+	c #353B57",
"u+	c #272C3C",
"v+	c #3E4C6D",
"w+	c #7DA2EA",
"x+	c #6487CB",
"y+	c #647CAB",
"z+	c #535E85",
"A+	c #2B3550",
"B+	c #3A4E7A",
"C+	c #5170A4",
"D+	c #4C4E51",
"E+	c #8096AC",
"F+	c #2C323F",
"G+	c #B7C4D0",
"H+	c #3C4A6C",
"I+	c #4C5773",
"J+	c #DCDCE1",
"K+	c #5D6A8F",
"L+	c #242D47",
"M+	c #9A9EAD",
"N+	c #DBDBDE",
"O+	c #3F4A70",
"P+	c #404456",
"Q+	c #DFE5F3",
"R+	c #D5E0F0",
"S+	c #3D4453",
"T+	c #3A4568",
"U+	c #4E5982",
"V+	c #6D87B6",
"W+	c #62709E",
"X+	c #555F8A",
"Y+	c #343A4F",
"Z+	c #3F537E",
"`+	c #668EDD",
" @	c #597DC5",
".@	c #303E5C",
"+@	c #3A4357",
"@@	c #445072",
"#@	c #333C52",
"$@	c #44494F",
"%@	c #7C95A3",
"&@	c #262E3D",
"*@	c #A0A9B1",
"=@	c #5E6980",
"-@	c #324576",
";@	c #C8CAD2",
">@	c #9BA3B7",
",@	c #2E3445",
"'@	c #4F5978",
")@	c #D8D9DE",
"!@	c #2B3142",
"~@	c #455681",
"{@	c #565E72",
"]@	c #BFCFD9",
"^@	c #B6CCE5",
"/@	c #5B698A",
"(@	c #23293B",
"_@	c #56638D",
":@	c #7B9DD7",
"<@	c #7DA1E1",
"[@	c #475A80",
"}@	c #434C67",
"|@	c #5C6A98",
"1@	c #677BB2",
"2@	c #6685C4",
"3@	c #6791E1",
"4@	c #7BA5EB",
"5@	c #4B5C7B",
"6@	c #1E2026",
"7@	c #444D55",
"8@	c #79868D",
"9@	c #4B5259",
"0@	c #6B7786",
"a@	c #B1C0D7",
"b@	c #2B334A",
"c@	c #788AAD",
"d@	c #EBEDF2",
"e@	c #66779C",
"f@	c #242C39",
"g@	c #D9DCE2",
"h@	c #C2CEE3",
"i@	c #464F63",
"j@	c #374458",
"k@	c #546173",
"l@	c #97ADC6",
"m@	c #B5D5F7",
"n@	c #8BA3C4",
"o@	c #323A4F",
"p@	c #515D77",
"q@	c #6E8CBE",
"r@	c #729BE0",
"s@	c #779FE7",
"t@	c #455981",
"u@	c #202530",
"v@	c #242832",
"w@	c #2D374D",
"x@	c #55729B",
"y@	c #A9CAD7",
"z@	c #677A89",
"A@	c #465159",
"B@	c #616D7B",
"C@	c #88909B",
"D@	c #2F3747",
"E@	c #CCD7DF",
"F@	c #525C70",
"G@	c #4F638E",
"H@	c #B3B5BA",
"I@	c #BDC0C7",
"J@	c #6C80A8",
"K@	c #DFEDF4",
"L@	c #A6BBCB",
"M@	c #374869",
"N@	c #232A39",
"O@	c #526286",
"P@	c #7288A8",
"Q@	c #A0C5F3",
"R@	c #87A7CE",
"S@	c #384150",
"T@	c #282C35",
"U@	c #4D6083",
"V@	c #8DB7F3",
"W@	c #7DADF3",
"X@	c #7199CA",
"Y@	c #7D9DC6",
"Z@	c #5C71A3",
"`@	c #424E66",
" #	c #576478",
".#	c #5A6B87",
"+#	c #414954",
"@#	c #4F5E73",
"##	c #B0BCC5",
"$#	c #363F4C",
"%#	c #BBCDE3",
"&#	c #D3E3F0",
"*#	c #2A3242",
"=#	c #51648B",
"-#	c #DEE0E4",
";#	c #313E5E",
">#	c #374871",
",#	c #62728D",
"'#	c #C5E2F2",
")#	c #A2BCD1",
"!#	c #596B91",
"~#	c #272C38",
"{#	c #484F64",
"]#	c #6A7C9E",
"^#	c #89ADDB",
"/#	c #77869D",
"(#	c #454F65",
"_#	c #2E3647",
":#	c #354258",
"<#	c #89AABE",
"[#	c #CCE9F5",
"}#	c #92B3C9",
"|#	c #4D5E76",
"1#	c #242935",
"2#	c #17181C",
"3#	c #4B556B",
"4#	c #515F72",
"5#	c #89939D",
"6#	c #6A7B8E",
"7#	c #6B7C8D",
"8#	c #D8DBE0",
"9#	c #5A6682",
"0#	c #2C3D64",
"a#	c #EAF0F8",
"b#	c #A1B7C2",
"c#	c #6E7D8C",
"d#	c #5D6D8D",
"e#	c #677BA9",
"f#	c #6C82AE",
"g#	c #97B5D5",
"h#	c #A2C5E9",
"i#	c #8DB5F4",
"j#	c #6B87C8",
"k#	c #3A4665",
"l#	c #3F4862",
"m#	c #545D78",
"n#	c #4C5569",
"o#	c #9DADC8",
"p#	c #2B3A58",
"q#	c #798AAF",
"r#	c #D4DEF0",
"s#	c #454D5E",
"t#	c #6D778D",
"u#	c #E6EDF2",
"v#	c #9FAFCF",
"w#	c #29324C",
"x#	c #435283",
"y#	c #4D5566",
"z#	c #B2C3D0",
"A#	c #CAE4F1",
"B#	c #A3B5CB",
"C#	c #4F5464",
"D#	c #43454F",
"E#	c #656975",
"F#	c #85A2BF",
"G#	c #9EC5F4",
"H#	c #7694C8",
"I#	c #3E4B6B",
"J#	c #252A37",
"K#	c #1E2028",
"L#	c #16171C",
"M#	c #1F2229",
"N#	c #384564",
"O#	c #343D54",
"P#	c #3A4158",
"Q#	c #616D94",
"R#	c #333E5F",
"S#	c #868EAA",
"T#	c #49567A",
"U#	c #2A3F72",
"V#	c #A6AEBF",
"W#	c #333D5B",
"X#	c #8690A5",
"Y#	c #D0DFF5",
"Z#	c #7B88AC",
"`#	c #353E5B",
" $	c #454F6E",
".$	c #464E62",
"+$	c #A4B8D4",
"@$	c #A9C6F3",
"#$	c #8599C5",
"$$	c #676F88",
"%$	c #40424B",
"&$	c #97ABD1",
"*$	c #7A98DC",
"=$	c #7293E3",
"-$	c #5F7ABB",
";$	c #627BB1",
">$	c #586988",
",$	c #2B2F3B",
"'$	c #16171B",
")$	c #18191C",
"!$	c #36405E",
"~$	c #5A6896",
"{$	c #2D3244",
"]$	c #909ACA",
"^$	c #3D5189",
"/$	c #475070",
"($	c #7D87B1",
"_$	c #374D8F",
":$	c #262F49",
"<$	c #6876A1",
"[$	c #ABB7E6",
"}$	c #8792BF",
"|$	c #545D7F",
"1$	c #3D4257",
"2$	c #404352",
"3$	c #67708B",
"4$	c #879BDB",
"5$	c #819AE3",
"6$	c #8796C2",
"7$	c #525970",
"8$	c #3D414C",
"9$	c #373C4D",
"0$	c #404C6D",
"a$	c #556BA5",
"b$	c #536DB0",
"c$	c #5874BB",
"d$	c #5770B2",
"e$	c #344164",
"f$	c #3C486C",
"g$	c #515878",
"h$	c #313545",
"i$	c #5E617B",
"j$	c #7E89B8",
"k$	c #2B334C",
"l$	c #A8ADDC",
"m$	c #8492D1",
"n$	c #252A3B",
"o$	c #2B3048",
"p$	c #636C93",
"q$	c #919AC9",
"r$	c #8792BE",
"s$	c #51576E",
"t$	c #575B6C",
"u$	c #5E5F69",
"v$	c #565B6C",
"w$	c #6F7BA2",
"x$	c #7187CC",
"y$	c #6377B4",
"z$	c #5B6581",
"A$	c #4B5169",
"B$	c #535E7E",
"C$	c #6373A1",
"D$	c #566796",
"E$	c #3D4866",
"F$	c #38476D",
"G$	c #37476F",
"H$	c #323646",
"I$	c #394059",
"J$	c #545971",
"K$	c #202128",
"L$	c #696B8C",
"M$	c #2A3A6B",
"N$	c #565F84",
"O$	c #9297CD",
"P$	c #7579A1",
"Q$	c #414B72",
"R$	c #37405F",
"S$	c #525D80",
"T$	c #70779D",
"U$	c #8993C2",
"V$	c #686F8E",
"W$	c #525563",
"X$	c #525462",
"Y$	c #4D4E58",
"Z$	c #454A5E",
"`$	c #68759C",
" %	c #3A4872",
".%	c #2A324C",
"+%	c #1D212D",
"@%	c #21232C",
"#%	c #3A3C47",
"$%	c #303444",
"%%	c #191B1E",
"&%	c #34394B",
"*%	c #404764",
"=%	c #484B5E",
"-%	c #242632",
";%	c #6681CC",
">%	c #2D3855",
",%	c #424E77",
"'%	c #8388B9",
")%	c #7C83B8",
"!%	c #383E58",
"~%	c #404969",
"{%	c #434A63",
"]%	c #5C6485",
"^%	c #717AA6",
"/%	c #666E95",
"(%	c #5A5F76",
"_%	c #4A4C56",
":%	c #656B7F",
"<%	c #606A84",
"[%	c #3B4159",
"}%	c #3C4B76",
"|%	c #44578F",
"1%	c #3C4D7E",
"2%	c #364570",
"3%	c #303C61",
"4%	c #2E364D",
"5%	c #323546",
"6%	c #444A66",
"7%	c #8399CC",
"8%	c #6E819E",
"9%	c #3E507C",
"0%	c #344169",
"a%	c #6A79B5",
"b%	c #7376A1",
"c%	c #565C7B",
"d%	c #434D69",
"e%	c #4F597A",
"f%	c #49506B",
"g%	c #5B6381",
"h%	c #535C81",
"i%	c #5B678F",
"j%	c #454B66",
"k%	c #40465A",
"l%	c #474E69",
"m%	c #4D5261",
"n%	c #282A2F",
"o%	c #24293C",
"p%	c #333D59",
"q%	c #303C5F",
"r%	c #2D2F3B",
"s%	c #373D54",
"t%	c #3C4057",
"u%	c #3F5083",
"v%	c #849ABA",
"w%	c #334373",
"x%	c #344578",
"y%	c #525D8F",
"z%	c #686E9B",
"A%	c #5B6282",
"B%	c #424A67",
"C%	c #4D5B81",
"D%	c #444D65",
"E%	c #434B68",
"F%	c #5B668C",
"G%	c #58638C",
"H%	c #465074",
"I%	c #414B6E",
"J%	c #2F364B",
"K%	c #252830",
"L%	c #3F4046",
"M%	c #343740",
"N%	c #191A1E",
"O%	c #1A1B21",
"P%	c #2D303E",
"Q%	c #373E59",
"R%	c #3F4154",
"S%	c #3C3D50",
"T%	c #262C3D",
"U%	c #495672",
"V%	c #6477A2",
"W%	c #3D4D7A",
"X%	c #33426E",
"Y%	c #363F5F",
"Z%	c #4B5171",
"`%	c #525875",
" &	c #4F5774",
".&	c #444C68",
"+&	c #485375",
"@&	c #3E455E",
"#&	c #454F70",
"$&	c #56638A",
"%&	c #383F57",
"&&	c #313A57",
"*&	c #3D496E",
"=&	c #323D60",
"-&	c #364265",
";&	c #222736",
">&	c #2C2F3D",
",&	c #31374C",
"'&	c #33374A",
")&	c #3A3C4D",
"!&	c #1D1F26",
"~&	c #303850",
"{&	c #4E5B8D",
"]&	c #43496D",
"^&	c #344068",
"/&	c #3B466A",
"(&	c #353E5D",
"_&	c #49506E",
":&	c #454A64",
"<&	c #414864",
"[&	c #495372",
"}&	c #292D3B",
"|&	c #3B3D49",
"1&	c #1F2128",
"2&	c #363C51",
"3&	c #1D212F",
"4&	c #272A36",
"5&	c #2B3146",
"6&	c #2F364E",
"7&	c #383B4E",
"8&	c #3F496A",
"9&	c #303751",
"0&	c #3A3E55",
"a&	c #3C3E52",
"b&	c #3A4059",
"c&	c #394260",
"d&	c #2C334A",
"e&	c #383F56",
"f&	c #383D51",
"g&	c #353A4C",
"h&	c #32384C",
"i&	c #31374B",
"j&	c #333950",
"k&	c #282E41",
"l&	c #202431",
"m&	c #1A1B1F",
"n&	c #262B37",
"o&	c #282C3D",
"p&	c #303547",
"q&	c #393D53",
"r&	c #32384E",
"s&	c #343B54",
"t&	c #292C38",
"u&	c #2F3242",
"v&	c #2C303F",
"w&	c #2C2F3C",
"x&	c #252832",
"y&	c #2D313E",
"z&	c #262935",
"A&	c #2A2E3C",
"B&	c #21242F",
"C&	c #20242E",
"D&	c #222429",
"E&	c #262A3B",
"F&	c #1A1C22",
"G&	c #282C3B",
"H&	c #30364C",
"I&	c #333A54",
"J&	c #2A3044",
"K&	c #272A37",
"L&	c #292E3F",
"M&	c #2A2F42",
"N&	c #272D3F",
"O&	c #1E212A",
"P&	c #1B1C1F",
"Q&	c #1C1E21",
"R&	c #1D1F22",
"S&	c #22242D",
"T&	c #232631",
"U&	c #222734",
"V&	c #1C1D23",
"W&	c #1E1F22",
"X&	c #1C1D21",
"                        . + @ # $ % & *                         ",
"                  = - ; > , ' ) ! ~ { ] ^ / (                   ",
"                _ : < [ } | 1 2 3 4 5 6 7 8 9 0                 ",
"            a b c d e f g h i j k k l m n o p q r s             ",
"          t u v w x y z A B C k D k E F G H I J K L M           ",
"        N O P Q R S T U V W X k Y k Z `  ...+.@.#.$.%.&.        ",
"      *.=.-.;.>.,.'.).!.~.{.k k ].k k ^./.(._.:.<.[.}.|.1.      ",
"      2.3.4.5.6.7.8.9.0.a.b.k c.d.e.k f.g.h.i.j.k.l.m.n.o.      ",
"    p.q.r.s.t.u.v.w.x.y.z.k k A.B.C.k D.E.6 F.G.H.I.J.K.L.0     ",
"  M.N.O.P.Q.R.S.T.U.V.W.X.k Y.Z.`. +k .+++@+#+$+%+&+*+=+-+;+>+  ",
"  ,+'+)+!+~+{+]+^+/+(+_+:+k <+[+}+|+k k 1+2+3+4+5+6+7+8+9+0+a+  ",
"  b+c+d+e+f+g+h+i+j+k+l+k m+n+o+p+q+r+k s+t+u+v+w+x+y+z+A+B+C+  ",
"D+E+F+G+H+I+J+K+L+M+N+k O+P+Q+R+S+T+U+k k V+W+X+Y+Z+`+ @.@+@@@#@",
"$@%@&@*@=@-@;@>@,@'@)@k !@~@{@]@^@/@(@_@k :@<@[@}@|@1@2@3@4@5@6@",
"7@8@9@0@a@b@c@d@e@f@k g@h@i@j@k@l@m@n@o@k p@q@r@s@t@u@v@w@x@y@z@",
"A@B@C@D@E@F@G@H@I@k k J@K@L@M@N@O@P@Q@R@k S@T@U@V@W@X@Y@Z@`@ #.#",
"+#@###$#%#&#*#=#-#k ;#>#,#'#)#!#~#{#]#^#k k /#(#_#:#<#[#}#|#1#2#",
"3#4#5#6#7#8#9#0#k a#k k k k k k k k k k k k b#c#d#e#f#g#h#i#j#k#",
"l#m#n#o#p#q#r#s#k t#u#v#w#x#y#z#A#B#C#D#E#k F#G#H#I#J#K#L#M#N#O#",
"P#Q#R#S#T#U#V#k k W#X#Y#Z#`# $.$+$@$#$$$%$k k &$*$=$-$;$>$,$'$)$",
"  !$~${$]$^$/$k ($_$:$<$[$}$|$1$2$3$4$5$6$7$k 8$9$0$a$b$c$d$e$  ",
"  f$g$h$i$j$k$k l$m$n$o$p$q$r$s$t$u$v$w$x$y$k z$A$B$C$D$E$F$G$  ",
"  H$I$J$K$L$k M$N$O$P$Q$R$S$T$U$V$W$X$Y$Z$`$k k  %.%+%@%#%$%%%  ",
"    &%*%=%-%k ;%>%,%'%)%!%~%{%]%^%/%(%_%:%<%[%k }%|%1%2%3%4%    ",
"      5%6%k k 7%8%9%0%a%b%c%d%e%f%g%h%i%j%k%l%k m%n%o%p%q%      ",
"      r%s%k t%u%v%D.w%x%y%z%A%B%C%D%E%F%G%H%I%J%K%L%M%N%O%      ",
"        P%Q%R%S%T%U%V%W%X%Y%Z%`% &.&+&@&#&$&%&&&*&=&-&;&        ",
"          >&,&'&)&!&~&{&]&^&/&(&_&:&<&%&[&}&|&1&2&;&3&          ",
"            4&5&6&7&8&9&0&a&b&c&d&e&f&g&h&i&j&k&l&m&            ",
"                n&o&p&q&r&s&t&u&v&w&x&y&z&A&B&C&                ",
"                  D&E&F&G&t&H&I&J&K&L&M&N&O&P&                  ",
"                        Q&R&S&T&U&V&W&X&                        "};
