/* XPM */
static char * rdairplay_xpm[] = {
"32 32 703 2",
"  	c None",
". 	c #3D485E",
"+ 	c #3D485F",
"@ 	c #364156",
"# 	c #3B475D",
"$ 	c #414F69",
"% 	c #37435A",
"& 	c #36425B",
"* 	c #3B4A68",
"= 	c #2F3645",
"- 	c #4B5871",
"; 	c #505D74",
"> 	c #4D586E",
", 	c #454F62",
"' 	c #606E88",
") 	c #5B6985",
"! 	c #414D64",
"~ 	c #536280",
"{ 	c #4E5F81",
"] 	c #3F4E69",
"^ 	c #435478",
"/ 	c #384868",
"( 	c #2E384D",
"_ 	c #424D5E",
": 	c #576375",
"< 	c #57606E",
"[ 	c #525B6A",
"} 	c #778192",
"| 	c #3B414B",
"1 	c #8A98A8",
"2 	c #404753",
"3 	c #758398",
"4 	c #4B5669",
"5 	c #58667F",
"6 	c #51607E",
"7 	c #404D68",
"8 	c #47587A",
"9 	c #394868",
"0 	c #364566",
"a 	c #30353E",
"b 	c #E11313",
"c 	c #484F5D",
"d 	c #8F96A5",
"e 	c #3D414E",
"f 	c #A1A6B3",
"g 	c #4D5363",
"h 	c #8992A1",
"i 	c #686E79",
"j 	c #545E70",
"k 	c #8494A9",
"l 	c #3C4454",
"m 	c #586581",
"n 	c #6478A1",
"o 	c #3D4964",
"p 	c #46587D",
"q 	c #4A5D87",
"r 	c #323E5C",
"s 	c #354464",
"t 	c #23262D",
"u 	c #636F7E",
"v 	c #222531",
"w 	c #C7C8CD",
"x 	c #393C48",
"y 	c #A3A6B3",
"z 	c #7A7D86",
"A 	c #404557",
"B 	c #BEC3D0",
"C 	c #535768",
"D 	c #434B5E",
"E 	c #5E6983",
"F 	c #3D465C",
"G 	c #6A7EA7",
"H 	c #506285",
"I 	c #45567B",
"J 	c #445983",
"K 	c #3A4A70",
"L 	c #293246",
"M 	c #404B5C",
"N 	c #48505C",
"O 	c #6F7A88",
"P 	c #20222B",
"Q 	c #DBDDE2",
"R 	c #50535F",
"S 	c #6C6E76",
"T 	c #D1D3DC",
"U 	c #2A2E3F",
"V 	c #505564",
"W 	c #C4C9D3",
"X 	c #5C6374",
"Y 	c #3C4F7A",
"Z 	c #374668",
"` 	c #2A2E35",
" .	c #54627A",
"..	c #9299A1",
"+.	c #3C404D",
"@.	c #373E55",
"#.	c #CCCDD6",
"$.	c #767989",
"%.	c #3C435E",
"&.	c #A8AAB4",
"*.	c #A8AAB8",
"=.	c #363B4E",
"-.	c #565A68",
";.	c #C2CEDA",
">.	c #353E56",
",.	c #54617C",
"'.	c #86A2D2",
").	c #5E6F96",
"!.	c #4A557A",
"~.	c #45567D",
"{.	c #5975B2",
"].	c #3A4362",
"^.	c #202023",
"/.	c #627183",
"(.	c #394152",
"_.	c #B8BBC3",
":.	c #848591",
"<.	c #1C202C",
"[.	c #A2A8BE",
"}.	c #C9CAD3",
"|.	c #212431",
"1.	c #4D5164",
"2.	c #D7D7DB",
"3.	c #8B8C95",
"4.	c #36384A",
"5.	c #4D5160",
"6.	c #8495AC",
"7.	c #424C72",
"8.	c #3B4560",
"9.	c #5F749D",
"0.	c #6A86B9",
"a.	c #526288",
"b.	c #5F6D9F",
"c.	c #5572B5",
"d.	c #2F3D5B",
"e.	c #47566D",
"f.	c #7D8C9E",
"g.	c #33343A",
"h.	c #C6C7CF",
"i.	c #6E7792",
"j.	c #424A62",
"k.	c #494C57",
"l.	c #DFE0E3",
"m.	c #8C8E9C",
"n.	c #22242C",
"o.	c #616471",
"p.	c #DDDEE2",
"q.	c #838692",
"r.	c #404357",
"s.	c #8293AB",
"t.	c #97AFD1",
"u.	c #444C73",
"v.	c #4A5579",
"w.	c #607DB6",
"x.	c #5977B2",
"y.	c #464E6C",
"z.	c #4D6399",
"A.	c #363F4B",
"B.	c #4B596D",
"C.	c #8492A4",
"D.	c #363A46",
"E.	c #CFD0D4",
"F.	c #3C4256",
"G.	c #5F6169",
"H.	c #555B77",
"I.	c #8E909D",
"J.	c #DCDCE3",
"K.	c #717385",
"L.	c #24252D",
"M.	c #616472",
"N.	c #E8EBF3",
"O.	c #A0A9BC",
"P.	c #424C70",
"Q.	c #8BA3C8",
"R.	c #96B6E9",
"S.	c #647AA9",
"T.	c #293044",
"U.	c #46506E",
"V.	c #667BB3",
"W.	c #313A54",
"X.	c #1F242E",
"Y.	c #222326",
"Z.	c #657B92",
"`.	c #3C4558",
" +	c #919FB2",
".+	c #262C3C",
"++	c #BEC1CA",
"@+	c #384467",
"#+	c #C9CDDC",
"$+	c #2A2D3A",
"%+	c #3D4253",
"&+	c #C5C6CD",
"*+	c #D6D6DF",
"=+	c #53586E",
"-+	c #34384B",
";+	c #4E5365",
">+	c #C1D2E5",
",+	c #505A79",
"'+	c #212331",
")+	c #3F486A",
"!+	c #7E9BD4",
"~+	c #84AAEF",
"{+	c #5A70A8",
"]+	c #252C3C",
"^+	c #242938",
"/+	c #5D82D2",
"(+	c #48649F",
"_+	c #273147",
":+	c #6F8398",
"<+	c #333841",
"[+	c #A0ABB5",
"}+	c #283454",
"|+	c #99A1B7",
"1+	c #21283B",
"2+	c #EBECF2",
"3+	c #71778C",
"4+	c #2D344D",
"5+	c #4C4E5D",
"6+	c #D4D8E4",
"7+	c #BDC0CB",
"8+	c #41465B",
"9+	c #454E73",
"0+	c #464C60",
"a+	c #A3BEDE",
"b+	c #6876A0",
"c+	c #353B57",
"d+	c #272C3C",
"e+	c #3E4C6D",
"f+	c #7DA2EA",
"g+	c #6487CB",
"h+	c #2B3550",
"i+	c #3A4E7A",
"j+	c #5170A4",
"k+	c #4C4E51",
"l+	c #8096AC",
"m+	c #2C323F",
"n+	c #B7C4D0",
"o+	c #3C4A6C",
"p+	c #DCDCE1",
"q+	c #5D6A8F",
"r+	c #242D47",
"s+	c #DBDBDE",
"t+	c #575D70",
"u+	c #3F4A70",
"v+	c #404456",
"w+	c #DFE5F3",
"x+	c #D5E0F0",
"y+	c #3D4453",
"z+	c #3A4568",
"A+	c #67799B",
"B+	c #9EC0F4",
"C+	c #6D87B6",
"D+	c #62709E",
"E+	c #555F8A",
"F+	c #343A4F",
"G+	c #3F537E",
"H+	c #597DC5",
"I+	c #303E5C",
"J+	c #3A4357",
"K+	c #445072",
"L+	c #333C52",
"M+	c #44494F",
"N+	c #7C95A3",
"O+	c #262E3D",
"P+	c #A0A9B1",
"Q+	c #5E6980",
"R+	c #C8CAD2",
"S+	c #9BA3B7",
"T+	c #2E3445",
"U+	c #D8D9DE",
"V+	c #CAD0E2",
"W+	c #2B3142",
"X+	c #455681",
"Y+	c #565E72",
"Z+	c #BFCFD9",
"`+	c #B6CCE5",
" @	c #5B698A",
".@	c #56638D",
"+@	c #6A7EAB",
"@@	c #7B9DD7",
"#@	c #7DA1E1",
"$@	c #475A80",
"%@	c #677BB2",
"&@	c #6685C4",
"*@	c #6791E1",
"=@	c #7BA5EB",
"-@	c #4B5C7B",
";@	c #1E2026",
">@	c #444D55",
",@	c #79868D",
"'@	c #4B5259",
")@	c #6B7786",
"!@	c #788AAD",
"~@	c #EBEDF2",
"{@	c #66779C",
"]@	c #7B8DAB",
"^@	c #D9DCE2",
"/@	c #C2CEE3",
"(@	c #464F63",
"_@	c #374458",
":@	c #546173",
"<@	c #97ADC6",
"[@	c #B5D5F7",
"}@	c #8BA3C4",
"|@	c #383F4C",
"1@	c #515D77",
"2@	c #455981",
"3@	c #202530",
"4@	c #242832",
"5@	c #2D374D",
"6@	c #55729B",
"7@	c #A9CAD7",
"8@	c #677A89",
"9@	c #465159",
"0@	c #616D7B",
"a@	c #88909B",
"b@	c #2F3747",
"c@	c #525C70",
"d@	c #4F638E",
"e@	c #B3B5BA",
"f@	c #BDC0C7",
"g@	c #313D4E",
"h@	c #6C80A8",
"i@	c #DFEDF4",
"j@	c #A6BBCB",
"k@	c #374869",
"l@	c #232A39",
"m@	c #526286",
"n@	c #7288A8",
"o@	c #A0C5F3",
"p@	c #4D6083",
"q@	c #8DB7F3",
"r@	c #7DADF3",
"s@	c #7199CA",
"t@	c #7D9DC6",
"u@	c #5C71A3",
"v@	c #424E66",
"w@	c #576478",
"x@	c #5A6B87",
"y@	c #414954",
"z@	c #4F5E73",
"A@	c #B0BCC5",
"B@	c #363F4C",
"C@	c #D3E3F0",
"D@	c #2A3242",
"E@	c #51648B",
"F@	c #DEE0E4",
"G@	c #313E5E",
"H@	c #374871",
"I@	c #62728D",
"J@	c #C5E2F2",
"K@	c #A2BCD1",
"L@	c #596B91",
"M@	c #272C38",
"N@	c #484F64",
"O@	c #6A7C9E",
"P@	c #8EBBEB",
"Q@	c #819FC2",
"R@	c #77869D",
"S@	c #454F65",
"T@	c #2E3647",
"U@	c #354258",
"V@	c #89AABE",
"W@	c #CCE9F5",
"X@	c #92B3C9",
"Y@	c #4D5E76",
"Z@	c #242935",
"`@	c #17181C",
" #	c #4B556B",
".#	c #515F72",
"+#	c #89939D",
"@#	c #8E9AB4",
"##	c #252B3F",
"$#	c #42568E",
"%#	c #56667D",
"&#	c #D9F3FC",
"*#	c #BED0D8",
"=#	c #6F7586",
"-#	c #30333F",
";#	c #515667",
">#	c #88A5B6",
",#	c #C5E7F6",
"'#	c #A1B7C2",
")#	c #6E7D8C",
"!#	c #5D6D8D",
"~#	c #677BA9",
"{#	c #6C82AE",
"]#	c #97B5D5",
"^#	c #A2C5E9",
"/#	c #8DB5F4",
"(#	c #6B87C8",
"_#	c #3A4665",
":#	c #3F4862",
"<#	c #545D78",
"[#	c #4C5569",
"}#	c #2B3A58",
"|#	c #798AAF",
"1#	c #D4DEF0",
"2#	c #454D5E",
"3#	c #374D81",
"4#	c #E6EDF2",
"5#	c #9FAFCF",
"6#	c #29324C",
"7#	c #435283",
"8#	c #4D5566",
"9#	c #B2C3D0",
"0#	c #CAE4F1",
"a#	c #A3B5CB",
"b#	c #4F5464",
"c#	c #656975",
"d#	c #69768D",
"e#	c #85A2BF",
"f#	c #9EC5F4",
"g#	c #7694C8",
"h#	c #3E4B6B",
"i#	c #252A37",
"j#	c #1E2028",
"k#	c #16171C",
"l#	c #1F2229",
"m#	c #384564",
"n#	c #343D54",
"o#	c #3A4158",
"p#	c #616D94",
"q#	c #868EAA",
"r#	c #49567A",
"s#	c #2A3F72",
"t#	c #A6AEBF",
"u#	c #999EB2",
"v#	c #435A8F",
"w#	c #8690A5",
"x#	c #D0DFF5",
"y#	c #7B88AC",
"z#	c #353E5B",
"A#	c #454F6E",
"B#	c #464E62",
"C#	c #A4B8D4",
"D#	c #A9C6F3",
"E#	c #8599C5",
"F#	c #40424B",
"G#	c #7F89A4",
"H#	c #97ABD1",
"I#	c #7A98DC",
"J#	c #7293E3",
"K#	c #5F7ABB",
"L#	c #627BB1",
"M#	c #586988",
"N#	c #2B2F3B",
"O#	c #16171B",
"P#	c #18191C",
"Q#	c #36405E",
"R#	c #2D3244",
"S#	c #909ACA",
"T#	c #3D5189",
"U#	c #475070",
"V#	c #ADB5E0",
"W#	c #7D87B1",
"X#	c #262F49",
"Y#	c #6876A1",
"Z#	c #ABB7E6",
"`#	c #8792BF",
" $	c #545D7F",
".$	c #3D4257",
"+$	c #404352",
"@$	c #67708B",
"#$	c #879BDB",
"$$	c #8796C2",
"%$	c #525970",
"&$	c #3D414C",
"*$	c #373C4D",
"=$	c #404C6D",
"-$	c #556BA5",
";$	c #536DB0",
">$	c #5874BB",
",$	c #5770B2",
"'$	c #344164",
")$	c #515878",
"!$	c #313545",
"~$	c #5E617B",
"{$	c #7E89B8",
"]$	c #2B334C",
"^$	c #48506F",
"/$	c #A8ADDC",
"($	c #252A3B",
"_$	c #2B3048",
":$	c #636C93",
"<$	c #919AC9",
"[$	c #8792BE",
"}$	c #51576E",
"|$	c #575B6C",
"1$	c #5E5F69",
"2$	c #565B6C",
"3$	c #6F7BA2",
"4$	c #6377B4",
"5$	c #6F80AC",
"6$	c #5B6581",
"7$	c #4B5169",
"8$	c #535E7E",
"9$	c #6373A1",
"0$	c #566796",
"a$	c #3D4866",
"b$	c #38476D",
"c$	c #37476F",
"d$	c #394059",
"e$	c #545971",
"f$	c #202128",
"g$	c #696B8C",
"h$	c #656FA5",
"i$	c #2A3A6B",
"j$	c #565F84",
"k$	c #9297CD",
"l$	c #414B72",
"m$	c #37405F",
"n$	c #525D80",
"o$	c #70779D",
"p$	c #8993C2",
"q$	c #686F8E",
"r$	c #525563",
"s$	c #525462",
"t$	c #4D4E58",
"u$	c #68759C",
"v$	c #52649C",
"w$	c #4F64A0",
"x$	c #3A4872",
"y$	c #2A324C",
"z$	c #1D212D",
"A$	c #21232C",
"B$	c #3A3C47",
"C$	c #303444",
"D$	c #191B1E",
"E$	c #34394B",
"F$	c #404764",
"G$	c #484B5E",
"H$	c #242632",
"I$	c #8596DE",
"J$	c #6681CC",
"K$	c #2D3855",
"L$	c #424E77",
"M$	c #7C83B8",
"N$	c #383E58",
"O$	c #404969",
"P$	c #434A63",
"Q$	c #5C6485",
"R$	c #717AA6",
"S$	c #666E95",
"T$	c #5A5F76",
"U$	c #4A4C56",
"V$	c #606A84",
"W$	c #3B4159",
"X$	c #323B56",
"Y$	c #3C4B76",
"Z$	c #44578F",
"`$	c #3C4D7E",
" %	c #364570",
".%	c #303C61",
"+%	c #2E364D",
"@%	c #323546",
"#%	c #444A66",
"$%	c #3D3F4F",
"%%	c #404A66",
"&%	c #8399CC",
"*%	c #6E819E",
"=%	c #3E507C",
"-%	c #6A79B5",
";%	c #7376A1",
">%	c #565C7B",
",%	c #434D69",
"'%	c #4F597A",
")%	c #49506B",
"!%	c #5B6381",
"~%	c #535C81",
"{%	c #5B678F",
"]%	c #40465A",
"^%	c #474E69",
"/%	c #5A688F",
"(%	c #4D5261",
"_%	c #282A2F",
":%	c #24293C",
"<%	c #333D59",
"[%	c #303C5F",
"}%	c #2D2F3B",
"|%	c #373D54",
"1%	c #474A5F",
"2%	c #3C4057",
"3%	c #3F5083",
"4%	c #849ABA",
"5%	c #344578",
"6%	c #525D8F",
"7%	c #686E9B",
"8%	c #5B6282",
"9%	c #424A67",
"0%	c #4D5B81",
"a%	c #444D65",
"b%	c #434B68",
"c%	c #5B668C",
"d%	c #58638C",
"e%	c #465074",
"f%	c #414B6E",
"g%	c #2F364B",
"h%	c #252830",
"i%	c #3F4046",
"j%	c #343740",
"k%	c #191A1E",
"l%	c #1A1B21",
"m%	c #2D303E",
"n%	c #373E59",
"o%	c #3F4154",
"p%	c #3C3D50",
"q%	c #262C3D",
"r%	c #495672",
"s%	c #6477A2",
"t%	c #33426E",
"u%	c #363F5F",
"v%	c #4B5171",
"w%	c #525875",
"x%	c #4F5774",
"y%	c #444C68",
"z%	c #485375",
"A%	c #3E455E",
"B%	c #454F70",
"C%	c #56638A",
"D%	c #383F57",
"E%	c #313A57",
"F%	c #3D496E",
"G%	c #323D60",
"H%	c #364265",
"I%	c #222736",
"J%	c #2C2F3D",
"K%	c #31374C",
"L%	c #33374A",
"M%	c #3A3C4D",
"N%	c #1D1F26",
"O%	c #303850",
"P%	c #4E5B8D",
"Q%	c #43496D",
"R%	c #344068",
"S%	c #3B466A",
"T%	c #353E5D",
"U%	c #49506E",
"V%	c #454A64",
"W%	c #414864",
"X%	c #495372",
"Y%	c #292D3B",
"Z%	c #3B3D49",
"`%	c #1F2128",
" &	c #363C51",
".&	c #1D212F",
"+&	c #272A36",
"@&	c #2B3146",
"#&	c #2F364E",
"$&	c #383B4E",
"%&	c #3F496A",
"&&	c #303751",
"*&	c #3A3E55",
"=&	c #3C3E52",
"-&	c #3A4059",
";&	c #394260",
">&	c #2C334A",
",&	c #383F56",
"'&	c #383D51",
")&	c #353A4C",
"!&	c #32384C",
"~&	c #31374B",
"{&	c #333950",
"]&	c #282E41",
"^&	c #202431",
"/&	c #1A1B1F",
"(&	c #262B37",
"_&	c #282C3D",
":&	c #303547",
"<&	c #393D53",
"[&	c #32384E",
"}&	c #343B54",
"|&	c #292C38",
"1&	c #2F3242",
"2&	c #2C303F",
"3&	c #2C2F3C",
"4&	c #252832",
"5&	c #2D313E",
"6&	c #262935",
"7&	c #2A2E3C",
"8&	c #21242F",
"9&	c #20242E",
"0&	c #222429",
"a&	c #262A3B",
"b&	c #1A1C22",
"c&	c #282C3B",
"d&	c #30364C",
"e&	c #333A54",
"f&	c #2A3044",
"g&	c #272A37",
"h&	c #292E3F",
"i&	c #2A2F42",
"j&	c #272D3F",
"k&	c #1E212A",
"l&	c #1B1C1F",
"m&	c #1C1E21",
"n&	c #1D1F22",
"o&	c #22242D",
"p&	c #232631",
"q&	c #222734",
"r&	c #1C1D23",
"s&	c #1E1F22",
"t&	c #1C1D21",
"                        . + @ # $ % & *                         ",
"                  = - ; > , ' ) ! ~ { ] ^ / (                   ",
"                _ : < [ } | 1 2 3 4 5 6 7 8 9 0                 ",
"            a b b c d e f g h i j k l m n o p q r s             ",
"          t u b b v w x y z A B C D b E F G H I J K L           ",
"        M N O b b P Q R S T U V W X b b b b b b b b Y Z         ",
"      `  ...+.b b @.#.$.%.&.*.=.-.;.b >.,.'.).!.~.{.b ].^.      ",
"      /.(._.b :.b <.[.}.|.1.2.3.4.5.b 6.7.8.9.0.a.b.b c.d.      ",
"    e.f.g.h.b i.b j.k.l.m.n.o.p.q.r.b s.t.6 u.v.w.x.b y.z.0     ",
"  A.B.C.D.E.b F.b G.H.I.J.K.L.M.N.O.b P.Q.R.S.T.U.V.b b W.X.Y.  ",
"  Z.`. +.+++b @+b #+$+%+&+*+=+-+;+>+b ,+'+)+!+~+{+]+^+b /+(+_+  ",
"  :+<+[+}+|+b 1+b 2+3+4+5+6+7+8+9+0+b a+b+c+d+e+f+g+b b h+i+j+  ",
"k+l+m+n+o+b p+q+r+b s+t+u+v+w+x+y+z+b A+B+C+D+E+F+G+b H+I+J+K+L+",
"M+N+O+P+Q+b R+S+T+b U+V+W+X+Y+Z+`+ @b .@+@@@#@$@b b %@&@*@=@-@;@",
">@,@'@)@b b !@~@{@b ]@^@/@(@_@:@<@[@}@b |@1@b b b 2@3@4@5@6@7@8@",
"9@0@a@b@b c@d@e@f@b g@h@i@j@k@l@m@n@o@b b b b p@q@r@s@t@u@v@w@x@",
"y@z@A@B@b C@D@E@F@b G@H@I@J@K@L@M@N@O@b P@Q@R@S@T@U@V@W@X@Y@Z@`@",
" #.#+#b b b b b b b @###$#%#&#*#=#-#;#b >#,#'#)#!#~#{#]#^#/#(#_#",
":#<#[#b }#|#1#2#3#b 4#5#6#7#8#9#0#a#b#b c#d#e#f#g#h#i#j#k#l#m#n#",
"o#p#b q#r#s#t#u#v#b w#x#y#z#A#B#C#D#E#b F#5.G#H#I#J#K#L#M#N#O#P#",
"  Q#b R#S#T#U#V#W#b X#Y#Z#`# $.$+$@$#$b $$%$D.&$*$=$-$;$>$,$'$  ",
"  b )$!$~${$]$^$/$b ($_$:$<$[$}$|$1$2$3$b 4$5$6$7$8$9$0$a$b$c$  ",
"b b d$e$f$g$h$i$j$k$b l$m$n$o$p$q$r$s$t$b u$v$w$x$y$z$A$B$C$D$  ",
"b b E$F$G$H$I$J$K$L$b M$N$O$P$Q$R$S$T$U$b V$W$X$Y$Z$`$ %.%+%    ",
"b b   @%#%$%%%&%*%=%b -%;%>%,%'%)%!%~%{%b ]%^%/%(%_%:%<%[%      ",
"      }%|%1%2%3%4%s.b 5%6%7%8%9%0%a%b%c%d%e%f%g%h%i%j%k%l%      ",
"        m%n%o%p%q%r%s%b t%u%v%w%x%y%z%A%B%C%D%E%F%G%H%I%        ",
"          J%K%L%M%N%O%P%Q%R%S%T%U%V%W%D%X%Y%Z%`% &I%.&          ",
"            +&@&#&$&%&&&*&=&-&;&>&,&'&)&!&~&{&]&^&/&            ",
"                (&_&:&<&[&}&|&1&2&3&4&5&6&7&8&9&                ",
"                  0&a&b&c&|&d&e&f&g&h&i&j&k&l&                  ",
"                        m&n&o&p&q&r&s&t&                        "};
