/* XPM */
static char * rdcatch_xpm[] = {
"32 32 745 2",
"  	c None",
". 	c #3D485E",
"+ 	c #3D485F",
"@ 	c #364156",
"# 	c #3B475D",
"$ 	c #414F69",
"% 	c #37435A",
"& 	c #36425B",
"* 	c #3B4A68",
"= 	c #2F3645",
"- 	c #4B5871",
"; 	c #505D74",
"> 	c #4D586E",
", 	c #454F62",
"' 	c #606E88",
") 	c #5B6985",
"! 	c #414D64",
"~ 	c #536280",
"{ 	c #4E5F81",
"] 	c #3F4E69",
"^ 	c #435478",
"/ 	c #384868",
"( 	c #2E384D",
"_ 	c #424D5E",
": 	c #576375",
"< 	c #57606E",
"[ 	c #525B6A",
"} 	c #778192",
"| 	c #3B414B",
"1 	c #8A98A8",
"2 	c #404753",
"3 	c #758398",
"4 	c #4B5669",
"5 	c #58667F",
"6 	c #51607E",
"7 	c #404D68",
"8 	c #47587A",
"9 	c #394868",
"0 	c #364566",
"a 	c #30353E",
"b 	c #485468",
"c 	c #677281",
"d 	c #484F5D",
"e 	c #8F96A5",
"f 	c #3D414E",
"g 	c #A1A6B3",
"h 	c #4D5363",
"i 	c #8992A1",
"j 	c #686E79",
"k 	c #545E70",
"l 	c #8494A9",
"m 	c #3C4454",
"n 	c #586581",
"o 	c #6478A1",
"p 	c #3D4964",
"q 	c #46587D",
"r 	c #4A5D87",
"s 	c #323E5C",
"t 	c #354464",
"u 	c #23262D",
"v 	c #636F7E",
"w 	c #404551",
"x 	c #9BA1A7",
"y 	c #222531",
"z 	c #C7C8CD",
"A 	c #393C48",
"B 	c #A3A6B3",
"C 	c #7A7D86",
"D 	c #404557",
"E 	c #BEC3D0",
"F 	c #535768",
"G 	c #434B5E",
"H 	c #8FA0B8",
"I 	c #5E6983",
"J 	c #3D465C",
"K 	c #6A7EA7",
"L 	c #506285",
"M 	c #45567B",
"N 	c #445983",
"O 	c #3A4A70",
"P 	c #293246",
"Q 	c #404B5C",
"R 	c #48505C",
"S 	c #6F7A88",
"T 	c #636570",
"U 	c #888A94",
"V 	c #20222B",
"W 	c #DBDDE2",
"X 	c #50535F",
"Y 	c #6C6E76",
"Z 	c #D1D3DC",
"` 	c #2A2E3F",
" .	c #505564",
"..	c #C4C9D3",
"+.	c #5C6374",
"@.	c #E11313",
"#.	c #425379",
"$.	c #3E4C6F",
"%.	c #3C4F7A",
"&.	c #374668",
"*.	c #2A2E35",
"=.	c #54627A",
"-.	c #9299A1",
";.	c #3C404D",
">.	c #878996",
",.	c #878A99",
"'.	c #373E55",
").	c #CCCDD6",
"!.	c #767989",
"~.	c #3C435E",
"{.	c #A8AAB4",
"].	c #A8AAB8",
"^.	c #363B4E",
"/.	c #353E56",
"(.	c #54617C",
"_.	c #86A2D2",
":.	c #5E6F96",
"<.	c #3E4E75",
"[.	c #3A4362",
"}.	c #202023",
"|.	c #627183",
"1.	c #394152",
"2.	c #B8BBC3",
"3.	c #2A2D39",
"4.	c #848591",
"5.	c #A0A3B3",
"6.	c #1C202C",
"7.	c #A2A8BE",
"8.	c #C9CAD3",
"9.	c #212431",
"0.	c #4D5164",
"a.	c #4D5160",
"b.	c #AEBFD0",
"c.	c #8495AC",
"d.	c #424C72",
"e.	c #3B4560",
"f.	c #5F749D",
"g.	c #6A86B9",
"h.	c #526288",
"i.	c #5F6D9F",
"j.	c #415582",
"k.	c #5572B5",
"l.	c #2F3D5B",
"m.	c #47566D",
"n.	c #7D8C9E",
"o.	c #33343A",
"p.	c #C6C7CF",
"q.	c #242A3A",
"r.	c #6E7792",
"s.	c #CFD1D8",
"t.	c #424A62",
"u.	c #494C57",
"v.	c #DFE0E3",
"w.	c #8C8E9C",
"x.	c #DDDEE2",
"y.	c #838692",
"z.	c #404357",
"A.	c #4F5777",
"B.	c #8293AB",
"C.	c #97AFD1",
"D.	c #444C73",
"E.	c #4A5579",
"F.	c #607DB6",
"G.	c #5977B2",
"H.	c #333E59",
"I.	c #464E6C",
"J.	c #4D6399",
"K.	c #363F4B",
"L.	c #4B596D",
"M.	c #8492A4",
"N.	c #363A46",
"O.	c #CFD0D4",
"P.	c #3F4C6D",
"Q.	c #3C4256",
"R.	c #ECEEF5",
"S.	c #5F6169",
"T.	c #555B77",
"U.	c #717385",
"V.	c #24252D",
"W.	c #616472",
"X.	c #E8EBF3",
"Y.	c #A0A9BC",
"Z.	c #222430",
"`.	c #424C70",
" +	c #8BA3C8",
".+	c #96B6E9",
"++	c #647AA9",
"@+	c #293044",
"#+	c #46506E",
"$+	c #667BB3",
"%+	c #6A8CD6",
"&+	c #7090DC",
"*+	c #313A54",
"=+	c #1F242E",
"-+	c #222326",
";+	c #657B92",
">+	c #3C4558",
",+	c #919FB2",
"'+	c #262C3C",
")+	c #BEC1CA",
"!+	c #676C7D",
"~+	c #384467",
"{+	c #ADADB5",
"]+	c #3D4253",
"^+	c #C5C6CD",
"/+	c #D6D6DF",
"(+	c #53586E",
"_+	c #34384B",
":+	c #4E5365",
"<+	c #C1D2E5",
"[+	c #B1C4E5",
"}+	c #505A79",
"|+	c #212331",
"1+	c #3F486A",
"2+	c #7E9BD4",
"3+	c #84AAEF",
"4+	c #5A70A8",
"5+	c #252C3C",
"6+	c #242938",
"7+	c #4B5F90",
"8+	c #5D82D2",
"9+	c #48649F",
"0+	c #273147",
"a+	c #6F8398",
"b+	c #333841",
"c+	c #A0ABB5",
"d+	c #283454",
"e+	c #99A1B7",
"f+	c #A8AFBF",
"g+	c #21283B",
"h+	c #71778C",
"i+	c #2D344D",
"j+	c #4C4E5D",
"k+	c #D4D8E4",
"l+	c #BDC0CB",
"m+	c #41465B",
"n+	c #454E73",
"o+	c #464C60",
"p+	c #9AAEC8",
"q+	c #A3BEDE",
"r+	c #6876A0",
"s+	c #353B57",
"t+	c #272C3C",
"u+	c #3E4C6D",
"v+	c #7DA2EA",
"w+	c #6487CB",
"x+	c #647CAB",
"y+	c #535E85",
"z+	c #2B3550",
"A+	c #3A4E7A",
"B+	c #5170A4",
"C+	c #4C4E51",
"D+	c #8096AC",
"E+	c #2C323F",
"F+	c #B7C4D0",
"G+	c #3C4A6C",
"H+	c #4C5773",
"I+	c #DCDCE1",
"J+	c #5D6A8F",
"K+	c #9A9EAD",
"L+	c #DBDBDE",
"M+	c #575D70",
"N+	c #3F4A70",
"O+	c #404456",
"P+	c #DFE5F3",
"Q+	c #D5E0F0",
"R+	c #3D4453",
"S+	c #3A4568",
"T+	c #4E5982",
"U+	c #67799B",
"V+	c #9EC0F4",
"W+	c #6D87B6",
"X+	c #62709E",
"Y+	c #555F8A",
"Z+	c #343A4F",
"`+	c #3F537E",
" @	c #668EDD",
".@	c #597DC5",
"+@	c #303E5C",
"@@	c #3A4357",
"#@	c #445072",
"$@	c #333C52",
"%@	c #44494F",
"&@	c #7C95A3",
"*@	c #262E3D",
"=@	c #A0A9B1",
"-@	c #5E6980",
";@	c #324576",
">@	c #C8CAD2",
",@	c #2E3445",
"'@	c #4F5978",
")@	c #D8D9DE",
"!@	c #CAD0E2",
"~@	c #2B3142",
"{@	c #455681",
"]@	c #565E72",
"^@	c #BFCFD9",
"/@	c #B6CCE5",
"(@	c #5B698A",
"_@	c #23293B",
":@	c #56638D",
"<@	c #6A7EAB",
"[@	c #7B9DD7",
"}@	c #7DA1E1",
"|@	c #475A80",
"1@	c #434C67",
"2@	c #5C6A98",
"3@	c #677BB2",
"4@	c #6685C4",
"5@	c #6791E1",
"6@	c #7BA5EB",
"7@	c #4B5C7B",
"8@	c #1E2026",
"9@	c #444D55",
"0@	c #79868D",
"a@	c #4B5259",
"b@	c #6B7786",
"c@	c #B1C0D7",
"d@	c #2B334A",
"e@	c #788AAD",
"f@	c #66779C",
"g@	c #242C39",
"h@	c #7B8DAB",
"i@	c #D9DCE2",
"j@	c #C2CEE3",
"k@	c #464F63",
"l@	c #374458",
"m@	c #546173",
"n@	c #97ADC6",
"o@	c #B5D5F7",
"p@	c #8BA3C4",
"q@	c #323A4F",
"r@	c #383F4C",
"s@	c #515D77",
"t@	c #6E8CBE",
"u@	c #729BE0",
"v@	c #779FE7",
"w@	c #455981",
"x@	c #202530",
"y@	c #242832",
"z@	c #2D374D",
"A@	c #55729B",
"B@	c #A9CAD7",
"C@	c #677A89",
"D@	c #465159",
"E@	c #616D7B",
"F@	c #88909B",
"G@	c #2F3747",
"H@	c #CCD7DF",
"I@	c #525C70",
"J@	c #4F638E",
"K@	c #BDC0C7",
"L@	c #506A96",
"M@	c #313D4E",
"N@	c #6C80A8",
"O@	c #DFEDF4",
"P@	c #A6BBCB",
"Q@	c #374869",
"R@	c #232A39",
"S@	c #526286",
"T@	c #7288A8",
"U@	c #A0C5F3",
"V@	c #87A7CE",
"W@	c #5E7091",
"X@	c #384150",
"Y@	c #282C35",
"Z@	c #4D6083",
"`@	c #8DB7F3",
" #	c #7DADF3",
".#	c #7199CA",
"+#	c #7D9DC6",
"@#	c #5C71A3",
"##	c #424E66",
"$#	c #576478",
"%#	c #5A6B87",
"&#	c #414954",
"*#	c #4F5E73",
"=#	c #B0BCC5",
"-#	c #363F4C",
";#	c #BBCDE3",
">#	c #D3E3F0",
",#	c #2A3242",
"'#	c #DEE0E4",
")#	c #B7BEC8",
"!#	c #313E5E",
"~#	c #374871",
"{#	c #62728D",
"]#	c #C5E2F2",
"^#	c #A2BCD1",
"/#	c #596B91",
"(#	c #272C38",
"_#	c #484F64",
":#	c #6A7C9E",
"<#	c #89ADDB",
"[#	c #8EBBEB",
"}#	c #819FC2",
"|#	c #77869D",
"1#	c #454F65",
"2#	c #2E3647",
"3#	c #354258",
"4#	c #89AABE",
"5#	c #CCE9F5",
"6#	c #92B3C9",
"7#	c #4D5E76",
"8#	c #242935",
"9#	c #17181C",
"0#	c #4B556B",
"a#	c #515F72",
"b#	c #89939D",
"c#	c #6A7B8E",
"d#	c #6B7C8D",
"e#	c #D8DBE0",
"f#	c #5A6682",
"g#	c #778195",
"h#	c #EAF0F8",
"i#	c #8E9AB4",
"j#	c #252B3F",
"k#	c #42568E",
"l#	c #56667D",
"m#	c #D9F3FC",
"n#	c #BED0D8",
"o#	c #6F7586",
"p#	c #30333F",
"q#	c #515667",
"r#	c #6B7794",
"s#	c #88A5B6",
"t#	c #C5E7F6",
"u#	c #A1B7C2",
"v#	c #6E7D8C",
"w#	c #5D6D8D",
"x#	c #677BA9",
"y#	c #6C82AE",
"z#	c #97B5D5",
"A#	c #A2C5E9",
"B#	c #8DB5F4",
"C#	c #6B87C8",
"D#	c #3A4665",
"E#	c #3F4862",
"F#	c #545D78",
"G#	c #4C5569",
"H#	c #9DADC8",
"I#	c #2B3A58",
"J#	c #798AAF",
"K#	c #D4DEF0",
"L#	c #374D81",
"M#	c #6D778D",
"N#	c #E6EDF2",
"O#	c #9FAFCF",
"P#	c #29324C",
"Q#	c #435283",
"R#	c #4D5566",
"S#	c #B2C3D0",
"T#	c #CAE4F1",
"U#	c #A3B5CB",
"V#	c #4F5464",
"W#	c #43454F",
"X#	c #656975",
"Y#	c #69768D",
"Z#	c #85A2BF",
"`#	c #9EC5F4",
" $	c #7694C8",
".$	c #3E4B6B",
"+$	c #252A37",
"@$	c #1E2028",
"#$	c #16171C",
"$$	c #1F2229",
"%$	c #384564",
"&$	c #343D54",
"*$	c #3A4158",
"=$	c #616D94",
"-$	c #333E5F",
";$	c #868EAA",
">$	c #49567A",
",$	c #2A3F72",
"'$	c #A6AEBF",
")$	c #435A8F",
"!$	c #333D5B",
"~$	c #8690A5",
"{$	c #D0DFF5",
"]$	c #7B88AC",
"^$	c #353E5B",
"/$	c #454F6E",
"($	c #464E62",
"_$	c #A4B8D4",
":$	c #A9C6F3",
"<$	c #8599C5",
"[$	c #676F88",
"}$	c #40424B",
"|$	c #7F89A4",
"1$	c #97ABD1",
"2$	c #7A98DC",
"3$	c #7293E3",
"4$	c #5F7ABB",
"5$	c #627BB1",
"6$	c #586988",
"7$	c #2B2F3B",
"8$	c #16171B",
"9$	c #18191C",
"0$	c #36405E",
"a$	c #5A6896",
"b$	c #2D3244",
"c$	c #909ACA",
"d$	c #3D5189",
"e$	c #475070",
"f$	c #ADB5E0",
"g$	c #374D8F",
"h$	c #262F49",
"i$	c #6876A1",
"j$	c #ABB7E6",
"k$	c #8792BF",
"l$	c #545D7F",
"m$	c #3D4257",
"n$	c #404352",
"o$	c #67708B",
"p$	c #879BDB",
"q$	c #819AE3",
"r$	c #8796C2",
"s$	c #525970",
"t$	c #3D414C",
"u$	c #373C4D",
"v$	c #404C6D",
"w$	c #556BA5",
"x$	c #536DB0",
"y$	c #5874BB",
"z$	c #5770B2",
"A$	c #344164",
"B$	c #3C486C",
"C$	c #515878",
"D$	c #313545",
"E$	c #5E617B",
"F$	c #7E89B8",
"G$	c #2B334C",
"H$	c #48506F",
"I$	c #252A3B",
"J$	c #2B3048",
"K$	c #636C93",
"L$	c #919AC9",
"M$	c #8792BE",
"N$	c #51576E",
"O$	c #575B6C",
"P$	c #5E5F69",
"Q$	c #565B6C",
"R$	c #6F7BA2",
"S$	c #7187CC",
"T$	c #6377B4",
"U$	c #6F80AC",
"V$	c #5B6581",
"W$	c #4B5169",
"X$	c #535E7E",
"Y$	c #6373A1",
"Z$	c #566796",
"`$	c #3D4866",
" %	c #38476D",
".%	c #37476F",
"+%	c #323646",
"@%	c #394059",
"#%	c #545971",
"$%	c #202128",
"%%	c #696B8C",
"&%	c #656FA5",
"*%	c #2A3A6B",
"=%	c #565F84",
"-%	c #414B72",
";%	c #37405F",
">%	c #525D80",
",%	c #70779D",
"'%	c #8993C2",
")%	c #686F8E",
"!%	c #525563",
"~%	c #525462",
"{%	c #4D4E58",
"]%	c #454A5E",
"^%	c #68759C",
"/%	c #52649C",
"(%	c #4F64A0",
"_%	c #3A4872",
":%	c #2A324C",
"<%	c #1D212D",
"[%	c #21232C",
"}%	c #3A3C47",
"|%	c #303444",
"1%	c #191B1E",
"2%	c #34394B",
"3%	c #404764",
"4%	c #484B5E",
"5%	c #242632",
"6%	c #8596DE",
"7%	c #6681CC",
"8%	c #2D3855",
"9%	c #424E77",
"0%	c #8388B9",
"a%	c #434A63",
"b%	c #5C6485",
"c%	c #717AA6",
"d%	c #666E95",
"e%	c #5A5F76",
"f%	c #4A4C56",
"g%	c #656B7F",
"h%	c #606A84",
"i%	c #3B4159",
"j%	c #364570",
"k%	c #303C61",
"l%	c #2E364D",
"m%	c #323546",
"n%	c #444A66",
"o%	c #3D3F4F",
"p%	c #404A66",
"q%	c #8399CC",
"r%	c #6E819E",
"s%	c #3E507C",
"t%	c #344169",
"u%	c #6A79B5",
"v%	c #7376A1",
"w%	c #565C7B",
"x%	c #4D5261",
"y%	c #282A2F",
"z%	c #24293C",
"A%	c #333D59",
"B%	c #303C5F",
"C%	c #2D2F3B",
"D%	c #373D54",
"E%	c #474A5F",
"F%	c #3C4057",
"G%	c #3F5083",
"H%	c #849ABA",
"I%	c #334373",
"J%	c #344578",
"K%	c #525D8F",
"L%	c #686E9B",
"M%	c #5B6282",
"N%	c #424A67",
"O%	c #4D5B81",
"P%	c #444D65",
"Q%	c #434B68",
"R%	c #5B668C",
"S%	c #58638C",
"T%	c #465074",
"U%	c #414B6E",
"V%	c #2F364B",
"W%	c #252830",
"X%	c #3F4046",
"Y%	c #343740",
"Z%	c #191A1E",
"`%	c #1A1B21",
" &	c #2D303E",
".&	c #373E59",
"+&	c #3F4154",
"@&	c #3C3D50",
"#&	c #262C3D",
"$&	c #495672",
"%&	c #6477A2",
"&&	c #3D4D7A",
"*&	c #33426E",
"=&	c #363F5F",
"-&	c #4B5171",
";&	c #525875",
">&	c #4F5774",
",&	c #444C68",
"'&	c #485375",
")&	c #3E455E",
"!&	c #454F70",
"~&	c #56638A",
"{&	c #383F57",
"]&	c #313A57",
"^&	c #3D496E",
"/&	c #323D60",
"(&	c #364265",
"_&	c #222736",
":&	c #2C2F3D",
"<&	c #31374C",
"[&	c #33374A",
"}&	c #3A3C4D",
"|&	c #1D1F26",
"1&	c #303850",
"2&	c #4E5B8D",
"3&	c #43496D",
"4&	c #344068",
"5&	c #3B466A",
"6&	c #353E5D",
"7&	c #49506E",
"8&	c #454A64",
"9&	c #414864",
"0&	c #495372",
"a&	c #292D3B",
"b&	c #3B3D49",
"c&	c #1F2128",
"d&	c #363C51",
"e&	c #1D212F",
"f&	c #272A36",
"g&	c #2B3146",
"h&	c #2F364E",
"i&	c #383B4E",
"j&	c #3F496A",
"k&	c #303751",
"l&	c #3A3E55",
"m&	c #3C3E52",
"n&	c #3A4059",
"o&	c #394260",
"p&	c #2C334A",
"q&	c #383F56",
"r&	c #383D51",
"s&	c #353A4C",
"t&	c #32384C",
"u&	c #31374B",
"v&	c #333950",
"w&	c #282E41",
"x&	c #202431",
"y&	c #1A1B1F",
"z&	c #262B37",
"A&	c #282C3D",
"B&	c #303547",
"C&	c #393D53",
"D&	c #32384E",
"E&	c #343B54",
"F&	c #292C38",
"G&	c #2F3242",
"H&	c #2C303F",
"I&	c #2C2F3C",
"J&	c #252832",
"K&	c #2D313E",
"L&	c #262935",
"M&	c #2A2E3C",
"N&	c #21242F",
"O&	c #20242E",
"P&	c #222429",
"Q&	c #262A3B",
"R&	c #1A1C22",
"S&	c #282C3B",
"T&	c #30364C",
"U&	c #333A54",
"V&	c #2A3044",
"W&	c #272A37",
"X&	c #292E3F",
"Y&	c #2A2F42",
"Z&	c #272D3F",
"`&	c #1E212A",
" *	c #1B1C1F",
".*	c #1C1E21",
"+*	c #1D1F22",
"@*	c #22242D",
"#*	c #232631",
"$*	c #222734",
"%*	c #1C1D23",
"&*	c #1E1F22",
"**	c #1C1D21",
"                        . + @ # $ % & *                         ",
"                  = - ; > , ' ) ! ~ { ] ^ / (                   ",
"                _ : < [ } | 1 2 3 4 5 6 7 8 9 0                 ",
"            a b c d e f g h i j k l m n o p q r s t             ",
"          u v w x y z A B C D E F G H I J K L M N O P           ",
"        Q R S T U V W X Y Z `  ...+.@.@.@.@.@.@.#.$.%.&.        ",
"      *.=.-.;.>.,.'.).!.~.{.].^.@.@.@./.(._.:.@.@.@.<.[.}.      ",
"      |.1.2.3.4.5.6.7.8.9.0.@.@.@.a.b.c.d.e.f.g.h.i.j.k.l.      ",
"    m.n.o.p.q.r.s.t.u.v.w.@.@.x.y.z.A.B.C.6 D.E.F.G.H.I.J.0     ",
"  K.L.M.N.O.P.Q.R.S.T.@.@.U.V.W.X.Y.Z.`. +.+++@+#+$+%+&+*+=+-+  ",
"  ;+>+,+'+)+!+~+{+@.@.]+^+/+(+_+:+<+[+}+|+1+2+3+4+5+6+7+8+9+0+  ",
"  a+b+c+d+e+f+g+@.@.h+i+j+k+l+m+n+o+p+q+r+s+t+u+v+w+x+y+z+A+B+  ",
"C+D+E+F+G+H+I+J+@.K+L+M+N+O+P+Q+R+S+T+U+V+W+X+Y+Z+`+ @.@+@@@#@$@",
"%@&@*@=@-@;@>@@.,@'@)@!@~@{@]@^@/@(@_@:@<@[@}@|@1@2@3@4@5@6@7@8@",
"9@0@a@b@c@d@e@@.f@g@h@i@j@k@l@m@n@o@p@q@r@s@t@u@v@w@x@y@z@A@B@C@",
"D@E@F@G@H@I@J@@.K@L@M@N@O@P@Q@R@S@T@U@V@W@X@Y@Z@`@ #.#+#@###$#%#",
"&#*#=#-#;#>#,#@.'#)#!#~#{#]#^#/#(#_#:#<#[#}#|#1#2#3#4#5#6#7#8#9#",
"0#a#b#c#d#e#f#@.g#h#i#j#k#l#m#n#o#p#q#r#s#t#u#v#w#x#y#z#A#B#C#D#",
"E#F#G#H#I#J#K#@.L#M#N#O#P#Q#R#S#T#U#V#W#X#Y#Z#`# $.$+$@$#$$$%$&$",
"*$=$-$;$>$,$'$@.)$!$~${$]$^$/$($_$:$<$[$}$a.|$1$2$3$4$5$6$7$8$9$",
"  0$a$b$c$d$e$f$@.g$h$i$j$k$l$m$n$o$p$q$r$s$N.t$u$v$w$x$y$z$A$  ",
"  B$C$D$E$F$G$H$@.@.I$J$K$L$M$N$O$P$Q$R$S$T$U$V$W$X$Y$Z$`$ %.%  ",
"  +%@%#%$%%%&%*%=%@.@.-%;%>%,%'%)%!%~%{%]%^%/%(%_%:%<%[%}%|%1%  ",
"    2%3%4%5%6%7%8%9%0%@.@.@.a%b%c%d%e%f%g%h%i%@.@.@.@.j%k%l%    ",
"      m%n%o%p%q%r%s%t%u%v%w%@.@.@.@.@.@.@.@.@.@.x%y%z%A%B%      ",
"      C%D%E%F%G%H%B.I%J%K%L%M%N%O%P%Q%R%S%T%U%V%W%X%Y%Z%`%      ",
"         &.&+&@&#&$&%&&&*&=&-&;&>&,&'&)&!&~&{&]&^&/&(&_&        ",
"          :&<&[&}&|&1&2&3&4&5&6&7&8&9&{&0&a&b&c&d&_&e&          ",
"            f&g&h&i&j&k&l&m&n&o&p&q&r&s&t&u&v&w&x&y&            ",
"                z&A&B&C&D&E&F&G&H&I&J&K&L&M&N&O&                ",
"                  P&Q&R&S&F&T&U&V&W&X&Y&Z&`& *                  ",
"                        .*+*@*#*$*%*&***                        "};
