/* XPM */
static char * rdlibrary_xpm[] = {
"32 32 753 2",
"  	c None",
". 	c #3D485E",
"+ 	c #3D485F",
"@ 	c #364156",
"# 	c #3B475D",
"$ 	c #414F69",
"% 	c #37435A",
"& 	c #36425B",
"* 	c #3B4A68",
"= 	c #2F3645",
"- 	c #4B5871",
"; 	c #505D74",
"> 	c #4D586E",
", 	c #454F62",
"' 	c #606E88",
") 	c #5B6985",
"! 	c #414D64",
"~ 	c #536280",
"{ 	c #4E5F81",
"] 	c #3F4E69",
"^ 	c #435478",
"/ 	c #384868",
"( 	c #2E384D",
"_ 	c #424D5E",
": 	c #576375",
"< 	c #57606E",
"[ 	c #525B6A",
"} 	c #778192",
"| 	c #3B414B",
"1 	c #8A98A8",
"2 	c #404753",
"3 	c #758398",
"4 	c #4B5669",
"5 	c #58667F",
"6 	c #51607E",
"7 	c #404D68",
"8 	c #47587A",
"9 	c #394868",
"0 	c #364566",
"a 	c #30353E",
"b 	c #485468",
"c 	c #677281",
"d 	c #484F5D",
"e 	c #8F96A5",
"f 	c #3D414E",
"g 	c #A1A6B3",
"h 	c #4D5363",
"i 	c #8992A1",
"j 	c #686E79",
"k 	c #545E70",
"l 	c #8494A9",
"m 	c #3C4454",
"n 	c #586581",
"o 	c #6478A1",
"p 	c #3D4964",
"q 	c #46587D",
"r 	c #4A5D87",
"s 	c #323E5C",
"t 	c #354464",
"u 	c #23262D",
"v 	c #636F7E",
"w 	c #404551",
"x 	c #E11313",
"y 	c #222531",
"z 	c #C7C8CD",
"A 	c #393C48",
"B 	c #A3A6B3",
"C 	c #7A7D86",
"D 	c #404557",
"E 	c #BEC3D0",
"F 	c #535768",
"G 	c #434B5E",
"H 	c #8FA0B8",
"I 	c #5E6983",
"J 	c #3D465C",
"K 	c #6A7EA7",
"L 	c #506285",
"M 	c #45567B",
"N 	c #445983",
"O 	c #3A4A70",
"P 	c #293246",
"Q 	c #404B5C",
"R 	c #48505C",
"S 	c #6F7A88",
"T 	c #636570",
"U 	c #20222B",
"V 	c #DBDDE2",
"W 	c #50535F",
"X 	c #6C6E76",
"Y 	c #D1D3DC",
"Z 	c #2A2E3F",
"` 	c #505564",
" .	c #C4C9D3",
"..	c #5C6374",
"+.	c #353A44",
"@.	c #8092AC",
"#.	c #7283A0",
"$.	c #3B4359",
"%.	c #3F4C67",
"&.	c #5B72A2",
"*.	c #425379",
"=.	c #3E4C6F",
"-.	c #3C4F7A",
";.	c #374668",
">.	c #2A2E35",
",.	c #54627A",
"'.	c #9299A1",
").	c #3C404D",
"!.	c #878996",
"~.	c #373E55",
"{.	c #CCCDD6",
"].	c #767989",
"^.	c #3C435E",
"/.	c #A8AAB4",
"(.	c #A8AAB8",
"_.	c #363B4E",
":.	c #565A68",
"<.	c #C2CEDA",
"[.	c #76829B",
"}.	c #353E56",
"|.	c #54617C",
"1.	c #86A2D2",
"2.	c #5E6F96",
"3.	c #4A557A",
"4.	c #45567D",
"5.	c #5975B2",
"6.	c #3E4E75",
"7.	c #3A4362",
"8.	c #202023",
"9.	c #627183",
"0.	c #394152",
"a.	c #B8BBC3",
"b.	c #2A2D39",
"c.	c #848591",
"d.	c #1C202C",
"e.	c #A2A8BE",
"f.	c #C9CAD3",
"g.	c #212431",
"h.	c #4D5164",
"i.	c #D7D7DB",
"j.	c #8B8C95",
"k.	c #36384A",
"l.	c #4D5160",
"m.	c #AEBFD0",
"n.	c #8495AC",
"o.	c #424C72",
"p.	c #3B4560",
"q.	c #5F749D",
"r.	c #6A86B9",
"s.	c #526288",
"t.	c #5F6D9F",
"u.	c #415582",
"v.	c #5572B5",
"w.	c #2F3D5B",
"x.	c #47566D",
"y.	c #7D8C9E",
"z.	c #33343A",
"A.	c #C6C7CF",
"B.	c #242A3A",
"C.	c #6E7792",
"D.	c #CFD1D8",
"E.	c #494C57",
"F.	c #DFE0E3",
"G.	c #8C8E9C",
"H.	c #22242C",
"I.	c #616471",
"J.	c #DDDEE2",
"K.	c #838692",
"L.	c #404357",
"M.	c #4F5777",
"N.	c #8293AB",
"O.	c #97AFD1",
"P.	c #444C73",
"Q.	c #4A5579",
"R.	c #607DB6",
"S.	c #5977B2",
"T.	c #333E59",
"U.	c #464E6C",
"V.	c #4D6399",
"W.	c #363F4B",
"X.	c #4B596D",
"Y.	c #8492A4",
"Z.	c #363A46",
"`.	c #CFD0D4",
" +	c #3F4C6D",
".+	c #3C4256",
"++	c #ECEEF5",
"@+	c #555B77",
"#+	c #8E909D",
"$+	c #DCDCE3",
"%+	c #717385",
"&+	c #24252D",
"*+	c #616472",
"=+	c #E8EBF3",
"-+	c #A0A9BC",
";+	c #222430",
">+	c #424C70",
",+	c #8BA3C8",
"'+	c #96B6E9",
")+	c #647AA9",
"!+	c #293044",
"~+	c #46506E",
"{+	c #667BB3",
"]+	c #6A8CD6",
"^+	c #7090DC",
"/+	c #313A54",
"(+	c #1F242E",
"_+	c #222326",
":+	c #657B92",
"<+	c #3C4558",
"[+	c #919FB2",
"}+	c #262C3C",
"|+	c #BEC1CA",
"1+	c #676C7D",
"2+	c #384467",
"3+	c #ADADB5",
"4+	c #2A2D3A",
"5+	c #3D4253",
"6+	c #C5C6CD",
"7+	c #D6D6DF",
"8+	c #53586E",
"9+	c #34384B",
"0+	c #4E5365",
"a+	c #C1D2E5",
"b+	c #B1C4E5",
"c+	c #505A79",
"d+	c #212331",
"e+	c #3F486A",
"f+	c #7E9BD4",
"g+	c #84AAEF",
"h+	c #5A70A8",
"i+	c #252C3C",
"j+	c #242938",
"k+	c #4B5F90",
"l+	c #5D82D2",
"m+	c #48649F",
"n+	c #273147",
"o+	c #6F8398",
"p+	c #333841",
"q+	c #A0ABB5",
"r+	c #283454",
"s+	c #99A1B7",
"t+	c #A8AFBF",
"u+	c #21283B",
"v+	c #878EA8",
"w+	c #71778C",
"x+	c #2D344D",
"y+	c #4C4E5D",
"z+	c #D4D8E4",
"A+	c #BDC0CB",
"B+	c #41465B",
"C+	c #454E73",
"D+	c #464C60",
"E+	c #9AAEC8",
"F+	c #A3BEDE",
"G+	c #6876A0",
"H+	c #353B57",
"I+	c #272C3C",
"J+	c #3E4C6D",
"K+	c #7DA2EA",
"L+	c #6487CB",
"M+	c #647CAB",
"N+	c #535E85",
"O+	c #2B3550",
"P+	c #3A4E7A",
"Q+	c #5170A4",
"R+	c #4C4E51",
"S+	c #8096AC",
"T+	c #2C323F",
"U+	c #B7C4D0",
"V+	c #3C4A6C",
"W+	c #4C5773",
"X+	c #DCDCE1",
"Y+	c #5D6A8F",
"Z+	c #242D47",
"`+	c #575D70",
" @	c #3F4A70",
".@	c #404456",
"+@	c #DFE5F3",
"@@	c #D5E0F0",
"#@	c #3D4453",
"$@	c #3A4568",
"%@	c #4E5982",
"&@	c #67799B",
"*@	c #9EC0F4",
"=@	c #6D87B6",
"-@	c #62709E",
";@	c #555F8A",
">@	c #343A4F",
",@	c #3F537E",
"'@	c #668EDD",
")@	c #597DC5",
"!@	c #303E5C",
"~@	c #3A4357",
"{@	c #445072",
"]@	c #333C52",
"^@	c #44494F",
"/@	c #7C95A3",
"(@	c #262E3D",
"_@	c #A0A9B1",
":@	c #5E6980",
"<@	c #324576",
"[@	c #C8CAD2",
"}@	c #9BA3B7",
"|@	c #2E3445",
"1@	c #4F5978",
"2@	c #CAD0E2",
"3@	c #2B3142",
"4@	c #455681",
"5@	c #565E72",
"6@	c #BFCFD9",
"7@	c #B6CCE5",
"8@	c #5B698A",
"9@	c #23293B",
"0@	c #56638D",
"a@	c #6A7EAB",
"b@	c #7B9DD7",
"c@	c #7DA1E1",
"d@	c #475A80",
"e@	c #434C67",
"f@	c #5C6A98",
"g@	c #677BB2",
"h@	c #6685C4",
"i@	c #6791E1",
"j@	c #7BA5EB",
"k@	c #4B5C7B",
"l@	c #1E2026",
"m@	c #444D55",
"n@	c #79868D",
"o@	c #4B5259",
"p@	c #6B7786",
"q@	c #B1C0D7",
"r@	c #2B334A",
"s@	c #788AAD",
"t@	c #EBEDF2",
"u@	c #66779C",
"v@	c #242C39",
"w@	c #D9DCE2",
"x@	c #C2CEE3",
"y@	c #464F63",
"z@	c #374458",
"A@	c #546173",
"B@	c #97ADC6",
"C@	c #B5D5F7",
"D@	c #8BA3C4",
"E@	c #323A4F",
"F@	c #383F4C",
"G@	c #515D77",
"H@	c #6E8CBE",
"I@	c #729BE0",
"J@	c #779FE7",
"K@	c #455981",
"L@	c #202530",
"M@	c #242832",
"N@	c #2D374D",
"O@	c #55729B",
"P@	c #A9CAD7",
"Q@	c #677A89",
"R@	c #465159",
"S@	c #616D7B",
"T@	c #88909B",
"U@	c #2F3747",
"V@	c #CCD7DF",
"W@	c #525C70",
"X@	c #4F638E",
"Y@	c #B3B5BA",
"Z@	c #BDC0C7",
"`@	c #506A96",
" #	c #6C80A8",
".#	c #DFEDF4",
"+#	c #A6BBCB",
"@#	c #374869",
"##	c #232A39",
"$#	c #526286",
"%#	c #7288A8",
"&#	c #A0C5F3",
"*#	c #87A7CE",
"=#	c #5E7091",
"-#	c #384150",
";#	c #282C35",
">#	c #4D6083",
",#	c #8DB7F3",
"'#	c #7DADF3",
")#	c #7199CA",
"!#	c #7D9DC6",
"~#	c #5C71A3",
"{#	c #424E66",
"]#	c #576478",
"^#	c #5A6B87",
"/#	c #414954",
"(#	c #4F5E73",
"_#	c #B0BCC5",
":#	c #363F4C",
"<#	c #BBCDE3",
"[#	c #D3E3F0",
"}#	c #2A3242",
"|#	c #51648B",
"1#	c #DEE0E4",
"2#	c #B7BEC8",
"3#	c #374871",
"4#	c #62728D",
"5#	c #C5E2F2",
"6#	c #A2BCD1",
"7#	c #596B91",
"8#	c #272C38",
"9#	c #484F64",
"0#	c #6A7C9E",
"a#	c #89ADDB",
"b#	c #8EBBEB",
"c#	c #819FC2",
"d#	c #77869D",
"e#	c #454F65",
"f#	c #2E3647",
"g#	c #354258",
"h#	c #89AABE",
"i#	c #CCE9F5",
"j#	c #92B3C9",
"k#	c #4D5E76",
"l#	c #242935",
"m#	c #17181C",
"n#	c #4B556B",
"o#	c #515F72",
"p#	c #89939D",
"q#	c #6A7B8E",
"r#	c #6B7C8D",
"s#	c #D8DBE0",
"t#	c #5A6682",
"u#	c #2C3D64",
"v#	c #778195",
"w#	c #EAF0F8",
"x#	c #252B3F",
"y#	c #42568E",
"z#	c #56667D",
"A#	c #D9F3FC",
"B#	c #BED0D8",
"C#	c #6F7586",
"D#	c #30333F",
"E#	c #515667",
"F#	c #6B7794",
"G#	c #88A5B6",
"H#	c #C5E7F6",
"I#	c #A1B7C2",
"J#	c #6E7D8C",
"K#	c #5D6D8D",
"L#	c #677BA9",
"M#	c #6C82AE",
"N#	c #97B5D5",
"O#	c #A2C5E9",
"P#	c #8DB5F4",
"Q#	c #6B87C8",
"R#	c #3A4665",
"S#	c #3F4862",
"T#	c #545D78",
"U#	c #4C5569",
"V#	c #9DADC8",
"W#	c #2B3A58",
"X#	c #798AAF",
"Y#	c #D4DEF0",
"Z#	c #454D5E",
"`#	c #374D81",
" $	c #6D778D",
".$	c #9FAFCF",
"+$	c #29324C",
"@$	c #435283",
"#$	c #4D5566",
"$$	c #B2C3D0",
"%$	c #CAE4F1",
"&$	c #A3B5CB",
"*$	c #4F5464",
"=$	c #43454F",
"-$	c #656975",
";$	c #69768D",
">$	c #85A2BF",
",$	c #9EC5F4",
"'$	c #7694C8",
")$	c #3E4B6B",
"!$	c #252A37",
"~$	c #1E2028",
"{$	c #16171C",
"]$	c #1F2229",
"^$	c #384564",
"/$	c #343D54",
"($	c #3A4158",
"_$	c #616D94",
":$	c #333E5F",
"<$	c #868EAA",
"[$	c #49567A",
"}$	c #2A3F72",
"|$	c #A6AEBF",
"1$	c #999EB2",
"2$	c #435A8F",
"3$	c #333D5B",
"4$	c #D0DFF5",
"5$	c #7B88AC",
"6$	c #353E5B",
"7$	c #454F6E",
"8$	c #464E62",
"9$	c #A4B8D4",
"0$	c #A9C6F3",
"a$	c #8599C5",
"b$	c #676F88",
"c$	c #40424B",
"d$	c #7F89A4",
"e$	c #97ABD1",
"f$	c #7A98DC",
"g$	c #7293E3",
"h$	c #5F7ABB",
"i$	c #627BB1",
"j$	c #586988",
"k$	c #2B2F3B",
"l$	c #16171B",
"m$	c #18191C",
"n$	c #36405E",
"o$	c #5A6896",
"p$	c #2D3244",
"q$	c #909ACA",
"r$	c #3D5189",
"s$	c #475070",
"t$	c #ADB5E0",
"u$	c #7D87B1",
"v$	c #374D8F",
"w$	c #6876A1",
"x$	c #ABB7E6",
"y$	c #8792BF",
"z$	c #545D7F",
"A$	c #3D4257",
"B$	c #404352",
"C$	c #67708B",
"D$	c #879BDB",
"E$	c #819AE3",
"F$	c #8796C2",
"G$	c #525970",
"H$	c #3D414C",
"I$	c #373C4D",
"J$	c #404C6D",
"K$	c #556BA5",
"L$	c #536DB0",
"M$	c #5874BB",
"N$	c #5770B2",
"O$	c #344164",
"P$	c #3C486C",
"Q$	c #515878",
"R$	c #313545",
"S$	c #5E617B",
"T$	c #7E89B8",
"U$	c #2B334C",
"V$	c #48506F",
"W$	c #A8ADDC",
"X$	c #8492D1",
"Y$	c #2B3048",
"Z$	c #636C93",
"`$	c #919AC9",
" %	c #8792BE",
".%	c #51576E",
"+%	c #575B6C",
"@%	c #5E5F69",
"#%	c #565B6C",
"$%	c #6F7BA2",
"%%	c #7187CC",
"&%	c #6377B4",
"*%	c #6F80AC",
"=%	c #5B6581",
"-%	c #4B5169",
";%	c #535E7E",
">%	c #6373A1",
",%	c #566796",
"'%	c #3D4866",
")%	c #38476D",
"!%	c #37476F",
"~%	c #323646",
"{%	c #394059",
"]%	c #545971",
"^%	c #202128",
"/%	c #696B8C",
"(%	c #656FA5",
"_%	c #2A3A6B",
":%	c #565F84",
"<%	c #7579A1",
"[%	c #414B72",
"}%	c #37405F",
"|%	c #525D80",
"1%	c #70779D",
"2%	c #8993C2",
"3%	c #686F8E",
"4%	c #525563",
"5%	c #525462",
"6%	c #4D4E58",
"7%	c #454A5E",
"8%	c #68759C",
"9%	c #52649C",
"0%	c #4F64A0",
"a%	c #3A4872",
"b%	c #2A324C",
"c%	c #1D212D",
"d%	c #21232C",
"e%	c #3A3C47",
"f%	c #303444",
"g%	c #191B1E",
"h%	c #34394B",
"i%	c #404764",
"j%	c #484B5E",
"k%	c #242632",
"l%	c #8596DE",
"m%	c #6681CC",
"n%	c #2D3855",
"o%	c #8388B9",
"p%	c #7C83B8",
"q%	c #383E58",
"r%	c #404969",
"s%	c #434A63",
"t%	c #5C6485",
"u%	c #717AA6",
"v%	c #666E95",
"w%	c #5A5F76",
"x%	c #4A4C56",
"y%	c #656B7F",
"z%	c #606A84",
"A%	c #3B4159",
"B%	c #323B56",
"C%	c #3C4B76",
"D%	c #44578F",
"E%	c #3C4D7E",
"F%	c #364570",
"G%	c #303C61",
"H%	c #2E364D",
"I%	c #323546",
"J%	c #444A66",
"K%	c #3D3F4F",
"L%	c #404A66",
"M%	c #8399CC",
"N%	c #6E819E",
"O%	c #2D2F3B",
"P%	c #373D54",
"Q%	c #474A5F",
"R%	c #3C4057",
"S%	c #3F5083",
"T%	c #849ABA",
"U%	c #5B6282",
"V%	c #424A67",
"W%	c #4D5B81",
"X%	c #444D65",
"Y%	c #434B68",
"Z%	c #5B668C",
"`%	c #58638C",
" &	c #465074",
".&	c #414B6E",
"+&	c #2F364B",
"@&	c #252830",
"#&	c #3F4046",
"$&	c #343740",
"%&	c #191A1E",
"&&	c #1A1B21",
"*&	c #2D303E",
"=&	c #373E59",
"-&	c #3F4154",
";&	c #3C3D50",
">&	c #262C3D",
",&	c #495672",
"'&	c #6477A2",
")&	c #3D4D7A",
"!&	c #33426E",
"~&	c #363F5F",
"{&	c #4B5171",
"]&	c #525875",
"^&	c #4F5774",
"/&	c #444C68",
"(&	c #485375",
"_&	c #3E455E",
":&	c #454F70",
"<&	c #56638A",
"[&	c #383F57",
"}&	c #313A57",
"|&	c #3D496E",
"1&	c #323D60",
"2&	c #364265",
"3&	c #222736",
"4&	c #2C2F3D",
"5&	c #31374C",
"6&	c #33374A",
"7&	c #3A3C4D",
"8&	c #1D1F26",
"9&	c #303850",
"0&	c #4E5B8D",
"a&	c #43496D",
"b&	c #344068",
"c&	c #3B466A",
"d&	c #353E5D",
"e&	c #49506E",
"f&	c #454A64",
"g&	c #414864",
"h&	c #495372",
"i&	c #292D3B",
"j&	c #3B3D49",
"k&	c #1F2128",
"l&	c #363C51",
"m&	c #1D212F",
"n&	c #272A36",
"o&	c #2B3146",
"p&	c #2F364E",
"q&	c #383B4E",
"r&	c #3F496A",
"s&	c #303751",
"t&	c #3A3E55",
"u&	c #3C3E52",
"v&	c #3A4059",
"w&	c #394260",
"x&	c #2C334A",
"y&	c #383F56",
"z&	c #383D51",
"A&	c #353A4C",
"B&	c #32384C",
"C&	c #31374B",
"D&	c #333950",
"E&	c #282E41",
"F&	c #202431",
"G&	c #1A1B1F",
"H&	c #262B37",
"I&	c #282C3D",
"J&	c #303547",
"K&	c #393D53",
"L&	c #32384E",
"M&	c #343B54",
"N&	c #292C38",
"O&	c #2F3242",
"P&	c #2C303F",
"Q&	c #2C2F3C",
"R&	c #252832",
"S&	c #2D313E",
"T&	c #262935",
"U&	c #2A2E3C",
"V&	c #21242F",
"W&	c #20242E",
"X&	c #222429",
"Y&	c #262A3B",
"Z&	c #1A1C22",
"`&	c #282C3B",
" *	c #30364C",
".*	c #333A54",
"+*	c #2A3044",
"@*	c #272A37",
"#*	c #292E3F",
"$*	c #2A2F42",
"%*	c #272D3F",
"&*	c #1E212A",
"**	c #1B1C1F",
"=*	c #1C1E21",
"-*	c #1D1F22",
";*	c #22242D",
">*	c #232631",
",*	c #222734",
"'*	c #1C1D23",
")*	c #1E1F22",
"!*	c #1C1D21",
"                        . + @ # $ % & *                         ",
"                  = - ; > , ' ) ! ~ { ] ^ / (                   ",
"                _ : < [ } | 1 2 3 4 5 6 7 8 9 0                 ",
"            a b c d e f g h i j k l m n o p q r s t             ",
"          u v w x y z A B C D E F G H I J K L M N O P           ",
"        Q R S T x U V W X Y Z `  ...+.@.#.$.%.&.*.=.-.;.        ",
"      >.,.'.).!.x ~.{.].^./.(._.:.<.[.}.|.1.2.3.4.5.6.7.8.      ",
"      9.0.a.b.c.x d.e.f.g.h.i.j.k.l.m.n.o.p.q.r.s.t.u.v.w.      ",
"    x.y.z.A.B.C.D.x E.F.G.H.I.J.K.L.M.N.O.6 P.Q.R.S.T.U.V.0     ",
"  W.X.Y.Z.`. +.+++x @+#+$+%+&+*+=+-+;+>+,+'+)+!+~+{+]+^+/+(+_+  ",
"  :+<+[+}+|+1+2+3+x 4+5+6+7+8+9+0+a+b+c+d+e+f+g+h+i+j+k+l+m+n+  ",
"  o+p+q+r+s+t+u+v+x w+x+y+z+A+B+C+D+E+F+G+H+I+J+K+L+M+N+O+P+Q+  ",
"R+S+T+U+V+W+X+Y+Z+x x `+ @.@+@@@#@$@%@&@*@=@-@;@>@,@'@)@!@~@{@]@",
"^@/@(@_@:@<@[@}@|@1@x 2@3@4@5@6@7@8@9@0@a@b@c@d@e@f@g@h@i@j@k@l@",
"m@n@o@p@q@r@s@t@u@v@x w@x@y@z@A@B@C@D@E@F@G@H@I@J@K@L@M@N@O@P@Q@",
"R@S@T@U@V@W@X@Y@Z@`@x  #.#+#@###$#%#&#*#=#-#;#>#,#'#)#!#~#{#]#^#",
"/#(#_#:#<#[#}#|#1#2#x 3#4#5#6#7#8#9#0#a#b#c#d#e#f#g#h#i#j#k#l#m#",
"n#o#p#q#r#s#t#u#v#w#x x#y#z#A#B#C#D#E#F#G#H#I#J#K#L#M#N#O#P#Q#R#",
"S#T#U#V#W#X#Y#Z#`# $x .$+$@$#$$$%$&$*$=$-$;$>$,$'$)$!$~${$]$^$/$",
"($_$:$<$[$}$|$1$2$3$x 4$5$6$7$8$9$0$a$b$c$l.d$e$f$g$h$i$j$k$l$m$",
"  n$o$p$q$r$s$t$u$v$x w$x$y$z$A$B$C$D$E$F$G$Z.H$I$J$K$L$M$N$O$  ",
"  P$Q$R$S$T$U$V$W$X$x Y$Z$`$ %.%+%@%#%$%%%&%*%=%-%;%>%,%'%)%!%  ",
"  ~%{%]%^%/%(%_%:%x <%[%}%|%1%2%3%4%5%6%7%8%9%0%a%b%c%d%e%f%g%  ",
"    h%i%j%k%l%m%n%x o%p%q%r%s%t%u%v%w%x%y%z%A%B%C%D%E%F%G%H%    ",
"      I%J%K%L%M%N%x x x x x x x x x x x x x x x x x x x x       ",
"      O%P%Q%R%S%T%x x x x x U%V%W%X%Y%Z%`% &.&+&@&#&$&%&&&      ",
"        *&=&-&;&>&,&'&)&!&~&{&]&^&/&(&_&:&<&[&}&|&1&2&3&        ",
"          4&5&6&7&8&9&0&a&b&c&d&e&f&g&[&h&i&j&k&l&3&m&          ",
"            n&o&p&q&r&s&t&u&v&w&x&y&z&A&B&C&D&E&F&G&            ",
"                H&I&J&K&L&M&N&O&P&Q&R&S&T&U&V&W&                ",
"                  X&Y&Z&`&N& *.*+*@*#*$*%*&***                  ",
"                        =*-*;*>*,*'*)*!*                        "};
