/* XPM */
static char * rdlogin_xpm[] = {
"32 32 680 2",
"  	c None",
". 	c #3D485E",
"+ 	c #3D485F",
"@ 	c #364156",
"# 	c #3B475D",
"$ 	c #414F69",
"% 	c #37435A",
"& 	c #36425B",
"* 	c #3B4A68",
"= 	c #2F3645",
"- 	c #4B5871",
"; 	c #505D74",
"> 	c #4D586E",
", 	c #454F62",
"' 	c #606E88",
") 	c #5B6985",
"! 	c #414D64",
"~ 	c #536280",
"{ 	c #4E5F81",
"] 	c #3F4E69",
"^ 	c #435478",
"/ 	c #384868",
"( 	c #2E384D",
"_ 	c #424D5E",
": 	c #576375",
"< 	c #57606E",
"[ 	c #525B6A",
"} 	c #778192",
"| 	c #3B414B",
"1 	c #8A98A8",
"2 	c #404753",
"3 	c #758398",
"4 	c #4B5669",
"5 	c #58667F",
"6 	c #51607E",
"7 	c #404D68",
"8 	c #47587A",
"9 	c #394868",
"0 	c #364566",
"a 	c #30353E",
"b 	c #485468",
"c 	c #677281",
"d 	c #484F5D",
"e 	c #8F96A5",
"f 	c #3D414E",
"g 	c #A1A6B3",
"h 	c #4D5363",
"i 	c #8992A1",
"j 	c #686E79",
"k 	c #545E70",
"l 	c #8494A9",
"m 	c #3C4454",
"n 	c #586581",
"o 	c #6478A1",
"p 	c #3D4964",
"q 	c #46587D",
"r 	c #4A5D87",
"s 	c #323E5C",
"t 	c #354464",
"u 	c #23262D",
"v 	c #636F7E",
"w 	c #404551",
"x 	c #E11313",
"y 	c #222531",
"z 	c #C7C8CD",
"A 	c #393C48",
"B 	c #A3A6B3",
"C 	c #7A7D86",
"D 	c #404557",
"E 	c #BEC3D0",
"F 	c #535768",
"G 	c #434B5E",
"H 	c #8FA0B8",
"I 	c #5E6983",
"J 	c #3D465C",
"K 	c #6A7EA7",
"L 	c #506285",
"M 	c #45567B",
"N 	c #445983",
"O 	c #3A4A70",
"P 	c #293246",
"Q 	c #404B5C",
"R 	c #48505C",
"S 	c #6F7A88",
"T 	c #636570",
"U 	c #20222B",
"V 	c #DBDDE2",
"W 	c #50535F",
"X 	c #6C6E76",
"Y 	c #D1D3DC",
"Z 	c #2A2E3F",
"` 	c #505564",
" .	c #C4C9D3",
"..	c #5C6374",
"+.	c #353A44",
"@.	c #8092AC",
"#.	c #7283A0",
"$.	c #3B4359",
"%.	c #3F4C67",
"&.	c #5B72A2",
"*.	c #425379",
"=.	c #3E4C6F",
"-.	c #3C4F7A",
";.	c #374668",
">.	c #2A2E35",
",.	c #54627A",
"'.	c #9299A1",
").	c #3C404D",
"!.	c #878996",
"~.	c #373E55",
"{.	c #CCCDD6",
"].	c #767989",
"^.	c #3C435E",
"/.	c #A8AAB4",
"(.	c #A8AAB8",
"_.	c #363B4E",
":.	c #565A68",
"<.	c #C2CEDA",
"[.	c #76829B",
"}.	c #353E56",
"|.	c #54617C",
"1.	c #86A2D2",
"2.	c #5E6F96",
"3.	c #4A557A",
"4.	c #45567D",
"5.	c #5975B2",
"6.	c #3E4E75",
"7.	c #3A4362",
"8.	c #202023",
"9.	c #627183",
"0.	c #394152",
"a.	c #B8BBC3",
"b.	c #2A2D39",
"c.	c #848591",
"d.	c #1C202C",
"e.	c #A2A8BE",
"f.	c #C9CAD3",
"g.	c #212431",
"h.	c #4D5164",
"i.	c #D7D7DB",
"j.	c #8B8C95",
"k.	c #36384A",
"l.	c #4D5160",
"m.	c #AEBFD0",
"n.	c #8495AC",
"o.	c #5572B5",
"p.	c #2F3D5B",
"q.	c #47566D",
"r.	c #7D8C9E",
"s.	c #33343A",
"t.	c #C6C7CF",
"u.	c #242A3A",
"v.	c #6E7792",
"w.	c #CFD1D8",
"x.	c #494C57",
"y.	c #DFE0E3",
"z.	c #8C8E9C",
"A.	c #22242C",
"B.	c #616471",
"C.	c #DDDEE2",
"D.	c #838692",
"E.	c #404357",
"F.	c #4D6399",
"G.	c #363F4B",
"H.	c #4B596D",
"I.	c #8492A4",
"J.	c #363A46",
"K.	c #CFD0D4",
"L.	c #3F4C6D",
"M.	c #3C4256",
"N.	c #ECEEF5",
"O.	c #555B77",
"P.	c #8E909D",
"Q.	c #DCDCE3",
"R.	c #717385",
"S.	c #24252D",
"T.	c #616472",
"U.	c #E8EBF3",
"V.	c #A0A9BC",
"W.	c #96B6E9",
"X.	c #647AA9",
"Y.	c #293044",
"Z.	c #46506E",
"`.	c #313A54",
" +	c #1F242E",
".+	c #222326",
"++	c #657B92",
"@+	c #3C4558",
"#+	c #919FB2",
"$+	c #262C3C",
"%+	c #BEC1CA",
"&+	c #676C7D",
"*+	c #384467",
"=+	c #ADADB5",
"-+	c #2A2D3A",
";+	c #3D4253",
">+	c #C5C6CD",
",+	c #D6D6DF",
"'+	c #53586E",
")+	c #34384B",
"!+	c #4E5365",
"~+	c #C1D2E5",
"{+	c #212331",
"]+	c #3F486A",
"^+	c #7E9BD4",
"/+	c #84AAEF",
"(+	c #5A70A8",
"_+	c #273147",
":+	c #6F8398",
"<+	c #333841",
"[+	c #A0ABB5",
"}+	c #283454",
"|+	c #99A1B7",
"1+	c #A8AFBF",
"2+	c #21283B",
"3+	c #878EA8",
"4+	c #71778C",
"5+	c #2D344D",
"6+	c #4C4E5D",
"7+	c #D4D8E4",
"8+	c #BDC0CB",
"9+	c #41465B",
"0+	c #454E73",
"a+	c #6876A0",
"b+	c #353B57",
"c+	c #272C3C",
"d+	c #3E4C6D",
"e+	c #7DA2EA",
"f+	c #6487CB",
"g+	c #5170A4",
"h+	c #4C4E51",
"i+	c #8096AC",
"j+	c #2C323F",
"k+	c #B7C4D0",
"l+	c #3C4A6C",
"m+	c #4C5773",
"n+	c #DCDCE1",
"o+	c #5D6A8F",
"p+	c #242D47",
"q+	c #575D70",
"r+	c #3F4A70",
"s+	c #404456",
"t+	c #DFE5F3",
"u+	c #D5E0F0",
"v+	c #3D4453",
"w+	c #67799B",
"x+	c #9EC0F4",
"y+	c #6D87B6",
"z+	c #62709E",
"A+	c #555F8A",
"B+	c #343A4F",
"C+	c #445072",
"D+	c #333C52",
"E+	c #44494F",
"F+	c #7C95A3",
"G+	c #262E3D",
"H+	c #A0A9B1",
"I+	c #5E6980",
"J+	c #324576",
"K+	c #C8CAD2",
"L+	c #9BA3B7",
"M+	c #2E3445",
"N+	c #4F5978",
"O+	c #CAD0E2",
"P+	c #2B3142",
"Q+	c #455681",
"R+	c #565E72",
"S+	c #BFCFD9",
"T+	c #B6CCE5",
"U+	c #56638D",
"V+	c #6A7EAB",
"W+	c #7B9DD7",
"X+	c #7DA1E1",
"Y+	c #475A80",
"Z+	c #434C67",
"`+	c #7BA5EB",
" @	c #4B5C7B",
".@	c #1E2026",
"+@	c #444D55",
"@@	c #79868D",
"#@	c #4B5259",
"$@	c #6B7786",
"%@	c #B1C0D7",
"&@	c #2B334A",
"*@	c #788AAD",
"=@	c #EBEDF2",
"-@	c #66779C",
";@	c #242C39",
">@	c #D9DCE2",
",@	c #C2CEE3",
"'@	c #464F63",
")@	c #374458",
"!@	c #546173",
"~@	c #97ADC6",
"{@	c #323A4F",
"]@	c #383F4C",
"^@	c #515D77",
"/@	c #6E8CBE",
"(@	c #729BE0",
"_@	c #2D374D",
":@	c #55729B",
"<@	c #A9CAD7",
"[@	c #677A89",
"}@	c #465159",
"|@	c #616D7B",
"1@	c #88909B",
"2@	c #2F3747",
"3@	c #CCD7DF",
"4@	c #525C70",
"5@	c #4F638E",
"6@	c #B3B5BA",
"7@	c #BDC0C7",
"8@	c #506A96",
"9@	c #6C80A8",
"0@	c #DFEDF4",
"a@	c #A6BBCB",
"b@	c #374869",
"c@	c #232A39",
"d@	c #526286",
"e@	c #7199CA",
"f@	c #7D9DC6",
"g@	c #5C71A3",
"h@	c #424E66",
"i@	c #576478",
"j@	c #5A6B87",
"k@	c #414954",
"l@	c #4F5E73",
"m@	c #B0BCC5",
"n@	c #363F4C",
"o@	c #BBCDE3",
"p@	c #D3E3F0",
"q@	c #2A3242",
"r@	c #51648B",
"s@	c #DEE0E4",
"t@	c #B7BEC8",
"u@	c #374871",
"v@	c #62728D",
"w@	c #C5E2F2",
"x@	c #A2BCD1",
"y@	c #596B91",
"z@	c #272C38",
"A@	c #484F64",
"B@	c #354258",
"C@	c #89AABE",
"D@	c #CCE9F5",
"E@	c #92B3C9",
"F@	c #4D5E76",
"G@	c #242935",
"H@	c #17181C",
"I@	c #4B556B",
"J@	c #515F72",
"K@	c #89939D",
"L@	c #6A7B8E",
"M@	c #6B7C8D",
"N@	c #D8DBE0",
"O@	c #5A6682",
"P@	c #2C3D64",
"Q@	c #778195",
"R@	c #EAF0F8",
"S@	c #252B3F",
"T@	c #42568E",
"U@	c #56667D",
"V@	c #D9F3FC",
"W@	c #BED0D8",
"X@	c #6F7586",
"Y@	c #30333F",
"Z@	c #515667",
"`@	c #6B7794",
" #	c #88A5B6",
".#	c #C5E7F6",
"+#	c #5D6D8D",
"@#	c #677BA9",
"##	c #6C82AE",
"$#	c #97B5D5",
"%#	c #A2C5E9",
"&#	c #8DB5F4",
"*#	c #6B87C8",
"=#	c #3A4665",
"-#	c #3F4862",
";#	c #545D78",
">#	c #4C5569",
",#	c #9DADC8",
"'#	c #2B3A58",
")#	c #798AAF",
"!#	c #D4DEF0",
"~#	c #454D5E",
"{#	c #374D81",
"]#	c #6D778D",
"^#	c #9FAFCF",
"/#	c #29324C",
"(#	c #435283",
"_#	c #4D5566",
":#	c #B2C3D0",
"<#	c #CAE4F1",
"[#	c #A3B5CB",
"}#	c #4F5464",
"|#	c #43454F",
"1#	c #656975",
"2#	c #69768D",
"3#	c #85A2BF",
"4#	c #9EC5F4",
"5#	c #7694C8",
"6#	c #3E4B6B",
"7#	c #252A37",
"8#	c #1E2028",
"9#	c #16171C",
"0#	c #1F2229",
"a#	c #384564",
"b#	c #343D54",
"c#	c #3A4158",
"d#	c #616D94",
"e#	c #333E5F",
"f#	c #868EAA",
"g#	c #49567A",
"h#	c #2A3F72",
"i#	c #A6AEBF",
"j#	c #999EB2",
"k#	c #435A8F",
"l#	c #333D5B",
"m#	c #D0DFF5",
"n#	c #7B88AC",
"o#	c #353E5B",
"p#	c #454F6E",
"q#	c #464E62",
"r#	c #A4B8D4",
"s#	c #A9C6F3",
"t#	c #8599C5",
"u#	c #676F88",
"v#	c #40424B",
"w#	c #7F89A4",
"x#	c #97ABD1",
"y#	c #7A98DC",
"z#	c #7293E3",
"A#	c #5F7ABB",
"B#	c #627BB1",
"C#	c #586988",
"D#	c #2B2F3B",
"E#	c #16171B",
"F#	c #18191C",
"G#	c #36405E",
"H#	c #5A6896",
"I#	c #2D3244",
"J#	c #909ACA",
"K#	c #3D5189",
"L#	c #475070",
"M#	c #ADB5E0",
"N#	c #7D87B1",
"O#	c #374D8F",
"P#	c #6876A1",
"Q#	c #ABB7E6",
"R#	c #8792BF",
"S#	c #545D7F",
"T#	c #3D4257",
"U#	c #404352",
"V#	c #67708B",
"W#	c #879BDB",
"X#	c #819AE3",
"Y#	c #8796C2",
"Z#	c #525970",
"`#	c #3D414C",
" $	c #373C4D",
".$	c #404C6D",
"+$	c #556BA5",
"@$	c #536DB0",
"#$	c #5874BB",
"$$	c #5770B2",
"%$	c #344164",
"&$	c #3C486C",
"*$	c #515878",
"=$	c #313545",
"-$	c #5E617B",
";$	c #7E89B8",
">$	c #2B334C",
",$	c #48506F",
"'$	c #A8ADDC",
")$	c #8492D1",
"!$	c #2B3048",
"~$	c #636C93",
"{$	c #919AC9",
"]$	c #8792BE",
"^$	c #51576E",
"/$	c #575B6C",
"($	c #5E5F69",
"_$	c #565B6C",
":$	c #6F7BA2",
"<$	c #7187CC",
"[$	c #6377B4",
"}$	c #6F80AC",
"|$	c #5B6581",
"1$	c #4B5169",
"2$	c #535E7E",
"3$	c #6373A1",
"4$	c #566796",
"5$	c #3D4866",
"6$	c #38476D",
"7$	c #37476F",
"8$	c #323646",
"9$	c #394059",
"0$	c #545971",
"a$	c #202128",
"b$	c #696B8C",
"c$	c #656FA5",
"d$	c #2A3A6B",
"e$	c #565F84",
"f$	c #7579A1",
"g$	c #414B72",
"h$	c #37405F",
"i$	c #525D80",
"j$	c #70779D",
"k$	c #8993C2",
"l$	c #686F8E",
"m$	c #525563",
"n$	c #525462",
"o$	c #4D4E58",
"p$	c #454A5E",
"q$	c #68759C",
"r$	c #52649C",
"s$	c #4F64A0",
"t$	c #3A4872",
"u$	c #2A324C",
"v$	c #1D212D",
"w$	c #21232C",
"x$	c #3A3C47",
"y$	c #303444",
"z$	c #191B1E",
"A$	c #34394B",
"B$	c #404764",
"C$	c #484B5E",
"D$	c #242632",
"E$	c #8596DE",
"F$	c #6681CC",
"G$	c #2D3855",
"H$	c #8388B9",
"I$	c #7C83B8",
"J$	c #383E58",
"K$	c #404969",
"L$	c #434A63",
"M$	c #5C6485",
"N$	c #717AA6",
"O$	c #666E95",
"P$	c #5A5F76",
"Q$	c #4A4C56",
"R$	c #656B7F",
"S$	c #606A84",
"T$	c #3B4159",
"U$	c #323B56",
"V$	c #3C4B76",
"W$	c #44578F",
"X$	c #3C4D7E",
"Y$	c #364570",
"Z$	c #303C61",
"`$	c #2E364D",
" %	c #323546",
".%	c #444A66",
"+%	c #3D3F4F",
"@%	c #404A66",
"#%	c #8399CC",
"$%	c #6E819E",
"%%	c #2D2F3B",
"&%	c #373D54",
"*%	c #474A5F",
"=%	c #3C4057",
"-%	c #3F5083",
";%	c #849ABA",
">%	c #5B6282",
",%	c #424A67",
"'%	c #4D5B81",
")%	c #444D65",
"!%	c #434B68",
"~%	c #5B668C",
"{%	c #58638C",
"]%	c #465074",
"^%	c #414B6E",
"/%	c #2F364B",
"(%	c #252830",
"_%	c #3F4046",
":%	c #343740",
"<%	c #191A1E",
"[%	c #1A1B21",
"}%	c #2D303E",
"|%	c #373E59",
"1%	c #3F4154",
"2%	c #3C3D50",
"3%	c #262C3D",
"4%	c #495672",
"5%	c #6477A2",
"6%	c #3D4D7A",
"7%	c #33426E",
"8%	c #363F5F",
"9%	c #4B5171",
"0%	c #525875",
"a%	c #4F5774",
"b%	c #444C68",
"c%	c #485375",
"d%	c #3E455E",
"e%	c #454F70",
"f%	c #56638A",
"g%	c #383F57",
"h%	c #313A57",
"i%	c #3D496E",
"j%	c #323D60",
"k%	c #364265",
"l%	c #222736",
"m%	c #2C2F3D",
"n%	c #31374C",
"o%	c #33374A",
"p%	c #3A3C4D",
"q%	c #1D1F26",
"r%	c #303850",
"s%	c #4E5B8D",
"t%	c #43496D",
"u%	c #344068",
"v%	c #3B466A",
"w%	c #353E5D",
"x%	c #49506E",
"y%	c #454A64",
"z%	c #414864",
"A%	c #495372",
"B%	c #292D3B",
"C%	c #3B3D49",
"D%	c #1F2128",
"E%	c #363C51",
"F%	c #1D212F",
"G%	c #272A36",
"H%	c #2B3146",
"I%	c #2F364E",
"J%	c #383B4E",
"K%	c #3F496A",
"L%	c #303751",
"M%	c #3A3E55",
"N%	c #3C3E52",
"O%	c #3A4059",
"P%	c #394260",
"Q%	c #2C334A",
"R%	c #383F56",
"S%	c #383D51",
"T%	c #353A4C",
"U%	c #32384C",
"V%	c #31374B",
"W%	c #333950",
"X%	c #282E41",
"Y%	c #202431",
"Z%	c #1A1B1F",
"`%	c #262B37",
" &	c #282C3D",
".&	c #303547",
"+&	c #393D53",
"@&	c #32384E",
"#&	c #343B54",
"$&	c #292C38",
"%&	c #2F3242",
"&&	c #2C303F",
"*&	c #2C2F3C",
"=&	c #252832",
"-&	c #2D313E",
";&	c #262935",
">&	c #2A2E3C",
",&	c #21242F",
"'&	c #20242E",
")&	c #222429",
"!&	c #262A3B",
"~&	c #1A1C22",
"{&	c #282C3B",
"]&	c #30364C",
"^&	c #333A54",
"/&	c #2A3044",
"(&	c #272A37",
"_&	c #292E3F",
":&	c #2A2F42",
"<&	c #272D3F",
"[&	c #1E212A",
"}&	c #1B1C1F",
"|&	c #1C1E21",
"1&	c #1D1F22",
"2&	c #22242D",
"3&	c #232631",
"4&	c #222734",
"5&	c #1C1D23",
"6&	c #1E1F22",
"7&	c #1C1D21",
"                        . + @ # $ % & *                         ",
"                  = - ; > , ' ) ! ~ { ] ^ / (                   ",
"                _ : < [ } | 1 2 3 4 5 6 7 8 9 0                 ",
"            a b c d e f g h i j k l m n o p q r s t             ",
"          u v w x y z A B C D E F G H I J K L M N O P           ",
"        Q R S T x U V W X Y Z `  ...+.@.#.$.%.&.*.=.-.;.        ",
"      >.,.'.).!.x ~.{.].^./.(._.:.<.[.}.|.1.2.3.4.5.6.7.8.      ",
"      9.0.a.b.c.x d.e.f.g.h.i.j.k.l.m.n.x x x x x x x o.p.      ",
"    q.r.s.t.u.v.w.x x.y.z.A.B.C.D.E.x x x x x x x x x x F.0     ",
"  G.H.I.J.K.L.M.N.x O.P.Q.R.S.T.U.V.x x x W.X.Y.Z.x x x `. +.+  ",
"  ++@+#+$+%+&+*+=+x -+;+>+,+'+)+!+~+x x {+]+^+/+(+x x x x x _+  ",
"  :+<+[+}+|+1+2+3+x 4+5+6+7+8+9+0+x x x a+b+c+d+e+f+x x x x g+  ",
"h+i+j+k+l+m+n+o+p+x x q+r+s+t+u+v+x x w+x+y+z+A+B+x x x x x C+D+",
"E+F+G+H+I+J+K+L+M+N+x O+P+Q+R+S+T+x x U+V+W+X+Y+Z+x x x x `+ @.@",
"+@@@#@$@%@&@*@=@-@;@x >@,@'@)@!@~@x x {@]@^@/@(@x x x x _@:@<@[@",
"}@|@1@2@3@4@5@6@7@8@x 9@0@a@b@c@d@x x x x x x x x x e@f@g@h@i@j@",
"k@l@m@n@o@p@q@r@s@t@x u@v@w@x@y@z@A@x x x x x x x B@C@D@E@F@G@H@",
"I@J@K@L@M@N@O@P@Q@R@x S@T@U@V@W@X@Y@Z@`@ #.#x x +#@###$#%#&#*#=#",
"-#;#>#,#'#)#!#~#{#]#x ^#/#(#_#:#<#[#}#|#1#2#3#4#5#6#7#8#9#0#a#b#",
"c#d#e#f#g#h#i#j#k#l#x m#n#o#p#q#r#s#t#u#v#l.w#x#y#z#A#B#C#D#E#F#",
"  G#H#I#J#K#L#M#N#O#x P#Q#R#S#T#U#V#W#X#Y#Z#J.`# $.$+$@$#$$$%$  ",
"  &$*$=$-$;$>$,$'$)$x !$~${$]$^$/$($_$:$<$[$}$|$1$2$3$4$5$6$7$  ",
"  8$9$0$a$b$c$d$e$x f$g$h$i$j$k$l$m$n$o$p$q$r$s$t$u$v$w$x$y$z$  ",
"    A$B$C$D$E$F$G$x H$I$J$K$L$M$N$O$P$Q$R$S$T$U$V$W$X$Y$Z$`$    ",
"       %.%+%@%#%$%x x x x x x x x x x x x x x x x x x x x       ",
"      %%&%*%=%-%;%x x x x x >%,%'%)%!%~%{%]%^%/%(%_%:%<%[%      ",
"        }%|%1%2%3%4%5%6%7%8%9%0%a%b%c%d%e%f%g%h%i%j%k%l%        ",
"          m%n%o%p%q%r%s%t%u%v%w%x%y%z%g%A%B%C%D%E%l%F%          ",
"            G%H%I%J%K%L%M%N%O%P%Q%R%S%T%U%V%W%X%Y%Z%            ",
"                `% &.&+&@&#&$&%&&&*&=&-&;&>&,&'&                ",
"                  )&!&~&{&$&]&^&/&(&_&:&<&[&}&                  ",
"                        |&1&2&3&4&5&6&7&                        "};
