/* XPM */
static char * rdlogedit_xpm[] = {
"32 32 716 2",
"  	c None",
". 	c #3D485E",
"+ 	c #3D485F",
"@ 	c #364156",
"# 	c #3B475D",
"$ 	c #414F69",
"% 	c #37435A",
"& 	c #36425B",
"* 	c #3B4A68",
"= 	c #2F3645",
"- 	c #4B5871",
"; 	c #505D74",
"> 	c #4D586E",
", 	c #454F62",
"' 	c #606E88",
") 	c #5B6985",
"! 	c #414D64",
"~ 	c #536280",
"{ 	c #4E5F81",
"] 	c #3F4E69",
"^ 	c #435478",
"/ 	c #384868",
"( 	c #2E384D",
"_ 	c #424D5E",
": 	c #576375",
"< 	c #57606E",
"[ 	c #525B6A",
"} 	c #778192",
"| 	c #3B414B",
"1 	c #8A98A8",
"2 	c #404753",
"3 	c #758398",
"4 	c #4B5669",
"5 	c #58667F",
"6 	c #51607E",
"7 	c #404D68",
"8 	c #47587A",
"9 	c #394868",
"0 	c #364566",
"a 	c #30353E",
"b 	c #485468",
"c 	c #677281",
"d 	c #484F5D",
"e 	c #8F96A5",
"f 	c #3D414E",
"g 	c #A1A6B3",
"h 	c #4D5363",
"i 	c #8992A1",
"j 	c #686E79",
"k 	c #545E70",
"l 	c #8494A9",
"m 	c #3C4454",
"n 	c #586581",
"o 	c #6478A1",
"p 	c #3D4964",
"q 	c #46587D",
"r 	c #4A5D87",
"s 	c #323E5C",
"t 	c #354464",
"u 	c #E11313",
"v 	c #636F7E",
"w 	c #404551",
"x 	c #9BA1A7",
"y 	c #222531",
"z 	c #C7C8CD",
"A 	c #393C48",
"B 	c #A3A6B3",
"C 	c #7A7D86",
"D 	c #404557",
"E 	c #BEC3D0",
"F 	c #535768",
"G 	c #434B5E",
"H 	c #8FA0B8",
"I 	c #5E6983",
"J 	c #3D465C",
"K 	c #6A7EA7",
"L 	c #404B5C",
"M 	c #6F7A88",
"N 	c #636570",
"O 	c #888A94",
"P 	c #20222B",
"Q 	c #DBDDE2",
"R 	c #50535F",
"S 	c #6C6E76",
"T 	c #D1D3DC",
"U 	c #2A2E3F",
"V 	c #505564",
"W 	c #C4C9D3",
"X 	c #3F4C67",
"Y 	c #5B72A2",
"Z 	c #425379",
"` 	c #3E4C6F",
" .	c #3C4F7A",
"..	c #374668",
"+.	c #2A2E35",
"@.	c #54627A",
"#.	c #3C404D",
"$.	c #878996",
"%.	c #878A99",
"&.	c #373E55",
"*.	c #CCCDD6",
"=.	c #767989",
"-.	c #3C435E",
";.	c #A8AAB4",
">.	c #A8AAB8",
",.	c #363B4E",
"'.	c #565A68",
").	c #76829B",
"!.	c #353E56",
"~.	c #54617C",
"{.	c #86A2D2",
"].	c #5E6F96",
"^.	c #4A557A",
"/.	c #45567D",
"(.	c #5975B2",
"_.	c #3E4E75",
":.	c #3A4362",
"<.	c #202023",
"[.	c #627183",
"}.	c #394152",
"|.	c #2A2D39",
"1.	c #848591",
"2.	c #A0A3B3",
"3.	c #1C202C",
"4.	c #A2A8BE",
"5.	c #C9CAD3",
"6.	c #212431",
"7.	c #4D5164",
"8.	c #D7D7DB",
"9.	c #8B8C95",
"0.	c #36384A",
"a.	c #AEBFD0",
"b.	c #8495AC",
"c.	c #424C72",
"d.	c #3B4560",
"e.	c #5F749D",
"f.	c #6A86B9",
"g.	c #526288",
"h.	c #5F6D9F",
"i.	c #415582",
"j.	c #5572B5",
"k.	c #2F3D5B",
"l.	c #47566D",
"m.	c #7D8C9E",
"n.	c #33343A",
"o.	c #242A3A",
"p.	c #6E7792",
"q.	c #CFD1D8",
"r.	c #424A62",
"s.	c #494C57",
"t.	c #DFE0E3",
"u.	c #8C8E9C",
"v.	c #22242C",
"w.	c #616471",
"x.	c #DDDEE2",
"y.	c #838692",
"z.	c #4F5777",
"A.	c #8293AB",
"B.	c #97AFD1",
"C.	c #444C73",
"D.	c #4A5579",
"E.	c #607DB6",
"F.	c #5977B2",
"G.	c #333E59",
"H.	c #464E6C",
"I.	c #4D6399",
"J.	c #363F4B",
"K.	c #4B596D",
"L.	c #8492A4",
"M.	c #363A46",
"N.	c #3F4C6D",
"O.	c #3C4256",
"P.	c #ECEEF5",
"Q.	c #5F6169",
"R.	c #555B77",
"S.	c #8E909D",
"T.	c #DCDCE3",
"U.	c #717385",
"V.	c #24252D",
"W.	c #616472",
"X.	c #E8EBF3",
"Y.	c #222430",
"Z.	c #424C70",
"`.	c #8BA3C8",
" +	c #96B6E9",
".+	c #647AA9",
"++	c #293044",
"@+	c #46506E",
"#+	c #667BB3",
"$+	c #6A8CD6",
"%+	c #7090DC",
"&+	c #313A54",
"*+	c #1F242E",
"=+	c #222326",
"-+	c #657B92",
";+	c #3C4558",
">+	c #919FB2",
",+	c #262C3C",
"'+	c #676C7D",
")+	c #384467",
"!+	c #ADADB5",
"~+	c #C9CDDC",
"{+	c #2A2D3A",
"]+	c #3D4253",
"^+	c #C5C6CD",
"/+	c #D6D6DF",
"(+	c #53586E",
"_+	c #34384B",
":+	c #4E5365",
"<+	c #B1C4E5",
"[+	c #505A79",
"}+	c #212331",
"|+	c #3F486A",
"1+	c #7E9BD4",
"2+	c #84AAEF",
"3+	c #5A70A8",
"4+	c #252C3C",
"5+	c #242938",
"6+	c #4B5F90",
"7+	c #5D82D2",
"8+	c #48649F",
"9+	c #273147",
"0+	c #6F8398",
"a+	c #333841",
"b+	c #A0ABB5",
"c+	c #283454",
"d+	c #A8AFBF",
"e+	c #21283B",
"f+	c #878EA8",
"g+	c #EBECF2",
"h+	c #71778C",
"i+	c #2D344D",
"j+	c #4C4E5D",
"k+	c #D4D8E4",
"l+	c #BDC0CB",
"m+	c #41465B",
"n+	c #454E73",
"o+	c #9AAEC8",
"p+	c #A3BEDE",
"q+	c #6876A0",
"r+	c #353B57",
"s+	c #272C3C",
"t+	c #3E4C6D",
"u+	c #7DA2EA",
"v+	c #6487CB",
"w+	c #647CAB",
"x+	c #535E85",
"y+	c #2B3550",
"z+	c #3A4E7A",
"A+	c #5170A4",
"B+	c #4C4E51",
"C+	c #8096AC",
"D+	c #2C323F",
"E+	c #B7C4D0",
"F+	c #3C4A6C",
"G+	c #DCDCE1",
"H+	c #5D6A8F",
"I+	c #242D47",
"J+	c #9A9EAD",
"K+	c #DBDBDE",
"L+	c #575D70",
"M+	c #3F4A70",
"N+	c #404456",
"O+	c #DFE5F3",
"P+	c #D5E0F0",
"Q+	c #3D4453",
"R+	c #4E5982",
"S+	c #67799B",
"T+	c #9EC0F4",
"U+	c #6D87B6",
"V+	c #62709E",
"W+	c #555F8A",
"X+	c #343A4F",
"Y+	c #3F537E",
"Z+	c #668EDD",
"`+	c #597DC5",
" @	c #303E5C",
".@	c #3A4357",
"+@	c #445072",
"@@	c #333C52",
"#@	c #44494F",
"$@	c #7C95A3",
"%@	c #262E3D",
"&@	c #A0A9B1",
"*@	c #5E6980",
"=@	c #C8CAD2",
"-@	c #9BA3B7",
";@	c #2E3445",
">@	c #4F5978",
",@	c #D8D9DE",
"'@	c #CAD0E2",
")@	c #2B3142",
"!@	c #455681",
"~@	c #565E72",
"{@	c #BFCFD9",
"]@	c #B6CCE5",
"^@	c #23293B",
"/@	c #56638D",
"(@	c #6A7EAB",
"_@	c #7B9DD7",
":@	c #7DA1E1",
"<@	c #475A80",
"[@	c #434C67",
"}@	c #5C6A98",
"|@	c #677BB2",
"1@	c #6685C4",
"2@	c #6791E1",
"3@	c #7BA5EB",
"4@	c #4B5C7B",
"5@	c #1E2026",
"6@	c #444D55",
"7@	c #79868D",
"8@	c #4B5259",
"9@	c #6B7786",
"0@	c #B1C0D7",
"a@	c #788AAD",
"b@	c #EBEDF2",
"c@	c #66779C",
"d@	c #242C39",
"e@	c #7B8DAB",
"f@	c #D9DCE2",
"g@	c #C2CEE3",
"h@	c #464F63",
"i@	c #374458",
"j@	c #546173",
"k@	c #97ADC6",
"l@	c #8BA3C4",
"m@	c #323A4F",
"n@	c #383F4C",
"o@	c #515D77",
"p@	c #6E8CBE",
"q@	c #729BE0",
"r@	c #779FE7",
"s@	c #455981",
"t@	c #202530",
"u@	c #242832",
"v@	c #2D374D",
"w@	c #55729B",
"x@	c #A9CAD7",
"y@	c #677A89",
"z@	c #465159",
"A@	c #616D7B",
"B@	c #88909B",
"C@	c #2F3747",
"D@	c #CCD7DF",
"E@	c #4F638E",
"F@	c #B3B5BA",
"G@	c #BDC0C7",
"H@	c #506A96",
"I@	c #313D4E",
"J@	c #6C80A8",
"K@	c #DFEDF4",
"L@	c #A6BBCB",
"M@	c #374869",
"N@	c #232A39",
"O@	c #526286",
"P@	c #576478",
"Q@	c #5A6B87",
"R@	c #414954",
"S@	c #4F5E73",
"T@	c #B0BCC5",
"U@	c #363F4C",
"V@	c #BBCDE3",
"W@	c #2A3242",
"X@	c #51648B",
"Y@	c #DEE0E4",
"Z@	c #B7BEC8",
"`@	c #313E5E",
" #	c #374871",
".#	c #62728D",
"+#	c #C5E2F2",
"@#	c #A2BCD1",
"##	c #596B91",
"$#	c #272C38",
"%#	c #484F64",
"&#	c #89ADDB",
"*#	c #8EBBEB",
"=#	c #819FC2",
"-#	c #77869D",
";#	c #454F65",
">#	c #2E3647",
",#	c #354258",
"'#	c #89AABE",
")#	c #CCE9F5",
"!#	c #92B3C9",
"~#	c #4D5E76",
"{#	c #242935",
"]#	c #17181C",
"^#	c #4B556B",
"/#	c #515F72",
"(#	c #89939D",
"_#	c #6A7B8E",
":#	c #6B7C8D",
"<#	c #5A6682",
"[#	c #2C3D64",
"}#	c #778195",
"|#	c #EAF0F8",
"1#	c #8E9AB4",
"2#	c #252B3F",
"3#	c #42568E",
"4#	c #56667D",
"5#	c #D9F3FC",
"6#	c #BED0D8",
"7#	c #6F7586",
"8#	c #30333F",
"9#	c #6B7794",
"0#	c #88A5B6",
"a#	c #C5E7F6",
"b#	c #A1B7C2",
"c#	c #6E7D8C",
"d#	c #5D6D8D",
"e#	c #677BA9",
"f#	c #6C82AE",
"g#	c #97B5D5",
"h#	c #A2C5E9",
"i#	c #8DB5F4",
"j#	c #6B87C8",
"k#	c #3A4665",
"l#	c #3F4862",
"m#	c #545D78",
"n#	c #4C5569",
"o#	c #9DADC8",
"p#	c #2B3A58",
"q#	c #D4DEF0",
"r#	c #454D5E",
"s#	c #374D81",
"t#	c #6D778D",
"u#	c #E6EDF2",
"v#	c #9FAFCF",
"w#	c #29324C",
"x#	c #435283",
"y#	c #4D5566",
"z#	c #B2C3D0",
"A#	c #CAE4F1",
"B#	c #A3B5CB",
"C#	c #43454F",
"D#	c #656975",
"E#	c #69768D",
"F#	c #85A2BF",
"G#	c #9EC5F4",
"H#	c #7694C8",
"I#	c #3E4B6B",
"J#	c #252A37",
"K#	c #1E2028",
"L#	c #16171C",
"M#	c #1F2229",
"N#	c #384564",
"O#	c #343D54",
"P#	c #3A4158",
"Q#	c #616D94",
"R#	c #333E5F",
"S#	c #868EAA",
"T#	c #49567A",
"U#	c #A6AEBF",
"V#	c #999EB2",
"W#	c #435A8F",
"X#	c #333D5B",
"Y#	c #8690A5",
"Z#	c #D0DFF5",
"`#	c #7B88AC",
" $	c #353E5B",
".$	c #454F6E",
"+$	c #464E62",
"@$	c #A4B8D4",
"#$	c #A9C6F3",
"$$	c #676F88",
"%$	c #40424B",
"&$	c #4D5160",
"*$	c #7F89A4",
"=$	c #97ABD1",
"-$	c #7A98DC",
";$	c #7293E3",
">$	c #5F7ABB",
",$	c #627BB1",
"'$	c #586988",
")$	c #2B2F3B",
"!$	c #16171B",
"~$	c #18191C",
"{$	c #36405E",
"]$	c #5A6896",
"^$	c #2D3244",
"/$	c #909ACA",
"($	c #475070",
"_$	c #ADB5E0",
":$	c #7D87B1",
"<$	c #374D8F",
"[$	c #262F49",
"}$	c #6876A1",
"|$	c #ABB7E6",
"1$	c #8792BF",
"2$	c #545D7F",
"3$	c #3D4257",
"4$	c #404352",
"5$	c #67708B",
"6$	c #819AE3",
"7$	c #8796C2",
"8$	c #525970",
"9$	c #3D414C",
"0$	c #373C4D",
"a$	c #404C6D",
"b$	c #556BA5",
"c$	c #536DB0",
"d$	c #5874BB",
"e$	c #5770B2",
"f$	c #344164",
"g$	c #3C486C",
"h$	c #515878",
"i$	c #313545",
"j$	c #5E617B",
"k$	c #2B334C",
"l$	c #48506F",
"m$	c #A8ADDC",
"n$	c #8492D1",
"o$	c #252A3B",
"p$	c #2B3048",
"q$	c #636C93",
"r$	c #919AC9",
"s$	c #8792BE",
"t$	c #51576E",
"u$	c #575B6C",
"v$	c #5E5F69",
"w$	c #6F7BA2",
"x$	c #7187CC",
"y$	c #6377B4",
"z$	c #6F80AC",
"A$	c #5B6581",
"B$	c #4B5169",
"C$	c #535E7E",
"D$	c #6373A1",
"E$	c #566796",
"F$	c #3D4866",
"G$	c #38476D",
"H$	c #37476F",
"I$	c #323646",
"J$	c #394059",
"K$	c #545971",
"L$	c #202128",
"M$	c #656FA5",
"N$	c #2A3A6B",
"O$	c #565F84",
"P$	c #9297CD",
"Q$	c #7579A1",
"R$	c #414B72",
"S$	c #37405F",
"T$	c #525D80",
"U$	c #70779D",
"V$	c #8993C2",
"W$	c #686F8E",
"X$	c #525563",
"Y$	c #4D4E58",
"Z$	c #454A5E",
"`$	c #68759C",
" %	c #52649C",
".%	c #4F64A0",
"+%	c #3A4872",
"@%	c #2A324C",
"#%	c #1D212D",
"$%	c #21232C",
"%%	c #3A3C47",
"&%	c #303444",
"*%	c #191B1E",
"=%	c #34394B",
"-%	c #404764",
";%	c #484B5E",
">%	c #8596DE",
",%	c #6681CC",
"'%	c #2D3855",
")%	c #424E77",
"!%	c #8388B9",
"~%	c #7C83B8",
"{%	c #383E58",
"]%	c #404969",
"^%	c #434A63",
"/%	c #5C6485",
"(%	c #717AA6",
"_%	c #666E95",
":%	c #4A4C56",
"<%	c #656B7F",
"[%	c #606A84",
"}%	c #3B4159",
"|%	c #323B56",
"1%	c #3C4B76",
"2%	c #44578F",
"3%	c #3C4D7E",
"4%	c #364570",
"5%	c #303C61",
"6%	c #2E364D",
"7%	c #323546",
"8%	c #444A66",
"9%	c #404A66",
"0%	c #8399CC",
"a%	c #6E819E",
"b%	c #3E507C",
"c%	c #344169",
"d%	c #6A79B5",
"e%	c #7376A1",
"f%	c #565C7B",
"g%	c #434D69",
"h%	c #4F597A",
"i%	c #49506B",
"j%	c #5B6381",
"k%	c #5B678F",
"l%	c #454B66",
"m%	c #40465A",
"n%	c #474E69",
"o%	c #5A688F",
"p%	c #4D5261",
"q%	c #282A2F",
"r%	c #24293C",
"s%	c #333D59",
"t%	c #303C5F",
"u%	c #2D2F3B",
"v%	c #373D54",
"w%	c #3C4057",
"x%	c #3F5083",
"y%	c #849ABA",
"z%	c #334373",
"A%	c #344578",
"B%	c #525D8F",
"C%	c #686E9B",
"D%	c #5B6282",
"E%	c #424A67",
"F%	c #4D5B81",
"G%	c #444D65",
"H%	c #5B668C",
"I%	c #58638C",
"J%	c #465074",
"K%	c #414B6E",
"L%	c #2F364B",
"M%	c #252830",
"N%	c #3F4046",
"O%	c #343740",
"P%	c #191A1E",
"Q%	c #1A1B21",
"R%	c #373E59",
"S%	c #3F4154",
"T%	c #3C3D50",
"U%	c #262C3D",
"V%	c #495672",
"W%	c #6477A2",
"X%	c #3D4D7A",
"Y%	c #33426E",
"Z%	c #363F5F",
"`%	c #4B5171",
" &	c #525875",
".&	c #4F5774",
"+&	c #444C68",
"@&	c #353E5D",
"#&	c #49506E",
"$&	c #454A64",
"%&	c #414864",
"&&	c #383F57",
"*&	c #495372",
"=&	c #292D3B",
"-&	c #3B3D49",
";&	c #1F2128",
">&	c #363C51",
",&	c #222736",
"'&	c #1D212F",
")&	c #272A36",
"!&	c #2B3146",
"~&	c #2F364E",
"{&	c #383B4E",
"]&	c #3F496A",
"^&	c #303751",
"/&	c #3A3E55",
"(&	c #3C3E52",
"_&	c #3A4059",
":&	c #394260",
"<&	c #2C334A",
"[&	c #383F56",
"}&	c #383D51",
"|&	c #353A4C",
"1&	c #32384C",
"2&	c #31374B",
"3&	c #333950",
"4&	c #282E41",
"5&	c #202431",
"6&	c #1A1B1F",
"7&	c #262B37",
"8&	c #282C3D",
"9&	c #303547",
"0&	c #393D53",
"a&	c #32384E",
"b&	c #343B54",
"c&	c #292C38",
"d&	c #2F3242",
"e&	c #2C303F",
"f&	c #2C2F3C",
"g&	c #252832",
"h&	c #2D313E",
"i&	c #262935",
"j&	c #2A2E3C",
"k&	c #21242F",
"l&	c #20242E",
"m&	c #222429",
"n&	c #262A3B",
"o&	c #1A1C22",
"p&	c #282C3B",
"q&	c #30364C",
"r&	c #333A54",
"s&	c #2A3044",
"t&	c #272A37",
"u&	c #292E3F",
"v&	c #2A2F42",
"w&	c #272D3F",
"x&	c #1E212A",
"y&	c #1B1C1F",
"z&	c #1C1E21",
"A&	c #1D1F22",
"B&	c #22242D",
"C&	c #232631",
"D&	c #222734",
"E&	c #1C1D23",
"F&	c #1E1F22",
"G&	c #1C1D21",
"                        . + @ # $ % & *                         ",
"                  = - ; > , ' ) ! ~ { ] ^ / (                   ",
"                _ : < [ } | 1 2 3 4 5 6 7 8 9 0                 ",
"            a b c d e f g h i j k l m n o p q r s t             ",
"        u u v w x y z A B C D E F G H I J K u u u u u           ",
"        L u M N O P Q R S T U V W u u u u u X Y Z `  ...        ",
"      +.@.u #.$.%.&.*.=.-.;.>.,.'.u ).!.~.{.].^./.(._.:.<.      ",
"      [.}.u |.1.2.3.4.5.6.7.8.9.0.u a.b.c.d.e.f.g.h.i.j.k.      ",
"    l.m.n.u o.p.q.r.s.t.u.v.w.x.y.u z.A.B.6 C.D.E.F.G.H.I.0     ",
"  J.K.L.M.u N.O.P.Q.R.S.T.U.V.W.X.u Y.Z.`. +.+++@+#+$+%+&+*+=+  ",
"  -+;+>+,+u '+)+!+~+{+]+^+/+(+_+:+u <+[+}+|+1+2+3+4+5+6+7+8+9+  ",
"  0+a+b+c+u d+e+f+g+h+i+j+k+l+m+n+u o+p+q+r+s+t+u+v+w+x+y+z+A+  ",
"B+C+D+E+F+u G+H+I+J+K+L+M+N+O+P+Q+u R+S+T+U+V+W+X+Y+Z+`+ @.@+@@@",
"#@$@%@&@*@u =@-@;@>@,@'@)@!@~@{@]@u ^@/@(@_@:@<@[@}@|@1@2@3@4@5@",
"6@7@8@9@0@u a@b@c@d@e@f@g@h@i@j@k@u l@m@n@o@p@q@r@s@t@u@v@w@x@y@",
"z@A@B@C@D@u E@F@G@H@I@J@K@L@M@N@O@u u u u u u u u u u u u u P@Q@",
"R@S@T@U@V@u W@X@Y@Z@`@ #.#+#@###$#%#u &#*#=#-#;#>#,#'#)#!#~#{#]#",
"^#/#(#_#:#u <#[#}#|#1#2#3#4#5#6#7#8#u 9#0#a#b#c#d#e#f#g#h#i#j#k#",
"l#m#n#o#p#u q#r#s#t#u#v#w#x#y#z#A#B#u C#D#E#F#G#H#I#J#K#L#M#N#O#",
"P#Q#R#S#T#u U#V#W#X#Y#Z#`# $.$+$@$#$u $$%$&$*$=$-$;$>$,$'$)$!$~$",
"  {$]$^$/$u ($_$:$<$[$}$|$1$2$3$4$5$u 6$7$8$M.9$0$a$b$c$d$e$f$  ",
"  g$h$i$j$u k$l$m$n$o$p$q$r$s$t$u$v$u w$x$y$z$A$B$C$D$E$F$G$H$  ",
"  I$J$K$L$u M$N$O$P$Q$R$S$T$U$V$W$X$u Y$Z$`$ %.%+%@%#%$%%%&%*%  ",
"    =%-%;%u >%,%'%)%!%~%{%]%^%/%(%_%u :%<%[%}%|%1%2%3%4%5%6%    ",
"      7%8%u 9%0%a%b%c%d%e%f%g%h%i%j%u k%l%m%n%o%p%q%r%s%t%      ",
"      u%v%u w%x%y%A.z%A%B%C%D%E%F%G%u H%I%J%K%L%M%N%O%P%Q%      ",
"        u R%S%T%U%V%W%X%Y%Z%`% &.&+&u u u u u u u u u u         ",
"        u u u u u u u u u u u @&#&$&%&&&*&=&-&;&>&,&'&          ",
"            )&!&~&{&]&^&/&(&_&:&<&[&}&|&1&2&3&4&5&6&            ",
"                7&8&9&0&a&b&c&d&e&f&g&h&i&j&k&l&                ",
"                  m&n&o&p&c&q&r&s&t&u&v&w&x&y&                  ",
"                        z&A&B&C&D&E&F&G&                        "};
