/* XPM */
static char * rdlogmanager_xpm[] = {
"32 32 710 2",
"  	c None",
". 	c #3D485E",
"+ 	c #3D485F",
"@ 	c #364156",
"# 	c #3B475D",
"$ 	c #414F69",
"% 	c #37435A",
"& 	c #36425B",
"* 	c #3B4A68",
"= 	c #2F3645",
"- 	c #4B5871",
"; 	c #505D74",
"> 	c #4D586E",
", 	c #454F62",
"' 	c #606E88",
") 	c #5B6985",
"! 	c #414D64",
"~ 	c #536280",
"{ 	c #4E5F81",
"] 	c #3F4E69",
"^ 	c #435478",
"/ 	c #384868",
"( 	c #2E384D",
"_ 	c #424D5E",
": 	c #576375",
"< 	c #57606E",
"[ 	c #525B6A",
"} 	c #778192",
"| 	c #3B414B",
"1 	c #8A98A8",
"2 	c #404753",
"3 	c #758398",
"4 	c #4B5669",
"5 	c #58667F",
"6 	c #51607E",
"7 	c #404D68",
"8 	c #47587A",
"9 	c #394868",
"0 	c #364566",
"a 	c #30353E",
"b 	c #485468",
"c 	c #677281",
"d 	c #484F5D",
"e 	c #8F96A5",
"f 	c #3D414E",
"g 	c #A1A6B3",
"h 	c #4D5363",
"i 	c #8992A1",
"j 	c #686E79",
"k 	c #545E70",
"l 	c #8494A9",
"m 	c #3C4454",
"n 	c #586581",
"o 	c #6478A1",
"p 	c #3D4964",
"q 	c #46587D",
"r 	c #4A5D87",
"s 	c #323E5C",
"t 	c #354464",
"u 	c #23262D",
"v 	c #E11313",
"w 	c #404551",
"x 	c #9BA1A7",
"y 	c #222531",
"z 	c #C7C8CD",
"A 	c #393C48",
"B 	c #A3A6B3",
"C 	c #7A7D86",
"D 	c #404557",
"E 	c #BEC3D0",
"F 	c #535768",
"G 	c #434B5E",
"H 	c #8FA0B8",
"I 	c #5E6983",
"J 	c #3D465C",
"K 	c #6A7EA7",
"L 	c #506285",
"M 	c #45567B",
"N 	c #445983",
"O 	c #3A4A70",
"P 	c #293246",
"Q 	c #404B5C",
"R 	c #48505C",
"S 	c #636570",
"T 	c #888A94",
"U 	c #20222B",
"V 	c #DBDDE2",
"W 	c #50535F",
"X 	c #6C6E76",
"Y 	c #D1D3DC",
"Z 	c #2A2E3F",
"` 	c #505564",
" .	c #C4C9D3",
"..	c #5C6374",
"+.	c #353A44",
"@.	c #8092AC",
"#.	c #7283A0",
"$.	c #3B4359",
"%.	c #3F4C67",
"&.	c #5B72A2",
"*.	c #425379",
"=.	c #3E4C6F",
"-.	c #3C4F7A",
";.	c #374668",
">.	c #2A2E35",
",.	c #54627A",
"'.	c #9299A1",
").	c #878996",
"!.	c #878A99",
"~.	c #373E55",
"{.	c #CCCDD6",
"].	c #767989",
"^.	c #3C435E",
"/.	c #A8AAB4",
"(.	c #A8AAB8",
"_.	c #363B4E",
":.	c #565A68",
"<.	c #C2CEDA",
"[.	c #76829B",
"}.	c #353E56",
"|.	c #54617C",
"1.	c #86A2D2",
"2.	c #5E6F96",
"3.	c #4A557A",
"4.	c #45567D",
"5.	c #5975B2",
"6.	c #3E4E75",
"7.	c #3A4362",
"8.	c #202023",
"9.	c #627183",
"0.	c #394152",
"a.	c #B8BBC3",
"b.	c #848591",
"c.	c #A0A3B3",
"d.	c #1C202C",
"e.	c #A2A8BE",
"f.	c #C9CAD3",
"g.	c #212431",
"h.	c #4D5164",
"i.	c #D7D7DB",
"j.	c #8B8C95",
"k.	c #36384A",
"l.	c #4D5160",
"m.	c #424C72",
"n.	c #3B4560",
"o.	c #5F749D",
"p.	c #6A86B9",
"q.	c #526288",
"r.	c #5F6D9F",
"s.	c #415582",
"t.	c #47566D",
"u.	c #7D8C9E",
"v.	c #33343A",
"w.	c #C6C7CF",
"x.	c #6E7792",
"y.	c #CFD1D8",
"z.	c #424A62",
"A.	c #494C57",
"B.	c #DFE0E3",
"C.	c #8C8E9C",
"D.	c #22242C",
"E.	c #616471",
"F.	c #DDDEE2",
"G.	c #838692",
"H.	c #404357",
"I.	c #8293AB",
"J.	c #444C73",
"K.	c #4A5579",
"L.	c #607DB6",
"M.	c #5977B2",
"N.	c #333E59",
"O.	c #363F4B",
"P.	c #4B596D",
"Q.	c #8492A4",
"R.	c #363A46",
"S.	c #CFD0D4",
"T.	c #3C4256",
"U.	c #ECEEF5",
"V.	c #5F6169",
"W.	c #555B77",
"X.	c #8E909D",
"Y.	c #DCDCE3",
"Z.	c #717385",
"`.	c #24252D",
" +	c #616472",
".+	c #E8EBF3",
"++	c #A0A9BC",
"@+	c #424C70",
"#+	c #96B6E9",
"$+	c #647AA9",
"%+	c #293044",
"&+	c #46506E",
"*+	c #667BB3",
"=+	c #7090DC",
"-+	c #1F242E",
";+	c #222326",
">+	c #657B92",
",+	c #3C4558",
"'+	c #919FB2",
")+	c #262C3C",
"!+	c #BEC1CA",
"~+	c #384467",
"{+	c #ADADB5",
"]+	c #C9CDDC",
"^+	c #2A2D3A",
"/+	c #3D4253",
"(+	c #C5C6CD",
"_+	c #D6D6DF",
":+	c #53586E",
"<+	c #34384B",
"[+	c #4E5365",
"}+	c #C1D2E5",
"|+	c #505A79",
"1+	c #212331",
"2+	c #7E9BD4",
"3+	c #84AAEF",
"4+	c #5A70A8",
"5+	c #4B5F90",
"6+	c #5D82D2",
"7+	c #273147",
"8+	c #6F8398",
"9+	c #333841",
"0+	c #A0ABB5",
"a+	c #283454",
"b+	c #99A1B7",
"c+	c #21283B",
"d+	c #878EA8",
"e+	c #EBECF2",
"f+	c #71778C",
"g+	c #2D344D",
"h+	c #4C4E5D",
"i+	c #D4D8E4",
"j+	c #BDC0CB",
"k+	c #41465B",
"l+	c #454E73",
"m+	c #464C60",
"n+	c #A3BEDE",
"o+	c #6876A0",
"p+	c #272C3C",
"q+	c #3E4C6D",
"r+	c #7DA2EA",
"s+	c #647CAB",
"t+	c #535E85",
"u+	c #2B3550",
"v+	c #5170A4",
"w+	c #4C4E51",
"x+	c #8096AC",
"y+	c #2C323F",
"z+	c #B7C4D0",
"A+	c #3C4A6C",
"B+	c #4C5773",
"C+	c #5D6A8F",
"D+	c #242D47",
"E+	c #9A9EAD",
"F+	c #DBDBDE",
"G+	c #575D70",
"H+	c #3F4A70",
"I+	c #404456",
"J+	c #DFE5F3",
"K+	c #D5E0F0",
"L+	c #3D4453",
"M+	c #3A4568",
"N+	c #67799B",
"O+	c #9EC0F4",
"P+	c #6D87B6",
"Q+	c #555F8A",
"R+	c #3F537E",
"S+	c #668EDD",
"T+	c #597DC5",
"U+	c #303E5C",
"V+	c #445072",
"W+	c #333C52",
"X+	c #44494F",
"Y+	c #7C95A3",
"Z+	c #262E3D",
"`+	c #A0A9B1",
" @	c #5E6980",
".@	c #324576",
"+@	c #9BA3B7",
"@@	c #2E3445",
"#@	c #4F5978",
"$@	c #D8D9DE",
"%@	c #CAD0E2",
"&@	c #2B3142",
"*@	c #455681",
"=@	c #565E72",
"-@	c #BFCFD9",
";@	c #B6CCE5",
">@	c #5B698A",
",@	c #56638D",
"'@	c #6A7EAB",
")@	c #7B9DD7",
"!@	c #475A80",
"~@	c #5C6A98",
"{@	c #677BB2",
"]@	c #6685C4",
"^@	c #6791E1",
"/@	c #4B5C7B",
"(@	c #1E2026",
"_@	c #444D55",
":@	c #79868D",
"<@	c #4B5259",
"[@	c #6B7786",
"}@	c #B1C0D7",
"|@	c #2B334A",
"1@	c #EBEDF2",
"2@	c #66779C",
"3@	c #242C39",
"4@	c #7B8DAB",
"5@	c #D9DCE2",
"6@	c #C2CEE3",
"7@	c #464F63",
"8@	c #374458",
"9@	c #546173",
"0@	c #97ADC6",
"a@	c #B5D5F7",
"b@	c #323A4F",
"c@	c #383F4C",
"d@	c #515D77",
"e@	c #6E8CBE",
"f@	c #455981",
"g@	c #202530",
"h@	c #242832",
"i@	c #2D374D",
"j@	c #A9CAD7",
"k@	c #677A89",
"l@	c #465159",
"m@	c #616D7B",
"n@	c #88909B",
"o@	c #2F3747",
"p@	c #CCD7DF",
"q@	c #525C70",
"r@	c #B3B5BA",
"s@	c #BDC0C7",
"t@	c #506A96",
"u@	c #313D4E",
"v@	c #6C80A8",
"w@	c #DFEDF4",
"x@	c #A6BBCB",
"y@	c #374869",
"z@	c #232A39",
"A@	c #526286",
"B@	c #7288A8",
"C@	c #87A7CE",
"D@	c #5E7091",
"E@	c #384150",
"F@	c #282C35",
"G@	c #8DB7F3",
"H@	c #7DADF3",
"I@	c #7199CA",
"J@	c #7D9DC6",
"K@	c #5C71A3",
"L@	c #576478",
"M@	c #5A6B87",
"N@	c #414954",
"O@	c #4F5E73",
"P@	c #B0BCC5",
"Q@	c #363F4C",
"R@	c #BBCDE3",
"S@	c #D3E3F0",
"T@	c #51648B",
"U@	c #DEE0E4",
"V@	c #B7BEC8",
"W@	c #313E5E",
"X@	c #374871",
"Y@	c #62728D",
"Z@	c #C5E2F2",
"`@	c #A2BCD1",
" #	c #596B91",
".#	c #272C38",
"+#	c #484F64",
"@#	c #89ADDB",
"##	c #8EBBEB",
"$#	c #819FC2",
"%#	c #77869D",
"&#	c #454F65",
"*#	c #2E3647",
"=#	c #354258",
"-#	c #89AABE",
";#	c #CCE9F5",
">#	c #92B3C9",
",#	c #242935",
"'#	c #17181C",
")#	c #4B556B",
"!#	c #515F72",
"~#	c #89939D",
"{#	c #6A7B8E",
"]#	c #6B7C8D",
"^#	c #D8DBE0",
"/#	c #2C3D64",
"(#	c #778195",
"_#	c #EAF0F8",
":#	c #8E9AB4",
"<#	c #252B3F",
"[#	c #42568E",
"}#	c #56667D",
"|#	c #D9F3FC",
"1#	c #BED0D8",
"2#	c #6F7586",
"3#	c #30333F",
"4#	c #6B7794",
"5#	c #88A5B6",
"6#	c #C5E7F6",
"7#	c #A1B7C2",
"8#	c #6E7D8C",
"9#	c #5D6D8D",
"0#	c #677BA9",
"a#	c #6C82AE",
"b#	c #97B5D5",
"c#	c #A2C5E9",
"d#	c #6B87C8",
"e#	c #3A4665",
"f#	c #3F4862",
"g#	c #545D78",
"h#	c #4C5569",
"i#	c #9DADC8",
"j#	c #2B3A58",
"k#	c #798AAF",
"l#	c #454D5E",
"m#	c #374D81",
"n#	c #6D778D",
"o#	c #E6EDF2",
"p#	c #9FAFCF",
"q#	c #29324C",
"r#	c #435283",
"s#	c #4D5566",
"t#	c #B2C3D0",
"u#	c #CAE4F1",
"v#	c #A3B5CB",
"w#	c #656975",
"x#	c #69768D",
"y#	c #85A2BF",
"z#	c #9EC5F4",
"A#	c #7694C8",
"B#	c #3E4B6B",
"C#	c #252A37",
"D#	c #1E2028",
"E#	c #16171C",
"F#	c #384564",
"G#	c #343D54",
"H#	c #3A4158",
"I#	c #616D94",
"J#	c #333E5F",
"K#	c #868EAA",
"L#	c #49567A",
"M#	c #2A3F72",
"N#	c #999EB2",
"O#	c #435A8F",
"P#	c #333D5B",
"Q#	c #8690A5",
"R#	c #D0DFF5",
"S#	c #7B88AC",
"T#	c #353E5B",
"U#	c #454F6E",
"V#	c #464E62",
"W#	c #A4B8D4",
"X#	c #A9C6F3",
"Y#	c #8599C5",
"Z#	c #40424B",
"`#	c #7F89A4",
" $	c #97ABD1",
".$	c #7A98DC",
"+$	c #7293E3",
"@$	c #5F7ABB",
"#$	c #627BB1",
"$$	c #586988",
"%$	c #16171B",
"&$	c #18191C",
"*$	c #36405E",
"=$	c #5A6896",
"-$	c #2D3244",
";$	c #909ACA",
">$	c #3D5189",
",$	c #ADB5E0",
"'$	c #7D87B1",
")$	c #374D8F",
"!$	c #262F49",
"~$	c #6876A1",
"{$	c #ABB7E6",
"]$	c #8792BF",
"^$	c #545D7F",
"/$	c #3D4257",
"($	c #404352",
"_$	c #67708B",
":$	c #879BDB",
"<$	c #8796C2",
"[$	c #525970",
"}$	c #3D414C",
"|$	c #373C4D",
"1$	c #404C6D",
"2$	c #556BA5",
"3$	c #536DB0",
"4$	c #5874BB",
"5$	c #344164",
"6$	c #3C486C",
"7$	c #515878",
"8$	c #313545",
"9$	c #5E617B",
"0$	c #7E89B8",
"a$	c #48506F",
"b$	c #A8ADDC",
"c$	c #8492D1",
"d$	c #252A3B",
"e$	c #2B3048",
"f$	c #636C93",
"g$	c #919AC9",
"h$	c #8792BE",
"i$	c #51576E",
"j$	c #575B6C",
"k$	c #5E5F69",
"l$	c #565B6C",
"m$	c #7187CC",
"n$	c #6377B4",
"o$	c #6F80AC",
"p$	c #5B6581",
"q$	c #4B5169",
"r$	c #535E7E",
"s$	c #6373A1",
"t$	c #566796",
"u$	c #3D4866",
"v$	c #37476F",
"w$	c #323646",
"x$	c #394059",
"y$	c #545971",
"z$	c #202128",
"A$	c #696B8C",
"B$	c #2A3A6B",
"C$	c #565F84",
"D$	c #9297CD",
"E$	c #7579A1",
"F$	c #414B72",
"G$	c #37405F",
"H$	c #525D80",
"I$	c #70779D",
"J$	c #8993C2",
"K$	c #686F8E",
"L$	c #525563",
"M$	c #525462",
"N$	c #454A5E",
"O$	c #68759C",
"P$	c #52649C",
"Q$	c #4F64A0",
"R$	c #3A4872",
"S$	c #2A324C",
"T$	c #1D212D",
"U$	c #21232C",
"V$	c #3A3C47",
"W$	c #34394B",
"X$	c #404764",
"Y$	c #484B5E",
"Z$	c #242632",
"`$	c #8596DE",
" %	c #2D3855",
".%	c #424E77",
"+%	c #8388B9",
"@%	c #7C83B8",
"#%	c #383E58",
"$%	c #404969",
"%%	c #434A63",
"&%	c #5C6485",
"*%	c #717AA6",
"=%	c #666E95",
"-%	c #5A5F76",
";%	c #656B7F",
">%	c #606A84",
",%	c #3B4159",
"'%	c #323B56",
")%	c #3C4B76",
"!%	c #44578F",
"~%	c #3C4D7E",
"{%	c #364570",
"]%	c #303C61",
"^%	c #2E364D",
"/%	c #323546",
"(%	c #444A66",
"_%	c #3D3F4F",
":%	c #404A66",
"<%	c #6E819E",
"[%	c #3E507C",
"}%	c #344169",
"|%	c #6A79B5",
"1%	c #7376A1",
"2%	c #565C7B",
"3%	c #434D69",
"4%	c #4F597A",
"5%	c #49506B",
"6%	c #5B6381",
"7%	c #535C81",
"8%	c #454B66",
"9%	c #40465A",
"0%	c #474E69",
"a%	c #5A688F",
"b%	c #4D5261",
"c%	c #282A2F",
"d%	c #24293C",
"e%	c #333D59",
"f%	c #303C5F",
"g%	c #2D2F3B",
"h%	c #373D54",
"i%	c #474A5F",
"j%	c #3C4057",
"k%	c #849ABA",
"l%	c #334373",
"m%	c #344578",
"n%	c #525D8F",
"o%	c #686E9B",
"p%	c #5B6282",
"q%	c #424A67",
"r%	c #4D5B81",
"s%	c #444D65",
"t%	c #434B68",
"u%	c #58638C",
"v%	c #465074",
"w%	c #414B6E",
"x%	c #2F364B",
"y%	c #252830",
"z%	c #3F4046",
"A%	c #343740",
"B%	c #191A1E",
"C%	c #1A1B21",
"D%	c #2D303E",
"E%	c #373E59",
"F%	c #3F4154",
"G%	c #262C3D",
"H%	c #495672",
"I%	c #6477A2",
"J%	c #3D4D7A",
"K%	c #33426E",
"L%	c #363F5F",
"M%	c #4B5171",
"N%	c #525875",
"O%	c #4F5774",
"P%	c #444C68",
"Q%	c #485375",
"R%	c #3E455E",
"S%	c #454F70",
"T%	c #56638A",
"U%	c #383F57",
"V%	c #313A57",
"W%	c #3D496E",
"X%	c #323D60",
"Y%	c #364265",
"Z%	c #222736",
"`%	c #2C2F3D",
" &	c #31374C",
".&	c #454A64",
"+&	c #414864",
"@&	c #495372",
"#&	c #292D3B",
"$&	c #3B3D49",
"%&	c #1F2128",
"&&	c #363C51",
"*&	c #1D212F",
"=&	c #272A36",
"-&	c #2B3146",
";&	c #2F364E",
">&	c #383B4E",
",&	c #3F496A",
"'&	c #303751",
")&	c #3A3E55",
"!&	c #3C3E52",
"~&	c #3A4059",
"{&	c #394260",
"]&	c #2C334A",
"^&	c #383F56",
"/&	c #383D51",
"(&	c #353A4C",
"_&	c #32384C",
":&	c #31374B",
"<&	c #333950",
"[&	c #282E41",
"}&	c #202431",
"|&	c #1A1B1F",
"1&	c #262B37",
"2&	c #282C3D",
"3&	c #303547",
"4&	c #393D53",
"5&	c #32384E",
"6&	c #343B54",
"7&	c #292C38",
"8&	c #2F3242",
"9&	c #2C303F",
"0&	c #2C2F3C",
"a&	c #252832",
"b&	c #2D313E",
"c&	c #262935",
"d&	c #2A2E3C",
"e&	c #21242F",
"f&	c #20242E",
"g&	c #222429",
"h&	c #262A3B",
"i&	c #1A1C22",
"j&	c #282C3B",
"k&	c #30364C",
"l&	c #333A54",
"m&	c #2A3044",
"n&	c #272A37",
"o&	c #292E3F",
"p&	c #2A2F42",
"q&	c #272D3F",
"r&	c #1E212A",
"s&	c #1B1C1F",
"t&	c #1C1E21",
"u&	c #1D1F22",
"v&	c #22242D",
"w&	c #232631",
"x&	c #222734",
"y&	c #1C1D23",
"z&	c #1E1F22",
"A&	c #1C1D21",
"                        . + @ # $ % & *                         ",
"                  = - ; > , ' ) ! ~ { ] ^ / (                   ",
"                _ : < [ } | 1 2 3 4 5 6 7 8 9 0                 ",
"            a b c d e f g h i j k l m n o p q r s t             ",
"          u v w x y z A B C D E F G H I J K L M N O P           ",
"        Q R v S T U V W X Y Z `  ...+.@.#.$.%.&.*.=.-.;.        ",
"      >.,.'.v ).!.~.{.].^./.(._.:.<.[.}.|.1.2.3.4.5.6.7.8.      ",
"      9.0.a.v b.c.d.e.f.g.h.i.j.k.l.v v m.n.o.p.q.r.s.v v       ",
"    t.u.v.w.v x.y.z.A.B.C.D.E.F.G.H.v I.v 6 J.K.L.M.N.v v 0     ",
"  O.P.Q.R.S.v T.U.V.W.X.Y.Z.`. +.+++v @+v #+$+%+&+*+v =+v -+;+  ",
"  >+,+'+)+!+v ~+{+]+^+/+(+_+:+<+[+}+v |+1+v 2+3+4+v v 5+6+v 7+  ",
"  8+9+0+a+b+v c+d+e+f+g+h+i+j+k+l+m+v n+o+v p+q+r+v s+t+u+v v+  ",
"w+x+y+z+A+B+v C+D+E+F+G+H+I+J+K+L+M+v N+O+P+v Q+v R+S+T+U+v V+W+",
"X+Y+Z+`+ @.@v +@@@#@$@%@&@*@=@-@;@>@v ,@'@)@v !@v ~@{@]@^@v /@(@",
"_@:@<@[@}@|@v 1@2@3@4@5@6@7@8@9@0@a@v b@c@d@e@v v f@g@h@i@v j@k@",
"l@m@n@o@p@q@v r@s@t@u@v@w@x@y@z@A@B@v C@D@E@F@v G@H@I@J@K@v L@M@",
"N@O@P@Q@R@S@v T@U@V@W@X@Y@Z@`@ #.#+#v @###$#%#&#*#=#-#;#>#v ,#'#",
")#!#~#{#]#^#v /#(#_#:#<#[#}#|#1#2#3#v 4#5#6#7#8#9#0#a#b#c#v d#e#",
"f#g#h#i#j#k#v l#m#n#o#p#q#r#s#t#u#v#v v w#x#y#z#A#B#C#D#E#v F#G#",
"H#I#J#K#L#M#v N#O#P#Q#R#S#T#U#V#W#X#Y#v Z#l.`# $.$+$@$#$$$v %$&$",
"  *$=$-$;$>$v ,$'$)$!$~${$]$^$/$($_$:$v <$[$R.}$|$1$2$3$4$v 5$  ",
"  6$7$8$9$0$v a$b$c$d$e$f$g$h$i$j$k$l$v m$n$o$p$q$r$s$t$u$v v$  ",
"  w$x$y$z$A$v B$C$D$E$F$G$H$I$J$K$L$M$v N$O$P$Q$R$S$T$U$V$v v   ",
"    W$X$Y$Z$`$v  %.%+%@%#%$%%%&%*%=%-%v ;%>%,%'%)%!%~%{%]%^%v   ",
"      /%(%_%:%v <%[%}%|%1%2%3%4%5%6%7%v 8%9%0%a%b%c%d%e%f%  v   ",
"      g%h%i%j%v k%I.l%m%n%o%p%q%r%s%t%v u%v%w%x%y%z%A%B%C%  v   ",
"        D%E%F%v G%H%I%J%K%L%M%N%O%P%Q%R%S%T%U%V%W%X%Y%Z%        ",
"          `% &v v v v v v v v v v .&+&U%@&#&$&%&&&Z%*&          ",
"            =&-&;&>&,&'&)&!&~&{&]&^&/&(&_&:&<&[&}&|&            ",
"                1&2&3&4&5&6&7&8&9&0&a&b&c&d&e&f&                ",
"                  g&h&i&j&7&k&l&m&n&o&p&q&r&s&                  ",
"                        t&u&v&w&x&y&z&A&                        "};
