/* XPM */
static char * info_banner2_xpm[] = {
"460 35 33 1",
" 	c None",
".	c #000000",
"+	c #FFFFFF",
"@	c #C5C5C5",
"#	c #A4A4A4",
"$	c #101010",
"%	c #626262",
"&	c #F6F6F6",
"*	c #B4B4B4",
"=	c #9C9C9C",
"-	c #8B8B8B",
";	c #DEDEDE",
">	c #292929",
",	c #393939",
"'	c #202020",
")	c #E6E6E6",
"!	c #6A6A6A",
"~	c #737373",
"{	c #ACACAC",
"]	c #BDBDBD",
"^	c #525252",
"/	c #4A4A4A",
"(	c #EEEEEE",
"_	c #313131",
":	c #7B7B7B",
"<	c #080808",
"[	c #949494",
"}	c #CDCDCD",
"|	c #414141",
"1	c #5A5A5A",
"2	c #D5D5D5",
"3	c #181818",
"4	c #838383",
"............................................................................................................................................................................................................................................................................................................................................................................................................................................................................",
"............................................................................................................................................................................................................................................................................................................................................................................................................................................................................",
"++++++++++++++++++++++++++++++++++++++++++++++++++++++++++++++++++++++++++++++++++++++++++++++++++++++++++++++++++++++++++++++++++++++++++++++++++++++++++++++++++++++++++++++++++++++++++++++++++++++++++++++++++++++++++++++++++++++++++++++++++++++++++++++++++++++++++++++++++++++++++++++++++++++++++++++++++++++++++++++++++++++++++++++++++++++++++++++++++++++++++++++++++++++++++++++++++++++++++++++++++++++++++++++++++++++++++++++++++++++++++++++++++++++++++++",
"++++++++++++++++++++++++++++++++++++++++++++++++++++++++++++++++++++++++++++++++++++++++++++++++++++++++++++++++++++++++++++++++++++++++++++++++++++++++++++++++++++++++++++++++++++++++++++++++++++++++++++++++++++++++++++++++++++++++++++++++++++++++++++++++++++++++++++++++++++++++++++++++++++++++++++++++++++++++++++++++++++++++++++++++++++++++++++++++++++++++++++++++++++++++++++++++++++++++++++++++++++++++++++++++++++++++++++++++++++++++++++++++++++++++++++",
"++++++++++++++++++++++++++++++++++++++++++++++++++++++++++++++++++++++++++++++++++++++++++++++++++++++++++++++++++++++++++++++++++++++++++++++++++++++++++++++++++++++++++++++++++++++++++++++++++++++++++++++++++++++++++++++++++++++++++++++++++++++++++++++++++++++++++++++++++++++++++++++++++++++++++++++++++++++++++++++++++++++++++++++++++++++++++++++++++++++++++++++++++++++++++++++++++++++++++++++++++++++++++++++++++++++++++++++++++++++++++++++++++++++++++++",
"++++++++++++++++++++++++++++++++++++++++++++++++++++++++++++++++++++++++++++++++++++++++++++++++++++++++++++++++++++++++++++++++++++++++++++++++++++++++++++++++++++++++++++++++++++++++++++++++++++++++++++++++++++++++++++++++++++++++++++++++++++++++++++++++++++++++++++++++++++++++++++++++++++++++++++++++++++++++++++++++++++++++++++++++++++++++++++++++++++++++++++++++++++++++++++++++++++++++++++++++++++++++++++++++++++++++++++++++++++++++++++++++++++++++++++",
"++++++++++++++++++++++++++++++++++++++++++++++++++++++++++++++++++++++++++++++++++++++++++++++++++++++++++++++++++@+++++++++++++++++++++++++++++++++++++++++++++++++++++++++++++++++++++++++++++++++++++++++++++++++++++++++++++++++++++++++++++++++++++++++++++++++++++++++++++++++++++++++++++++@++++++++++++++++++++++++++++++++++++++++++++++++++++++++++++++++++++++++++++++++++++++++++++++++++++@++++++++++++++++++++++++++++++++++++++++++++++++++++++++++++++++++++",
"+++++++++++++++++++++++++++#$%+++++++++++++++++++++++++++++++++++&*++++++++++++++++++++++++++++++++++++++++++++++=.-+++++++++++++++++++++&*++++++++++++++++++++++++++++++#$%+++++++++++++++++++++++++++++&*++++++++++++++++++++++++++++++++++++++++++++++++++++++++++&*++++++++++++++++++++++++++=.-++++++++#$%++++++++++++++++++++++++++++++++++++++++++++#$%++++++++++++++++++++++++++++++++++++++++=.-+++++++++++++++++++++++++++++++++++++++++++++++++++++++++++++++++++",
"++++++++++++++++++++++++++;$#>++++++++++++++++++++++++++++++++++&,'++++++++++++++++++++++++++++++++++++++++++++++)!;++++++++++++++++++++&,'+++++++++++++++++++++++++++++;$#>++++++++++++++++++++++++++++&,'+++++++++++++++++++++++++++++++++++++++++++++++++++++++++&,'++++++++++++++++++++++++++)!;+++++++;$#>+++++++++++++++++++++++++++++++++++++++++++;$#>++++++++++++++++++++++++++++++++++++++++)!;+++++++++++++++++++++++++++++++++++++++++++++++++++++++++++++++++++",
"++++++++++++++++++++++++++~{+]++++++++++++++++++++++++++++++++++^/(+++++++++++++++++++++++__++++++++++++++++++++__+__+++++++++++++++++++^/(+++++++++++++++++++++++++++++~{+]++++++++++++++++++++++++++++^/(+++++++++++++++++++++++__++++++++++++++++++++++++++++++++^/(+++++++++++++++++++++++++__+__++++++~{+]+++++++++++++++++++++++++++++++++++++++++++~{+]+++++++++++++++++++++++++++++++++++++++__+__+++++++++++++++++++++++__+++++++++++++++++++++++++++++++++++++++++",
"++++++++++++++++++++++++++!++++++++++++++++++++++++++++++++++++:=+++++++++++++++++++++++++^/++++++++++++++++++++^/+/^++++++++++++++++++:=+++++++++++++++++++++++++++++++!++++++++++++++++++++++++++++++:=+++++++++++++++++++++++++^/+++++++++++++++++++++++++++++++:=+++++++++++++++++++++++++++^/+/^++++++!++++++++++++++++++++++++++++++++++++++++++++++!++++++++++++++++++++++++++++++++++++++++++^/+/^+++++++++++++++++++++++^/+++++++++++++++++++++++++++++++++++++++++",
"++++++++++++++++++++++++++++++++++++++++++++++++++++++++++++++++++++++++++++++++++++++++++++++++++++++++++++++++++++++++++++++++++++++++++++++++++++++++++++++++++++++++++++++++++++++++++++++++++++++++++++++++++++++++++++++++++++++++++++++++++++++++++++++++++++++++++++++++++++++++++++++++++++++++++++++++++++++++++++++++++++++++++++++++++++++++++++++++++++++++++++++++++++++++++++++++++++++++++++++++++++++++++++++++++++++++++++++++++++++++++++++++++++++++++++",
"+++++++++++++++++++++++++++++++++++++++++++++++++++++++++++++++++++++++++++++++++++++++++++++++++++++++++++++/...........,++++++++++++++++++++++++++++++++++++++++++++++++++++++++++++++++++++++++++++++++++++++++++++++++++++++++++++++++++++++++++++++++++++++++++++++++++++++++++++++++++++++++++++++++++++++++++++++++++++++++++++++++++++++++++++++++++++++++++++++++++++++++++++++++++++++++++++++++++++++++++++++++++++++++++++++++++++++++++++++++++++++++++++++++++",
"++++++++++++++++++++++++++++++++++++++++++++++++++++++++++++++++++++++++++++++++++++++++++++++++++++++++++++++++++++++++++++++++++++++++++++++++++++++++++++++++++++++++++++++++++++++++++++++++++++++++++++++++++++++++++++++++++++++++++++++++++++++++++++++++++++++++++++++++++++++++++++++++++++++++++++++++++++++++++++++++++++++++++++++++++++++++++++++++++++++++++++++++++++++++++++++++++++++++++++++++++++++++++++++++++++++++++++++++++++++++++++++++++++++++++++",
"++++++++++++++++++++++++++;^<<_-++)[/<}|<$%(++(=/<}|<$1)++++++@,|+++++(=/<@|<$1)++++&~!)++{1{+++..[+++++++(=/<213.3%*/<<^)++++++++++++@,|++++++++;^<<_-++(=/<@|<$1)+++++;^<<_-++(=/<}/<<^*13.>-+++++++@,|+++++(=/<@|<$1)++++&~!)++{1{+++..[+++++++(=/<}|<$1)++++++@,|+++++(=/<213.3%*/<<^)++++++@,|++++++++;^<<_-++++++++(=/<213.3%*/<<1(++(=/<}|<$1)+++++#|<.':(+(=/<213.3%*/<<^)++;|........>}++*>...$|[+++(=/<@|<$1)++++&~!)++{1{+++..[++++++++++++++++++++++++++++++++++",
"+++++++++++++++++++++++++=>]+)%.,&2#..:()!.>&+;#..4((~.3)++++++|.*++++}#..-((~.3)+++,/+++~>(++++..++++++++}#..:)+}|..}&4.3)++++++++++++|.*++++++=>]+)%.,&}#..-((~.3)+++=>]+)%.,&@#..:()!..}+},.|+++++++|.*++++}#..-((~.3)+++,/+++~>(++++..++++++++;#..4((~.3)++++++|.*++++}#..:)+}|..}&4.3)++++++|.*++++++=>]+)%.,&++++++}#..!;+@,..2&:.'(+;#..4((~.3)+++13]+)[$3&}#..:)+}|..}&4.3)++}.[+++&..+++{_@+&;[$._(+}#..-((~.3)+++,/+++~>(++++..+++++++++++++++++++++++++++++++++++",
"++++++++++++++++++++++++].*++++/.!++..++++/.~+++..++++%.1+++++]@$>++++++..++++1.1++-.@++{.*+++++..++++++++++..+++++|.^++!.1+++++++++++]@$>+++++].*++++/.!++..++++1.1++].*++++/.!++..++++/.%+++_.4+++++]@$>++++++..++++1.1++-.@++{.*+++++..++++++++++..++++%.1+++++]@$>++++++..+++++|.^++!.1+++++]@$>+++++].*++++/.!++++++++..+++++_.%++^.~+++..++++%.1++[.*++++@:+++..+++++|.^++!.1++^.)++++..+++')+++++;$.~+++..++++1.1++-.@++{.*+++++..+++++++++++++++++++++++++++++++++++",
"++++++++++++++++++++++++,.&++++@.$++..++++].'+++..++++}.$+++++[+4.[+++++..++++}.$++>.&++_.&+++++..++++++++++..+++++@.$++2.$+++++++++++[+4.[++++,.&++++@.$++..++++}.$++,.&++++@.$++..++++].3+++*.'+++++[+4.[+++++..++++}.$++>.&++_.&+++++..++++++++++..++++}.$+++++[+4.[+++++..+++++@.$++2.$+++++[+4.[++++,.&++++@.$++++++++..+++++*.3++@.3+++..++++}.$++>.&+++++++++..+++++@.$++2.$++$.+++++..++(.&++++++-.'+++..++++}.$++>.&++_.&+++++..+++++++++++++++++++++++++++++++++++",
"++++++++++++++++++++++++..&++++&.<++..++++(..+++..+++++..++++=(+&$$&++++..++++&..++..+++<.&+++++..++++++++++..+++++&.<+++.<++++++++++=(+&$$&+++..&++++&.<++..++++&..++..&++++&.<++..++++&..+++(..++++=(+&$$&++++..++++&..++..+++<.&+++++..++++++++++..+++++..++++=(+&$$&++++..+++++&.<+++.<++++=(+&$$&+++..&++++&.<++++++++..+++++(..++&..+++..+++++..++..&+++++++++..+++++&.<+++.<++..(++++..++(.-++++++)..+++..++++&..++..+++<.&+++++..+++++++++++++++++++++++++++++++++++",
"++++++++++++++++++++++++$.]++++&.,++..+++++.$+++..++++&.>+++(#+++-.~++++..++++&.>++$.}++$.@+++++..++++++++++..+++++&._++&._+++++++++(#+++-.~+++$.]++++&.,++..++++&.>++$.]++++&.,++..+++++.3++++.3+++(#+++-.~++++..++++&.>++$.}++$.@+++++..++++++++++..++++&.>+++(#+++-.~++++..+++++&._++&._+++(#+++-.~+++$.]++++&.,++++++++..++++++.3+++.3+++..++++&.>++'.]+++++++++..+++++&._++&._++3.]++++..+++<.!#@+++&.$+++..++++&.>++$.}++$.@+++++..+++++++++++++++++++++++++++++++++++",
"++++++++++++++++++++++++~.,++++@.*++..++++).^+++..++++@.[+(/~++++&3<)+++..++++].[++1.1++%.,+++++..&+++++++++..+++++*.=++].=+++++++(/~++++&3<)++~.,++++@.*++..++++].[++~.,++++@.*++..++++).1+++2.~+(/~++++&3<)+++..++++].[++1.1++%.,+++++..&+++++++++..++++@.[+(/~++++&3<)+++..+++++*.=++].=+(/~++++&3<)++~.,++++@.*++++++++..+++++;.1++;.!+++..++++@.[++4.,+++++(2++..+++++*.=++].=++~.|++++..+++~...}+++*.^+++..++++].[++1.1++%.,+++++..&++++++++++++++++++++++++++++++++++",
"++++++++++++++++++++++++&,.^;+@>-+++..++++#.@+++..++++,/++!.]+++++=./2++..++++,|+++;$.!)@.._{;@!..4{++++++++..++++('^+++_/++++++++!.]+++++=./2+&,.^;+@>-+++..++++,|+++&,.^;+@>-+++..++++[.2+++1$(+!.]+++++=./2++..++++,|+++;$.!)@.._{;@!..4{++++++++..++++,/++!.]+++++=./2++..++++('^+++_/++!.]+++++=./2+&,.^;+@>-+++++++++..+++++:.}++-$(+++..++++,/++++/./2+(:1+++..++++('^+++_/+++&>.%)(:..++++]4{+++&>.]+++..++++,|+++;$.!)@.._{;@!..4{+++++++++++++++++++++++++++++++++",
"+++++++++++++++++++++++++&-><</2++++........_2+4..++;14+++-%+++++++'|]++..++;14+++++;/<<^@!'<>~)<^{&++++++++..+++#/-++)!4+++++++++-%+++++++'|]++&-><</2++++..++;14+++++&-><</2++++..............'}-%+++++++'|]++..++;14+++++;/<<^@!'<>~)<^{&+++++++4..++;14+++-%+++++++'|]++..+++#/-++)!4+++-%+++++++'|]++&-><</2++++++++++..............'}+4..++;14++++++[_<<,]++++..+++#/-++)!4+++++(1$<|2..+++++++++&/.-++++..++;14+++++;/<<^@!'<>~)<^{&+++++++++++++++++++++++++++++++++",
"++++++++++++++++++++++++++++++++++++..++++++++++++++++++++++++++++++++++..++++++++++++++++++++++++++++++++++..+++++++++++++++++++++++++++++++++++++++++++++..+++++++++++++++++++++++++++++++++++++++++++++++++++..++++++++++++++++++++++++++++++++++++++++++++++++++++++++++..+++++++++++++++++++++++++++++++++++++++++++++..+++++++++++++++++++++++++++++++++++++++..++++++++++++++++++++++..++++++++2_>@+++++..+++++++++++++++++++++++++++++++++++++++++++++++++++++++++++",
"++++++++++++++++++++++++++++++++++++..++++++++++++++++++++++++++++++++++..++++++++++++++++++++++++++++++++++..+++++++++++++++++++++++++++++++++++++++++++++..+++++++++++++++++++++++++++++++++++++++++++++++++++..++++++++++++++++++++++++++++++++++++++++++++++++++++++++++..+++++++++++++++++++++++++++++++++++++++++++++..+++++++++++++++++++++++++++++++++++++++..++++++++++++++++++++++..+++++++:'[+++++++..+++++++++++++++++++++++++++++++++++++++++++++++++++++++++++",
"++++++++++++++++++++++++++++++++++++..++++++++++++++++++++++++++++++++++..++++++++++++++++++++++++++++++++++..+++++++++++++++++++++++++++++++++++++++++++++..+++++++++++++++++++++++++++++++++++++++++++++++++++..++++++++++++++++++++++++++++++++++++++++++++++++++++++++++..+++++++++++++++++++++++++++++++++++++++++++++..+++++++++++++++++++++++++++++++++++++++..++++++++++++++++++++++..+++++&/:&++++++++..+++++++++++++++++++++++++++++++++++++++++++++++++++++++++++",
"++++++++++++++++++++++++++++++++++++..++++++++++++++++++++++++++++++++++..++++++++++++++++++++++++++++++++++..+++++++++++++++++++++++++++++++++++++++++++++..+++++++++++++++++++++++++++++++++++++++++++++++++++..++++++++++++++++++++++++++++++++++++++++++++++++++++++++++..+++++++++++++++++++++++++++++++++++++++++++++..+++++++++++++++++++++++++++++++++++++++..++++++++++++++++++++++..+++++~]++++++++++..+++++++++++++++++++++++++++++++++++++++++++++++++++++++++++",
"++++++++++++++++++++++++++++++++++++..+++++++++++++>>+++++++++++++++++++..++++++++++++++++++++++++++++++++++..++++++++++++++++++++++++++++++++++++>'+''++++..+++++++++++++++++++++++++++++++++++++++++++++++++++..++++++++++++++++++++++++++++++++++++++++++++++++++++++++++..+++++++++++++++++++++++++++++++++++++++++++++..+++++++++++++++++++++++++++++++++++++++..++++++++++++++++++++++..++++;[+++++++++++..+++++++++++++++++++++++++++++++++++++++++++++++++++++++++++",
"++++++++++++++++++++++++++++++++++++..))+++++++++++%%+++++++++++++++++++..&(++++++++++++++++++++++++++++++++..;)++++++++++++++++++++++++++++++++++%1+1%++++..&(+++++++++++++++++++++++++++++++++++++++++++++++++..&(++++++++++++++++++++++++++++++++++++++++++++++++++++++++..;)+++++++++++++++++++++++++++++++++++++++++++..;)+++++++++++++++++++++++++++++++++++++..;)++++++++++++++++++++..2;++[++++++++++++..&(+++++++++++++++++++++++++++++++++++++++++++++++++++++++++",
"++++++++++++++++++++++++++++++++++++<1*+++++++++++++++++++++++++++++++++..!;++++++++++++++++++++++++++++++++<%]++++++++++++++++++++++++++++++++++++++++++++..!;+++++++++++++++++++++++++++++++++++++++++++++++++..!;++++++++++++++++++++++++++++++++++++++++++++++++++++++++<%]++++++++++++++++++++++++++++++++++++++++++++<1*++++++++++++++++++++++++++++++++++++++<%]+++++++++++++++++++++$1]+++#++++++++++++..!;+++++++++++++++++++++++++++++++++++++++++++++++++++++++++",
"++++++++++++++++++++++++++++++++++++++++++++++++++++++++++++++++++++++++:)+++++++++++++++++++++++++++++++++++++++++++++++++++++++++++++++++++++++++++++++++:)+++++++++++++++++++++++++++++++++++++++++++++++++++:)+++++++++++++++++++++++++++++++++++++++++++++++++++++++++++++++++++++++++++++++++++++++++++++++++++++++++++++++++++++++++++++++++++++++++++++++++++++++++++++++++++++++++++++++})++++++++++++:)+++++++++++++++++++++++++++++++++++++++++++++++++++++++++++",
"++++++++++++++++++++++++++++++++++++++++++++++++++++++++++++++++++++++++++++++++++++++++++++++++++++++++++++++++++++++++++++++++++++++++++++++++++++++++++++++++++++++++++++++++++++++++++++++++++++++++++++++++++++++++++++++++++++++++++++++++++++++++++++++++++++++++++++++++++++++++++++++++++++++++++++++++++++++++++++++++++++++++++++++++++++++++++++++++++++++++++++++++++++++++++++++++++++++++++++++++++++++++++++++++++++++++++++++++++++++++++++++++++++++++++++",
"++++++++++++++++++++++++++++++++++++++++++++++++++++++++++++++++++++++++++++++++++++++++++++++++++++++++++++++++++++++++++++++++++++++++++++++++++++++++++++++++++++++++++++++++++++++++++++++++++++++++++++++++++++++++++++++++++++++++++++++++++++++++++++++++++++++++++++++++++++++++++++++++++++++++++++++++++++++++++++++++++++++++++++++++++++++++++++++++++++++++++++++++++++++++++++++++++++++++++++++++++++++++++++++++++++++++++++++++++++++++++++++++++++++++++++",
"++++++++++++++++++++++++++++++++++++++++++++++++++++++++++++++++++++++++++++++++++++++++++++++++++++++++++++++++++++++++++++++++++++++++++++++++++++++++++++++++++++++++++++++++++++++++++++++++++++++++++++++++++++++++++++++++++++++++++++++++++++++++++++++++++++++++++++++++++++++++++++++++++++++++++++++++++++++++++++++++++++++++++++++++++++++++++++++++++++++++++++++++++++++++++++++++++++++++++++++++++++++++++++++++++++++++++++++++++++++++++++++++++++++++++++",
"++++++++++++++++++++++++++++++++++++++++++++++++++++++++++++++++++++++++++++++++++++++++++++++++++++++++++++++++++++++++++++++++++++++++++++++++++++++++++++++++++++++++++++++++++++++++++++++++++++++++++++++++++++++++++++++++++++++++++++++++++++++++++++++++++++++++++++++++++++++++++++++++++++++++++++++++++++++++++++++++++++++++++++++++++++++++++++++++++++++++++++++++++++++++++++++++++++++++++++++++++++++++++++++++++++++++++++++++++++++++++++++++++++++++++++"};
