/* XPM */
static char * info_banner1_xpm[] = {
"460 35 32 1",
" 	c #FFFFFFFFFFFF",
".	c #E79DE79DE79D",
"X	c #B6DAB6DAB6DA",
"o	c #596559655965",
"O	c #CF3CCF3CCF3C",
"+	c #EFBEEFBEEFBE",
"@	c #C71BC71BC71B",
"#	c #9E799E799E79",
"$	c #000000000000",
"%	c #082008200820",
"&	c #F7DEF7DEF7DE",
"*	c #AEBAAEBAAEBA",
"=	c #104010401040",
"-	c #618561856185",
";	c #A699A699A699",
":	c #8E388A288E38",
">	c #30C230C230C2",
",	c #28A228A228A2",
"<	c #186118611861",
"1	c #DF7DDF7DDF7D",
"2	c #38E338E338E3",
"3	c #208120812081",
"4	c #69A669A669A6",
"5	c #492449244924",
"6	c #514451445144",
"7	c #71C671C671C6",
"8	c #BEFBBEFBBEFB",
"9	c #79E779E779E7",
"0	c #965896589658",
"q	c #410341034103",
"w	c #D75CD75CD75C",
"e	c #861782078617",
"                                                                                                                                                                                                                                                                                                                                                                                                                                                                            ",
"                                                                                                                                                                                                                                                                                                                                                                                                                                                                            ",
"                                                                                                                                                                                                                                                                                                                                                                                                                                                                            ",
"                                                                                                                                                                                                                                                                                                                                                                                                                                            .                               ",
"                                             Xo                                                                                                 O+                                                                                                          O+           O+                                       Xo                                                                                                       @                #                               ",
"                                           @o$%                             &*                                                                  #          *=-                                                                                              #            #                       &*             @o$%             ;=-              ;=-                                         &X                          #$:              +;                               ",
"                                             $%                            &>,                                                                 +;         .<;,                                                                                             +;           +;                      &>,               $%            1=;,             1=;,                                        &23                          .41              :&                               ",
"                                             $%                            56+                                                 >,              7&         7X 8                                    >,             >>                                        7&           7&                      56+               $%            7* 8             7* 8                                        65+                         >> >>            O:          >>                    ",
"                                             $%                           9;                                                   oo             #0          7                                       oo             65                                       #0           #0                      9;                 $%            4                4                                          9#                           65 56           @5           65                    ",
"                                             $%                                                                                             +4-                                                                                                         +4-          +4-                                          $%                                                                                                                   1oq+                                 ",
"                                             $%                                                                                           +7<0                                                                                                        +7<0         +7<0                                           $%                                                                                                                 16<#                                   ",
"                                             $%                                                                                          #=5+                                                                                                        #=5+         #=5+                                            $%                                                                                                                9$o&                                    ",
"       +#5%wo<$<-X5%%o+      @2q             $%wq%=-+  +#5%Oq%=o.  +#5%wo<$<-X5%%6.        1q$$$$$$$$$$$$$$3w+o$$$$$$$$$$<X   ;q%$39+   4$-  .Xw   +#5%wo<$<-X5%%6.        +#5%wo<$<-X5%%o+      @2q       &74.  *o*   $$0          ;q%$39+         4$-  .Xw     4$-  .Xw   +#5%@q%=o.  +#5%O5%%6Xo<$,:           $%wq%=-+  +#5%Oq%=o.           16%%>:  +#5%Oq%=o.  1q$$$$$$$$$$$$$$3w    @2q     +#5%wo<$<-X5%%6.      @2q       5$9  +098    &74.  *o*   $$0             ",
"       O;$$41 @2$$w&9$3+      q$X            $$9+.-$,& 1;$$e++7$<. O;$$9. Oq$$O&e$<.        O$0  O$e     $$     *%e&         o<8 .0=<& *$2  e$$$o  O;$$9. Oq$$O&e$<.       O;$$41 @2$$w&9$3+      q$X      25   7,+    $$          o<8 .0=<&       *$2  e$$$o   *$2  e$$$o  O;$$:++7$<. @;$$9+.4$$O O2$q          $$9+.-$,& 1;$$e++7$<.         #,8 .-$2&1;$$e++7$<.  O$0  O$e     $$       q$X    O;$$9. Oq$$O&e$<.      q$X     #$5  @=$$$o   25   7,+    $$              ",
"         $$     >$-  6$7     8@=,            $$    5$4   $$    -$o   $$     q$6  4$o        6$.  6$1     $$    w$-          0$X    @9  q$@ &8*4%$:   $$     q$6  -$o         $$     >$-  6$7     8@=,     :$@  *$X     $$         0$X    @9        q$@ &8*4%$:  q$@ &8*4%$:   $$    o$o   $$    5$-   >$e         $$    5$4   $$    -$o        8$X    5$4  $$    -$o  6$.  6$1     $$      8@=,      $$     q$6  -$o     8@=,     2$O  ..@7%$; :$@  *$X     $$              ",
"         $$     X$<  @$<     0 e$0           $$    8$<   $$    O$=   $$     @$=  w$=        =$   =$      $$    o$w          ,$&        =$&     .3,   $$     @$=  w$=         $$     X$<  @$<     0 e$0    ,$&  >$&     $$         ,$&              =$&     .3,  =$&     .3,   $$    O$=   $$    8$<   X$3         $$    8$<   $$    O$=        2$&    @$=  $$    O$=  =$   =$      $$      0 e$0     $$     @$=  w$=     0 e$0    %$&      w=6 ,$&  >$&     $$    ww        ",
"         $$     +$$  &$$    #+ &==&          $$    +$$   $$     $$   $$     &$%   $%        $$&  $$+     $$    <$           $$&        $$1      8$   $$     &$%   $%         $$     +$$  &$$    #+ &==&   $$   %$&     $$         $$&              $$1      8$  $$1      8$   $$    &$$   $$    &$$   +$$         $$    +$$   $$     $$        $$&    &$%  $$     $$  $$&  $$+     $$     #+ &==&    $$     &$%   $%    #+ &==&   =$w       :q $$   %$&     $$    ==        ",
"         $$      $<   $<   +;   :$7          $$     $=   $$    &$,   $$     &$>  &$>        <$8  <$*     $$    $$&          3$8        ,$9      &<   $$     &$>  &$>         $$      $<   $<   +;   :$7   =$O  =$@     $$         3$8              ,$9      &<  ,$9      &<   $$    &$,   $$     $<    $<         $$     $=   $$    &$,        =$8    &$2  $$    &$,  <$8  <$*     $$    +;   :$7    $$     &$>  &$>   +;   :$7   5$4       O- =$O  =$@     $$    ;#        ",
"         $$     1$o  1$4 +57    &<%.         $$    .$6   $$    @$0   $$     X$#  8$#        7$6  4$,&    $$    =$@          e$2     +w e$%8     87   $$     X$#  8$0         $$     1$o  1$4 +57    &<%.  o$o  -$2     $$&        e$2     +w       e$%8     87  e$%8     87   $$    8$0   $$    .$o   w$7         $$    .$6   $$    @$0        7$2    @$X  $$    @$0  7$6  4$,&    $$  +57    &<%.   $$     X$#  8$0 +57    &<%.  @$$#      :O o$o  -$2     $$&             ",
"         $$     9$O  :=+ 4$8     #$5w        $$    0$O   $$    25    $$    +36   >5         &,$9&w$$>@ 17$$    6$6        0  5$5w +9o  &2$$608895&   $$    +36   25          $$     9$O  :=+ 4$8     #$5w 1=$4.@$$>*1@4$$e*        5$5w +9o        &2$$608895&  &2$$608895&   $$    2q    $$    0$w   o=+         $$    0$O   $$    25         &2$61 @,:   $$    25   &,$9&w$$>@ 17$$  4$8     #$5w  $$    +36   25  4$8     #$5w  *=$2e*@*9X  1=$4.@$$>*1@4$$e*            ",
"         $$$$$$$$$$$$$$3O:-       3q8      O3$$$$$$$$qw e$$  1oe     $$   ;5:  .4e           +o%%5843%34.$$    O$$#      :;   0>%%28     :>=$=5*    :$$   ;5:  1-e           $$$$$$$$$$$$$$3O:-       3q8  15%%6@43%,7.%6*&         0>%%28           :>=$=<*      :>=$=5*     $$  1oe     $$$$$$$$$$$$$$3O      O3$$$$$$$$qw e$$  1oe           &:,%%5w   e$$  1oe     +o%%5843%34.$$  :-       3q8 :$$   ;5:  1-e   :-       3q8   &#<%5e8     15%%6@43%,7.%6*&            ",
"         $$                                                          $$                                  $$     #$$4O&&@o:                                                   $$                                                                         +7O                   $$                                                                                                   $$                                               ;3e&                                    ",
"         $$                                                          $$                                  $$      O5=$%,4w                                                    $$                                                                        O-&                    $$                                                                                                   $$                                              :$@   :>58                               ",
"         $$                                                          $$                                  $$                                                                  $$                                                                       w2&                     $$                                                                                                   $$                                             &%>   .#7%%                               ",
"         $$                                                          $$                                  $$                                                                  $$                                                                       q;                      $$                                                                                                   $$                                             w$,      @$+                              ",
"         $$                                                          $$                                  $$                                                                  $$                                                                       %;XX                    $$                                                                                                   $$                                              %$8     1>                               ",
"         $$1.                                                        $$1.                                $$O1                                                                $$1.                                                                     2$$w                    $$&+                                                                                                 $$O1                                            ;$=:1 .;qw                               ",
"         %oX                                                         %-8                                 =-@                                                                 %oX                                                                      +#w                     $$41                                                                                                 =-@                                              17,%$,e&                                ",
"                                                                                                                                                                                                                                                                              9.                                                                                                                                                                                            ",
"                                                                                                                                                                                                                                                                                                                                                                                                                                                                            ",
"                                                                                                                                                                                                                                                                                                                                                                                                                                                                            ",
"                                                                                                                                                                                                                                                                                                                                                                                                                                                                            ",
"                                                                                                                                                                                                                                                                                                                                                                                                                                                                            ",
"$$$$$$$$$$$$$$$$$$$$$$$$$$$$$$$$$$$$$$$$$$$$$$$$$$$$$$$$$$$$$$$$$$$$$$$$$$$$$$$$$$$$$$$$$$$$$$$$$$$$$$$$$$$$$$$$$$$$$$$$$$$$$$$$$$$$$$$$$$$$$$$$$$$$$$$$$$$$$$$$$$$$$$$$$$$$$$$$$$$$$$$$$$$$$$$$$$$$$$$$$$$$$$$$$$$$$$$$$$$$$$$$$$$$$$$$$$$$$$$$$$$$$$$$$$$$$$$$$$$$$$$$$$$$$$$$$$$$$$$$$$$$$$$$$$$$$$$$$$$$$$$$$$$$$$$$$$$$$$$$$$$$$$$$$$$$$$$$$$$$$$$$$$$$$$$$$$$$$$$$$$$$$$$$$$$$$$$$$$$$$$$$$$$$$$$$$$$$$$$$$$$$$$$$$$$$$$$$$$$$$$$$$$$$$$$$$$$$$$$$$$$$$$$$$$$$$$$$$$$$",
"$$$$$$$$$$$$$$$$$$$$$$$$$$$$$$$$$$$$$$$$$$$$$$$$$$$$$$$$$$$$$$$$$$$$$$$$$$$$$$$$$$$$$$$$$$$$$$$$$$$$$$$$$$$$$$$$$$$$$$$$$$$$$$$$$$$$$$$$$$$$$$$$$$$$$$$$$$$$$$$$$$$$$$$$$$$$$$$$$$$$$$$$$$$$$$$$$$$$$$$$$$$$$$$$$$$$$$$$$$$$$$$$$$$$$$$$$$$$$$$$$$$$$$$$$$$$$$$$$$$$$$$$$$$$$$$$$$$$$$$$$$$$$$$$$$$$$$$$$$$$$$$$$$$$$$$$$$$$$$$$$$$$$$$$$$$$$$$$$$$$$$$$$$$$$$$$$$$$$$$$$$$$$$$$$$$$$$$$$$$$$$$$$$$$$$$$$$$$$$$$$$$$$$$$$$$$$$$$$$$$$$$$$$$$$$$$$$$$$$$$$$$$$$$$$$$$$$$$$$$$"};
